<svg xmlns="http://www.w3.org/2000/svg" xmlns:xlink="http://www.w3.org/1999/xlink" viewBox="0 0 136 136"><defs><style>.a{fill:none;}.b{fill:#fff;}.c{fill:#333f53;}.d{clip-path:url(#a);}.e{fill:#ffc348;}.f{fill:#8ddcff;}.g{fill:#f6f6fa;}.h{clip-path:url(#b);}.i{fill:#f58535;}</style><clipPath id="a"><circle class="a" cx="68.00022" cy="55.3582" r="47.00007"/></clipPath><clipPath id="b"><rect class="a" x="74.8594" y="68.74603" width="10.84617" height="32.53851" rx="0.97787"/></clipPath></defs><title>certified-finops-solution-08.11.22</title><path class="b" d="M48.82286,135.5q-.17215,0-.3472-.01435a3.85318,3.85318,0,0,1-3.21283-2.26782l-7.61456-16.70977-20.36354,1.26065a3.89774,3.89774,0,0,1-3.41751-6.14828L34.40005,82.74132a1.39083,1.39083,0,0,1,1.91966-.33859L69.69812,105.432a1.38913,1.38913,0,0,1,.35868,1.9254l-18.0278,26.441A3.8455,3.8455,0,0,1,48.82286,135.5ZM38.5158,113.67592a1.38959,1.38959,0,0,1,1.26351.812l8.01055,17.57921a1.11988,1.11988,0,0,0,1.94549.16643l17.25018-25.29995L35.87016,85.46539l-19.7399,27.76385a1.09093,1.09093,0,0,0-.066,1.19369,1.10192,1.10192,0,0,0,1.0483.57389l21.31715-1.319C38.45841,113.67687,38.48806,113.67592,38.5158,113.67592Z"/><path class="b" d="M87.49636,135.11358a4.21589,4.21589,0,0,1-3.51507-1.8661l-17.65191-25.8901a1.38913,1.38913,0,0,1,.35868-1.9254l33.37841-23.02925a1.39067,1.39067,0,0,1,1.91966.33859l20.07659,28.23827a4.2731,4.2731,0,0,1-3.74559,6.74034l-19.57922-1.21187-7.33814,16.10432a4.22506,4.22506,0,0,1-3.52368,2.48494C87.74887,135.10784,87.62166,135.11358,87.49636,135.11358ZM69.40065,106.93366l16.87428,24.749a1.49591,1.49591,0,0,0,2.59781-.2219l7.73413-16.9728a1.386,1.386,0,0,1,1.3496-.81014l20.53187,1.27021a1.44524,1.44524,0,0,0,1.40029-.76615,1.467,1.467,0,0,0-.089-1.5935L100.516,85.46539Z"/><circle class="c" cx="68.00022" cy="55.3582" r="53.47073"/><path class="b" d="M68.00036,110.21631a54.85816,54.85816,0,1,1,54.85816-54.85815A54.92061,54.92061,0,0,1,68.00036,110.21631Zm0-106.94059A52.08244,52.08244,0,1,0,120.0828,55.35816,52.14216,52.14216,0,0,0,68.00036,3.27572Z"/><g class="d"><path class="e" d="M80.35491,60.45378a22.80792,22.80792,0,0,0,2.77619,6.84828l-2.32549,4.6874c-.25828.52.28571.55043,4.4878,4.966.39383.3993.572-.06991,5.21245-2.1716a22.81164,22.81164,0,0,0,6.80746,2.87462l1.67113,4.96215c.18617.551.5913.187,6.68492.33806a.43023.43023,0,0,0,.40882-.28692l1.74243-4.93754a22.80729,22.80729,0,0,0,6.84819-2.7763c4.52585,2.12889,4.7737,2.64748,5.18069,2.24661,4.35217-4.44341,4.80292-4.391,4.55893-4.90087l-2.25778-4.7205a22.804,22.804,0,0,0,2.87462-6.80745l4.96221-1.67118c.55028-.18525.1871-.59116.338-6.68479.00457-.55837-.433-.34722-5.22445-2.15125a22.80394,22.80394,0,0,0-2.7762-6.84827l2.32554-4.68745c.25833-.52072-.28584-.55049-4.48792-4.96609-.39144-.39737-.54853.05941-5.21234,2.17175a22.8023,22.8023,0,0,0-6.80759-2.87469l-1.67105-4.962a.43027.43027,0,0,0-.40462-.29291l-6.28029-.04524a.43031.43031,0,0,0-.40883.287L97.6353,32.98806a22.80736,22.80736,0,0,0-6.84823,2.77624c-4.52584-2.12892-4.77418-2.64785-5.18062-2.2464-4.35059,4.44157-4.80285,4.39035-4.55892,4.90077l2.2577,4.72039a22.80994,22.80994,0,0,0-2.87463,6.80746c-4.70567,1.69473-5.25078,1.5026-5.255,2.0757l-.0452,6.28035C75.12639,58.86391,75.58783,58.65887,80.35491,60.45378Z"/><path class="c" d="M88.68785,46.84358A16.42158,16.42158,0,1,1,94.20976,69.401h0A16.44035,16.44035,0,0,1,88.68785,46.84358Z"/><path class="b" d="M95.66562,67.00039l.00952.01231Z"/><path class="c" d="M60.512,13.99789a1.85515,1.85515,0,0,0-.32854-.0468c-1.89925.16768-3.79932.32833-5.69518.52858-.16613.01755-.38966.275-.44293.46189q-1.56834,5.503-3.0845,11.02078a1.20833,1.20833,0,0,0,.103.8721,19.4407,19.4407,0,0,0,1.633,2.2791,77.47434,77.47434,0,0,0,9.99846,9.2466c.71413.57885,1.44411,1.139,2.18167,1.68776a1.589,1.589,0,0,0,1.39053.42757,1.33443,1.33443,0,0,0,.59885-2.351c-.68593-.7119-1.40742-1.38941-2.10415-2.0911a1.04115,1.04115,0,0,1-.07976-1.45177c.38095-.38726.87732-.34918,1.38108.08658,1.74519,1.50965,3.4886,3.02146,5.245,4.518a1.64217,1.64217,0,0,0,2.29961-.05215,1.4747,1.4747,0,0,0-.25162-2.27377c-1.43964-1.19881-2.90591-2.36562-4.35878-3.54859a1.07267,1.07267,0,0,1-.30642-1.58578c.41589-.48417.914-.47971,1.54333.04q2.8087,2.31936,5.60758,4.65066a1.59216,1.59216,0,0,0,1.81161.36344,1.768,1.768,0,0,0,.56833-2.86329q-.6696-.65094-1.39108-1.24808c-1.28337-1.06153-2.58362-2.10265-3.86811-3.16285a1.03714,1.03714,0,0,1-.24695-1.51454,1.086,1.086,0,0,1,1.50507.00572c1.79615,1.503,3.59518,3.00293,5.37273,4.52779a1.5669,1.5669,0,0,0,2.44855-.20431,1.60276,1.60276,0,0,0-.211-2.39095q-6.07462-4.9031-12.16884-9.78179a1.06042,1.06042,0,0,0-.7483-.14054,15.59422,15.59422,0,0,0-1.87309.42025,1.867,1.867,0,0,0-.77064.4358c-.5302.52329-.97129,1.14317-1.53122,1.6284a12.58873,12.58873,0,0,1-2.2493,1.65615,3.0068,3.0068,0,0,1-4.37412-1.60034,5.80659,5.80659,0,0,1-.40551-1.91635,9.01264,9.01264,0,0,1,2.41467-6.149C60.23851,14.3408,60.35127,14.19894,60.512,13.99789Zm8.15138-1.6486A9.388,9.388,0,0,0,59.956,18.77715a4.62043,4.62043,0,0,0-.124,2.91242,1.07726,1.07726,0,0,0,1.54281.77333,3.57484,3.57484,0,0,0,1.25163-.7157c.89747-.88511,1.71511-1.85059,2.58955-2.76a1.75932,1.75932,0,0,1,.78926-.50246c.95082-.22771,1.93744-.32134,2.87184-.59691a1.59715,1.59715,0,0,1,1.62822.301c3.92809,3.19648,7.87342,6.37183,11.79308,9.57857.60929.49846,1.11151,1.127,1.67216,1.68642a.66057.66057,0,0,0,.37434.22845,8.73313,8.73313,0,0,0,1.23891-.0928c.29083-.04192.39554-.22068.29145-.52922-.14944-.443-.26136-.89854-.39091-1.34827-1.16608-4.04812-2.33961-8.09412-3.48866-12.14706-.12473-.43994-.303-.50025-.69694-.362-.539.1891-1.104.30495-1.64129.49812a1.44224,1.44224,0,0,1-1.19252-.10971c-1.14044-.54754-2.28151-1.09842-3.44886-1.58423A19.79821,19.79821,0,0,0,68.66333,12.34929Zm22.06106-.63683c-.21283.05356-.31425.0767-.41434.10463-2.08548.582-4.16876,1.17205-6.258,1.74009-.392.10657-.47451.25962-.36245.6579.98536,3.50246,1.9478,7.01136,2.91816,10.518.52209,1.88676,1.0511,3.77162,1.5656,5.66044.099.36354.21724.50736.64587.37275,2.04868-.64339,4.10452-1.26593,6.17078-1.85.52824-.14931.57391-.35663.4368-.838-.99215-3.48264-1.95566-6.97344-2.92923-10.46137q-.76156-2.72839-1.53136-5.45446A2.237,2.237,0,0,0,90.72439,11.71246ZM40.36109,28.24807a1.57062,1.57062,0,0,0,.22652.114c2.20148.61978,4.4047,1.23343,6.60454,1.859.37018.10526.477-.06275.56867-.38249q2.14948-7.499,4.31656-14.99288c.14654-.5087.28036-1.02105.43322-1.57973l-7.2474-2.02521Z"/><path class="b" d="M60.512,13.99789c-.16068.20105-.27344.34291-.387.48413a9.01264,9.01264,0,0,0-2.41467,6.149,5.80659,5.80659,0,0,0,.40551,1.91635,3.0068,3.0068,0,0,0,4.37412,1.60034,12.58873,12.58873,0,0,0,2.2493-1.65615c.55993-.48523,1.001-1.10511,1.53122-1.6284a1.867,1.867,0,0,1,.77064-.4358,15.59422,15.59422,0,0,1,1.87309-.42025,1.06042,1.06042,0,0,1,.7483.14054q6.09933,4.87225,12.16884,9.78179a1.60276,1.60276,0,0,1,.211,2.391,1.5669,1.5669,0,0,1-2.44855.20431C77.81623,30.99988,76.0172,29.5,74.22105,27.997a1.086,1.086,0,0,0-1.50507-.00572,1.03714,1.03714,0,0,0,.24695,1.51454c1.28449,1.0602,2.58474,2.10132,3.86811,3.16285q.71961.59523,1.39108,1.24808A1.768,1.768,0,0,1,77.65379,36.78a1.59216,1.59216,0,0,1-1.81161-.36344q-2.8-2.3299-5.60758-4.65066c-.62932-.51968-1.12744-.52414-1.54333-.04a1.07267,1.07267,0,0,0,.30642,1.58578c1.45287,1.183,2.91914,2.34978,4.35878,3.54859a1.4747,1.4747,0,0,1,.25162,2.27377,1.64217,1.64217,0,0,1-2.29961.05215c-1.75637-1.49655-3.49978-3.00836-5.245-4.518-.50376-.43576-1.00013-.47384-1.38108-.08658a1.04115,1.04115,0,0,0,.07976,1.45177c.69673.70169,1.41822,1.3792,2.10415,2.0911a1.33443,1.33443,0,0,1-.59885,2.351A1.589,1.589,0,0,1,64.877,40.0479c-.73756-.54876-1.46754-1.10891-2.18167-1.68776a77.47434,77.47434,0,0,1-9.99846-9.2466,19.4407,19.4407,0,0,1-1.633-2.2791,1.20833,1.20833,0,0,1-.103-.8721q1.512-5.51876,3.0845-11.02078c.05327-.18693.2768-.44434.44293-.46189,1.89586-.20025,3.79593-.3609,5.69518-.52858A1.85515,1.85515,0,0,1,60.512,13.99789Z"/><path class="b" d="M68.66333,12.34929A19.79821,19.79821,0,0,1,75.01608,14.007c1.16735.48581,2.30842,1.03669,3.44886,1.58423a1.44224,1.44224,0,0,0,1.19252.10971c.53732-.19317,1.10226-.309,1.64129-.49812.394-.13822.57221-.07791.69694.362,1.14905,4.05294,2.32258,8.09894,3.48866,12.14706.12955.44973.24147.9053.39091,1.34827.10409.30854-.00062.4873-.29145.52922a8.73313,8.73313,0,0,1-1.23891.0928.66057.66057,0,0,1-.37434-.22845c-.56065-.55944-1.06287-1.188-1.67216-1.68642-3.91966-3.20674-7.865-6.38209-11.79308-9.57857a1.59715,1.59715,0,0,0-1.62822-.301c-.9344.27557-1.921.3692-2.87184.59691a1.75932,1.75932,0,0,0-.78926.50246c-.87444.90945-1.69208,1.87493-2.58955,2.76a3.57484,3.57484,0,0,1-1.25163.7157,1.07726,1.07726,0,0,1-1.54281-.77333,4.62043,4.62043,0,0,1,.124-2.91242A9.388,9.388,0,0,1,68.66333,12.34929Z"/><path class="f" d="M90.72439,11.71246a2.237,2.237,0,0,1,.24181.4501q.77559,2.72442,1.53136,5.45446c.97357,3.48793,1.93708,6.97873,2.92923,10.46137.13711.48132.09144.68864-.4368.838-2.06626.584-4.1221,1.20659-6.17078,1.85-.42863.13461-.54684-.00921-.64587-.37275-.5145-1.88882-1.04351-3.77368-1.5656-5.66044-.97036-3.50669-1.9328-7.01559-2.91816-10.518-.11206-.39828-.02952-.55133.36245-.6579,2.08926-.568,4.17254-1.15813,6.258-1.74009C90.41014,11.78916,90.51156,11.766,90.72439,11.71246Z"/><path class="f" d="M40.36109,28.24807,45.2632,11.24076,52.5106,13.266c-.15286.55868-.28668,1.071-.43322,1.57973q-2.15928,7.49616-4.31656,14.99288c-.09165.31974-.19849.48775-.56867.38249-2.19984-.62553-4.40306-1.23918-6.60454-1.859A1.57062,1.57062,0,0,1,40.36109,28.24807Z"/><path class="f" d="M50.39043,89.26124V99.70107H39.55529V90.01582a.74547.74547,0,0,1,.74481-.74548Z"/><path class="c" d="M105.81082,52.73633H93.0052A1.7834,1.7834,0,0,0,91.228,54.5138v47.92157a1.78565,1.78565,0,0,0,1.77725,1.78839h12.80562a1.78554,1.78554,0,0,0,1.7773-1.78839V54.5138A1.78329,1.78329,0,0,0,105.81082,52.73633Z"/><path class="b" d="M95.11211,55.8838h8.59174a.67535.67535,0,0,1,.67535.67535v43.84168a.67535.67535,0,0,1-.67535.67535H95.11222a.67535.67535,0,0,1-.67535-.67535V56.559A.67524.67524,0,0,1,95.11211,55.8838Z"/><path class="c" d="M88.46812,67.58428v34.85111a1.78561,1.78561,0,0,1-1.77727,1.78835H73.88521a1.795,1.795,0,0,1-1.78835-1.78835V67.58428a1.73744,1.73744,0,0,1,.309-.99344,1.77552,1.77552,0,0,1,1.47936-.78383H86.69085A1.77612,1.77612,0,0,1,88.46812,67.58428Z"/><rect class="g" x="74.8594" y="68.74603" width="10.84617" height="32.53851" rx="0.97787"/><path class="c" d="M69.72342,78.48v23.95535a1.79508,1.79508,0,0,1-1.78835,1.78835H55.12943a1.78548,1.78548,0,0,1-1.77727-1.78835V78.48a1.78549,1.78549,0,0,1,1.77727-1.78835H67.93507A1.79509,1.79509,0,0,1,69.72342,78.48Z"/><rect class="b" x="56.11461" y="79.61155" width="10.84617" height="21.69234" rx="0.95339"/><path class="c" d="M51.10006,86.3434V99.01662a1.795,1.795,0,0,1-1.78835,1.78834H36.51715a1.795,1.795,0,0,1-1.78834-1.78834V86.3434a1.7856,1.7856,0,0,1,1.78834-1.77727l12.79456-.01108a1.80935,1.80935,0,0,1,1.78835,1.78835ZM48.33752,97.00919V88.35183a1.0939,1.0939,0,0,0-1.09491-1.0939l-8.65837.008a1.0939,1.0939,0,0,0-1.09289,1.0939v8.64938a1.09389,1.09389,0,0,0,1.0939,1.0939h8.65837A1.0939,1.0939,0,0,0,48.33752,97.00919Z"/><g class="h"><path class="f" d="M87.5021,71.10305v32.0168H77.02991v-31.036a.98078.98078,0,0,1,.98077-.98077Z"/></g></g><path class="f" d="M44.08082,65.06434a7.89459,7.89459,0,1,0-7.87639-7.66A7.92311,7.92311,0,0,0,44.08082,65.06434Z"/><path class="b" d="M37.69083,48.885A25.89776,25.89776,0,0,0,25.75,57.17256a25.97735,25.97735,0,0,0,11.95273,8.29127A10.56687,10.56687,0,0,1,37.69083,48.885Z"/><path class="b" d="M50.47,48.8823a10.56911,10.56911,0,0,1,.0011,16.575,25.85516,25.85516,0,0,0,11.96049-8.289A25.90493,25.90493,0,0,0,50.47,48.8823Z"/><path class="c" d="M40.08786,55.61078a2.21952,2.21952,0,0,0,2.79739.27005c.91258-.62461,1.10109-1.47087.66047-2.96488a4.24728,4.24728,0,0,1,4.42587,2.31785,4.33528,4.33528,0,0,1-6.57122,5.33142A4.274,4.274,0,0,1,40.08786,55.61078Z"/><path class="b" d="M68.00036,103.32963a47.97148,47.97148,0,1,1,47.97147-47.97147A48.026,48.026,0,0,1,68.00036,103.32963Zm0-93.99937a46.0279,46.0279,0,1,0,46.0279,46.0279A46.08031,46.08031,0,0,0,68.00036,9.33026Z"/><path class="c" d="M67.542,117.33515a5.362,5.362,0,0,1-4.33166-2.16949s-7.57491-9.69319-10.24186-13.112a4.40522,4.40522,0,0,1,.11217-5.66636,4.33892,4.33892,0,0,1,3.30179-1.53221,4.56089,4.56089,0,0,1,2.393.69742l1.394.86162c2.33449,1.442,4.74783,2.93275,7.10671,4.443Q73.90656,94.13407,80.5784,87.45l4.12438-4.14552q1.74112-1.75209,3.48874-3.49767A4.58817,4.58817,0,0,1,91.438,78.42338a4.44284,4.44284,0,0,1,3.40257,7.249L83.30306,100.50516Q77.653,107.76469,72.01019,115.0291a5.4635,5.4635,0,0,1-4.45521,2.306Z"/><path class="i" d="M67.54793,114.83824a2.89291,2.89291,0,0,1-2.37022-1.2103q-5.12133-6.554-10.24084-13.1095A1.92251,1.92251,0,0,1,57.462,97.67651c2.83358,1.75261,5.67416,3.49474,8.47986,5.29118a2.27793,2.27793,0,0,0,3.09158-.33705q8.691-8.81115,17.43953-17.56548,1.73866-1.74855,3.48323-3.49122a1.94095,1.94095,0,0,1,2.91233,2.56647q-3.732,4.80385-7.46908,9.60369-7.68265,9.8754-15.36189,19.75344A3.03015,3.03015,0,0,1,67.54793,114.83824Z"/></svg>