<svg xmlns="http://www.w3.org/2000/svg" xmlns:xlink="http://www.w3.org/1999/xlink" viewBox="0 0 160.01151 160.01151"><defs><style>.a,.c,.l{fill:none;}.b,.d{fill:#fff;}.c{stroke:#fff;stroke-width:1.41732px;}.c,.l{stroke-linecap:round;stroke-linejoin:round;}.d,.e,.l{stroke:#004c74;stroke-width:1.70079px;}.d,.e{stroke-miterlimit:10;}.e,.j{fill:#f6f6fa;}.f{clip-path:url(#a);}.g{fill:#ffc348;}.h{fill:#004c74;}.i{fill:#8ddcff;}.k{clip-path:url(#b);}.m{fill:#f58535;}</style><clipPath id="a"><circle class="a" cx="80.00575" cy="71.08171" r="33.17911"/></clipPath><clipPath id="b"><rect class="a" x="84.84791" y="80.53268" width="7.65672" height="22.97016" rx="0.69032"/></clipPath></defs><title>certified-finops-solution</title><circle class="b" cx="80.00576" cy="80.00527" r="71.90772"/><circle class="c" cx="80.00576" cy="80.00527" r="79.29709"/><path class="b" d="M80.00575,160.006A80.00023,80.00023,0,1,1,160.006,80.00527,80.00023,80.00023,0,0,1,80.00575,160.006Zm0-158.59507A78.59435,78.59435,0,1,0,158.5996,80.00576v-.00049A78.68357,78.68357,0,0,0,80.00575,1.41092Z"/><path class="d" d="M57.08476,90.98061,42.59019,111.36712a1.771,1.771,0,0,0,1.55269,2.7938l15.04841-.93083,5.65517,12.41a1.771,1.771,0,0,0,3.07477.26328l12.72654-18.66559Z"/><path class="d" d="M103.199,90.98061l14.17273,19.93385a2.03618,2.03618,0,0,1-1.7852,3.21217l-14.49406-.89654-5.46,11.98155a2.03618,2.03618,0,0,1-3.53521.30271L79.63594,107.23774Z"/><circle class="e" cx="80.00575" cy="71.08171" r="37.74699"/><circle class="d" cx="80.00575" cy="71.08171" r="33.17911"/><g class="f"><path class="g" d="M89.22581,77.12092a16.10105,16.10105,0,0,0,2.69666,4.46553l-1.1001,3.52624c-.12225.39124.26036.352,3.68062,2.96309.31894.23459.391-.11232,3.39236-2.09333a16.10322,16.10322,0,0,0,5.06523,1.24724l1.71661,3.2735c.191.36341.433.06466,4.69784-.50745a.30373.30373,0,0,0,.25311-.24547l.66582-3.6358a16.10042,16.10042,0,0,0,4.46545-2.69672c3.39177.981,3.6222,1.315,3.86136.99027,2.54008-3.58144,2.86014-3.595,2.63337-3.92333l-2.09872-3.03981a16.09867,16.09867,0,0,0,1.24724-5.06524l3.27353-1.71665c.363-.19031.06471-.43291-.50748-4.69774-.05889-.38976-.34043-.19393-3.88127-.91893a16.09823,16.09823,0,0,0-2.69665-4.46552l1.10012-3.52628c.1222-.39173-.26046-.352-3.68071-2.96312-.31706-.2335-.3758.1024-3.39226,2.09342a16.09719,16.09719,0,0,0-5.06534-1.24727l-1.71654-3.27343a.30375.30375,0,0,0-.31463-.15922l-4.38321.66661a.30375.30375,0,0,0-.2531.24553l-.66583,3.63574a16.10063,16.10063,0,0,0-4.46549,2.69668c-3.39175-.981-3.62257-1.31517-3.86128-.99014-2.53919,3.58-2.86016,3.59456-2.63337,3.92327l2.09865,3.03975a16.10228,16.10228,0,0,0-1.24725,5.06524c-3.09207,1.70455-3.49344,1.63121-3.43268,2.03121l.66664,4.38324C85.40412,76.5938,85.703,76.39957,89.22581,77.12092Z"/><path class="b" d="M93.522,66.70652A11.59261,11.59261,0,1,1,99.87906,81.8181h0A11.60585,11.60585,0,0,1,93.522,66.70652Z"/><path class="b" d="M100.62712,79.98276l.008.00752Z"/><path class="h" d="M94.62536,53.896c-.53555.08493-1.03453.15118-1.52615.25293-.09759.0202-.20345.163-.24381.27211a3.15764,3.15764,0,0,1-2.43008,2.25757c-.31515.05887-.34852.27033-.38353.49768a3.12776,3.12776,0,0,1-.76065,1.56716,2.6427,2.6427,0,0,1-2.587.99985c-.3131-.05331-.44443.04711-.56122.349-.78446,2.028-2.95336,2.47878-4.70034.99372-.15263-.12975-.30591-.25872-.45385-.3838a9.97057,9.97057,0,0,1-.62344,1.05192,2.00681,2.00681,0,0,1-1.60965.81726,3.65963,3.65963,0,0,1-2.55326-.90394,75.27574,75.27574,0,0,1-8.45571-7.53454c-.53228-.56924-1.0149-1.18493-1.52-1.77955-.0861-.10136-.17011-.20449-.32423-.39-.22662.78564-.41926,1.48789-.63309,2.18363a.85983.85983,0,0,1-1.116.62651c-.15976-.03776-.31868-.07975-.4765-.125q-3.15592-.90383-6.31081-1.8112c-.83062-.24069-.97194-.51636-.73378-1.366q2.03307-7.25287,4.068-14.50523c.198-.70569.5625-.88235,1.36041-.65511q1.67791.47787,3.3545.96042c1.09195.31219,2.19033.604,3.2721.94814a3.44514,3.44514,0,0,1,.74482.513.63642.63642,0,0,0,.33143.14608q3.11437-.17886,6.22725-.3834a1.01175,1.01175,0,0,0,.43008-.109,8.73026,8.73026,0,0,1,7.11351-.576,28.299,28.299,0,0,1,4.9537,1.96541.97079.97079,0,0,0,.89361.06116,4.42772,4.42772,0,0,1,.66569-.20792.75715.75715,0,0,0,.55474-.46713,1.078,1.078,0,0,1,.621-.46532c.97935-.30557,1.97558-.5565,2.96055-.84475.90384-.2645,1.79969-.55618,2.702-.826q.77856-.23282,1.56688-.43264c.44142-.11235.73058.11984.87185.63955.51272,1.88633,1.01793,3.7749,1.55436,5.65453.83366,2.92114,1.69631,5.834,2.52911,8.75539a1.92708,1.92708,0,0,1,.05569.96659.89855.89855,0,0,1-.54807.509c-1.506.45356-3.02435.86608-4.53893,1.29111-.79026.22178-1.58126.441-2.37137.66332-.71882.20229-1.02057.02776-1.21176-.69669C94.739,54.20756,94.67482,54.04457,94.62536,53.896ZM74.09578,40.16075a1.46305,1.46305,0,0,0-.25929-.03694c-1.49895.13234-2.99854.25912-4.49481.41717-.13112.01385-.30754.217-.34958.36454q-1.23778,4.34316-2.43437,8.69793a.95357.95357,0,0,0,.0813.68829,15.343,15.343,0,0,0,1.28882,1.79874,61.14452,61.14452,0,0,0,7.89109,7.2977c.56361.45685,1.13974.89893,1.72185,1.332a1.254,1.254,0,0,0,1.09744.33745,1.05317,1.05317,0,0,0,.47263-1.85546c-.54135-.56186-1.11078-1.09657-1.66066-1.65036a.82171.82171,0,0,1-.063-1.14578c.30066-.30564.69241-.27559,1.09.06833,1.37736,1.19146,2.75331,2.38463,4.1395,3.56575a1.296,1.296,0,0,0,1.81492-.04116,1.16389,1.16389,0,0,0-.19858-1.79453c-1.13621-.94614-2.29344-1.867-3.44009-2.80065a.84659.84659,0,0,1-.24184-1.25155c.32823-.38212.72136-.3786,1.218.03154q2.21672,1.83052,4.42567,3.67045a1.25658,1.25658,0,0,0,1.42978.28684,1.39535,1.39535,0,0,0,.44854-2.2598q-.52846-.51373-1.09788-.985c-1.01288-.8378-2.03907-1.65948-3.05283-2.49622a.81853.81853,0,0,1-.1949-1.19532.85711.85711,0,0,1,1.18785.00452c1.41758,1.18624,2.83743,2.37,4.24032,3.57346a1.23665,1.23665,0,0,0,1.93247-.16124,1.26493,1.26493,0,0,0-.16656-1.887q-4.79427-3.86967-9.604-7.72009a.83688.83688,0,0,0-.59059-.11092,12.30721,12.30721,0,0,0-1.47829.33167,1.47347,1.47347,0,0,0-.60822.34395c-.41844.413-.76656.90223-1.20848,1.28518a9.93544,9.93544,0,0,1-1.77522,1.30708,2.37305,2.37305,0,0,1-3.45219-1.263,4.58289,4.58289,0,0,1-.32-1.51244,7.11307,7.11307,0,0,1,1.90573-4.853C73.88,40.43138,73.969,40.31942,74.09578,40.16075Zm6.43332-1.30113A7.40926,7.40926,0,0,0,73.657,43.93268a3.6466,3.6466,0,0,0-.09786,2.29857.8502.8502,0,0,0,1.21763.61034,2.82132,2.82132,0,0,0,.98783-.56485c.70831-.69856,1.35362-1.46055,2.04375-2.17831a1.38857,1.38857,0,0,1,.62291-.39656c.75042-.17971,1.52909-.25361,2.26654-.4711a1.26055,1.26055,0,0,1,1.285.23757c3.10017,2.52276,6.21395,5.02884,9.30746,7.5597.48087.3934.87724.88945,1.31972,1.331a.52131.52131,0,0,0,.29544.18031,6.89284,6.89284,0,0,0,.97779-.07325c.22952-.03308.31217-.17416.23-.41767-.118-.3496-.20627-.70916-.30852-1.0641-.92031-3.19489-1.84649-6.38812-2.75336-9.58683-.09844-.34721-.2391-.39481-.55-.28573-.42542.14925-.87129.24068-1.29536.39313a1.13823,1.13823,0,0,1-.94117-.08658c-.90008-.43214-1.80064-.86691-2.722-1.25033A15.62545,15.62545,0,0,0,80.5291,38.85962ZM97.94037,38.357c-.168.04228-.248.06054-.327.08258-1.64593.4593-3.29011.925-4.939,1.37333-.30936.08411-.3745.2049-.28606.51924.77768,2.76425,1.53727,5.53358,2.3031,8.30116.41205,1.48909.82956,2.97668,1.23562,4.4674.07816.28692.17146.40043.50974.29419,1.61688-.50779,3.23941-.99912,4.87018-1.46007.41689-.11784.45294-.28146.34473-.66134-.783-2.7486-1.54347-5.50364-2.31184-8.25643q-.60105-2.15333-1.2086-4.30482A1.76562,1.76562,0,0,0,97.94037,38.357ZM58.19211,51.40742a1.23965,1.23965,0,0,0,.17877.09c1.73748.48915,3.47633.97346,5.21251,1.46715.29215.08307.37648-.04953.44881-.30188q1.69644-5.9184,3.40676-11.83284c.11565-.40148.22127-.80585.34191-1.24677L62.061,37.98473Z"/><path class="b" d="M74.09578,40.16075c-.12681.15867-.21581.27063-.30544.38208a7.11307,7.11307,0,0,0-1.90573,4.853,4.58289,4.58289,0,0,0,.32,1.51244,2.37305,2.37305,0,0,0,3.45219,1.263,9.93544,9.93544,0,0,0,1.77522-1.30708c.44192-.383.79-.87219,1.20848-1.28518a1.47347,1.47347,0,0,1,.60822-.34395,12.30721,12.30721,0,0,1,1.47829-.33167.83688.83688,0,0,1,.59059.11092q4.81377,3.84532,9.604,7.72009a1.26493,1.26493,0,0,1,.16656,1.887,1.23665,1.23665,0,0,1-1.93247.16124c-1.40289-1.20346-2.82274-2.38722-4.24032-3.57346a.85711.85711,0,0,0-1.18785-.00452A.81853.81853,0,0,0,83.92248,52.4c1.01376.83674,2.04,1.65842,3.05283,2.49622q.56793.46977,1.09788.985a1.39535,1.39535,0,0,1-.44854,2.2598,1.25658,1.25658,0,0,1-1.42978-.28684Q83.985,56.01541,81.7692,54.18379c-.49669-.41014-.88982-.41366-1.218-.03154A.84659.84659,0,0,0,80.793,55.4038c1.14665.93363,2.30388,1.85451,3.44009,2.80065a1.16389,1.16389,0,0,1,.19858,1.79453,1.296,1.296,0,0,1-1.81492.04116c-1.38619-1.18112-2.76214-2.37429-4.1395-3.56575-.39758-.34392-.78933-.374-1.09-.06833a.82171.82171,0,0,0,.063,1.14578c.54988.55379,1.11931,1.0885,1.66066,1.65036a1.05317,1.05317,0,0,1-.47263,1.85546,1.254,1.254,0,0,1-1.09744-.33745c-.58211-.4331-1.15824-.87518-1.72185-1.332a61.14452,61.14452,0,0,1-7.89109-7.2977A15.343,15.343,0,0,1,66.639,50.29174a.95357.95357,0,0,1-.0813-.68829q1.19328-4.35557,2.43437-8.69793c.042-.14753.21846-.35069.34958-.36454,1.49627-.158,2.99586-.28483,4.49481-.41717A1.46305,1.46305,0,0,1,74.09578,40.16075Z"/><path class="b" d="M80.5291,38.85962A15.62545,15.62545,0,0,1,85.54289,40.168c.92131.38342,1.82187.81819,2.722,1.25033a1.13823,1.13823,0,0,0,.94117.08658c.42407-.15245.86994-.24388,1.29536-.39313.31094-.10908.4516-.06148.55.28573.90687,3.19871,1.83305,6.39194,2.75336,9.58683.10225.35494.19057.7145.30852,1.0641.08215.24351-.0005.38459-.23.41767a6.89284,6.89284,0,0,1-.97779.07325A.52131.52131,0,0,1,92.61,52.359c-.44248-.44152-.83885-.93757-1.31972-1.331-3.09351-2.53086-6.20729-5.03694-9.30746-7.5597a1.26055,1.26055,0,0,0-1.285-.23757c-.73745.21749-1.51612.29139-2.26654.4711a1.38857,1.38857,0,0,0-.62291.39656c-.69013.71776-1.33544,1.47975-2.04375,2.17831a2.82132,2.82132,0,0,1-.98783.56485.8502.8502,0,0,1-1.21763-.61034,3.6466,3.6466,0,0,1,.09786-2.29857A7.40926,7.40926,0,0,1,80.5291,38.85962Z"/><path class="i" d="M97.94037,38.357a1.76562,1.76562,0,0,1,.19084.35524q.61212,2.15019,1.2086,4.30482c.76837,2.75279,1.5288,5.50783,2.31184,8.25643.10821.37988.07216.5435-.34473.66134-1.63077.46095-3.2533.95228-4.87018,1.46007-.33828.10624-.43158-.00727-.50974-.29419-.40606-1.49072-.82357-2.97831-1.23562-4.4674-.76583-2.76758-1.52542-5.53691-2.3031-8.30116-.08844-.31434-.0233-.43513.28606-.51924,1.64891-.44831,3.29309-.914,4.939-1.37333C97.69235,38.41755,97.77239,38.39929,97.94037,38.357Z"/><path class="i" d="M58.19211,51.40742,62.061,37.98473l5.71987,1.59836c-.12064.44092-.22626.84529-.34191,1.24677Q65.7348,46.74606,64.0322,52.6627c-.07233.25235-.15666.38495-.44881.30188-1.73618-.49369-3.475-.978-5.21251-1.46715A1.23965,1.23965,0,0,1,58.19211,51.40742Z"/><path class="i" d="M67.57435,97.42857v7.36988H59.92541V97.96126a.52626.52626,0,0,1,.52579-.52626Z"/><path class="h" d="M106.69768,69.23084h-9.04a1.259,1.259,0,0,0-1.25463,1.25477v33.82964a1.26056,1.26056,0,0,0,1.25463,1.26249h9.04a1.26049,1.26049,0,0,0,1.25466-1.26249V70.48561A1.25889,1.25889,0,0,0,106.69768,69.23084Z"/><path class="b" d="M99.14506,71.45275h6.06523a.47675.47675,0,0,1,.47675.47675V102.879a.47675.47675,0,0,1-.47675.47675H99.14514a.47675.47675,0,0,1-.47675-.47675V71.92943A.47668.47668,0,0,1,99.14506,71.45275Z"/><path class="h" d="M94.45481,79.71256v24.6027a1.26052,1.26052,0,0,1-1.25464,1.26246h-9.04a1.26712,1.26712,0,0,1-1.26246-1.26246V79.71256a1.22652,1.22652,0,0,1,.21812-.70131,1.25341,1.25341,0,0,1,1.04434-.55333h9.04A1.25383,1.25383,0,0,1,94.45481,79.71256Z"/><rect class="j" x="84.84791" y="80.53268" width="7.65672" height="22.97016" rx="0.69032"/><path class="h" d="M81.22222,87.40429v16.911a1.2672,1.2672,0,0,1-1.26246,1.26246h-9.04a1.26044,1.26044,0,0,1-1.25464-1.26246v-16.911a1.26045,1.26045,0,0,1,1.25464-1.26247h9.04A1.26721,1.26721,0,0,1,81.22222,87.40429Z"/><rect class="b" x="71.61526" y="88.20305" width="7.65672" height="15.31344" rx="0.67304"/><path class="h" d="M68.0753,95.36877v8.94649a1.26713,1.26713,0,0,1-1.26246,1.26246H57.78068a1.26712,1.26712,0,0,1-1.26246-1.26246V95.36877a1.26052,1.26052,0,0,1,1.26246-1.25464l9.03216-.00783a1.2773,1.2773,0,0,1,1.26246,1.26247Zm-1.95018,7.52938V96.78659a.77222.77222,0,0,0-.77294-.77222L59.23991,96.02a.77222.77222,0,0,0-.77151.77222v6.10593a.77222.77222,0,0,0,.77222.77222h6.11227A.77222.77222,0,0,0,66.12512,102.89815Z"/><g class="k"><path class="i" d="M93.77286,82.19659v22.60186H86.38015V82.88895a.69236.69236,0,0,1,.69237-.69236Z"/></g></g><path class="h" d="M65.00525,79.67731a15.23491,15.23491,0,0,1-8.20159-2.34668,20.209,20.209,0,0,1-5.68475-5.2279c-.09893-.132-.16607-.23093-.03595-.40338a19.24078,19.24078,0,0,1,8.36636-6.58344A14.25514,14.25514,0,0,1,71.61,65.78432a19.719,19.719,0,0,1,6.84132,5.873c.09919.132.16573.231.03574.40335a19.47417,19.47417,0,0,1-8.38829,6.59839A13.65406,13.65406,0,0,1,65.00525,79.67731Z"/><path class="i" d="M64.77864,76.92305a5.04344,5.04344,0,1,0-5.0318-4.89355A5.06164,5.06164,0,0,0,64.77864,76.92305Z"/><path class="j" d="M60.69642,66.587a16.54465,16.54465,0,0,0-7.62836,5.29446A16.59549,16.59549,0,0,0,60.704,77.17826,6.75061,6.75061,0,0,1,60.69642,66.587Z"/><path class="j" d="M68.86036,66.58521a6.752,6.752,0,0,1,.0007,10.58891A16.51745,16.51745,0,0,0,76.502,71.87871,16.54927,16.54927,0,0,0,68.86036,66.58521Z"/><path class="h" d="M62.22776,70.88368a1.41793,1.41793,0,0,0,1.7871.17252c.583-.399.70343-.93966.42194-1.8941a2.71335,2.71335,0,0,1,2.82745,1.48074,2.76958,2.76958,0,0,1-4.198,3.406A2.73042,2.73042,0,0,1,62.22776,70.88368Z"/><circle class="l" cx="80.00575" cy="71.08171" r="33.17911"/><path class="j" d="M95.65492,97.84165a7.48828,7.48828,0,0,0-5.44408-2.52233,6.81022,6.81022,0,0,0-4.56736,1.80514c-.67108.59506-1.30291,1.22689-1.8581,1.78145l-.09222.0916c-.26856.26731-.53649.53462-.80754.79571-.63.6069-1.88926,1.81448-2.9099,2.79275-.06543-.06168-.13086-.12275-.19628-.18443a7.19631,7.19631,0,0,0-4.91381-2.07619,7.4084,7.4084,0,0,0-5.33191,2.47c-2.8638,2.95414-2.78778,6.93391.19,9.903,1.44561,1.44187,3.04886,3.01334,5.044,4.94621a6.99389,6.99389,0,0,0,10.437.03178c3.3629-3.2389,6.75072-6.55071,10.35725-10.12484A6.65435,6.65435,0,0,0,95.65492,97.84165Z"/><path class="m" d="M94.03427,99.38393a5.31678,5.31678,0,0,0-3.82889-1.83142,4.61755,4.61755,0,0,0-3.08512,1.24191c-.616.54726-1.20015,1.1299-1.76461,1.69387-.30753.30654-.61457.61309-.92652.91374-1.16183,1.1191-4.4636,4.28183-4.4636,4.28183l-.10218-.09923c-.55758-.54432-1.07832-1.05228-1.61035-1.54747a5.011,5.011,0,0,0-3.39314-1.4787,5.24126,5.24126,0,0,0-3.72867,1.79114c-2.0073,2.07116-1.94442,4.665.16408,6.76761q2.49,2.48333,5.02167,4.9244a4.78628,4.78628,0,0,0,7.33354.02653c3.34746-3.22464,6.72782-6.52886,10.33417-10.10229A4.41653,4.41653,0,0,0,94.03427,99.38393ZM91.958,103.53116a8.69151,8.69151,0,0,1-.72682.76815q-4.83585,4.71168-9.684,9.41041a13.09808,13.09808,0,0,1-1.49786,1.08483,8.20214,8.20214,0,0,1-1.31338-.81746q-2.60087-2.45118-5.14326-4.96413c-1.17583-1.16816-.82139-2.60553.73272-3.2115a1.60361,1.60361,0,0,1,1.79531.49673,29.90389,29.90389,0,0,1,2.35179,2.32606,1.9378,1.9378,0,0,0,3.07345-.00191c2.17481-2.25366,4.45476-4.4063,6.69294-6.599.252-.247.49667-.50391.76637-.73056a1.87922,1.87922,0,0,1,3.11533.74524A1.37011,1.37011,0,0,1,91.958,103.53116Z"/></svg>