<svg xmlns="http://www.w3.org/2000/svg" viewBox="0 0 160.01151 160.01151"><defs><style>.a{fill:#fff;}.b,.c{fill:none;stroke-linecap:round;stroke-linejoin:round;}.b{stroke:#fff;stroke-width:1.41732px;}.c{stroke:#f58535;stroke-width:1.13386px;}.d{fill:#f58535;}.e{fill:#004c74;}.f{fill:#8ddcff;}</style></defs><title>cost-anomaly-detection</title><circle class="a" cx="80.00576" cy="80.00576" r="71.90772"/><circle class="b" cx="80.00576" cy="80.00576" r="79.29709"/><path class="a" d="M80.00575,160.00648A80.00023,80.00023,0,1,1,160.006,80.00577,80.00022,80.00022,0,0,1,80.00575,160.00648Zm0-158.59507A78.59435,78.59435,0,1,0,158.5996,80.00626v-.0005A78.68358,78.68358,0,0,0,80.00575,1.41141Z"/><polyline class="c" points="25.225 80.738 34.542 72.923 40.2 87.356 61.714 72.804 82.038 84.022 104.739 54.494 113.585 63.721 122.667 55.361"/><polygon class="d" points="123.167 60.607 121.636 56.31 117.48 54.428 127.647 50.776 123.167 60.607"/><path class="e" d="M74.77,40.67914c.96836.10235,1.93822.19218,2.9048.30918a30.60028,30.60028,0,0,1,12.23831,4.2875,31.10119,31.10119,0,0,1,12.43549,14.1061,29.90409,29.90409,0,0,1,2.5283,9.61014,32.21066,32.21066,0,0,1-.051,7.15288,31.13584,31.13584,0,0,1-4.26546,12.32382c-.60334.99354-1.28169,1.94161-1.988,3.00446l2.0925,1.71187-.15987.1884c.29736-.2739.57976-.56652.89519-.81777a1.462,1.462,0,0,1,1.93555-.09914,4.50746,4.50746,0,0,1,.75214.61422q9.56595,9.54645,19.12468,19.10011a7.18544,7.18544,0,0,1,2.33722,4.69116,6.5,6.5,0,0,1-2.45228,5.82229,6.60675,6.60675,0,0,1-7.74695.65762,7.61291,7.61291,0,0,1-1.73912-1.32757q-9.69593-9.64734-19.35939-19.32727c-1.09469-1.09464-1.09542-1.901-.03582-2.99357.15094-.15564.299-.31412.41841-.43981l-1.94333-1.929c-.84025.56033-1.70431,1.16232-2.59337,1.72486a30.37538,30.37538,0,0,1-11.38478,4.29014,31.68376,31.68376,0,0,1-9.65532.09534A31.406,31.406,0,0,1,49.8355,93.14957a31.6103,31.6103,0,0,1-7.79658-23.41349A31.5307,31.5307,0,0,1,54.98515,46.65986a32.16005,32.16005,0,0,1,12.49364-5.42367c1.13667-.23535,2.3134-.27666,3.4712-.41168.34815-.0406.69452-.09648,1.0417-.14536Zm26.95123,31.553a27.61608,27.61608,0,0,0-8.57786-20.22964,27.33566,27.33566,0,0,0-20.514-7.98566,28.14962,28.14962,0,0,0-27.36462,28.922,27.17452,27.17452,0,0,0,9.28062,20.177,27.50824,27.50824,0,0,0,21.01617,7.25884A28.20991,28.20991,0,0,0,101.72127,72.23211Zm-4.193,28.94857c.15071.16112.31137.34333.48286.51472q9.01189,9.00632,18.02682,18.0096a5.11794,5.11794,0,0,0,.60447.54593,3.26969,3.26969,0,0,0,3.584.37721,3.475,3.475,0,0,0,2.06133-3.1467,3.77281,3.77281,0,0,0-1.35147-2.84012q-9.02038-8.99755-18.03007-18.00582c-.14946-.14926-.31726-.28019-.43351-.382C100.825,97.89545,99.21,99.50483,97.5283,101.18068ZM98.05171,95.82l-1.63607-1.701-1.02051.98337,1.65367,1.66489Z"/><path class="f" d="M102.488,72.23232a28.976,28.976,0,0,1-26.87014,28.90674,28.25523,28.25523,0,0,1-21.5869-7.456,27.91248,27.91248,0,0,1-9.53265-20.72491A28.91405,28.91405,0,0,1,72.606,43.25079a28.078,28.078,0,0,1,21.07114,8.20252A28.366,28.366,0,0,1,102.488,72.23232ZM73.34512,97.0581A24.83647,24.83647,0,0,0,98.3312,72.40145,24.87654,24.87654,0,0,0,73.57973,47.38831a23.977,23.977,0,0,0-17.61911,7.25411A24.27637,24.27637,0,0,0,48.74954,74.334,24.82094,24.82094,0,0,0,73.34512,97.0581Z"/><path class="f" d="M97.5283,101.18068c1.6817-1.67585,3.2967-3.28523,4.94441-4.92719.11625.10182.284.23275.43351.382q9.01526,9.00269,18.03007,18.00582a3.77281,3.77281,0,0,1,1.35147,2.84012,3.475,3.475,0,0,1-2.06133,3.1467,3.26969,3.26969,0,0,1-3.584-.37721,5.11794,5.11794,0,0,1-.60447-.54593q-9.0153-9.00292-18.02682-18.0096C97.83967,101.524,97.679,101.3418,97.5283,101.18068Z"/><path class="a" d="M98.05171,95.82l-1.00291.94726L95.39513,95.1024l1.02051-.98337Z"/><path class="a" d="M73.34018,97.84736A25.60976,25.60976,0,0,1,47.963,74.40108,25.04783,25.04783,0,0,1,55.4032,54.08371a25.58842,25.58842,0,0,1,36.4823.31973,24.80882,24.80882,0,0,1,7.23483,18.00368A25.6258,25.6258,0,0,1,73.34018,97.84736Zm.20538-47.07057A21.45106,21.45106,0,1,0,94.946,72.11159,21.43411,21.43411,0,0,0,73.54556,50.77679Z"/><path class="a" d="M73.54556,50.77679A21.45106,21.45106,0,1,1,52.0345,72.26238,21.37918,21.37918,0,0,1,73.54556,50.77679Z"/><path class="d" d="M71.25916,58.5459,59.7889,78.413a2.58793,2.58793,0,0,0,2.24122,3.88189H84.97064A2.58793,2.58793,0,0,0,87.21185,78.413L75.74159,58.5459A2.58793,2.58793,0,0,0,71.25916,58.5459Z"/><path class="a" d="M70.72366,74.20378a2.32719,2.32719,0,0,1,.73579-1.72183,2.39969,2.39969,0,0,1,1.73652-.72111A2.36764,2.36764,0,0,1,74.41,72.092a2.46412,2.46412,0,0,1,.89769.8978,2.36638,2.36638,0,0,1,.33107,1.214,2.39888,2.39888,0,0,1-.72111,1.73663,2.32729,2.32729,0,0,1-1.72172.73569,2.48743,2.48743,0,0,1-2.47231-2.47232Zm4.85628-16.18754v9.72715a2.62778,2.62778,0,0,1-.5813,1.7512,2.00745,2.00745,0,0,1-1.62609.69174,1.98581,1.98581,0,0,1-1.604-.69892,2.61379,2.61379,0,0,1-.58871-1.744V58.01624a2.63559,2.63559,0,0,1,.58131-1.744,1.98226,1.98226,0,0,1,1.6114-.69891,2.00453,2.00453,0,0,1,1.6188.69891A2.61626,2.61626,0,0,1,75.57994,58.01624Z"/><circle class="d" cx="25.22547" cy="80.73762" r="2.26061"/><circle class="d" cx="34.54167" cy="73.76179" r="2.26061"/><circle class="d" cx="104.74882" cy="55.5733" r="2.26061"/><circle class="d" cx="113.87637" cy="62.32128" r="2.26061"/><circle class="d" cx="40.55582" cy="86.58802" r="2.26061"/></svg>