<svg xmlns="http://www.w3.org/2000/svg" xmlns:xlink="http://www.w3.org/1999/xlink" viewBox="0 0 160.01151 160.01151"><defs><style>.a{mask:url(#a);filter:url(#f);}.b{mix-blend-mode:multiply;fill:url(#c);}.c,.e,.l{fill:none;}.d{fill:#fff;}.e{stroke:#fff;stroke-width:1.41732px;}.e,.k,.l{stroke-linecap:round;stroke-linejoin:round;}.f{fill:#004c74;}.g{fill:#ffc148;}.h{clip-path:url(#d);}.i{mask:url(#e);}.j{fill:#4ab4ee;}.k{fill:#f6f6fa;stroke:#004c74;}.k,.l{stroke-width:1.70079px;}.l{stroke:#f58535;}.m{filter:url(#b);}</style><filter id="b" x="75.93872" y="-8272" width="2.08326" height="32766" filterUnits="userSpaceOnUse" color-interpolation-filters="sRGB"><feFlood flood-color="#fff" result="bg"/><feBlend in="SourceGraphic" in2="bg"/></filter><mask id="a" x="75.93872" y="-8272" width="2.08326" height="32766" maskUnits="userSpaceOnUse"><g class="m"/></mask><linearGradient id="c" x1="76.98035" y1="63.38562" x2="76.98035" y2="78.24028" gradientTransform="translate(10.08326 -9.06516) rotate(7.21044)" gradientUnits="userSpaceOnUse"><stop offset="0.00777"/><stop offset="1" stop-color="#fff"/></linearGradient><clipPath id="d"><path class="c" d="M92.32216,59.09847v.044A8.99474,8.99474,0,0,1,91.284,63.32979s-3.69248,7.30313-4.18585,14.21384c.0162,3.23007-3.05569,5.86242-6.86242,5.8815h-.12014V48.80261C86.83454,48.79248,92.29412,53.39425,92.32216,59.09847Z"/></clipPath><filter id="f" x="75.93872" y="68.75622" width="2.08326" height="13.45861" filterUnits="userSpaceOnUse" color-interpolation-filters="sRGB"><feFlood flood-color="#fff" result="bg"/><feBlend in="SourceGraphic" in2="bg"/></filter><mask id="e" x="75.93872" y="68.75622" width="2.08326" height="13.45861" maskUnits="userSpaceOnUse"><g class="a"><rect class="b" x="76.78585" y="68.7272" width="0.389" height="13.51671" transform="translate(-8.86572 10.25906) rotate(-7.21044)"/></g></mask></defs><title>finops-readiness-maturity-assessment</title><circle class="d" cx="80.00576" cy="80.00576" r="71.90772"/><circle class="e" cx="80.00576" cy="80.00576" r="79.29709"/><path class="d" d="M80.00575,160.00648A80.00023,80.00023,0,1,1,160.006,80.00577,80.00022,80.00022,0,0,1,80.00575,160.00648Zm0-158.59507A78.59435,78.59435,0,1,0,158.5996,80.00626v-.0005A78.68358,78.68358,0,0,0,80.00575,1.41141Z"/><path class="f" d="M62.00058,100.85432a33.82024,33.82024,0,0,0,10.1081,4.22988l2.50541,7.3433c.27765.815.87778.27411,9.91435.46242.83162.00247.52375-.67507,3.15788-7.75475a33.82536,33.82536,0,0,0,10.13546-4.16355l6.9686,3.42328c.77443.37946.81443-.42708,7.33744-6.68368a.638.638,0,0,0,.12495-.73l-3.37767-6.9908a33.81892,33.81892,0,0,0,4.22969-10.10811c6.96763-2.54068,7.77236-2.26,7.77543-3.107-.13195-9.22182.39394-9.6416-.39755-9.91723l-7.32691-2.55337a33.8148,33.8148,0,0,0-4.16354-10.13547l3.42328-6.9687c.37971-.77272-.42687-.81434-6.68361-7.33723-.583-.588-.81766.09311-7.72078,3.2527A33.81443,33.81443,0,0,0,87.903,38.88611l-2.50541-7.3434c-.27834-.81575-.878-.274-9.91454-.46235-.82709-.003-.51034.63945-3.1576,7.7548A33.81171,33.81171,0,0,0,62.1898,42.99877l-6.96841-3.42325a.638.638,0,0,0-.73091.12L47.88386,46.2591a.63809.63809,0,0,0-.12485.73009l3.37757,6.99069A33.81926,33.81926,0,0,0,46.9068,64.088c-6.96764,2.54063-7.77325,2.26009-7.77515,3.10717.13167,9.21824-.39457,9.64081.39747,9.91711l7.32672,2.55336a33.82272,33.82272,0,0,0,4.16353,10.13546c-3.13057,6.72328-3.90211,7.09641-3.30326,7.69941l6.56368,6.60663C54.86649,104.69759,55.13258,103.99773,62.00058,100.85432Z"/><circle class="d" cx="80.00574" cy="71.98474" r="30.83119"/><path class="g" d="M92.32216,59.09847v.044A8.99474,8.99474,0,0,1,91.284,63.32979s-3.69248,7.30313-4.18585,14.21384c.0162,3.23007-3.05569,5.86242-6.86242,5.8815h-.12014V48.80261C86.83454,48.79248,92.29412,53.39425,92.32216,59.09847Z"/><g class="h"><polygon class="d" points="83.35 70.829 81.884 69.377 80.457 70.819 79.04 69.416 77.662 70.809 76.125 69.288 76.313 69.098 77.66 70.431 79.038 69.038 80.456 70.441 81.883 68.999 83.349 70.451 84.694 69.092 84.884 69.28 83.35 70.829"/><polygon class="d" points="83.35 70.829 81.884 69.377 80.457 70.819 79.04 69.416 77.662 70.809 76.125 69.288 76.313 69.098 77.66 70.431 79.038 69.038 80.456 70.441 81.883 68.999 83.349 70.451 84.694 69.092 84.884 69.28 83.35 70.829"/></g><path class="f" d="M80.33506,83.64476h-.33952c-3.91883-.01947-7.09337-2.73511-7.08205-6.05559-.487-6.74068-4.12558-13.96144-4.16237-14.03363a9.06433,9.06433,0,0,1-1.06166-4.25974v-.04461c.02837-5.76536,5.59054-10.44858,12.404-10.44858h.0225l.2191.00034Z"/><path class="d" d="M79.39271,82.67736c-3.1093-.26953-5.54981-2.47024-5.53679-5.09183l-.00074-.04c-.50024-6.96306-4.22746-14.3443-4.26506-14.418a8.146,8.146,0,0,1-.95822-3.83165v-.04348c.02531-5.01505,4.80633-9.188,10.76081-9.49227Z"/><g class="i"><rect class="d" x="76.78585" y="68.7272" width="0.389" height="13.51671" transform="translate(-8.86572 10.25906) rotate(-7.21044)"/></g><rect class="d" x="83.86017" y="68.69133" width="0.38892" height="13.51683" transform="translate(158.84373 160.09274) rotate(-173.37528)"/><rect class="d" x="83.86017" y="68.69133" width="0.38892" height="13.51683" transform="translate(158.84373 160.09274) rotate(-173.37528)"/><path class="f" d="M85.11377,85.177l-9.76039.04816a2.35879,2.35879,0,0,1-2.3704-2.347l-.02526-5.11954,14.47783-.07146.02513,5.1194A2.35872,2.35872,0,0,1,85.11377,85.177Z"/><path class="d" d="M89.32677,59.92991l-.53519-.45183a3.25325,3.25325,0,0,0-.03057-1.01816l.50714-.50448a.06147.06147,0,0,0,.01293-.0678l-.34339-.78346a.05576.05576,0,0,0-.0574-.03365l-.69378.07863a2.99937,2.99937,0,0,0-.71606-.68535l.02081-.72179a.05811.05811,0,0,0-.03694-.05659l-.78154-.29242a.05661.05661,0,0,0-.06426.01871l-.44533.56294a2.93562,2.93562,0,0,0-.98276.04969l-.47768-.51694a.05528.05528,0,0,0-.06519-.01222l-.76185.3699a.06093.06093,0,0,0-.03348.06013l.06358.718a3.18793,3.18793,0,0,0-.67379.75463l-.69593-.00881a.05855.05855,0,0,0-.05523.03931l-.2959.81554a.06.06,0,0,0,.01691.06631l.53519.45183a3.25424,3.25424,0,0,0,.03056,1.01817l-.50712.50447a.06143.06143,0,0,0-.01294.06781l.34338.78346a.05579.05579,0,0,0,.05741.03365l.69377-.07862a3.00033,3.00033,0,0,0,.71607.68534l-.0208.72178a.05809.05809,0,0,0,.03694.05659l.78152.29243a.05668.05668,0,0,0,.06427-.01872l.44533-.56293a2.93613,2.93613,0,0,0,.98276-.04969l.47768.51695a.05534.05534,0,0,0,.06519.01222l.76184-.36991a.06094.06094,0,0,0,.03349-.06013l-.06358-.718a3.18812,3.18812,0,0,0,.67379-.75462l.69593.00881a.05859.05859,0,0,0,.05524-.0393l.2959-.81557A.06.06,0,0,0,89.32677,59.92991ZM85.76433,61.287a2.167,2.167,0,1,1,2.167-2.167A2.167,2.167,0,0,1,85.76433,61.287Z"/><path class="j" d="M78.5104,64.37142l-.53519-.45183a3.25332,3.25332,0,0,0-.03056-1.01817l.50714-.50448a.06145.06145,0,0,0,.01293-.06779l-.34339-.78346a.05576.05576,0,0,0-.05741-.03366l-.69377.07863a2.99918,2.99918,0,0,0-.71607-.68534l.02081-.7218a.05812.05812,0,0,0-.03694-.05659l-.78153-.29242a.05664.05664,0,0,0-.06427.01872l-.44533.56293a2.93562,2.93562,0,0,0-.98276.04969l-.47768-.51694a.0553.0553,0,0,0-.06519-.01222l-.76184.36991a.06093.06093,0,0,0-.03349.06012l.06358.718a3.1879,3.1879,0,0,0-.67379.75462l-.69593-.00881a.05857.05857,0,0,0-.05523.03931l-.2959.81555a.06006.06006,0,0,0,.01691.06631l.53519.45183a3.25417,3.25417,0,0,0,.03057,1.01816l-.50712.50447a.06147.06147,0,0,0-.013.06782l.34339.78345a.05577.05577,0,0,0,.0574.03365l.69378-.07862a3.00019,3.00019,0,0,0,.71607.68535l-.02081.72177a.05809.05809,0,0,0,.03694.05659l.78153.29243a.05665.05665,0,0,0,.06426-.01871l.44533-.56294a2.93613,2.93613,0,0,0,.98276-.04969l.47768.517a.05533.05533,0,0,0,.06519.01222l.76185-.3699a.06094.06094,0,0,0,.03348-.06014l-.06358-.718a3.18815,3.18815,0,0,0,.67379-.75463l.69593.00881a.05856.05856,0,0,0,.05524-.0393l.2959-.81556A.06.06,0,0,0,78.5104,64.37142ZM74.948,65.85487a2.29332,2.29332,0,1,1,2.29332-2.29331A2.29332,2.29332,0,0,1,74.948,65.85487Z"/><path class="f" d="M101.08189,128.88375a4.00175,4.00175,0,0,0,4.00176-4.00183V95.27173A4.00169,4.00169,0,0,0,101.08189,91.27H58.92973a4.00178,4.00178,0,0,0-4.00187,4.00176V124.882a4.00178,4.00178,0,0,0,4.00187,4.00176h5.88253C64.92974,129.00163,101.08189,128.88375,101.08189,128.88375Z"/><path class="d" d="M58.92973,126.59066a1.71065,1.71065,0,0,1-1.70873-1.7086V95.33816a1.71066,1.71066,0,0,1,1.70873-1.70862h42.15216a1.71064,1.71064,0,0,1,1.70873,1.70862v29.54376a1.71065,1.71065,0,0,1-1.70873,1.70867H91.28478v.00007h-32.355Z"/><line class="k" x1="62.32301" y1="120.65888" x2="81.36085" y2="120.65888"/><line class="k" x1="62.32301" y1="113.64672" x2="81.36085" y2="113.64672"/><line class="k" x1="62.32301" y1="106.63456" x2="81.36085" y2="106.63456"/><line class="k" x1="62.32301" y1="99.56132" x2="81.36085" y2="99.56132"/><rect class="l" x="85.89349" y="98.75279" width="11.79512" height="8.50743"/><rect class="l" x="85.89349" y="112.89458" width="11.79512" height="8.50743"/></svg>