<svg xmlns="http://www.w3.org/2000/svg" viewBox="0 0 136 136"><defs><style>.a{fill:#fff;}.b{fill:#ffc148;}.c,.d,.e{fill:none;}.d{stroke:#333f53;}.d,.e{stroke-linecap:round;stroke-linejoin:round;stroke-width:2.12598px;}.e{stroke:#f58535;}</style></defs><title>finops-readiness-maturity-assessment-08.11.22</title><path class="a" d="M125.06775,50.60681,115.569,47.29518a48.6267,48.6267,0,0,0-5.39659-13.137l4.43775-9.03381c.78559-1.60106-.04083-2.39959-2.49319-4.76931-1.46863-1.41885-3.687-3.56255-7.1231-7.144-1.24161-1.25058-2.305-.70893-4.87585.60039-1.42581.72685-3.53267,1.8002-6.8453,3.32956a48.60046,48.60046,0,0,0-13.11809-5.49217L76.90668,2.12911C76.33018.44044,75.17917.45836,71.772.5191,69.7308.55494,66.64619.60672,61.68172.50416h-.01394c-1.74841,0-2.11781,1.13508-3.006,3.86623C58.168,5.89179,57.43614,8.14,56.17461,11.56617a48.62251,48.62251,0,0,0-13.15493,5.40058L33.98388,12.529a2.3315,2.3315,0,0,0-2.6754.44009l-9.23792,9.17818a2.33906,2.33906,0,0,0-.457,2.67241l4.379,9.06368a48.63082,48.63082,0,0,0-5.48719,13.11909c-3.34051,1.20477-5.5798,1.91171-7.09622,2.39163-2.82674.89312-3.99666,1.26252-4.00064,3.06868.07169,5.04014.004,8.13372-.04182,10.18084-.07269,3.32756-.09758,4.4477,1.5662,5.02918l9.4988,3.30964a48.61243,48.61243,0,0,0,5.40654,13.15295c-1.51244,3.217-2.59773,5.302-3.33154,6.71287-1.36707,2.6296-1.93362,3.71788-.67707,4.98239l9.17719,9.23693a2.42133,2.42133,0,0,0,.83687.57314v-3.8325L24.1356,94.05035c.17225-.40026.53269-1.09425.93594-1.86889.79654-1.53235,2.00132-3.8493,3.71289-7.52336a1.44424,1.44424,0,0,0-.08065-1.36906,45.76114,45.76114,0,0,1-5.64352-13.73741,1.445,1.445,0,0,0-.932-1.03949l-9.89209-3.44705c-.02091-.47295-.002-1.33421.01991-2.35777.04481-2.01725.11152-5.04113.0478-9.9.40623-.1613,1.149-.39628,1.97642-.65815,1.64686-.51974,4.13506-1.30633,7.93856-2.69431a1.44589,1.44589,0,0,0,.911-1.02256A45.73537,45.73537,0,0,1,28.8621,34.73268a1.44377,1.44377,0,0,0,.07666-1.395l-4.55125-9.41914,8.67835-8.6206,9.38827,4.612a1.44273,1.44273,0,0,0,1.39595-.06771,45.73307,45.73307,0,0,1,13.7374-5.64252,1.44512,1.44512,0,0,0,1.02854-.90408c1.44872-3.89311,2.25821-6.38331,2.79488-8.03116.25091-.77165.47693-1.46664.63225-1.86292,4.76334.09459,7.76831.03983,9.77858.007,1.07932-.01792,1.9844-.03485,2.46531-.005l3.38631,9.926a1.44585,1.44585,0,0,0,1.03352.93892,45.72859,45.72859,0,0,1,13.70056,5.73313,1.44614,1.44614,0,0,0,1.36807.08961c3.77462-1.7285,6.10949-2.91734,7.65379-3.70393.72586-.37039,1.379-.703,1.77033-.87222,3.30167,3.43311,5.46429,5.523,6.909,6.918.77763.75174,1.42881,1.381,1.74742,1.74145l-4.62693,9.41814a1.44523,1.44523,0,0,0,.06771,1.396,45.76094,45.76094,0,0,1,5.64352,13.7374,1.44537,1.44537,0,0,0,.932,1.0385l9.89208,3.449c.02091.47294.002,1.33321-.02091,2.35578-.04381,2.01824-.11052,5.04212-.04679,9.902-.40624.1613-1.149.39628-1.97742.65815-1.64586.51974-4.13407,1.30633-7.93757,2.69232a1.4492,1.4492,0,0,0-.91105,1.02356,45.77315,45.77315,0,0,1-5.73213,13.70056,1.44377,1.44377,0,0,0-.07667,1.395l4.54727,9.41217c-3.42315,3.29272-5.5081,5.45135-6.902,6.8931q-.289.29944-.55062.56928v3.87046a16.62818,16.62818,0,0,0,2.6296-2.43145c1.41884-1.46863,3.56155-3.687,7.142-7.12211a2.33724,2.33724,0,0,0,.459-2.6744l-4.379-9.06268a48.60015,48.60015,0,0,0,5.4872-13.12009c3.3405-1.20377,5.57979-1.9117,7.09522-2.39063,2.82574-.89312,3.99566-1.26252,4.00164-3.06868-.07169-5.04213-.004-8.13571.04082-10.18283C126.70664,52.30644,126.73054,51.1863,125.06775,50.60681Z"/><path class="a" d="M98.80273,85.79688q-.04248,0-.085-.00293c-.10937-.00782-.21875-.0127-.33007-.0127H37.61328c-.11084,0-.2207.00488-.33008.0127a1.19547,1.19547,0,0,1-1.01367-.43457,41.16943,41.16943,0,1,1,63.46192,0A1.20584,1.20584,0,0,1,98.80273,85.79688ZM37.75781,83.37109H98.24316a38.76074,38.76074,0,1,0-60.48535,0Z"/><path class="a" d="M37.61315,135.5a1.76546,1.76546,0,0,1-1.75912-1.76108V91.145a1.76546,1.76546,0,0,1,1.7601-1.7601H98.38724a1.76567,1.76567,0,0,1,1.7601,1.76108v42.5939A1.76567,1.76567,0,0,1,98.38626,135.5Z"/><path class="b" d="M85.22,41.12193v.06151a12.57573,12.57573,0,0,1-1.45147,5.85437S78.606,57.24845,77.91616,66.91045c.02264,4.516-4.27221,8.19636-9.59448,8.223h-.168V26.72709C77.54761,26.71293,85.18075,33.14676,85.22,41.12193Z"/><path class="c" d="M85.22,41.12193v.06151a12.57573,12.57573,0,0,1-1.45147,5.85437S78.606,57.24845,77.91616,66.91045c.02264,4.516-4.27221,8.19636-9.59448,8.223h-.168V26.72709C77.54761,26.71293,85.18075,33.14676,85.22,41.12193Z"/><path class="b" d="M68.46056,75.44056h-.47469c-5.479-.02722-9.91737-3.824-9.90148-8.46642-.68088-9.42427-5.76805-19.51976-5.81949-19.62069a12.67318,12.67318,0,0,1-1.48433-5.95562v-.06237c.03969-8.06066,7.81624-14.60836,17.34227-14.60836h.03146l.30633.00047Z"/><rect class="a" x="63.49836" y="54.58403" width="0.54387" height="18.89797" transform="translate(-7.53274 8.51045) rotate(-7.21044)"/><rect class="a" x="64.21194" y="63.71109" width="18.89814" height="0.54376" transform="translate(1.60727 129.7707) rotate(-83.37527)"/><rect class="a" x="64.21194" y="63.71109" width="18.89814" height="0.54376" transform="translate(1.60727 129.7707) rotate(-83.37527)"/><path class="a" d="M75.14177,77.58283l-13.64619.06732a3.29787,3.29787,0,0,1-3.3141-3.28138l-.03524-7.15771L78.388,67.11115l.03514,7.15753a3.29777,3.29777,0,0,1-3.28131,3.31415Z"/><path class="a" d="M76.6366,42.50832,75.33915,41.413a7.88676,7.88676,0,0,0-.07411-2.46833l1.22947-1.223a.149.149,0,0,0,.03135-.16436l-.83248-1.89933a.13517.13517,0,0,0-.13916-.08157l-1.682.19062a7.27164,7.27164,0,0,0-1.73594-1.6615l.05046-1.74981a.14089.14089,0,0,0-.08956-.1372l-1.89468-.70885a.13726.13726,0,0,0-.15579.04537l-1.0796,1.36472a7.11649,7.11649,0,0,0-2.38249.12048l-1.158-1.25322a.134.134,0,0,0-.158-.02963l-1.84691.89675a.14771.14771,0,0,0-.08117.14578l.15415,1.74065A7.7286,7.7286,0,0,0,61.86127,36.37l-1.68721-.02152a.142.142,0,0,0-.13388.09531l-.71734,1.9771a.14548.14548,0,0,0,.041.16079L60.66128,39.677a7.88886,7.88886,0,0,0,.0741,2.46833l-1.22942,1.223a.14894.14894,0,0,0-.03137.16439l.83247,1.89933a.13524.13524,0,0,0,.13918.08158l1.68194-.19061a7.27378,7.27378,0,0,0,1.736,1.66147l-.05048,1.7499a.14085.14085,0,0,0,.08956.13719l1.89461.70893a.13742.13742,0,0,0,.15581-.04539l1.07961-1.3647A7.118,7.118,0,0,0,69.41575,48.05l1.158,1.25323a.13422.13422,0,0,0,.158.02962l1.84691-.89678a.14771.14771,0,0,0,.08119-.14577l-.15415-1.74065a7.72846,7.72846,0,0,0,1.63359-1.82945l1.68714.02135a.14205.14205,0,0,0,.13391-.09527l.71733-1.97717A.14539.14539,0,0,0,76.6366,42.50832Zm-8.63643,3.29a5.25345,5.25345,0,1,1,5.25344-5.25346h0A5.25344,5.25344,0,0,1,68.00017,45.79834Z"/><line class="d" x1="42.50586" y1="128.32024" x2="69.95387" y2="128.32024"/><line class="d" x1="42.50586" y1="118.21039" x2="69.95387" y2="118.21039"/><line class="d" x1="42.50586" y1="108.10053" x2="69.95387" y2="108.10053"/><line class="d" x1="42.50586" y1="97.9026" x2="69.95387" y2="97.9026"/><rect class="e" x="76.48886" y="96.73691" width="17.00575" height="12.26568" rx="3.11314"/><rect class="e" x="76.48886" y="117.12598" width="17.00575" height="12.26568" rx="3.11314"/><polygon class="a" points="72.675 57.523 70.626 55.493 68.63 57.509 66.649 55.547 64.723 57.495 62.574 55.368 62.837 55.103 64.72 56.966 66.646 55.019 68.629 56.98 70.624 54.964 72.674 56.994 74.554 55.094 74.82 55.357 72.675 57.523"/><polygon class="a" points="72.675 57.523 70.626 55.493 68.63 57.509 66.649 55.547 64.723 57.495 62.574 55.368 62.837 55.103 64.72 56.966 66.646 55.019 68.629 56.98 70.624 54.964 72.674 56.994 74.554 55.094 74.82 55.357 72.675 57.523"/></svg>