<svg xmlns="http://www.w3.org/2000/svg" viewBox="0 0 160.01151 160.01151"><defs><style>.a,.h{fill:#fff;}.b,.i,.k{fill:none;}.b{stroke:#fff;stroke-width:1.41732px;}.b,.h,.i,.k{stroke-linecap:round;stroke-linejoin:round;}.c{opacity:0.17;}.d{fill:#4ab4ee;}.e{fill:#f6f6fa;}.f{fill:#004c74;}.g{fill:#8ddcff;}.h{stroke:#f58535;}.h,.i,.k{stroke-width:1.70079px;}.i{stroke:#8ddcff;}.j{fill:#326de3;}.k{stroke:#326de3;}</style></defs><title>free-cloud-K8s-cost-optimization</title><circle class="a" cx="80.00576" cy="80.00576" r="71.90772"/><circle class="b" cx="80.00576" cy="80.00576" r="79.29709"/><path class="a" d="M80.00575,160.00648A80.00023,80.00023,0,1,1,160.006,80.00577,80.00022,80.00022,0,0,1,80.00575,160.00648Zm0-158.59507A78.59435,78.59435,0,1,0,158.5996,80.00626v-.0005A78.68358,78.68358,0,0,0,80.00575,1.41141Z"/><g class="c"><path class="d" d="M70.78941,86.95526a13.52462,13.52462,0,0,0,4.04981,1.67321l1.01519,2.932c.1125.3254.35151.108,3.96551.167.33256-.00051.20822-.2709,1.24877-3.10678a13.52668,13.52668,0,0,0,4.04556-1.68332l2.79289,1.35633c.31037.15035.32491-.17226,2.92209-2.686a.25514.25514,0,0,0,.04864-.29215L89.51451,82.526a13.524,13.524,0,0,0,1.67313-4.04981c2.7817-1.02861,3.104-.91782,3.10371-1.25656-.06946-3.6875.14008-3.85632-.17693-3.96511l-2.93459-1.00781a13.52247,13.52247,0,0,0-1.68332-4.04556l1.35633-2.79293c.15044-.30969-.17218-.32487-2.686-2.922-.23419-.23406-.3268.03871-3.08159,1.3147a13.52223,13.52223,0,0,0-4.04981-1.67319l-1.01518-2.932c-.11279-.32571-.3516-.108-3.96559-.16694-.33075.00031-.20293.25663-1.24866,3.1068a13.52122,13.52122,0,0,0-4.04565,1.68334L67.96754,62.4626a.25513.25513,0,0,0-.29206.04931L65.04542,65.1486a.25516.25516,0,0,0-.04861.29218l1.36332,2.78941A13.52434,13.52434,0,0,0,64.687,72.28c-2.78171,1.0286-3.10437.91787-3.1036,1.25661.06934,3.68607-.14033,3.856.1769,3.96506l2.93452,1.00781A13.52562,13.52562,0,0,0,66.3781,82.555c-1.23972,2.69425-1.54758,2.84486-1.307,3.08491L67.70781,88.27C67.9435,88.50507,68.04864,88.22472,70.78941,86.95526Z"/><circle class="e" cx="77.93729" cy="75.37804" r="11.07587"/></g><g class="c"><path class="d" d="M48.073,62.67781a8.45518,8.45518,0,0,0,2.53186,1.04606l.63468,1.833c.07033.20343.21976.06754,2.47916.10439.20792-.00033.13018-.16937.78071-1.94231a8.45647,8.45647,0,0,0,2.52921-1.05238l1.74606.848c.194.094.20313-.1077,1.82684-1.67926a.1595.1595,0,0,0,.03041-.18265l-.85234-1.74391a8.455,8.455,0,0,0,1.046-2.53187c1.73907-.64307,1.94058-.5738,1.94039-.78558-.04343-2.30535.08757-2.41089-.11062-2.47891l-1.83465-.63006a8.45418,8.45418,0,0,0-1.05238-2.52921l.84795-1.74609c.09406-.19361-.10764-.2031-1.67924-1.82678-.14641-.14633-.20431.0242-1.92655.82193a8.45371,8.45371,0,0,0-2.53187-1.04605l-.63468-1.83306c-.07051-.20363-.21981-.06752-2.47921-.10437-.20678.0002-.12686.16044-.78064,1.94231a8.4535,8.4535,0,0,0-2.52926,1.0524l-1.746-.84795a.15954.15954,0,0,0-.1826.03083l-1.64426,1.64841a.15953.15953,0,0,0-.03039.18267l.85232,1.74389a8.45542,8.45542,0,0,0-1.046,2.53186c-1.73907.64306-1.94079.57383-1.94031.78561.04335,2.30446-.08773,2.4107.11059,2.47888l1.83461.63007a8.45606,8.45606,0,0,0,1.05238,2.52921c-.77506,1.68439-.96752,1.77855-.81713,1.92863l1.64844,1.64426C46.29375,63.64673,46.35949,63.47146,48.073,62.67781Z"/><circle class="a" cx="52.54169" cy="55.43995" r="6.92443"/></g><path class="f" d="M35.58707,55.32968l2.26383,4.626a.67627.67627,0,0,1-.61319.97351l-4.60692-.03914a.67627.67627,0,0,1-.5965-.98389l2.34309-4.58686A.67628.67628,0,0,1,35.58707,55.32968Z"/><polygon class="g" points="116.845 86.388 117.11 127.559 32.596 127.559 32.596 101.772 53.886 116.472 77.939 100.024 99.025 100.544 116.845 86.388"/><path class="f" d="M129.33558,123.77128l-4.55977,2.34267a.68306.68306,0,0,1-.99518-.60021l-.0494-4.58736a.68306.68306,0,0,1,.9821-.62146l4.60918,2.24469A.68306.68306,0,0,1,129.33558,123.77128Z"/><path class="f" d="M32.6203,74.57867a2.31315,2.31315,0,1,1,2.29335,2.33279A2.3086,2.3086,0,0,1,32.6203,74.57867Z"/><path class="f" d="M51.57309,115.51611a2.3131,2.3131,0,1,1,2.313,2.313A2.3115,2.3115,0,0,1,51.57309,115.51611Z"/><path class="f" d="M51.52517,123.31654a2.31308,2.31308,0,1,1,2.313,2.313A2.3115,2.3115,0,0,1,51.52517,123.31654Z"/><path class="f" d="M75.62422,123.31654a2.31307,2.31307,0,1,1,2.313,2.313A2.31148,2.31148,0,0,1,75.62422,123.31654Z"/><path class="f" d="M96.71667,123.31654a2.313,2.313,0,1,1,2.313,2.313A2.3115,2.3115,0,0,1,96.71667,123.31654Z"/><path class="f" d="M113.20405,123.31654a2.31308,2.31308,0,1,1,2.313,2.313A2.3115,2.3115,0,0,1,113.20405,123.31654Z"/><path class="f" d="M75.62422,100.01816a2.31307,2.31307,0,1,1,2.313,2.31026A2.31422,2.31422,0,0,1,75.62422,100.01816Z"/><path class="f" d="M96.71522,100.53965a2.31446,2.31446,0,1,1,2.31446,2.31315A2.31394,2.31394,0,0,1,96.71522,100.53965Z"/><polygon class="f" points="98.727 99.895 77.747 99.375 53.888 115.705 32.953 101.25 32.228 102.297 53.883 117.248 78.126 100.658 99.331 101.184 116.899 87.356 116.899 85.304 98.727 99.895"/><path class="h" d="M72.84165,74.807a5.09555,5.09555,0,1,1,5.09555,5.09684A5.09653,5.09653,0,0,1,72.84165,74.807Z"/><path class="f" d="M115.8779,123.78593h-.72168v-1.8761h.72168Zm0-3.7522h-.72168v-1.87754h.72168Zm0-3.75364h-.72168V114.404h.72168Zm0-3.7522h-.72168v-1.8761h.72168Zm0-3.75364h-.72168v-1.8761h.72168Zm0-3.7522h-.72168V103.146h.72168Zm0-3.7522h-.72168V99.39231h.72168Zm0-3.75364h-.72168V95.64012h.72168Zm0-3.75219h-.72168v-1.8761h.72168Zm0-3.75365h-.72168V88.13428h.72168Zm0-3.75219h-.72168v-1.8761h.72168Zm0-3.7522h-.72168V80.62844h.72168Zm0-3.75364h-.72168v-1.8761h.72168Zm0-3.7522h-.72168V73.124h.72168Zm0-3.75364h-.72168V69.3704h.72168Zm0-3.7522h-.72168V65.6182h.72168Z"/><path class="f" d="M34.90805,127.55934a.7212.7212,0,0,1-.72169-.72169V59.86014a.72169.72169,0,0,1,1.44338,0v66.97751A.72123.72123,0,0,1,34.90805,127.55934Z"/><path class="f" d="M123.7277,123.94239h-92.701a.72169.72169,0,0,1,0-1.44338h92.701a.72169.72169,0,0,1,0,1.44338Z"/><path class="h" d="M93.93413,88.97157a5.09555,5.09555,0,1,1,5.09555,5.09685A5.094,5.094,0,0,1,93.93413,88.97157Z"/><path class="h" d="M48.78925,97.23288a5.09692,5.09692,0,1,1,5.09685,5.09554A5.09783,5.09783,0,0,1,48.78925,97.23288Z"/><polyline class="i" points="34.94 85.304 53.886 97.232 77.937 74.961 99.03 89.296 115.156 65.618"/><path class="f" d="M54.24694,124.32575h-.72169v-1.8761h.72169Zm0-3.7522h-.72169V118.696h.72169Zm0-3.75364h-.72169v-1.8761h.72169Zm0-3.7522h-.72169v-1.8761h.72169Zm0-3.75364h-.72169V107.438h.72169Zm0-3.7522h-.72169v-1.8761h.72169Zm0-3.7522h-.72169V99.93213h.72169Z"/><rect class="f" x="98.66883" y="122.84716" width="0.72169" height="0.93877"/><path class="f" d="M99.39052,120.95561h-.72169v-1.89168h.72169Zm0-3.78323h-.72169v-1.89169h.72169Zm0-3.78323h-.72169v-1.89169h.72169Zm0-3.78323h-.72169v-1.89169h.72169Zm0-3.78323h-.72169V103.931h.72169Zm0-3.78323h-.72169v-1.89169h.72169Zm0-3.78323h-.72169V96.36454h.72169Z"/><rect class="f" x="98.66883" y="92.15148" width="0.72169" height="2.32297"/><path class="f" d="M78.29805,123.78593h-.72169v-1.8761h.72169Zm0-3.7522h-.72169v-1.87754h.72169Zm0-3.75364h-.72169V114.404h.72169Zm0-3.7522h-.72169v-1.8761h.72169Zm0-3.75364h-.72169v-1.8761h.72169Zm0-3.7522h-.72169V103.146h.72169Zm0-3.7522h-.72169V99.39231h.72169Zm0-3.75364h-.72169V95.64012h.72169Zm0-3.75219h-.72169v-1.8761h.72169Zm0-3.75365h-.72169V88.13428h.72169Zm0-3.75219h-.72169v-1.8761h.72169Zm0-3.7522h-.72169V80.62844h.72169Zm0-3.75364h-.72169v-1.8761h.72169Z"/><rect class="f" x="34.90805" y="74.2389" width="0.93802" height="0.72169"/><path class="f" d="M75.03919,74.96059H73.08V74.2389h1.95923Zm-3.91919,0H69.16061V74.2389H71.12Zm-3.91932,0H65.24142V74.2389h1.95926Zm-3.91922,0H61.32222V74.2389h1.95924Zm-3.9192,0H57.40305V74.2389h1.95921Zm-3.91931,0h-1.96V74.2389h1.96Zm-3.91922,0h-1.96V74.2389h1.96Zm-3.9192,0h-1.96V74.2389h1.96Zm-3.91932,0h-1.96V74.2389h1.96Zm-3.91922,0h-1.96V74.2389h1.96Z"/><path class="d" d="M67.75478,43.84557a.84056.84056,0,0,1-.8072-.71214,10.92985,10.92985,0,0,0-20.019-2.82039,1.09533,1.09533,0,0,1-.81954.58722,8.29944,8.29944,0,0,0-3.8196,1.64482,8.66405,8.66405,0,0,0-1.72558,12.15115A8.39917,8.39917,0,0,0,47.56529,58.242c1.82011.016,9.3003.0154,12.53553.01218,2.038.00258,4.0761.00386,6.11389-.01464A10.05553,10.05553,0,0,0,68.46048,57.98a7.21728,7.21728,0,0,0-.7057-14.1344Z"/><path class="a" d="M68.07751,56.38858a8.40324,8.40324,0,0,1-1.87764.21435c-1.25216.0115-2.57456.01635-4.28628.01635l-.67937-.00061a.27742.27742,0,0,0-.03754-.00242l-9.95794.003c-1.412,0-2.57516-.00424-3.659-.01393a6.80618,6.80618,0,0,1-5.69769-2.87852A7.03017,7.03017,0,0,1,43.28438,43.844a6.72217,6.72217,0,0,1,3.07712-1.32664,2.70023,2.70023,0,0,0,1.95816-1.34177,8.93571,8.93571,0,0,1,7.9362-4.629c.30577,0,.62184.01211.93851.03754a9.066,9.066,0,0,1,8.176,6.98618,2.4629,2.4629,0,0,0,2.15373,1.8958,5.58043,5.58043,0,0,1,.55343,10.92249Z"/><path class="j" d="M92.0045,43.29265c-.05888-.12712-.09692-.22465-.14792-.31485a.71216.71216,0,0,0-.16535-.233c-.25787-.188-.52683-.36086-.79275-.5377-.17116-.11382-.35235-.2142-.51479-.33913a.558.558,0,0,1-.12346-.75692.53823.53823,0,0,1,.74333-.102A4.21293,4.21293,0,0,1,91.4367,41.4c.25633.24105.50813.487.76805.72407a.50042.50042,0,0,0,.20108.09543c.129.03587.26165.05871.38693.08573.36166-.29451.72323-.62435,1.11973-.90481a6.71213,6.71213,0,0,1,3.25812-1.20125c.10914-.011.18756-.17332.20108-.19629a1.52728,1.52728,0,0,0,.106-.99991c-.01644-.33438-.08827-.66593-.10727-1.00034a.5334.5334,0,1,1,1.0642-.00685c-.017.33451-.074.6668-.10384,1.00092-.01792.20045-.02472.4025-.02348.60377a.14713.14713,0,0,0,.0025.02633,1.10449,1.10449,0,0,0,.06314.19944,2.04257,2.04257,0,0,0,.12522.28573.19416.19416,0,0,0,.12963.08359,7.1214,7.1214,0,0,1,4.30989,2.10479c.01479.01511.03178.02807.016.0143.17012-.04021.3131-.06879.45267-.10919a.52488.52488,0,0,0,.20136-.09686c.23047-.20519.45457-.41761.67863-.62991.165-.15635.31794-.32657.49139-.47264a.53371.53371,0,1,1,.67057.83046c-.18035.13716-.38056.24795-.56937.37428-.26544.17761-.53109.35517-.79065.5411a.51744.51744,0,0,0-.13393.17888c-.06338.11783-.1165.24118-.18922.39452a7.00253,7.00253,0,0,1,1.10506,4.77425,1.74961,1.74961,0,0,0,.35074.2756,2.75658,2.75658,0,0,0,.63105.183c.36837.05937.74367.07587,1.11186.136a.53355.53355,0,1,1-.22516,1.03882c-.20359-.05281-.39992-.13311-.60071-.19733-.304-.09723-.60767-.196-.91461-.28307a.548.548,0,0,0-.23986.00632c-.12054.02258-.23825.06023-.3969.10193-.0407.10772-.09658.26479-.159.41923a6.95942,6.95942,0,0,1-2.81068,3.36106c-.1065.067-.15317.12512-.08333.24171a.12084.12084,0,0,1,.01812.09116.5977.5977,0,0,0,.1039.568c.15771.26523.329.52236.49028.78552.08478.13833.16827.27844.23878.42431a.53261.53261,0,1,1-.96013.46106c-.09-.196-.149-.406-.226-.60822-.11358-.2983-.2251-.59765-.35031-.89108a.65424.65424,0,0,0-.17439-.20628c-.08762-.07888-.18638-.14538-.31391-.24286a7.0077,7.0077,0,0,1-4.93563-.02838c-.14266.25511-.4689.34587-.554.66113-.07732.28639-.191.56313-.29224.84282-.0589.16269-.11578.32716-.18979.48313a.53411.53411,0,1,1-.96437-.45937c.0963-.19307.22083-.37192.33031-.55857.167-.28472.33547-.5687.4948-.8577a.5177.5177,0,0,0,.04509-.21756c.0069-.13316.002-.26693.002-.40045l.0411-.01155c-.03872-.02689-.07648-.05532-.11632-.08044a6.96461,6.96461,0,0,1-2.937-3.65586c-.04372-.12337-.09011-.18585-.22652-.14206a.14851.14851,0,0,1-.10859-.01064.59755.59755,0,0,0-.53326-.02547c-.29271.09707-.58334.20044-.87583.29821-.16415.05487-.32787.11428-.496.15319a.53793.53793,0,0,1-.66432-.43958.51526.51526,0,0,1,.41578-.64484c.37824-.06474.76309-.09,1.14416-.1394a3.01072,3.01072,0,0,0,.44516-.091.80339.80339,0,0,0,.22182-.124c.09821-.06811.19069-.1445.32072-.24428A6.98676,6.98676,0,0,1,92.0045,43.29265ZM103.18155,49.024c-.61425-.10415-1.19531-.204-1.77687-.3008-.36307-.06045-.72543-.12938-1.09083-.17023a.45308.45308,0,0,0-.524.43252.74537.74537,0,0,0,.06343.31343c.33377.81695.67356,1.63145,1.01222,2.44641.01546.0372.03752.07166.06263.11894A5.62957,5.62957,0,0,0,103.18155,49.024ZM97.192,41.56467A5.59924,5.59924,0,0,0,93.94464,43.124c.05182.0416.08735.07323.1259.10059q.64325.45647,1.28731.91179c.30087.213.5967.4336.904.63683a.4809.4809,0,0,0,.78015-.34483A2.22463,2.22463,0,0,0,97.0687,44.17q.06271-1.07968.12213-2.15955C97.19854,41.86624,97.192,41.72126,97.192,41.56467ZM93.1007,44.17916a5.593,5.593,0,0,0-.79034,3.54328c.91424-.2639,1.8002-.51273,2.68155-.77694a.49535.49535,0,0,0,.21075-.88455c-.15362-.15256-.32152-.29075-.48315-.43522C94.18638,45.14923,93.65317,44.67283,93.1007,44.17916Zm9.55551.00281c-.214.1912-.41565.37114-.61707.5513-.48906.43746-.9823.87038-1.46556,1.31416a.49525.49525,0,0,0,.18277.88279c.03048.01117.06187.02.0931.029q1.23385.35494,2.46792.70913c.04854.01391.09926.02022.15934.03213A5.706,5.706,0,0,0,102.65621,44.182Zm-6.575,8.26381a5.67751,5.67751,0,0,0,3.59943.00842.27943.27943,0,0,0-.01233-.06485c-.44277-.802-.87656-1.60922-1.33358-2.40305a.49208.49208,0,0,0-.9123.03412c-.29615.53007-.58872,1.06215-.88254,1.59351C96.3909,51.88343,96.2425,52.15328,96.08124,52.44578ZM94.877,51.84316c.35762-.86621.71238-1.72087,1.06124-2.57792a.61363.61363,0,0,0,.04094-.26972c-.02463-.3151-.2948-.48587-.655-.42481q-.94476.16014-1.88945.3207c-.26928.046-.53817.09432-.80828.14177A5.43919,5.43919,0,0,0,94.877,51.84316Zm3.68371-10.2817c.01363.24655.02535.46765.03817.68867.04146.71467.079,1.42961.12678,2.14385a.47788.47788,0,0,0,.73147.39884,1.1509,1.1509,0,0,0,.1243-.07692q1.06266-.7515,2.12427-1.50448a1.25777,1.25777,0,0,0,.10136-.091A5.67593,5.67593,0,0,0,98.56067,41.56146Z"/><path class="k" d="M97.86628,60.4468q-2.74542,0-5.49086.00064a1.95739,1.95739,0,0,1-1.6029-.76218q-3.443-4.275-6.88379-8.5518a1.914,1.914,0,0,1-.38032-1.71359q1.22307-5.30742,2.44051-10.61613a1.97246,1.97246,0,0,1,1.133-1.40726q4.87031-2.32144,9.73687-4.65068a2.13839,2.13839,0,0,1,1.39012-.26014,2.36368,2.36368,0,0,1,.52956.17094q4.95356,2.35593,9.904,4.71846a2.04636,2.04636,0,0,1,1.18149,1.47429q1.20865,5.28372,2.43136,10.56422a1.9314,1.9314,0,0,1-.38909,1.7293q-3.4228,4.25649-6.84635,8.51239a2.01972,2.01972,0,0,1-1.66274.7925Q100.61173,60.44352,97.86628,60.4468Z"/></svg>