<svg xmlns="http://www.w3.org/2000/svg" viewBox="0 0 160.012 160.012"><defs><style>.a{fill:#fff}.c{fill:#004c74}.f{fill:#4ab3ed}.g{fill:#ffc248}</style></defs><circle class="a" cx="80.006" cy="80.006" r="71.908"/><circle cx="80.006" cy="80.006" r="79.297" style="fill:none;stroke:#fff;stroke-linecap:round;stroke-linejoin:round;stroke-width:1.41732px"/><path class="a" d="M80.006 160.006Zm0-158.595A78.594 78.594 0 1 0 158.6 80.006 78.684 78.684 0 0 0 80.006 1.41Z"/><path class="c" d="M79.837 122.006c-19.011 0-33.903-6.333-33.903-14.418s14.892-14.417 33.903-14.417 33.903 6.333 33.903 14.417-14.892 14.418-33.903 14.418Z"/><ellipse class="c" cx="79.837" cy="107.588" rx="33.27" ry="13.784"/><ellipse class="a" cx="79.837" cy="107.588" rx="32.123" ry="12.637"/><path d="M102.324 98.567a5.694 5.694 0 0 1 .963 3.076c0 6.98-14.382 12.637-32.124 12.637-8.757 0-16.691-1.38-22.486-3.616 3.492 5.493 16.116 9.562 31.16 9.562 17.741 0 32.123-5.658 32.123-12.638 0-3.534-3.692-6.728-9.636-9.021Z" style="fill:#8cdbff"/><path class="c" d="M91.946 40.304c13.146 5.2 21.036 18.37 19.907 32.938-1.013 13.084-11.057 24.71-24.196 27.912a4.111 4.111 0 0 0-3.107 2.334 29.458 29.458 0 0 1-1.95 3.414c-.174.297-1.128 1.632-2.186 1.577-1.176-.062-2.16-1.461-2.324-1.705-2.168-3.202-4.201-5.128-8.018-6.254C55.535 96.231 46.706 82.534 47.806 66.9c.977-13.883 12.498-26.242 26.662-28.602a48.937 48.937 0 0 1 9.135-.115 40.888 40.888 0 0 1 8.343 2.122Z"/><path class="a" d="M80.233 105.523c-.742 0-1.265-.748-1.612-1.244l-.062-.088c-.032-.045-.782-1.103-1.061-1.569a7.337 7.337 0 0 0-4.915-3.42C60.475 96.054 52.78 88.03 50.333 75.998c-2.433-11.96 1.395-22.233 11.07-29.708 5.715-4.417 11.813-6.657 18.124-6.657a30.494 30.494 0 0 1 14.744 4.052c11.03 6.067 16.422 16.068 15.592 28.92a29.562 29.562 0 0 1-22.787 26.614 5.962 5.962 0 0 0-4.31 3.369 61.081 61.081 0 0 1-.828 1.457c-.33.567-.862 1.48-1.705 1.48Z"/><path class="a" d="M80.233 104.89c-.447 0-.9-.7-1.157-1.065 0 0-.765-1.079-1.036-1.529a7.916 7.916 0 0 0-5.298-3.707c-11.858-3.084-19.392-10.94-21.788-22.718-2.382-11.708 1.365-21.763 10.835-29.08 5.603-4.33 11.571-6.525 17.738-6.525a29.866 29.866 0 0 1 14.439 3.973c10.8 5.94 16.078 15.735 15.265 28.325a28.927 28.927 0 0 1-22.298 26.038 6.607 6.607 0 0 0-4.727 3.69c-.22.414-.815 1.432-.815 1.432-.246.421-.67 1.166-1.158 1.166Z"/><path class="a" d="M114.671 45.457a1.94 1.94 0 0 0-2.04-.917c-1.875.36-5.021.976-6.695 1.307a1.944 1.944 0 0 0-1.186 3.064l.203.275-17.572 13.832-7.378-1.209a2.36 2.36 0 0 0-2.45 1.192l-4.97 9.045-11.337-.042a2.395 2.395 0 0 0-1.412.476l-13.83 10.433a2.36 2.36 0 0 0-.463 3.305 2.371 2.371 0 0 0 1.885.94 2.342 2.342 0 0 0 1.42-.476l13.196-9.954 11.933.044a2.36 2.36 0 0 0 2.069-1.224l4.842-8.811 6.76 1.108a2.365 2.365 0 0 0 1.838-.475l18.286-14.394.442.591a1.93 1.93 0 0 0 1.556.78 1.943 1.943 0 0 0 1.71-1.017l3.23-5.95a1.928 1.928 0 0 0-.037-1.923Z"/><path d="M112.86 45.732c-1.872.36-5.016.975-6.688 1.305a.73.73 0 0 0-.446 1.153l.904 1.22-18.918 14.892-7.905-1.295a1.149 1.149 0 0 0-1.19.579l-5.318 9.676-12.039-.044a1.163 1.163 0 0 0-.694.231l-13.83 10.433a1.147 1.147 0 1 0 1.38 1.831l13.522-10.2 12.333.045h.005a1.147 1.147 0 0 0 1.005-.594l5.256-9.563 7.602 1.246a1.15 1.15 0 0 0 .895-.23l19.264-15.165 1.185 1.587a.73.73 0 0 0 1.229-.088l3.23-5.95a.732.732 0 0 0-.782-1.07Z" style="fill:#f48435"/><path class="f" d="M96.283 70.237a16.69 16.69 0 1 1-16.526-16.701 16.72 16.72 0 0 1 16.526 16.701ZM72.3 78.177a28.773 28.773 0 0 1 6.87-.9v-6.626h-8.007a27.138 27.138 0 0 0 1.137 7.526Zm7.722-7.53v6.633a28.76 28.76 0 0 1 6.869.896 27.105 27.105 0 0 0 1.133-7.529Zm-.854-.842v-6.611a28.863 28.863 0 0 1-6.869-.918 27.104 27.104 0 0 0-1.134 7.528Zm7.721-7.53a28.93 28.93 0 0 1-6.87.92v6.607h8.006a27.107 27.107 0 0 0-1.136-7.528Zm-19.6-2.066a15.873 15.873 0 0 0-3.56 9.595h6.617a27.726 27.726 0 0 1 1.18-7.747 19.04 19.04 0 0 1-4.238-1.848Zm28.172 9.599a15.873 15.873 0 0 0-3.56-9.598 19.086 19.086 0 0 1-4.24 1.848 27.743 27.743 0 0 1 1.184 7.75Zm-31.733.837a15.87 15.87 0 0 0 3.561 9.597 19.103 19.103 0 0 1 4.238-1.848 27.744 27.744 0 0 1-1.183-7.749Zm28.2 9.565a15.838 15.838 0 0 0 3.532-9.56h-6.617a27.663 27.663 0 0 1-1.171 7.716c.736.28 1.457.523 2.153.825.703.304 1.38.666 2.102 1.019Zm-5.29-18.718c-.127-.33-.239-.636-.362-.935a13.349 13.349 0 0 0-2.612-4.225 6.225 6.225 0 0 0-2.791-1.791c-.276-.079-.563-.121-.853-.182v7.995a27.66 27.66 0 0 0 6.619-.862Zm-7.469-7.15c-.382.094-.748.159-1.096.277a6.49 6.49 0 0 0-2.71 1.885 13.616 13.616 0 0 0-2.45 4.054c-.125.305-.238.614-.356.922a26.424 26.424 0 0 0 6.612.857Zm0 23.756a27.552 27.552 0 0 0-6.616.863 14.15 14.15 0 0 0 3.135 5.325 6.093 6.093 0 0 0 2.385 1.547c.352.117.72.183 1.097.275Zm.85 7.985c.196-.033.377-.055.554-.094a5.987 5.987 0 0 0 2.956-1.73 12.69 12.69 0 0 0 2.594-4.006c.183-.421.344-.851.52-1.292a27.672 27.672 0 0 0-6.623-.863Zm11.336-26.502a15.847 15.847 0 0 0-3.764-3.058 15.54 15.54 0 0 0-4.48-1.744 14.044 14.044 0 0 1 4.297 6.497 18.077 18.077 0 0 0 3.947-1.695Zm-8.248 26.107a15.807 15.807 0 0 0 8.252-4.814 18.002 18.002 0 0 0-3.958-1.7 18.028 18.028 0 0 1-1.688 3.558 11.188 11.188 0 0 1-2.606 2.956Zm-7.025-30.924a15.805 15.805 0 0 0-8.252 4.814 18.007 18.007 0 0 0 3.957 1.7 18.154 18.154 0 0 1 1.69-3.56 11.192 11.192 0 0 1 2.605-2.954Zm-.006 30.921a11.23 11.23 0 0 1-2.595-2.944 18.267 18.267 0 0 1-1.695-3.567 18.012 18.012 0 0 0-3.955 1.7 15.8 15.8 0 0 0 8.245 4.811Z"/><path class="f" d="M79.593 87.319h-.115a17.093 17.093 0 0 1 .118-34.186l.165.001a17.124 17.124 0 0 1 16.923 17.104 17.121 17.121 0 0 1-17.091 17.08Zm-.475-33.376a16.29 16.29 0 0 0 .366 32.573h.109A16.319 16.319 0 0 0 95.88 70.238v-.002a16.32 16.32 0 0 0-16.128-16.299c-.184-.002-.37 0-.553.004a.401.401 0 0 1 .37.4v7.996a.402.402 0 0 1-.359.4 26.455 26.455 0 0 1-6.785-.878.401.401 0 0 1-.267-.43.403.403 0 0 1-.489.232 18.394 18.394 0 0 1-4.044-1.737.402.402 0 0 1-.09-.618 16.289 16.289 0 0 1 8.456-4.933.401.401 0 0 1 .335.708 7.991 7.991 0 0 0-.13.103 6.074 6.074 0 0 1 1.748-.945 7.684 7.684 0 0 1 .774-.205c.116-.026.234-.053.353-.082a.413.413 0 0 1 .046-.009Zm-6.032 7.275a29.94 29.94 0 0 0 5.682.737v-7.109a5.83 5.83 0 0 0-.566.153 6.096 6.096 0 0 0-2.541 1.775 13.051 13.051 0 0 0-2.377 3.937c-.069.168-.134.337-.198.507Zm-4.611-1.735a17.713 17.713 0 0 0 3.067 1.297 18.056 18.056 0 0 1 1.595-3.275 12.847 12.847 0 0 1 1.433-1.894 15.455 15.455 0 0 0-6.095 3.872ZM79.17 86.51a.407.407 0 0 1-.096-.012 16.736 16.736 0 0 0-.347-.08 8.034 8.034 0 0 1-.78-.204 5.927 5.927 0 0 1-1.732-.93l.106.084a.401.401 0 0 1-.336.708 16.289 16.289 0 0 1-8.449-4.93.401.401 0 0 1 .09-.617 18.408 18.408 0 0 1 4.042-1.738.4.4 0 0 1 .488.23.402.402 0 0 1 .295-.448 27.82 27.82 0 0 1 6.713-.876.407.407 0 0 1 .287.115.401.401 0 0 1 .12.286v8.01a.4.4 0 0 1-.401.402Zm-6.084-7.27a13.093 13.093 0 0 0 2.886 4.762 5.674 5.674 0 0 0 2.228 1.45c.18.06.37.107.568.152v-7.096a26.992 26.992 0 0 0-5.682.732Zm-4.611 1.73a15.465 15.465 0 0 0 6.093 3.87 12.962 12.962 0 0 1-1.426-1.885 18.19 18.19 0 0 1-1.6-3.283 17.807 17.807 0 0 0-3.067 1.298Zm11.545 5.515a.401.401 0 0 1-.402-.402v-7.985a.4.4 0 0 1 .12-.286.461.461 0 0 1 .288-.115 27.967 27.967 0 0 1 6.719.876.412.412 0 0 0 .774.217 18.4 18.4 0 0 1 4.044 1.739.402.402 0 0 1 .091.617 16.292 16.292 0 0 1-8.456 4.933.401.401 0 0 1-.336-.708q.09-.07.178-.141a5.9 5.9 0 0 1-2.381 1.15 6.163 6.163 0 0 1-.392.07l-.18.029a.4.4 0 0 1-.067.005Zm.401-7.977v7.102l.064-.013a5.586 5.586 0 0 0 2.76-1.622 12.144 12.144 0 0 0 2.51-3.882c.122-.28.234-.565.347-.854a27.131 27.131 0 0 0-5.681-.731Zm7.226 1.164a17.968 17.968 0 0 1-1.594 3.273 12.83 12.83 0 0 1-1.434 1.896 15.458 15.458 0 0 0 6.096-3.871 17.716 17.716 0 0 0-3.068-1.298Zm-20.357.971a.402.402 0 0 1-.314-.15 16.363 16.363 0 0 1-3.65-9.833.402.402 0 0 1 .402-.416h6.616a.401.401 0 0 1 .402.394 27.303 27.303 0 0 0 1.08 7.359 27.607 27.607 0 0 1-1.064-7.338.401.401 0 0 1 .401-.41h8.007a.401.401 0 0 1 .4.402v6.627a.401.401 0 0 1-.394.401 28.185 28.185 0 0 0-6.775.886.403.403 0 0 1-.483-.265.401.401 0 0 1-.272.477 18.71 18.71 0 0 0-4.15 1.809.4.4 0 0 1-.206.057Zm-3.141-9.597a15.292 15.292 0 0 0 3.24 8.673 19.437 19.437 0 0 1 3.64-1.588 27.913 27.913 0 0 1-1.076-7.085Zm7.425.007a26.575 26.575 0 0 0 1 6.64 28.944 28.944 0 0 1 6.194-.808v-5.832Zm20.353 9.558a.398.398 0 0 1-.176-.04 68.252 68.252 0 0 1-.658-.328 28.04 28.04 0 0 0-1.428-.684c-.471-.204-.95-.38-1.457-.566-.225-.082-.451-.165-.679-.252a.401.401 0 0 1-.244-.482l-.01.034a.4.4 0 0 1-.485.271 28.175 28.175 0 0 0-6.774-.883.401.401 0 0 1-.396-.402v-6.632a.401.401 0 0 1 .402-.401h8.002a.402.402 0 0 1 .402.408 27.426 27.426 0 0 1-1.13 7.566 27.438 27.438 0 0 0 1.146-7.577.401.401 0 0 1 .401-.395h6.617a.401.401 0 0 1 .401.416 16.296 16.296 0 0 1-3.62 9.796.401.401 0 0 1-.314.151Zm-3.764-2.49.32.119c.497.181 1.009.37 1.502.583.497.215.969.452 1.468.703l.36.18a15.466 15.466 0 0 0 3.227-8.655h-5.804a28.225 28.225 0 0 1-1.073 7.07Zm-7.74-1.235a28.915 28.915 0 0 1 6.192.806 26.535 26.535 0 0 0 .999-6.644h-7.191Zm15.038-6.677h-6.616a.402.402 0 0 1-.402-.394 27.32 27.32 0 0 0-1.079-7.354 27.548 27.548 0 0 1 1.062 7.334.401.401 0 0 1-.401.409h-8.007a.401.401 0 0 1-.401-.402v-6.606a.401.401 0 0 1 .393-.402 28.375 28.375 0 0 0 6.777-.908.392.392 0 0 0 .756-.212 18.686 18.686 0 0 0 4.15-1.808.402.402 0 0 1 .52.093 16.361 16.361 0 0 1 3.65 9.834.402.402 0 0 1-.402.416Zm-6.224-.803h5.803a15.295 15.295 0 0 0-3.239-8.672 19.432 19.432 0 0 1-3.641 1.587 27.922 27.922 0 0 1 1.077 7.085Zm-8.818-.005h7.195a26.515 26.515 0 0 0-.999-6.642 29.12 29.12 0 0 1-6.196.828Zm-1.251.805h-8.004a.402.402 0 0 1-.4-.408 27.434 27.434 0 0 1 1.134-7.585 27.171 27.171 0 0 0-1.151 7.597.401.401 0 0 1-.401.395h-6.617a.401.401 0 0 1-.401-.416 16.364 16.364 0 0 1 3.646-9.83.4.4 0 0 1 .52-.094 18.675 18.675 0 0 0 4.151 1.808.401.401 0 0 1 .268.491l.002-.006a.402.402 0 0 1 .486-.27 28.273 28.273 0 0 0 6.774.904.401.401 0 0 1 .394.401v6.611a.401.401 0 0 1-.401.402Zm-7.593-.803h7.191v-5.817a28.996 28.996 0 0 1-6.192-.826 26.526 26.526 0 0 0-.999 6.643Zm-7.426 0h5.804a27.903 27.903 0 0 1 1.076-7.083 19.404 19.404 0 0 1-3.641-1.587 15.293 15.293 0 0 0-3.239 8.67Zm15.872-6.648a.402.402 0 0 1-.402-.401v-7.995a.401.401 0 0 1 .484-.393c.09.019.18.036.27.053.198.038.404.078.61.136a5.908 5.908 0 0 1 1.84.905.402.402 0 0 1 .28-.682h.016a15.736 15.736 0 0 1 4.674 1.798 16.361 16.361 0 0 1 3.86 3.135.401.401 0 0 1-.094.615 18.482 18.482 0 0 1-4.033 1.734.278.278 0 1 0-.53.015.4.4 0 0 1-.256.205 27.924 27.924 0 0 1-6.714.875Zm.4-7.909v7.098a27.09 27.09 0 0 0 5.681-.731 19.39 19.39 0 0 0-.197-.503 12.813 12.813 0 0 0-2.532-4.1 5.822 5.822 0 0 0-2.61-1.683 4.458 4.458 0 0 0-.341-.08Zm4.17.748a15.668 15.668 0 0 1 3.058 5.186 17.844 17.844 0 0 0 3.065-1.297 15.544 15.544 0 0 0-3.326-2.614 19.437 19.437 0 0 0-2.797-1.275Z"/><path class="g" d="M75.076 93.716a2.348 2.348 0 0 1-.467-.052l-.092-.02a26.67 26.67 0 0 1-4.242-1.359 23.179 23.179 0 0 1-11.219-9.913 23.623 23.623 0 0 1-2.06-19.364A23.939 23.939 0 0 1 70.37 48.495a.692.692 0 0 0 .415-.754l-.278-1.26a.773.773 0 0 1 1.048-.882l4.712 1.921a.737.737 0 0 1 .46.557.776.776 0 0 1-.206.701l-3.477 3.543a.767.767 0 0 1-.706.216l-.056-.013a.77.77 0 0 1-.542-.57l-.26-1.12a.649.649 0 0 0-.35-.44.67.67 0 0 0-.152-.051.648.648 0 0 0-.413.05l-.056.028c-.632.305-1.23.593-1.806.92a21.964 21.964 0 0 0 6.172 40.526l.059.011c1.081.239 1.13.732 1.052 1.136a.821.821 0 0 1-.348.56 1.004 1.004 0 0 1-.562.142ZM87.776 95.208a.901.901 0 0 1-.181-.019.886.886 0 0 1-.16-.049l-4.252-1.735a.902.902 0 0 1-.3-1.467l3.145-3.185a.892.892 0 0 1 .638-.268.902.902 0 0 1 .182.019l.066.015a.895.895 0 0 1 .628.662l.186.804a.653.653 0 0 0 .503.49.673.673 0 0 0 .131.013.659.659 0 0 0 .28-.063c7.827-3.756 12.145-9.945 12.836-18.397A21.647 21.647 0 0 0 91.412 51.87c-.447-.281-.909-.55-1.373-.796a22.692 22.692 0 0 0-5.796-2.13l-.175-.035a1.414 1.414 0 0 1-.344-.106.861.861 0 0 1-.486-1.023.847.847 0 0 1 .83-.689l.048-.001a1.384 1.384 0 0 1 .274.032l.203.045a23.196 23.196 0 0 1 6.15 2.228 23.776 23.776 0 0 1-1.935 42.95.652.652 0 0 0-.38.735l.225 1.036a.901.901 0 0 1-.877 1.092Z"/></svg>