<svg xmlns="http://www.w3.org/2000/svg" viewBox="0 0 160.01151 160.01151"><defs><style>.a{fill:#fff;}.b{fill:none;stroke:#fff;stroke-linecap:round;stroke-linejoin:round;stroke-width:1.41732px;}.c{fill:#004c74;}.d{fill:#8ddcff;}.e{fill:#f58535;}.f{fill:#ffc348;}</style></defs><title>it-environment-management</title><circle class="a" cx="80.00576" cy="80.00576" r="71.90772"/><circle class="b" cx="80.00576" cy="80.00576" r="79.29709"/><path class="a" d="M80.00575,160.00648A80.00023,80.00023,0,1,1,160.006,80.00577,80.00022,80.00022,0,0,1,80.00575,160.00648Zm0-158.59507A78.59435,78.59435,0,1,0,158.5996,80.00626v-.0005A78.68358,78.68358,0,0,0,80.00575,1.41141Z"/><path class="c" d="M97.3606,51.36233a2.15971,2.15971,0,1,1,2.15971,2.15846A2.16251,2.16251,0,0,1,97.3606,51.36233Z"/><path class="c" d="M105.51436,51.36233a2.15971,2.15971,0,1,1,2.15971,2.15846A2.16252,2.16252,0,0,1,105.51436,51.36233Z"/><path class="c" d="M113.61213,51.36233a2.15972,2.15972,0,1,1,2.15972,2.15846A2.16252,2.16252,0,0,1,113.61213,51.36233Z"/><path class="d" d="M90.50058,90.39656a1.99562,1.99562,0,0,1-.58584-2.2l.67217-1.84784a14.25081,14.25081,0,0,1-1.63668-3.01946l-1.91736-.44442a1.998,1.998,0,0,1-.81926-.405l-.00031-.00026A1.99356,1.99356,0,0,1,85.503,81.1545l-.27717-2.646a1.9903,1.9903,0,0,1,1.13783-2.01028l1.78384-.83207a14.23539,14.23539,0,0,1,.97516-3.29308L88.082,70.70425a1.99021,1.99021,0,0,1,.142-2.30538l1.67482-2.06674a1.9898,1.9898,0,0,1,2.22632-.61678l1.84757.6723a14.23874,14.23874,0,0,1,3.01982-1.63691l.444-1.91732a1.99112,1.99112,0,0,1,1.731-1.52981l2.64533-.277a2.00185,2.00185,0,0,1,1.47618.446l.00041.00034a2.02626,2.02626,0,0,1,.53392.69085l.83218,1.78411a14.253,14.253,0,0,1,3.29329.97534l1.66835-1.04078a1.9909,1.9909,0,0,1,2.30548.14191l2.067,1.67509a2.01645,2.01645,0,0,1,.61656,2.22595l-.67218,1.84784a14.23648,14.23648,0,0,1,1.63661,3.01975l1.91732.444a2.00017,2.00017,0,0,1,.8191.40522l.00031.00026a1.99376,1.99376,0,0,1,.71061,1.32569l.27712,2.64522a1.99129,1.99129,0,0,1-1.13791,2.01058l-1.78384.83206a14.22922,14.22922,0,0,1-.97509,3.29279l1.04083,1.66892a1.99036,1.99036,0,0,1-.14229,2.30551l-1.67448,2.06632a1.991,1.991,0,0,1-2.22625.61754l-1.84788-.67256a14.25481,14.25481,0,0,1-3.01964,1.6367l-.44411,1.91762a1.99036,1.99036,0,0,1-1.7313,1.52955l-2.64523.27711a2.0025,2.0025,0,0,1-1.476-.44616l-.00041-.00034a2.02664,2.02664,0,0,1-.53392-.69085l-.832-1.78394a14.2552,14.2552,0,0,1-3.29329-.97534l-1.66856,1.04061a1.9905,1.9905,0,0,1-2.30547-.14191C90.51794,90.41122,90.50058,90.39656,90.50058,90.39656Z"/><path class="a" d="M92.8101,86.939a1.90869,1.90869,0,0,0-.25906-1.7832,11.91061,11.91061,0,0,1-1.52913-2.82243,1.94721,1.94721,0,0,0-.55915-.79077,1.90356,1.90356,0,0,0-.79776-.39937l-1.90584-.44109-.23265-2.218,1.77452-.82789a1.91271,1.91271,0,0,0,1.07936-1.44445,11.92641,11.92641,0,0,1,.91139-3.0796,1.91029,1.91029,0,0,0-.11542-1.79581l-1.03672-1.66227,1.404-1.73271,1.83921.66928a1.90813,1.90813,0,0,0,1.78247-.25875,11.95085,11.95085,0,0,1,2.82239-1.52963,1.91112,1.91112,0,0,0,1.19017-1.35365l.4421-1.90868,2.21777-.23288.82838,1.77448a1.87628,1.87628,0,0,0,.495.648,1.91964,1.91964,0,0,0,.95114.431,11.9457,11.9457,0,0,1,3.0769.91188,1.911,1.911,0,0,0,1.79817-.11712l1.65941-1.035,1.733,1.40426-.66841,1.83764a1.90938,1.90938,0,0,0,.25807,1.78328,11.95935,11.95935,0,0,1,1.53075,2.8238,1.92961,1.92961,0,0,0,.55807.78986,1.90312,1.90312,0,0,0,.79676.39945l1.90692.442.23166,2.21811-1.77334.827a1.9117,1.9117,0,0,0-1.07965,1.447,11.94609,11.94609,0,0,1-.91111,3.07708,1.90881,1.90881,0,0,0,.11632,1.79749l1.03583,1.66059-1.40431,1.73248-1.83868-.66883a1.90828,1.90828,0,0,0-1.78228.258,11.95484,11.95484,0,0,1-2.824,1.531,1.90719,1.90719,0,0,0-1.18908,1.35457l-.44228,1.90669-2.21776.23288-.82811-1.77426a1.87806,1.87806,0,0,0-.49529-.64819,1.91945,1.91945,0,0,0-.95088-.43077,11.91142,11.91142,0,0,1-3.07689-.91187,1.9087,1.9087,0,0,0-1.79844.11689l-1.66014,1.03529-1.73216-1.40358Z"/><path class="e" d="M111.31835,79.31931a.90128.90128,0,0,0-.86747-1.5801l-.68642.37663a7.638,7.638,0,0,0-12.59659-5.85248.90123.90123,0,1,0,1.16884,1.37211A5.83852,5.83852,0,0,1,107.96,77.81905l-.60146-.58744a.90138.90138,0,0,0-1.25969,1.28962l1.92306,1.87819.0182.01454a.89656.89656,0,0,0,.0958.076c.014.00985.02729.02109.04176.03a.90612.90612,0,0,0,.13871.07012l.01135.00571.00494.00113c.01232.00467.02568.00608.03826.01027.01959.00646.03895.0137.05914.019.00931.00244.01864.00223.028.00433a.90121.90121,0,0,0,.09634.01669c.01445.00156.02841.00384.04285.00467.01845.00122.03636-.00006.05467,0a.89173.89173,0,0,0,.09593-.00459c.0235-.00243.04656-.00517.06956-.00944.01443-.00268.02821-.00627.04249-.00967.02121-.005.0421-.01.063-.01661a.897.897,0,0,0,.1313-.054l.01208-.005.01705-.00706.00211-.00083.02126-.01168.00925-.005Z"/><path class="e" d="M107.45458,82.58808a.90092.90092,0,0,0-1.27036-.10139A5.83874,5.83874,0,0,1,96.56086,78.303l.60126.58722a.90138.90138,0,0,0,1.25969-1.28962l-1.92275-1.87787c-.01075-.01046-.02334-.01758-.03439-.02743a.88831.88831,0,0,0-.07622-.06062c-.02264-.016-.0456-.03087-.06934-.04459-.02627-.01519-.0529-.02866-.08043-.04112-.02623-.01173-.05242-.02245-.07942-.03162-.02125-.00718-.04227-.01439-.064-.02006l-.00465-.0017-.01775-.00267c-.02678-.00621-.05343-.01145-.08059-.01517-.02258-.00315-.04493-.00616-.06779-.00765l-.03635-.00108c-.02265-.00054-.045.00042-.06755.00161-.02216.00115-.04407.002-.06628.00482-.01537.002-.03037.00443-.04553.00714-.021.00381-.04151.00954-.0623.01479-.01956.005-.03905.00893-.05842.01531-.017.00552-.03339.01172-.05.01823-.019.00747-.037.01709-.05555.02593l-.01484.00692c-.01051.00534-.02171.008-.03215.0137l-.017.0093-.01592.00878-2.2,1.20728A.90132.90132,0,0,0,94.07,78.383l.68622-.37664a7.63824,7.63824,0,0,0,12.59682,5.85243A.90136.90136,0,0,0,107.45458,82.58808Z"/><path class="c" d="M43.08022,56.9456a3.87063,3.87063,0,0,1-.513-.02443c-.40124-.05313-.63941-.27116-.63758-.582.00183-.3133.24306-.52949.64551-.57773a4.36034,4.36034,0,0,1,.52949-.025l.41344.00244h6.02645q.425.58995.78292,1.20615Z"/><path class="c" d="M121.93723,123.03416H38.07428a2.28089,2.28089,0,0,1-2.2809-2.28089V47.28052a2.28089,2.28089,0,0,1,2.2809-2.28089h8.2996a15.39057,15.39057,0,0,0-.02783,2.11715H39.48933a1.64573,1.64573,0,0,0-1.64573,1.64573v70.784a1.64573,1.64573,0,0,0,1.64573,1.64573h81.03285a1.64573,1.64573,0,0,0,1.64573-1.64573v-70.781a1.64573,1.64573,0,0,0-1.64573-1.64573H93.155v8.60927l23.81739-.00077a3.78853,3.78853,0,0,1,.50767.02557c.31137.04212.64154.22036.637.59566-.00376.31513-.252.53248-.66335.58288a4.07325,4.07325,0,0,1-.49789.02256L73.147,56.95421a11.93731,11.93731,0,0,1,.83031-1.22517H91.44853V47.11678H77.161c.03159-.42117.04813-.813.05189-1.20185,0,0-.04663-.68892-.06618-.9153h44.79057a2.28089,2.28089,0,0,1,2.28089,2.28089v73.47275A2.28089,2.28089,0,0,1,121.93723,123.03416Z"/><path class="f" d="M73.86611,46.11391a11.88528,11.88528,0,0,1-2.47273,7.47465A14.963,14.963,0,0,0,68.45,59.97515a1.13458,1.13458,0,0,1-1.30216,1.02157,1.14964,1.14964,0,0,1-.8761-1.49607,17.24606,17.24606,0,0,1,3.32784-7.25056,9.8516,9.8516,0,1,0-15.69007-.01828,17.89077,17.89077,0,0,1,3.32755,7.25951,1.14642,1.14642,0,0,1-.859,1.50283,1.13232,1.13232,0,0,1-1.312-1.00811,16.25973,16.25973,0,0,0-2.96558-6.44326,12.08789,12.08789,0,1,1,21.66327-8.67636C73.8185,45.3574,73.845,45.85152,73.86611,46.11391Z"/><path class="f" d="M61.81138,65.77735c1.74919,0,3.49839-.00275,5.24757.00111a1.4279,1.4279,0,1,1,.07088,2.84513q-5.35348.02153-10.7071.00156a1.41174,1.41174,0,0,1-1.45883-1.00523,1.34589,1.34589,0,0,1,.54806-1.57947,1.98674,1.98674,0,0,1,.946-.25185C58.24217,65.76524,60.02685,65.77735,61.81138,65.77735Z"/><path class="f" d="M64.91962,69.60776A1.44584,1.44584,0,0,1,66.538,71.03841a1.46571,1.46571,0,0,1-1.63455,1.42373c-3.49883.00273-2.78668.00329-6.28551-.00039a1.4395,1.4395,0,1,1,.01617-2.85417C60.38351,69.60458,63.1702,69.60424,64.91962,69.60776Z"/><path class="f" d="M61.77489,64.77616c-1.8197,0-3.63951.01141-5.45906-.00549a1.41157,1.41157,0,0,1-.57647-2.7034,1.95979,1.95979,0,0,1,.72086-.129q5.3001-.01186,10.60025-.00261a1.43062,1.43062,0,1,1-.03845,2.84109c-1.749.00585-3.49809.00165-5.24713.00165Z"/><path class="f" d="M61.785,49.33583c-.16228-.0338-.32455-.06085-.48683-.10818a.47251.47251,0,0,1-.33808-.34484,5.04364,5.04364,0,0,1-.16227-.70319c-.115-.72349-.20961-1.45373-.31779-2.184l-.32456-2.31244c-.10818-.75053-.21637-1.50781-.32455-2.25834a1.53963,1.53963,0,0,1,.15552-.88576,1.92777,1.92777,0,0,1,1.60923-1.12917,1.893,1.893,0,0,1,2.00817,1.23735,1.95156,1.95156,0,0,1,.0879.94661c-.10142.7032-.18932,1.4064-.29074,2.10283-.10142.74377-.20285,1.48754-.30427,2.23807-.08114.61529-.169,1.23059-.25018,1.84589a3.87736,3.87736,0,0,1-.21637.96013.77068.77068,0,0,1-.58825.54769c-.0879.01352-.1758.02028-.2637.027C61.79176,49.32231,61.785,49.32907,61.785,49.33583Z"/><path class="f" d="M61.81205,51.07354a1.91826,1.91826,0,0,1,1.9135,1.96084,1.95452,1.95452,0,0,1-1.90674,1.95408,2.00655,2.00655,0,0,1-2.00817-1.95408A1.96706,1.96706,0,0,1,61.81205,51.07354Z"/><rect class="d" x="43.80007" y="97.26169" width="39.82811" height="17.36982" rx="2.51152"/><path class="c" d="M72.40427,105.929c-.55811-.55038-1.09985-1.08037-1.6368-1.61517q-1.11647-1.112-2.227-2.22992a1.03458,1.03458,0,1,1,1.45539-1.46343q2.26862,2.26557,4.53238,4.536a1.03642,1.03642,0,0,1-.00209,1.58426q-2.27109,2.27865-4.54681,4.5527a1.03426,1.03426,0,1,1-1.45113-1.47071q1.8409-1.84209,3.68033-3.68568C72.26462,106.08088,72.31747,106.02148,72.40427,105.929Z"/><path class="c" d="M54.99835,105.94061c.49353.48415.94866.925,1.39753,1.3722q1.26353,1.25871,2.52052,2.524a1.034,1.034,0,1,1-1.4653,1.45736q-2.28289-2.28206-4.5626-4.5673a1.023,1.023,0,0,1-.01673-1.53569q2.30511-2.32167,4.62419-4.62945a1.02082,1.02082,0,0,1,1.456.01527,1.03184,1.03184,0,0,1-.032,1.47414q-1.45875,1.46574-2.92262,2.92638C55.6828,105.29105,55.35806,105.59445,54.99835,105.94061Z"/><path class="c" d="M60.11128,110.5693c.07742-.20938.13934-.42612.23467-.627q1.42073-2.99376,2.8509-5.983.73443-1.53993,1.46838-3.0801a1.03025,1.03025,0,1,1,1.86639.8721c-.70543,1.49711-1.4193,2.99025-2.13058,4.48461-.73948,1.55362-1.48292,3.10538-2.21752,4.6613a1.10811,1.10811,0,0,1-.822.71068A1.07244,1.07244,0,0,1,60.11128,110.5693Z"/><path class="c" d="M46.93316,95.3718a.26584.26584,0,0,1-.26566-.26565V93.33327a.26566.26566,0,0,1,.53132,0v1.77288A.26584.26584,0,0,1,46.93316,95.3718Zm0-3.54514a.26585.26585,0,0,1-.26566-.26566V89.78812a.26566.26566,0,0,1,.53132,0V91.561A.26585.26585,0,0,1,46.93316,91.82666Zm0-3.54576a.26585.26585,0,0,1-.26566-.26566V86.243a.26566.26566,0,0,1,.53132,0v1.77226A.26585.26585,0,0,1,46.93316,88.2809Zm0-3.54515a.26584.26584,0,0,1-.26566-.26565V82.69722a.26566.26566,0,0,1,.53132,0V84.4701A.26584.26584,0,0,1,46.93316,84.73575Zm0-3.54514a.26585.26585,0,0,1-.26566-.26566V79.15207a.26566.26566,0,0,1,.53132,0V80.925A.26585.26585,0,0,1,46.93316,81.19061Zm0-3.54576a.26585.26585,0,0,1-.26566-.26565V75.60693a.26566.26566,0,0,1,.53132,0V77.3792A.26585.26585,0,0,1,46.93316,77.64485Zm0-3.54514a.26585.26585,0,0,1-.26566-.26566V72.06117a.26566.26566,0,0,1,.53132,0v1.77288A.26585.26585,0,0,1,46.93316,74.09971Zm0-3.54515a.26585.26585,0,0,1-.26566-.26566V68.516a.26566.26566,0,0,1,.53132,0V70.2889A.26585.26585,0,0,1,46.93316,70.55456Zm0-3.54576a.26584.26584,0,0,1-.26566-.26565V64.97027a.26566.26566,0,0,1,.53132,0v1.77288A.26584.26584,0,0,1,46.93316,67.0088Zm4.485-3.38758h-.7817a.26566.26566,0,1,1,0-.53131h.7817a.26566.26566,0,1,1,0,.53131Zm-2.55458,0H47.09072a.26566.26566,0,1,1,0-.53131H48.8636a.26566.26566,0,1,1,0,.53131Z"/><path class="c" d="M91.99774,63.62122H90.22547a.26566.26566,0,1,1,0-.53131h1.77227a.26566.26566,0,0,1,0,.53131Zm-3.54515,0H86.67971a.26566.26566,0,0,1,0-.53131h1.77288a.26566.26566,0,1,1,0,.53131Zm-3.54515,0H83.13457a.26566.26566,0,1,1,0-.53131h1.77287a.26566.26566,0,1,1,0,.53131Zm-3.54575,0H79.58942a.26566.26566,0,1,1,0-.53131h1.77227a.26566.26566,0,0,1,0,.53131Zm-3.54515,0H76.04366a.26566.26566,0,0,1,0-.53131h1.77288a.26566.26566,0,1,1,0,.53131Zm-3.54514,0H72.49852a.26566.26566,0,1,1,0-.53131H74.2714a.26566.26566,0,0,1,0,.53131Z"/><path class="c" d="M113.61244,111.89505a.27116.27116,0,0,1-.26566-.36581v-1.63852a.26566.26566,0,1,1,.53132,0v1.73868A.26584.26584,0,0,1,113.61244,111.89505Zm-1.80708,0h-1.77288a.26566.26566,0,0,1,0-.53131h1.77288a.26566.26566,0,1,1,0,.53131Zm-3.54514,0h-1.77288a.26566.26566,0,1,1,0-.53131h1.77288a.26566.26566,0,0,1,0,.53131Zm-3.54576,0h-1.77227a.26566.26566,0,1,1,0-.53131h1.77227a.26566.26566,0,1,1,0,.53131Zm-3.54515,0H99.39644a.26566.26566,0,1,1,0-.53131h1.77287a.26566.26566,0,1,1,0,.53131Zm-3.54514,0H95.85129a.26566.26566,0,1,1,0-.53131h1.77288a.26566.26566,0,0,1,0,.53131Zm-3.54576,0H92.30614a.26566.26566,0,0,1,0-.53131h1.77227a.26566.26566,0,1,1,0,.53131Zm-3.54515,0H88.76039a.26566.26566,0,1,1,0-.53131h1.77287a.26566.26566,0,1,1,0,.53131Zm-3.54514,0H85.21524a.26566.26566,0,1,1,0-.53131h1.77288a.26566.26566,0,1,1,0,.53131Zm26.62432-3.51094a.26585.26585,0,0,1-.26566-.26566v-1.77288a.26566.26566,0,0,1,.53132,0v1.77288A.26585.26585,0,0,1,113.61244,108.38411Zm0-3.54576a.26585.26585,0,0,1-.26566-.26566v-1.77226a.26566.26566,0,0,1,.53132,0v1.77226A.26585.26585,0,0,1,113.61244,104.83835Zm0-3.54514a.26585.26585,0,0,1-.26566-.26566V99.25467a.26566.26566,0,0,1,.53132,0v1.77288A.26585.26585,0,0,1,113.61244,101.29321Zm0-3.54515a.26585.26585,0,0,1-.26566-.26566V95.70952a.26566.26566,0,0,1,.53132,0V97.4824A.26585.26585,0,0,1,113.61244,97.74806Zm0-3.54576a.26585.26585,0,0,1-.26566-.26565V92.16438a.26566.26566,0,1,1,.53132,0v1.77227A.26585.26585,0,0,1,113.61244,94.2023Z"/></svg>