<svg xmlns="http://www.w3.org/2000/svg" viewBox="0 0 130 130"><defs><style>.a{fill:#4ab4ee;}.b{fill:#e25a1c;}.b,.c{fill-rule:evenodd;}.c,.d{fill:#fff;}</style></defs><title>Spark-intgration-14.11.22</title><path class="a" d="M88.36213,111.69246a56.37678,56.37678,0,0,1-19.37024,4.84729,55.23762,55.23762,0,0,1-42.74645-15.69754A55.98662,55.98662,0,0,1,9.635,57.7815,1.71618,1.71618,0,0,0,8.41381,56.038L5.48114,55.319a1.72468,1.72468,0,0,1-.73158-2.96183c-.00042-.00093,8.84216-7.846,8.91868-7.91338a1.77757,1.77757,0,0,1,.426-.27618,1.67867,1.67867,0,0,1,1.13274-.08938A1.72494,1.72494,0,0,1,16.427,45.17855l3.84368,10.97336a1.71336,1.71336,0,0,1-.34341,1.71939l-.149.14853a1.72307,1.72307,0,0,1-1.526.37853l-2.62192-.61626a1.60923,1.60923,0,0,0-1.36632.30226,1.64359,1.64359,0,0,0-.61443,1.26312c-.01516,1.69908-.03,3.31083.06386,4.88637A51.36368,51.36368,0,0,0,98.84375,100.11a53.79929,53.79929,0,0,0,6.54984-6.82568,6.69984,6.69984,0,0,1,.85056-.92727,3.14758,3.14758,0,0,1,.75107-.504,1.64989,1.64989,0,0,1,1.83515.29835,1.81338,1.81338,0,0,1,.78213,1.25217,3.29678,3.29678,0,0,1-.9899,2.35449,62.32011,62.32011,0,0,1-7.23909,7.4993A53.905,53.905,0,0,1,88.36213,111.69246Z"/><path class="a" d="M110.58654,66.48626h0l-.00017,0Zm6.39684,10.68132h0l.00015.00018Z"/><path class="a" d="M110.58654,66.48626h0l-.00017,0Zm6.39684,10.68132h0l.00015.00018Z"/><path class="a" d="M116.60215,77.62664a2.02314,2.02314,0,0,1-2.751-1.17762l-3.43546-9.90358a2.0226,2.0226,0,0,1,.40874-2.01189,1.788,1.788,0,0,1,.17493-.17491,1.99475,1.99475,0,0,1,.48035-.30884,2.0396,2.0396,0,0,1,1.302-.12983l1.87834.44181a1.61282,1.61282,0,0,0,1.35934-.298,1.66064,1.66064,0,0,0,.61992-1.2511c.2178-20.36407-8.32745-35.87005-25.39556-46.09005a50.89856,50.89856,0,0,0-47.30345-2.69393A51.55459,51.55459,0,0,0,38.3792,16.995c-1.05083.64545-2.09475,1.34027-3.09631,2.05933-1.3321.95947-2.63025,1.98837-3.86083,3.06242a53.77291,53.77291,0,0,0-6.63361,6.931,5.66507,5.66507,0,0,1-.72216.84626,3.04981,3.04981,0,0,1-.554.33354,1.86644,1.86644,0,0,1-2.08385-.2898,1.9065,1.9065,0,0,1-.56595-2.3546,3.66611,3.66611,0,0,1,.541-.81714,54.92583,54.92583,0,0,1,7.20821-7.6305c1.26763-1.10549,2.6051-2.16577,3.97593-3.153a55.825,55.825,0,0,1,9.42623-5.47623A55.13258,55.13258,0,0,1,81.05432,7.78085a55.51519,55.51519,0,0,1,39.6133,56.66658,1.61425,1.61425,0,0,0,1.22123,1.65065l2.40642.59959a2.018,2.018,0,0,1,.85385,3.46928L117.105,77.29858A2.01924,2.01924,0,0,1,116.60215,77.62664Z"/><path class="b" d="M100.69129,61.32927l-.14793-.31337-3.22421-6.11169a.36982.36982,0,0,1,.05353-.50023l5.09956-5.992a.55479.55479,0,0,0,.13624-.26958l-1.489.38928-6.18175,1.65444a.2843.2843,0,0,1-.37469-.1635l-3.52394-5.86741a.798.798,0,0,0-.256-.28515l-.292,1.562-.98,5.518-.10121.59657c-.01654.18978-.11386.25985-.28514.31435l-7.28148,2.30161a.89121.89121,0,0,0-.325.181l5.98517,2.37849-.17518.1382L83.60582,59.27a.39417.39417,0,0,1-.4321.035l-4.45531-1.98532a4.5843,4.5843,0,0,1-1.73229-1.26516,2.29747,2.29747,0,0,1,.55959-3.65728,6.63679,6.63679,0,0,1,1.50359-.68416l7.153-2.27242a.40911.40911,0,0,0,.33088-.36981l.979-5.518a9.71222,9.71222,0,0,1,.74935-2.89234,5.38079,5.38079,0,0,1,.66567-.97612,2.12224,2.12224,0,0,1,3.26995-.09051,6.20513,6.20513,0,0,1,.87977,1.14643l3.26995,5.42363a.35035.35035,0,0,0,.45031.20667l.0285-.012,7.98022-2.11962a3.73716,3.73716,0,0,1,1.669-.09246,1.64387,1.64387,0,0,1,1.34885,2.35028,4.552,4.552,0,0,1-.88171,1.42768L101.3842,54.4906a.38182.38182,0,0,0-.0506.50606l3.3225,6.29952a3.50446,3.50446,0,0,1,.473,1.60188,2.58151,2.58151,0,0,1-2.252,2.579,4.818,4.818,0,0,1-2.09433-.25985l-5.012-1.526a.28224.28224,0,0,1-.24136-.27444L94.9241,59.8899a.695.695,0,0,1,.00974-.13916l5.75647,1.58826"/><path class="c" d="M97.43788,78.47021l-4.51564-.00389a.43794.43794,0,0,1-.42236-.22676L86.9215,69.7922l-1.13864,8.65563H81.8414l.13625-1.125L84.2452,60.09719a.36009.36009,0,0,1,.13625-.23356L88.46888,57.236a.635.635,0,0,1,.11679-.03406l-1.22915,9.368.04866.03309,6.45036-7.15009.63453,3.66312a.42177.42177,0,0,1-.13431.41555L90.22356,67.874l-.19464.19464.12652.20048,7.12381,9.99475c.04282.06034.10511.09732.15863.16155V78.478M50.72435,69.81848a9.25012,9.25012,0,0,0-.23941-1.17952,4.074,4.074,0,0,0-4.91173-2.65A5.47624,5.47624,0,0,0,41.26,70.82574a3.92925,3.92925,0,0,0,2.57606,4.16335,4.64968,4.64968,0,0,0,4.12636-.471,5.47371,5.47371,0,0,0,2.76389-4.70055ZM40.30626,77.37731l-.3377,2.52837-.42626,3.29526c-.01655.12846-.05547.19464-.19269.19464L36.102,83.39071a.41779.41779,0,0,1-.09732-.0292l.19756-1.55711.72017-5.46451.85155-6.244a9.77807,9.77807,0,0,1,7.38463-7.6075,7.64855,7.64855,0,0,1,5.98517.944,6.694,6.694,0,0,1,3.13759,5.07523A8.94248,8.94248,0,0,1,51.319,76.21532,9.18846,9.18846,0,0,1,46.20968,78.77a7.51313,7.51313,0,0,1-5.64455-1.23012c-.06326-.0438-.13041-.08175-.23843-.14988"/><path class="c" d="M38.54088,59.96582l-3.56,2.65-.55764-.87394A2.74014,2.74014,0,0,0,32.36009,60.432a2.30648,2.30648,0,0,0-1.94251.764,1.35737,1.35737,0,0,0-.09148,1.7936c.47979.62772,1.00532,1.22429,1.54155,1.80529l2.7016,2.85925A6.02532,6.02532,0,0,1,36.211,70.72939a6.26735,6.26735,0,0,1-.72795,4.05629,7.71383,7.71383,0,0,1-5.83628,4.105,7.65448,7.65448,0,0,1-3.42371-.181,5.03406,5.03406,0,0,1-3.196-2.796c-.23552-.4866-.41653-1.0024-.63064-1.526l3.86068-2.0661.11679.28028a9.09612,9.09612,0,0,0,.68124,1.30993,2.62177,2.62177,0,0,0,3.42857.97028,3.75666,3.75666,0,0,0,.944-.61312,2.02054,2.02054,0,0,0,.38928-2.758,12.65412,12.65412,0,0,0-1.26516-1.525l-3.1775-3.50351a5.50208,5.50208,0,0,1-1.343-2.87678,4.93764,4.93764,0,0,1,.69778-3.34294,7.25025,7.25025,0,0,1,6.79293-3.70983,5.34208,5.34208,0,0,1,4.1069,2.18l.92162,1.22136M67.369,73.44851l-.57906,4.38718a.29533.29533,0,0,1-.12943.20048,7.83026,7.83026,0,0,1-9.21814-1.5688,7.04114,7.04114,0,0,1-1.75857-5.16184,9.72654,9.72654,0,0,1,8.36951-8.97484A7.17088,7.17088,0,0,1,70.71,64.73838,6.69249,6.69249,0,0,1,72.38678,69.582c-.0545,1.20093-.2433,2.396-.3922,3.60084l-.66664,5.07426c-.00778.06033-.01946.1197-.03406.19464H67.79037l.13916-1.14838.75715-5.8606a6.257,6.257,0,0,0-.50606-3.557A3.42307,3.42307,0,0,0,65.28633,65.913a5.48948,5.48948,0,0,0-5.85866,4.25677,4.07113,4.07113,0,0,0,1.61941,4.37452,4.43129,4.43129,0,0,0,4.31321.32116A5.62958,5.62958,0,0,0,67.368,73.45727m14.79846-10.783-.47979,3.64366c-.74255,0-1.47147-.00389-2.19943.00195a1.3859,1.3859,0,0,0-1.306.93718,3.864,3.864,0,0,0-.12457.68124L76.953,76.3321l-.27541,2.12741H73.01839l.20048-1.57853.71628-5.43823.63842-4.70347a5.08738,5.08738,0,0,1,4.52732-4.04851l3.06363-.00778"/><path class="d" d="M43.44,57.36932h.907l-.21411-1.36248Zm1.04911.88756H42.98061l-.47979.93914H41.43225l2.35806-4.41346H44.82l.80289,4.40372h-.99071L44.49,58.24715"/><path class="d" d="M49.88837,55.6779h-.5372l-.181,1.017h.53721a.56383.56383,0,0,0,.58391-.61507.3684.3684,0,0,0-.40192-.40193ZM48.5872,54.802h1.41114a1.15386,1.15386,0,0,1,1.26516,1.197,1.53691,1.53691,0,0,1-1.63206,1.59312H49.0232l-.28515,1.61259h-.9187l.77661-4.40372"/><path class="d" d="M54.37871,57.36932h.907l-.2141-1.36248Zm1.04911.88756H53.91936l-.47979.93914H52.371l2.35806-4.41346h1.02965l.80289,4.40372h-.99072l-.14209-.93913"/><path class="d" d="M61.39255,59.03933a2.41346,2.41346,0,0,1-.99753.22676,1.86,1.86,0,0,1-1.89774-1.96879,2.6027,2.6027,0,0,1,2.579-2.577,1.90325,1.90325,0,0,1,.92454.22676L61.87137,56.003a1.189,1.189,0,0,0-.8934-.363,1.57876,1.57876,0,0,0-1.51527,1.55712,1.04466,1.04466,0,0,0,1.03646,1.13864,1.64477,1.64477,0,0,0,1.016-.35619l-.1236,1.04911m5.6212-1.6087H65.09557l-.31142,1.77414h-.9187l.77661-4.40372h.91968l-.31143,1.75175h1.91721l.31142-1.75175h.91967L67.622,59.19407h-.91967l.31142-1.77414M70.38491,59.195l.77661-4.40372h2.433l-.15571.87588H71.92548l-.15571.85447h1.39849l-.15571.88755H71.60433l-.15572.88756H72.9707l-.15571.88756H70.3742"/></svg>