<svg xmlns="http://www.w3.org/2000/svg" viewBox="0 0 200 90"><defs><style>.a{fill:#fff}</style></defs><path d="M101.89 68.365a2.101 2.101 0 0 0 3.829-.483 2.109 2.109 0 0 0 3.746-.8 2.143 2.143 0 0 0 3.523-.778c.007-.022-.007.02 0 0 7.55-3.105 13.075-8.722 15.236-15.427a2.874 2.874 0 0 0 1.165-.893c2.335.55 4.944 1.648 5.905-.961 2.061.549 6.382 1.987 7.69-1.51 3.021.412 7.415.687 7.965-2.472 2.61 0 7.14-.412 7.14-3.433 2.61 0 7.141-1.786 6.592-3.846 2.335-.274 5.494-2.746 5.494-4.394 2.334-.686 4.944-2.472 4.394-4.805 1.373-.825 3.708-1.786 3.708-3.159a2.437 2.437 0 0 0-2.335-2.472c-1.237 0-5.906.283-7.553.283-1.647 0-21.56-.275-26.23 0a112.697 112.697 0 0 1-13.458.13c-2.124-.205-9.362-.62-13.708.542a34.565 34.565 0 0 0-29.986 0c-4.345-1.16-11.584-.746-13.71-.545a112.466 112.466 0 0 1-13.458-.129c-4.669-.275-24.582 0-26.23 0s-6.316-.283-7.553-.283a2.435 2.435 0 0 0-2.333 2.472c0 1.374 2.335 2.335 3.709 3.158-.55 2.335 2.06 4.12 4.394 4.806 0 1.648 3.158 4.12 5.493 4.394-.55 2.06 3.983 3.846 6.592 3.846 0 3.02 4.532 3.433 7.14 3.433.55 3.158 4.945 2.884 7.966 2.472 1.308 3.498 5.63 2.06 7.69 1.51.961 2.61 3.57 1.51 5.906.96a2.867 2.867 0 0 0 1.164.893c2.16 6.707 7.688 12.324 15.236 15.428.006.022-.006-.02 0 0a2.143 2.143 0 0 0 3.523.778 2.109 2.109 0 0 0 3.746.801 2.1 2.1 0 0 0 3.828.482c.21 1.561 3.57 1.561 3.78.001Z"/><path class="a" d="M76.243 50.533c.807 1.846 3.36 1.462 4.888.886a19.25 19.25 0 0 0 9.605 7.151l-3.316 5.621c-6.447-2.808-11.22-7.51-13.323-13.045a6.673 6.673 0 0 0 2.146-.613Z"/><path class="a" d="M86.94 65.65c-7.118-3.005-12.35-8.263-14.516-14.566a4.767 4.767 0 0 0 1.1.101c2.122 5.734 7.022 10.607 13.65 13.5a2.897 2.897 0 0 0-.234.966Zm3.724.169-.003.01c-1.055 2.596-4.185 1.094-2.769-1.357l3.372-5.715q.928.314 1.9.564c.014.088-2.463 6.38-2.5 6.498Zm3.566.808c-.653 2.596-3.783 1.804-3.047-.626l2.68-6.513q.956.217 1.948.366c.006.025-1.581 6.773-1.581 6.773Zm3.675.41c-.233 2.794-3.663 2.309-3.048-.474 0 .002 1.532-6.612 1.537-6.626.644.081 1.297.144 1.96.182.023.06-.447 6.862-.449 6.918Zm.597-.043c0 .001.366-6.763.371-6.78a18.092 18.092 0 0 0 2.25-.02c.032.057.457 6.73.464 6.785.207 2.735-3.249 2.79-3.085.015Zm-74.52-42.42a4.083 4.083 0 0 1 1.806-.27c4.257 0 14.145.275 16.068.275s15.519 1.51 17.646 2.198c.962.275 1.168 1.235 0 1.304s-15.68.277-17.74.277c-1.598 0-9.908-.028-14.71-.98-2.598-.517-3.993-2.1-3.07-2.805Zm4.676 5.085c2.472.069 14.831.138 16.274.069 1.441-.07 12.634-.686 13.939-.756 2.821-.148 3.735 1.109.755 1.786a184.852 184.852 0 0 1-26.024 1.717c-1.992.07-4.669-.961-5.356-1.923-.686-.961.07-.893.412-.893Zm4.807 4.533c1.717 0 21.972-1.51 26.23-2.403 3.703-.564 2.868 1.339 1.372 1.647-1.256.26-16.273 3.159-23.894 3.296-2.541-.068-5.494-2.472-3.708-2.54Zm5.15 4.256c2.403-.275 18.402-2.815 22.728-3.982 3.912-1.014 3.122 1.586 1.716 1.992-1.252.36-14.886 3.68-17.99 3.845a16.466 16.466 0 0 1-3.93-.265c-4.385-.877-2.525-1.59-2.525-1.59Zm6.454 3.57c1.717-.342 15.655-3.502 19.638-5.011 1.94-.676 2.524 1.23 1.305 1.785-.756.343-11.467 4.805-16.548 5.08-1.854 0-5.283-.998-4.395-1.853Zm22.727-2.883c-1.578.755-11.191 4.807-14.9 5.631-.515.137-1.058.364-1.015.65.33 2.193 7.155.328 7.628.177 2.625-.841 7.975-2.805 10.245-5.017a8.014 8.014 0 0 1-1.958-1.441Zm2.884 2.335a74.574 74.574 0 0 1-10.848 5.15c-1.614.538.085 2.198 3.237 1.299 3.485-.54 8.573-4.664 9.397-5.419-.412-.206-1.304-.755-1.786-1.03Zm3.16 1.854c-1.244.852-3.64 2.442-5.16 3.457-.627.42-2.125 1.247-2.092 1.909.015.316.617.916 3.365-.082a12.73 12.73 0 0 0 5.535-4.665 14.736 14.736 0 0 1-1.648-.618Zm3.09 1.03c-.645.644-1.477 1.524-2.291 2.335-.75.967-2.421 1.663-1.846 2.78.622 1.21 2.583-.53 3.29-1.197a8.36 8.36 0 0 0 2.323-3.438 10.545 10.545 0 0 1-1.477-.48Z"/><path class="a" d="M53.034 24.03c1.786 0 7.827.412 10.025.412 6.315 0 14.86-1.114 20.732.092 3.651.75 4.175 1.807 4.175 2.943 0 1.479-1.236 2.367-2.111 3.008a8.72 8.72 0 0 0-4.326 7.416c-.823-.343-1.99-.549-1.167-2.266 1.439-2.877 4.673-6.382-.858-7.875a14.523 14.523 0 0 0-3.261-.433c-4.05-.137-9.925-.167-11.917-.51-1.99-.343-9.507-2.099-11.086-2.304-.687-.072-.687-.416-.206-.483Z"/><path class="a" d="M68.908 28.205c1.442 0 5.856-.03 7.337.04 4.095.195 7.02 2.19 4.062 5.934a33.173 33.173 0 0 1-2.746 2.816c-.55.412-1.58-.276-.688-1.305-1.167.686-2.609.55-1.923-1.03-1.03.825-2.746.893-1.716-1.235-.686.55-2.61.482-1.374-1.167-1.03.343-2.197-.275-1.441-1.305-1.305.207-2.06-.755-.687-1.51-1.304.34-1.647-1.17-.824-1.238Zm-4.028-.73c-.556-.035-2.968-.428-2.91.873.058 1.3 2.737.81 3.287.707 1.014-.188 1.824-.498 1.8-.918-.023-.431-1.079-.593-2.177-.662Zm.098 2.23c-.586.044-2.693-.06-2.364 1.13.103.374.878 1.132 3.468.503 1.135-.277 1.723-.885 1.723-1.368 0-.423-1.526-.365-2.827-.266Zm1.663 1.931c-.417.07-2.832.234-2.427 1.452.283.849.717.58 1.453.668.486.058 4.084-.956 3.522-2.11-.167-.343-1.226-.227-2.548-.01Zm1.194 1.726c-2.395.972-2.364 1.63-2.255 1.986.109.357 1.207.797 3.48-.314 1.15-.563 1.165-1.202.882-1.654-.353-.567-1.247-.368-2.107-.018Zm1.677 1.635c-2.493.87-2.35 1.662-2.154 2.128.218.515 1.005 1.063 3.086-.263 1.257-.8 2.075-1.47 1.85-2.003-.202-.483-1.39-.358-2.782.138Zm.976 2.498c-.654.396-.952.933-.54 1.545.738 1.096 2.913-.838 3.458-1.43.406-.438.666-.9.436-1.237-.237-.348-.975-.32-3.354 1.122Zm3.937.186c-2.903 1.48-2.625 2.198-2.22 2.504.446.339 1.499.694 3.26-1.34.771-.891.347-1.867-1.04-1.164Zm1.45 1.553c-.614.685-2.05 1.718-.938 2.487.937.649 1.486-.063 1.948-.504 2.666-2.566 1.784-4.19-1.01-1.983Z"/><path d="M84.635 25.785c2.038 1.02 2.882 2.102.788 3.582-.256.18.06.63.317.449 2.304-1.627 1.808-3.314-.859-4.522-.28-.14-.526.35-.246.491Z"/><path class="a" d="M112.617 49.027c0-2.19-2.256-4.38-4.761-5.135-.67-.152-.564-.747-.043-.982.502-.227 3.426-2.266 3.385-4.834 0-2.492-2.926-6.268-11.448-6.268-5.013 0-9.19 1.133-11.697 3.248a2.742 2.742 0 0 1 1.253 1.888v13.822a3.996 3.996 0 0 1-1.171 2.266c2.25 1.598 6.28 3.122 12.065 3.103 6.183-.152 12.417-1.972 12.417-7.108Z"/><ellipse cx="100.173" cy="38.529" rx="4.815" ry="3.846"/><ellipse cx="100.794" cy="48.951" rx="5.397" ry="4.06"/><path class="a" d="M79.256 42.32a12.267 12.267 0 0 1 .894-2.722c-.024-.034-.738-.948-2.497 1.594-.971 1.403.744 1.968 1.603 1.128Zm-.057 4.318c-.724.84-1.407 1.547-1.858 2.11-.942 1.18 1.51 2.632 2.831.957a12.228 12.228 0 0 1-.973-3.067Zm33.796-21.971a6.936 6.936 0 0 1 1.22-.544 34.06 34.06 0 0 0-28.43 0 7.005 7.005 0 0 1 1.22.544 33.21 33.21 0 0 1 25.99 0Z"/><path class="a" d="M117.042 35.57a9.543 9.543 0 0 0-4.407-5.5c-1.922-1.341-1.817-3.326-.175-5.036a32.702 32.702 0 0 0-24.919 0c1.642 1.71 1.746 3.695-.175 5.037a9.539 9.539 0 0 0-4.407 5.499c8.381-8.637 25.702-8.638 34.083 0Zm6.716 14.963c-.808 1.846-3.36 1.462-4.888.886a19.248 19.248 0 0 1-9.606 7.151l3.317 5.621c6.447-2.808 11.219-7.51 13.324-13.045a6.663 6.663 0 0 1-2.147-.613Z"/><path class="a" d="M113.061 65.65c7.118-3.005 12.35-8.263 14.516-14.566a4.767 4.767 0 0 1-1.1.101c-2.122 5.734-7.022 10.607-13.65 13.5a2.896 2.896 0 0 1 .234.966Zm-3.725.169.005.01c1.055 2.596 4.184 1.094 2.768-1.357l-3.372-5.715q-.928.314-1.9.564c-.014.088 2.463 6.38 2.5 6.498Zm-3.566.808c.654 2.596 3.783 1.804 3.047-.626l-2.68-6.513q-.955.217-1.947.366c-.006.025 1.58 6.773 1.58 6.773Zm-3.674.41c.233 2.794 3.662 2.309 3.047-.474.001.002-1.53-6.612-1.537-6.626-.644.081-1.298.144-1.96.182-.022.06.448 6.862.45 6.918Zm73.922-42.464a4.083 4.083 0 0 0-1.805-.27c-4.257 0-14.145.276-16.068.276s-15.518 1.51-17.646 2.198c-.962.275-1.168 1.235 0 1.304s15.68.277 17.74.277c1.598 0 9.908-.028 14.71-.98 2.6-.517 3.994-2.1 3.07-2.805Zm-4.676 5.086c-2.472.069-14.83.138-16.273.069-1.441-.07-12.634-.686-13.939-.755-2.821-.149-3.736 1.108-.755 1.785a184.83 184.83 0 0 0 26.023 1.717c1.99.07 4.669-.961 5.356-1.923s-.068-.893-.412-.893Zm-4.806 4.533c-1.717 0-21.972-1.51-26.23-2.403-3.703-.564-2.867 1.339-1.372 1.647 1.256.26 16.272 3.159 23.894 3.296 2.54-.068 5.493-2.472 3.708-2.54Zm-5.15 4.256c-2.402-.275-18.402-2.815-22.726-3.982-3.913-1.014-3.124 1.586-1.717 1.992 1.25.36 14.885 3.68 17.99 3.845a16.466 16.466 0 0 0 3.93-.265c4.384-.877 2.524-1.59 2.524-1.59Zm-6.454 3.57c-1.717-.342-15.655-3.502-19.638-5.011-1.94-.676-2.524 1.23-1.304 1.785.755.343 11.466 4.806 16.547 5.08 1.854 0 5.283-.998 4.395-1.853Zm-22.728-2.883c1.578.755 11.192 4.807 14.9 5.631.515.137 1.058.364 1.015.65-.33 2.193-7.155.328-7.628.177-2.624-.841-7.975-2.805-10.245-5.017a7.97 7.97 0 0 0 1.958-1.441Zm-2.884 2.335a74.575 74.575 0 0 0 10.848 5.15c1.614.538-.085 2.198-3.237 1.299-3.485-.54-8.573-4.663-9.397-5.419.413-.206 1.305-.755 1.786-1.03Zm-3.158 1.855c1.244.85 3.64 2.441 5.16 3.456.628.42 2.125 1.247 2.093 1.909-.016.316-.617.917-3.366-.082a12.73 12.73 0 0 1-5.534-4.665 14.985 14.985 0 0 0 1.647-.618Zm-3.091 1.029c.644.644 1.477 1.524 2.292 2.335.75.967 2.421 1.663 1.845 2.78-.622 1.21-2.583-.53-3.288-1.197a8.362 8.362 0 0 1-2.325-3.438 10.483 10.483 0 0 0 1.476-.48Z"/><path class="a" d="M146.967 24.03c-1.786 0-7.827.412-10.025.412-6.316 0-14.86-1.114-20.732.092-3.651.75-4.175 1.807-4.175 2.943 0 1.479 1.235 2.367 2.11 3.008a8.717 8.717 0 0 1 4.327 7.416c.824-.343 1.991-.549 1.168-2.266-1.44-2.877-4.672-6.382.859-7.875a14.525 14.525 0 0 1 3.262-.433c4.05-.137 9.924-.167 11.915-.51s9.507-2.099 11.086-2.304c.686-.072.686-.416.205-.483Z"/><path class="a" d="M131.092 28.205c-1.442 0-5.856-.03-7.337.04-4.095.195-7.02 2.19-4.062 5.934a33.176 33.176 0 0 0 2.746 2.816c.55.412 1.58-.276.687-1.305 1.168.686 2.61.55 1.923-1.03 1.03.825 2.747.893 1.717-1.235.686.55 2.61.482 1.373-1.167 1.03.343 2.198-.275 1.441-1.305 1.306.207 2.061-.755.686-1.51 1.307.34 1.65-1.17.826-1.238Zm4.03-.73c.555-.035 2.967-.428 2.91.873-.059 1.3-2.738.81-3.288.707-1.014-.188-1.824-.498-1.8-.918.023-.431 1.079-.593 2.177-.662Zm-.097 2.23c.584.044 2.692-.06 2.362 1.13-.103.374-.876 1.132-3.466.503-1.137-.277-1.724-.885-1.724-1.368 0-.423 1.525-.365 2.828-.266Zm-1.666 1.931c.417.07 2.832.234 2.427 1.452-.283.849-.717.58-1.453.668-.486.058-4.084-.956-3.522-2.11.168-.343 1.227-.227 2.548-.01Zm-1.193 1.726c2.394.972 2.363 1.63 2.255 1.986-.11.357-1.207.797-3.48-.314-1.15-.563-1.166-1.202-.883-1.654.354-.567 1.248-.368 2.108-.018Zm-1.678 1.635c2.493.87 2.35 1.662 2.154 2.128-.218.515-1.005 1.063-3.087-.263-1.257-.8-2.075-1.47-1.85-2.003.204-.483 1.392-.358 2.783.138Zm-.976 2.498c.654.396.952.933.54 1.545-.737 1.096-2.913-.838-3.458-1.43-.405-.438-.666-.9-.436-1.237.237-.348.976-.32 3.354 1.122Zm-3.936.186c2.904 1.48 2.625 2.198 2.22 2.504-.446.339-1.499.694-3.259-1.34-.772-.891-.348-1.867 1.04-1.164Zm-1.45 1.553c.613.685 2.049 1.718.938 2.487-.938.649-1.487-.063-1.947-.504-2.667-2.566-1.785-4.19 1.009-1.983Z"/><path d="M115.366 25.785c-2.038 1.02-2.882 2.102-.787 3.582.255.18-.062.63-.318.449-2.302-1.627-1.807-3.314.86-4.522.28-.14.525.35.245.491Z"/><path class="a" d="M120.745 42.32a12.27 12.27 0 0 0-.895-2.722c.024-.034.738-.948 2.497 1.594.972 1.403-.743 1.968-1.602 1.128Zm.056 4.318c.724.84 1.408 1.547 1.859 2.11.942 1.18-1.51 2.632-2.83.957a12.181 12.181 0 0 0 .97-3.067Z"/><path style="opacity:.7;isolation:isolate;fill:#fff" d="M0 0h200v90H0z"/></svg>