<svg xmlns="http://www.w3.org/2000/svg" viewBox="0 0 200 90"><defs><style>.a{fill:#d80613}</style></defs><path class="a" d="m58.392 35.923-4.1 5.572h22.35c1.13 0 1.116.426.564 1.178-.561.761-1.5 2.078-2.072 2.853-.29.391-.815 1.104.922 1.104h9.14l2.709-3.68c1.68-2.28.146-7.024-5.86-7.024Z"/><path class="a" d="m52.631 54.077 8.239-11.195h10.222c1.13 0 1.116.428.564 1.178l-2.086 2.841c-.29.392-.814 1.105.922 1.105h13.692a14.213 14.213 0 0 1-11.463 6.07Zm47.176-6.074-4.467 6.074H83.556l4.467-6.074Zm18.05-1.375h-28.82l7.881-10.705h11.778l-4.515 6.139h5.257l4.52-6.139h11.779Zm-1.012 1.375-4.468 6.074H100.6l4.467-6.074ZM35.819 50.4h17.356l-.947 1.288H35.82Zm0-2.396h19.12l-.95 1.288H35.82Zm0 4.791h15.595l-.944 1.283H35.82Zm128.362-1.107h-17.294l.95-1.288h16.344Zm0 2.39h-19.05l.941-1.283h18.109Zm-14.583-6.074h14.583v1.29h-15.53Zm-7.548-12.08-7.88 10.705h-12.483l7.886-10.705Zm-21.372 12.08s-.86 1.178-1.28 1.742c-1.477 2.001-.172 4.33 4.656 4.33h18.918l4.467-6.072Z"/><path style="fill:#fff;opacity:.7;isolation:isolate" d="M0 0h200v90H0z"/></svg>