<svg xmlns="http://www.w3.org/2000/svg" viewBox="0 0 200 90"><defs><style>.a{fill:#005baa}</style></defs><path class="a" d="M40.298 55.485h-6.355V34.584h11.001l12.62 15.602V34.584h6.363v20.901h-10.78L40.298 39.614v15.871zM88.373 48.188c0 1.22-.132 1.596-.468 1.886-.338.298-.864.38-2.316.38H75.262c-1.454 0-1.964-.082-2.322-.38-.315-.29-.457-.666-.457-1.886v-6.38c0-1.234.142-1.594.457-1.88.358-.314.868-.39 2.322-.39h10.327c1.451 0 1.978.076 2.316.39.336.286.468.646.468 1.88Zm4.59-12.082c-1.355-1.434-3.333-1.869-7.103-1.869H74.994c-3.789 0-5.747.435-7.1 1.869-.866.96-1.413 1.96-1.413 4.864v8.057c0 2.903.547 3.906 1.413 4.863 1.353 1.443 3.311 1.873 7.1 1.873H85.86c3.77 0 5.748-.43 7.104-1.873.866-.957 1.405-1.96 1.405-4.863V40.97c0-2.905-.539-3.904-1.405-4.864M103.615 55.485h-6.647V34.584h6.647Zm11.23-20.901h8.76l-11.83 9.772 13.363 11.13h-9.396l-12.127-10.898ZM126.354 34.584h6.659v20.901h-6.659zM158.353 55.485l-1.965-3.633H143.53l-1.954 3.633h-7.332l11.774-20.901h8.269l11.77 20.901Zm-12.517-8.172h8.252l-4.122-7.574Z"/><path style="fill:#fff;opacity:.7" d="M0 0h200v90H0z"/></svg>