<svg xmlns="http://www.w3.org/2000/svg" viewBox="0 0 200 90" style="enable-background:new 0 0 200 90" xml:space="preserve"><style>.st5{fill:#aa2223}</style><path d="M109.2 37.5c-3.3.6-5 3-5 7.3 0 4.4 2.3 7.3 5.7 7.3 1.7 0 3.1-.6 6.2-2.1v3.6c-3.7 1.7-5.9 2.2-8.8 2.2-3.3 0-5.6-.8-7.4-2.8-1.9-2-2.9-4.4-2.9-7.3 0-6.2 4.6-10.4 11.4-10.4 4.4 0 7.5 2.1 7.5 5.1 0 2-1.5 3.3-3.6 3.3-1.1 0-2-.4-3.2-1l.1-5.2zm-16.3 8.2c3-3.7 4.1-5.2 4.1-7s-1.5-3.4-3.5-3.4c-1.2 0-2.2.7-2.8 1.2v7.6l-4.9 6.5V35.9h-4.6l-7.7 12.7V35.9h-2.6l-7 1.6v1.8l3.8.4v15.7h4.9L80 43.2v12.2h5.4l7.5-9.7zm-43.8 7.2h1.1c3.9 0 6.1-2.4 6.1-7.2 0-4-1.7-6.2-5-6.2-.4 0-1.1.1-2.2.3v13.1zm0 8.6 3.2.7V64H39.8v-1.8l2.9-.7V39.6h-3.2v-1.8l7.6-2.3h2V38c3.6-2.2 4.8-2.5 6.7-2.5 4.2 0 7.4 3.9 7.4 9.4 0 6.2-4.3 10.5-10.8 10.5-.7 0-2-.1-3.3-.1v6.2z"/><path d="M160.5 59.4h-37.6v-9.6h37.6v9.6z" style="fill:#e569a1"/><path d="M155.6 59.4h-32.7v-24h32.7v24z" style="fill:#f1bd22"/><path d="M142.1 59.4h-19.2V25.7h19.2v33.7z" style="fill:#ee9c33"/><path d="M145.9 59.4h-23V29.5h23v29.9z" style="fill:#f1bb85"/><path d="M122.9 29.5v29.9h19.2V29.5h-19.2z" style="fill:#e17226"/><path class="st5" d="M103.6 59.4h19.3v4.8h-19.3v-4.8z"/><path d="M122.9 35.4v24.1h23V35.4h-23z" style="fill:#e68c24"/><path d="M122.9 35.4v24.1h19.2V35.4h-19.2z" style="fill:#d55727"/><path d="M134.9 59.4h-12V45h12v14.4z" style="fill:#c04627"/><path d="M122.9 49.8v9.6h32.7v-9.6h-32.7z" style="fill:#d95027"/><path d="M122.9 49.8v9.6h23v-9.6h-23z" style="fill:#cf3c27"/><path d="M122.9 49.8v9.6h19.2v-9.6h-19.2z" style="fill:#c02926"/><path class="st5" d="M122.9 49.8v9.6h12v-9.6h-12z"/><path style="opacity:.7;fill:#fff;enable-background:new" d="M0 0h200v90H0z"/></svg>