<svg version="1.1" id="Layer_1" xmlns="http://www.w3.org/2000/svg" x="0" y="0" viewBox="0 0 200 90" style="enable-background:new 0 0 200 90" xml:space="preserve"><style>.st0{fill:#819c00}.st1{fill-rule:evenodd;clip-rule:evenodd;fill:#764c2b}</style><switch><g><path class="st0" d="M30.31 29.43c-8.6 0-15.56 6.97-15.56 15.56 0 8.6 6.97 15.56 15.56 15.56S45.88 53.59 45.88 45c-.01-8.6-6.97-15.57-15.57-15.57zM12.02 44.99c.01-10.1 8.2-18.29 18.3-18.28 10.1.01 18.29 8.2 18.28 18.3-.01 10.1-8.19 18.28-18.29 18.28s-18.29-8.18-18.29-18.28v-.02zm6.28-5.25c2.91-6.63 10.64-9.66 17.27-6.75a13.104 13.104 0 0 1 6.2 18.37c-3.18.36-6.35-.71-8.65-2.93 4.51-3.07 5.74-8.66 4.87-14.05-5.35 1.41-10.16 4.91-10.97 10.71a12.387 12.387 0 0 0-8.72-5.35zm17.52-2.04c.27 4.53-2.33 8.12-6.31 10.07 2.22 3.69 6.18 5.99 10.48 6.07-2.49 2.72-6 4.27-9.68 4.27-.37 0-.73-.02-1.09-.05V47.6a10.37 10.37 0 0 1 6.6-9.9zM26.7 57.6c-6.67-1.91-10.7-8.69-9.18-15.47h.05c5.22.45 9.21 4.86 9.14 10.11l-.01 5.36z"/><path class="st0" d="M30.31 29.43c-8.6 0-15.56 6.97-15.56 15.56 0 8.6 6.97 15.56 15.56 15.56S45.88 53.59 45.88 45c-.01-8.6-6.97-15.57-15.57-15.57zM12.02 44.99c.01-10.1 8.2-18.29 18.3-18.28 10.1.01 18.29 8.2 18.28 18.3-.01 10.1-8.19 18.28-18.29 18.28s-18.29-8.18-18.29-18.28v-.02zm6.28-5.25c2.91-6.63 10.64-9.66 17.27-6.75a13.104 13.104 0 0 1 6.2 18.37c-3.18.36-6.35-.71-8.65-2.93 4.51-3.07 5.74-8.66 4.87-14.05-5.35 1.41-10.16 4.91-10.97 10.71a12.387 12.387 0 0 0-8.72-5.35zm17.52-2.04c.27 4.53-2.33 8.12-6.31 10.07 2.22 3.69 6.18 5.99 10.48 6.07-2.49 2.72-6 4.27-9.68 4.27-.37 0-.73-.02-1.09-.05V47.6a10.37 10.37 0 0 1 6.6-9.9zM26.7 57.6c-6.67-1.91-10.7-8.69-9.18-15.47h.05c5.22.45 9.21 4.86 9.14 10.11l-.01 5.36z"/><path class="st1" d="M187.98 50.84h-2.79l-2.39-4.85h-2.9v4.85h-2.48V38.65h6.64a3.67 3.67 0 0 1 3.66 3.67c0 1.53-.95 2.89-2.38 3.42l2.64 5.1zm-8.09-10.06v3.25h3.69c.9 0 1.62-.73 1.62-1.62 0-.89-.72-1.62-1.61-1.62h-3.7z"/><path class="st1" d="M187.98 50.84h-2.79l-2.39-4.85h-2.9v4.85h-2.48V38.65h6.64a3.67 3.67 0 0 1 3.66 3.67c0 1.53-.95 2.89-2.38 3.42l2.64 5.1zm-8.09-10.06v3.25h3.69c.9 0 1.62-.73 1.62-1.62 0-.89-.72-1.62-1.61-1.62h-3.7zm-43.5 3.99c.08-3.61 3.08-6.48 6.7-6.4a6.55 6.55 0 0 1 5.91 4.06l.11.29h-2.73a4.003 4.003 0 0 0-3.47-2.1 4.103 4.103 0 0 0-3.98 4.23c.07 2.17 1.81 3.92 3.98 3.98 1.45-.02 2.78-.82 3.47-2.1h2.73l-.11.29a6.416 6.416 0 0 1-6.09 4.06c-3.5.1-6.42-2.67-6.51-6.17-.01-.03-.01-.08-.01-.14z"/><path class="st1" d="M136.39 44.77c.08-3.61 3.08-6.48 6.7-6.4a6.55 6.55 0 0 1 5.91 4.06l.11.29h-2.73a4.003 4.003 0 0 0-3.47-2.1 4.103 4.103 0 0 0-3.98 4.23c.07 2.17 1.81 3.92 3.98 3.98 1.45-.02 2.78-.82 3.47-2.1h2.73l-.11.29a6.416 6.416 0 0 1-6.09 4.06c-3.5.1-6.42-2.67-6.51-6.17-.01-.03-.01-.08-.01-.14zm-79.27 6.07v-4.7l-4.6-7.49h2.88l3 5.26 2.97-5.26h2.81l-4.58 7.5v4.69z"/><path class="st1" d="M57.12 50.84v-4.7l-4.6-7.49h2.88l3 5.26 2.97-5.26h2.81l-4.58 7.5v4.69zm10.41-12.2 3.02 9.02 3.05-9.02h2.65l-4.41 12.2H69.2l-4.35-12.2z"/><path class="st1" d="m67.53 38.64 3.02 9.02 3.05-9.02h2.65l-4.41 12.2H69.2l-4.35-12.2zm25.18 3.23c0 .77.15.96 2.82 1.58 1.04.17 2.04.52 2.96 1.05.93.59 1.48 1.62 1.46 2.72 0 2.44-1.93 3.89-4.92 3.89-3.03 0-4.94-1.48-5.13-4.05h2.47c.22 1.34 1.13 1.99 2.82 1.99 1.52 0 2.32-.67 2.32-1.64 0-.53-.21-.85-.87-1.19a9.32 9.32 0 0 0-1.02-.33l-.45-.11-.25-.05c-1.16-.23-2.28-.63-3.32-1.18-.83-.55-1.32-1.5-1.27-2.5 0-2.25 1.84-3.67 4.58-3.67 2.68 0 4.36 1.28 4.59 3.61h-2.44c-.26-1.08-.97-1.56-2.27-1.56-1.39-.01-2.08.56-2.08 1.44z"/><path class="st1" d="M92.71 41.87c0 .77.15.96 2.82 1.58 1.04.17 2.04.52 2.96 1.05.93.59 1.48 1.62 1.46 2.72 0 2.44-1.93 3.89-4.92 3.89-3.03 0-4.94-1.48-5.13-4.05h2.47c.22 1.34 1.13 1.99 2.82 1.99 1.52 0 2.32-.67 2.32-1.64 0-.53-.21-.85-.87-1.19a9.32 9.32 0 0 0-1.02-.33l-.45-.11-.25-.05c-1.16-.23-2.28-.63-3.32-1.18-.83-.55-1.32-1.5-1.27-2.5 0-2.25 1.84-3.67 4.58-3.67 2.68 0 4.36 1.28 4.59 3.61h-2.44c-.26-1.08-.97-1.56-2.27-1.56-1.39-.01-2.08.56-2.08 1.44zm66.32 4.11h-4.96v4.86h-2.49V38.65h2.49v5.14h4.96v-5.14h2.49v12.19h-2.49z"/><path class="st1" d="M159.03 45.98h-4.96v4.86h-2.49V38.65h2.49v5.14h4.96v-5.14h2.49v12.19h-2.49zm8.85-2.1h4.59v2.1h-4.59v2.68h6.42v2.18h-8.9V38.65h8.9v2.17h-6.42z"/><path class="st1" d="M167.88 43.88h4.59v2.1h-4.59v2.68h6.42v2.18h-8.9V38.65h8.9v2.17h-6.42zm-33.69.85c.09 3.6-2.75 6.58-6.35 6.67s-6.58-2.75-6.67-6.35a6.506 6.506 0 0 1 6.35-6.67h.17a6.377 6.377 0 0 1 6.5 6.25v.1zm-10.5 0a3.987 3.987 0 0 0 7.97-.21 3.988 3.988 0 0 0-3.97-3.88 4.05 4.05 0 0 0-4 4.09z"/><path class="st1" d="M134.19 44.73c.09 3.6-2.75 6.58-6.35 6.67s-6.58-2.75-6.67-6.35a6.506 6.506 0 0 1 6.35-6.67h.17a6.377 6.377 0 0 1 6.5 6.25v.1zm-10.5 0a3.987 3.987 0 0 0 7.97-.21 3.988 3.988 0 0 0-3.97-3.88 4.05 4.05 0 0 0-4 4.09zm-4.35 6.11h-2.79l-2.39-4.85h-2.9v4.85h-2.48V38.65h6.64c2.02 0 3.66 1.64 3.66 3.67 0 1.53-.95 2.89-2.38 3.43l2.64 5.09zm-8.08-10.06v3.25h3.69c.9 0 1.62-.73 1.62-1.62 0-.89-.72-1.62-1.61-1.62h-3.7z"/><path class="st1" d="M119.34 50.84h-2.79l-2.39-4.85h-2.9v4.85h-2.48V38.65h6.64c2.02 0 3.66 1.64 3.66 3.67 0 1.53-.95 2.89-2.38 3.43l2.64 5.09zm-8.08-10.06v3.25h3.69c.9 0 1.62-.73 1.62-1.62 0-.89-.72-1.62-1.61-1.62h-3.7zm-30.09 3.1h4.58v2.1h-4.58v2.68h6.42v2.18h-8.9V38.65h8.9v2.17h-6.42z"/><path class="st1" d="M81.17 43.88h4.58v2.1h-4.58v2.68h6.42v2.18h-8.9V38.65h8.9v2.17h-6.42z"/><path style="opacity:.7;fill:#fff;enable-background:new" d="M0 0h200v90H0z"/></g></switch></svg>