<svg xmlns="http://www.w3.org/2000/svg" viewBox="0 0 200 90"><path d="M156.157 42.68c-5.2-1.284-6.362-1.396-6.362-2.905 0-1.173 1.327-1.732 3.485-1.732a15.96 15.96 0 0 1 7.801 1.844l1.715-4.638a20.986 20.986 0 0 0-9.405-2.068c-5.81 0-9.074 2.906-9.074 6.818 0 4.19 2.435 5.923 8.023 7.097 4.315.95 5.256 1.564 5.256 2.794 0 1.34-1.162 1.955-3.541 1.955a18.445 18.445 0 0 1-9.019-2.235l-1.66 4.862a24.09 24.09 0 0 0 10.79 2.347c5.698 0 9.073-2.627 9.073-7.097 0-3.576-2.268-5.868-7.082-7.041Zm-20.25 3.69c0 3.408-1.549 5.308-4.647 5.308s-4.648-1.9-4.648-5.309V33.684h-5.643v12.238c0 7.041 3.652 10.897 10.29 10.897 6.585 0 10.292-3.856 10.292-10.897V33.684h-5.644Zm-25.34 5.196a2.293 2.293 0 0 0 2.38-2.347 2.27 2.27 0 0 0-2.38-2.235h-7.413v4.582Zm-7.413-9.109h7.248a1.927 1.927 0 0 0 1.991-2.011 1.9 1.9 0 0 0-1.936-1.956h-7.303Zm11.895 2.124a5.478 5.478 0 0 1 3.596 5.42c0 3.856-3.043 6.37-7.69 6.37H97.676V33.685h12.78c4.538 0 7.249 2.459 7.249 6.091a5.069 5.069 0 0 1-2.656 4.806ZM48.214 33.684 36.76 56.372h6.141l1.881-3.8h9.24l-2.324-4.75h-4.592l3.43-6.985h.056l7.635 15.535h6.307L53.082 33.684Zm17.483 22.688h5.477V33.684h-5.477Zm29.379-15.088c0 3.912-2.047 6.147-5.256 6.93l5.09 8.158h-6.197L81.19 44.246H86.5c2.269 0 3.154-1.286 3.154-2.85 0-1.51-.83-2.794-3.154-2.794h-6.197v17.77h-5.422V33.684h11.62c5.753 0 8.575 3.241 8.575 7.6Z" style="fill:#243269"/><path style="fill:#fff;opacity:.7" d="M0 0h200v90H0z"/></svg>