<svg version="1.1" id="Layer_1" xmlns="http://www.w3.org/2000/svg" x="0" y="0" viewBox="0 0 200 90" style="enable-background:new 0 0 200 90" xml:space="preserve"><style>.st0{fill:#e20074}</style><switch><g><path class="st0" d="M22.23 45.21v-3.94h3.94v3.94h-3.94zm14.21 0v-3.94h3.94v3.94h-3.94zm12.19 0v-3.94h3.94v3.94h-3.94zm12.19 0v-3.94h3.94v3.94h-3.94zm19.34-6.78c-.24-1.56-.77-3.06-1.57-4.42a4.582 4.582 0 0 0-3.93-2.27c-.9-.03-1.78.29-2.45.88a3.963 3.963 0 0 0-.1 5.6c.06.07.13.13.2.19.95.65 1.99 1.14 3.09 1.46 1.58.47 3.09 1.15 4.5 2.01a5.875 5.875 0 0 1 2.44 5.01c.05 1.91-.67 3.76-2 5.14a6.023 6.023 0 0 1-4.53 1.91c-.92.01-1.82-.17-2.67-.52-.6-.28-1.17-.6-1.72-.97-.23-.15-.49-.24-.77-.25-.32.02-.62.19-.8.46-.16.24-.31.48-.44.74h-1.03v-8.1h1.06c.25 1.65.8 3.24 1.62 4.7a5.214 5.214 0 0 0 4.56 2.73c1 .03 1.99-.31 2.75-.97.95-.88 1.46-2.13 1.39-3.42.08-1.59-.76-3.07-2.16-3.83a31.95 31.95 0 0 0-3.78-1.44c-1.25-.38-2.42-1-3.44-1.83a5.557 5.557 0 0 1-1.83-4.42c-.09-1.82.64-3.59 2-4.81a5.72 5.72 0 0 1 3.94-1.46c.85 0 1.7.17 2.49.49.55.25 1.08.54 1.59.87.19.12.4.19.62.2.34 0 .68-.35 1.01-1.05h.92v7.36l-.96.01zm3.07-.44h6.99v1.03h-.61c-.91 0-1.36.25-1.36.74.03.31.1.61.23.9l3.35 8.77 2.91-8.12c.18-.42.28-.87.31-1.33 0-.64-.49-.97-1.47-.97h-.74v-1.03h5.5v1.03h-.36c-.33-.01-.64.12-.87.35-.3.35-.53.76-.67 1.2L90.91 55.5a8.23 8.23 0 0 1-1.73 2.99c-.65.63-1.52.97-2.42.95a3.14 3.14 0 0 1-2.06-.7 2.706 2.706 0 0 1-1.01-2.16c-.02-.49.15-.97.46-1.34a1.813 1.813 0 0 1 2.77.08c.2.27.3.6.29.93.01.48-.19.94-.54 1.26-.24.22-.54.36-.87.39.26.29.64.45 1.03.43.65 0 1.26-.28 1.69-.77.66-.89 1.15-1.9 1.46-2.96l.36-1.05-4.6-12.37c-.19-.64-.5-1.23-.92-1.75-.36-.3-.83-.45-1.29-.41h-.28l-.02-1.03zm26.13 0v4.88h-1.01c-.55-2.83-1.85-4.24-3.91-4.24-.67-.03-1.32.21-1.8.67-.47.43-.73 1.05-.72 1.69-.01.74.37 1.43 1 1.82.56.32 1.16.57 1.78.75 1.31.35 2.57.88 3.73 1.59 1.18.84 1.86 2.2 1.83 3.65.05 1.42-.53 2.79-1.59 3.75a4.95 4.95 0 0 1-3.45 1.21 5.58 5.58 0 0 1-2.21-.43c-.53-.23-1.04-.5-1.52-.82a.933.933 0 0 0-.39-.15c-.22 0-.43.35-.64 1.05h-.95v-5.68h.95c.25 1.07.67 2.1 1.24 3.04.76 1.2 2.1 1.92 3.52 1.9.76.03 1.5-.29 2-.87.46-.51.71-1.18.7-1.87.02-.99-.51-1.91-1.37-2.39-.95-.48-1.94-.87-2.96-1.16a6.502 6.502 0 0 1-2.95-1.75c-.65-.76-.99-1.75-.96-2.75-.04-1.2.46-2.36 1.37-3.14.88-.74 2-1.12 3.14-1.08 1.12 0 2.22.31 3.17.9.14.1.31.16.49.18.22 0 .38-.25.49-.75h1.02zm6.6 1.14v9.28c-.03.89.05 1.77.25 2.63.13.77.81 1.32 1.59 1.29.72.02 1.37-.44 1.59-1.13.33-.84.48-1.73.46-2.63v-.46h1.11v.62c0 3.34-1.32 5.01-3.96 5.01-1.09.09-2.16-.33-2.91-1.13-.48-.58-.77-1.3-.85-2.05-.07-.72-.1-1.44-.1-2.16v-9.28h-2.42v-.95a4.88 4.88 0 0 0 3.16-1.83c.7-1.28 1.09-2.71 1.13-4.17h.97v5.81h4.5v1.15h-4.52zm18.29 6.45h-9.16c-.07 1.63.16 3.25.67 4.79a3.18 3.18 0 0 0 3.14 2.19c1.13.01 2.2-.49 2.9-1.37.51-.64.94-1.34 1.28-2.08l1 .52c-1.41 2.82-3.31 4.24-5.69 4.24-1.63.05-3.21-.6-4.32-1.8a9.088 9.088 0 0 1-2.09-6.48c-.11-2.27.63-4.49 2.09-6.23a5.129 5.129 0 0 1 3.98-1.85 5.555 5.555 0 0 1 5.19 3.47c.65 1.44 1 3.01 1.01 4.6zm-3.09-1.18c.03-1.14-.12-2.28-.44-3.37-.53-1.56-1.37-2.34-2.52-2.34-1.29 0-2.2.96-2.73 2.88-.24.92-.35 1.88-.34 2.83h6.03zm22.44 9v-9.42c.09-1.27-.05-2.54-.41-3.76-.29-.69-.98-1.13-1.73-1.11-1 .04-1.89.66-2.28 1.59-.32.59-.53 1.23-.62 1.9-.1.95-.14 1.9-.11 2.85v4.22c-.09.79.05 1.59.41 2.31.35.31.82.46 1.29.41h.47v1.03h-5.01v-8.9c.02-.99-.01-1.99-.1-2.98-.23-1.63-.93-2.44-2.11-2.44-1.01.04-1.89.68-2.24 1.62a5.75 5.75 0 0 0-.56 1.65c-.14 1.02-.19 2.05-.16 3.08v4.22c-.08.79.05 1.59.38 2.31.37.31.85.46 1.32.41h.48v1.03h-7.25v-1.03h.54c.46.04.93-.1 1.28-.41.37-.71.52-1.51.43-2.31V41.7c.1-.79-.05-1.59-.43-2.29-.35-.3-.81-.45-1.28-.39h-.38v-1.03l4.7-.23v2.72c.21-.54.52-1.03.92-1.46.76-.87 1.86-1.36 3.01-1.36 1.16-.04 2.26.46 2.99 1.36.39.51.7 1.07.92 1.67.97-2.02 2.35-3.03 4.14-3.03.68-.01 1.36.15 1.96.47.58.29 1.07.74 1.42 1.28.4.63.65 1.35.72 2.09.08.7.12 1.39.12 2.09v6.05c-.09.79.05 1.59.41 2.31.35.31.82.46 1.29.41h.38v1.03l-4.91.01zm16.33-15.41v4.88h-1.01c-.55-2.83-1.85-4.24-3.91-4.24-.67-.03-1.32.21-1.8.67-.47.43-.73 1.05-.72 1.69-.01.74.37 1.43 1 1.82.56.32 1.16.57 1.78.75 1.31.35 2.57.88 3.73 1.59 1.18.84 1.86 2.2 1.83 3.65.05 1.42-.53 2.79-1.59 3.75a4.95 4.95 0 0 1-3.45 1.21 5.58 5.58 0 0 1-2.21-.43c-.53-.23-1.04-.5-1.52-.82a.933.933 0 0 0-.39-.15c-.22 0-.43.35-.64 1.05h-.95v-5.68h.95c.25 1.07.67 2.1 1.24 3.04.76 1.2 2.09 1.92 3.52 1.9.76.03 1.5-.29 2-.87.46-.51.71-1.18.7-1.87.02-.99-.51-1.91-1.37-2.39-.95-.48-1.94-.87-2.96-1.16a6.502 6.502 0 0 1-2.95-1.75c-.65-.76-.99-1.75-.96-2.75-.04-1.2.46-2.36 1.37-3.14.88-.74 2-1.12 3.14-1.08 1.12 0 2.22.31 3.17.9.14.1.31.16.49.18.22 0 .38-.25.49-.75h1.02zm3.89 7.22v-3.94h3.94v3.94h-3.94z"/><path class="st0" d="M42.07 33.88v14.63c-.04.66.01 1.32.17 1.96.19.58.85.87 1.96.89h.73v.94h-8.61v-.94h.73c.59.07 1.18-.09 1.65-.44.22-.21.36-.5.38-.81.07-.53.1-1.07.09-1.6V33.88h-.64c-.97-.01-1.92.28-2.72.82-1.21.83-1.92 2.5-2.11 5l-.92-.04.17-6.72h15.43l.12 6.72-.93.04c-.12-1.29-.49-2.54-1.07-3.7-.38-.72-.96-1.3-1.68-1.67a5.28 5.28 0 0 0-2.28-.45h-.47z"/><path style="opacity:.7;fill:#fff;enable-background:new" d="M0 0h200v90H0z"/></g></switch></svg>