<svg xmlns="http://www.w3.org/2000/svg" viewBox="0 0 295 193">
  <defs>
    <style>
      .b{fill:#292c47}.c{fill:#fff}.d{fill:#e4e5e6}.e{fill:#f2f2f2}.h{fill:#f58635}.i{fill:#ffc348}.j{fill:#4ab4ee}.k{fill:#8ddcff}.q{fill:#f16a21}
    </style>
  </defs>
  <path style="fill:none" d="M0 0h295v193H0z"/>
  <path class="b" d="M246.209 14.546c0-5.932-2.574-7.747-7.859-7.747H55.858C50.574 6.8 48 9.042 48 14.974V120.09h198.209Z"/>
  <path class="c" d="M48 120.09v2.846c0 5.932 2.574 8.176 7.858 8.176h182.493c5.284 0 7.858-2.672 7.858-8.603v-2.419Z"/>
  <path class="d" d="M238.35 126.943H55.858c-5.284 0-7.858.323-7.858-4.479v.472c0 5.932 2.574 8.176 7.858 8.176H238.35c5.285 0 7.859-2.672 7.859-8.603v-.473c0 4.21-2.574 4.907-7.859 4.907Z"/>
  <path class="e" d="M233.036 114.506H61.168a6.84 6.84 0 0 1-6.75-6.928V16.554a5.388 5.388 0 0 1 5.316-5.456H234.47a5.387 5.387 0 0 1 5.315 5.456v91.024a6.837 6.837 0 0 1-6.745 6.928h-.004Z"/>
  <path class="c" d="M230 110.178H64.206a4.47 4.47 0 0 1-4.472-4.468V20.16a4.734 4.734 0 0 1 4.734-4.734h165.27a4.732 4.732 0 0 1 4.734 4.73v85.55a4.47 4.47 0 0 1-4.468 4.472Z"/>
  <path class="e" d="M165.533 143.883h-36.857l1.056-12.768h34.4l1.401 12.768Z"/>
  <path d="M129.723 131.115h34.399" style="stroke:#292c47;stroke-linejoin:round;stroke-width:2.835px;fill:none"/>
  <path class="d" d="m164.63 135.723-.506-4.608h-34.399l-.381 4.608Zm7.35 13.693c1.057 1.47.258 2.672-1.77 2.672h-46.215c-2.029 0-2.826-1.203-1.77-2.672l6.449-5.533h36.857Z"/>
  <path d="M223.229 113.4h-3.069v-.033h3.036v-2.888h.033Z" style="fill:#8da6eb"/>
  <path class="h" d="m211.619 78.735-8.129-1.014a18.256 18.256 0 0 1-.797 3.513 18.162 18.162 0 0 1-12.363 11.75l2.196 7.879a26.401 26.401 0 0 0 19.095-22.128h-.002Z"/>
  <path class="i" d="M191.213 58.23a18.183 18.183 0 0 1 12.277 19.49l8.129 1.014a26.38 26.38 0 0 0-28.752-29.503c.24 2.398.521 5.242.809 8.156a18.09 18.09 0 0 1 7.537.841Z"/>
  <path class="j" d="M168.208 69.71a18.17 18.17 0 0 1 15.445-12.319l-.812-8.156a26.362 26.362 0 0 0-22.003 35.683l7.64-2.932a18.102 18.102 0 0 1-.27-12.277Z"/>
  <path class="k" d="M179.688 92.713a18.142 18.142 0 0 1-11.21-10.727l-7.64 2.932-.002.001a26.359 26.359 0 0 0 31.688 15.944l-2.196-7.878a18.094 18.094 0 0 1-10.64-.272Z"/>
  <path class="c" d="M202.693 81.233v.001a18.16 18.16 0 0 0-19.017-23.846l-.022.003a18.175 18.175 0 1 0 6.674 35.594h.002a18.162 18.162 0 0 0 12.363-11.752Z"/>
  <path class="d" d="M212.892 85.832h16.591a.208.208 0 0 1 .209.207v.548a.21.21 0 0 1-.209.208h-16.591a.208.208 0 0 1-.208-.208v-.546a.21.21 0 0 1 .208-.209Zm0-2.182h10.182a.208.208 0 0 1 .209.207v.548a.21.21 0 0 1-.209.208h-10.182a.208.208 0 0 1-.208-.208v-.546a.209.209 0 0 1 .208-.209Zm-48.211 20.12h16.591a.209.209 0 0 1 .209.207v.546a.209.209 0 0 1-.209.21h-16.591a.224.224 0 0 1-.08-.017.21.21 0 0 1-.128-.193v-.546a.208.208 0 0 1 .208-.208Zm0-2.184h10.182a.209.209 0 0 1 .209.21v.544a.209.209 0 0 1-.209.21h-10.182a.208.208 0 0 1-.208-.209v-.546a.197.197 0 0 1 .016-.08.203.203 0 0 1 .192-.129Zm48.534-50.929h-11.678a.21.21 0 0 0-.209.21v.545a.21.21 0 0 0 .209.208h11.678a.208.208 0 0 0 .208-.208v-.546a.208.208 0 0 0-.207-.209Zm-11.678-2.182h14.471a.209.209 0 0 1 .209.208v.546a.208.208 0 0 1-.209.208h-14.471a.208.208 0 0 1-.209-.207v-.547a.209.209 0 0 1 .209-.208Zm-41.01 9.698h-11.678a.208.208 0 0 0-.208.208v.546a.209.209 0 0 0 .208.21h11.678a.21.21 0 0 0 .209-.21v-.545a.21.21 0 0 0-.209-.21Zm-11.678-2.183h14.471a.208.208 0 0 1 .209.207v.548a.207.207 0 0 1-.205.21h-14.475a.206.206 0 0 1-.192-.13.2.2 0 0 1-.016-.08V56.2a.21.21 0 0 1 .208-.209Z"/>
  <path class="i" d="M103.091 21.945a10.502 10.502 0 1 0 10.704 10.5 10.603 10.603 0 0 0-10.704-10.5Zm-.114 19.326a8.5 8.5 0 1 1 0-17q.173 0 .346.008v1.719a6.267 6.267 0 0 0-.346-.009 6.081 6.081 0 0 0-3.029.548 6.966 6.966 0 0 0-3.314 8.95 6.38 6.38 0 0 0 6.343 4.066 6.91 6.91 0 0 0 3.663-1.044v-.001l.864 1.496a8.663 8.663 0 0 1-4.527 1.267Z"/>
  <path class="j" d="M129.696 22.27a10.502 10.502 0 1 0 10.704 10.5 10.604 10.604 0 0 0-10.704-10.5Zm2.124 18.55a8.5 8.5 0 1 1-4.195-16.473q.168-.043.338-.079l.424 1.666a6.3 6.3 0 0 0-.338.077 6.081 6.081 0 0 0-2.801 1.28 6.965 6.965 0 0 0-1.001 9.49 6.374 6.374 0 0 0 7.149 2.375 6.893 6.893 0 0 0 4.777-4.28l1.617.628a8.635 8.635 0 0 1-5.97 5.316Z"/>
  <path class="h" d="M76.489 21.945a10.502 10.502 0 1 0 0 21h.001a10.502 10.502 0 1 0-.001-21ZM79.477 40.3a8.5 8.5 0 1 1-6.637-15.65q.16-.067.322-.128l.672 1.582a6.31 6.31 0 0 0-.323.128 6.08 6.08 0 0 0-2.576 1.688 6.965 6.965 0 0 0 .446 9.532 6.374 6.374 0 0 0 7.425 1.267 6.893 6.893 0 0 0 4.076-4.954l1.693.378a8.635 8.635 0 0 1-5.098 6.157Z"/>
  <path class="d" d="M85.21 45.934H67.769a1.848 1.848 0 1 0 0 3.685H85.21a1.848 1.848 0 1 0 0-3.685Zm26.602 0H94.369a1.848 1.848 0 1 0 0 3.685h17.443a1.847 1.847 0 1 0 0-3.685Zm9.163 3.686h17.443a1.848 1.848 0 1 0 0-3.687h-17.443a1.848 1.848 0 1 0 0 3.686Z"/>
  <path class="e" d="M85.21 51.666H67.769a1.917 1.917 0 0 0-1.983 1.843v10.852a1.916 1.916 0 0 0 1.983 1.842H85.21a1.916 1.916 0 0 0 1.982-1.842V53.51a1.916 1.916 0 0 0-1.982-1.843Zm26.602 0H94.369a1.917 1.917 0 0 0-1.982 1.843v10.852a1.917 1.917 0 0 0 1.982 1.842h17.443a1.915 1.915 0 0 0 1.983-1.842V53.51a1.915 1.915 0 0 0-1.983-1.843Zm26.606 0h-17.443a1.92 1.92 0 0 0-1.983 1.843v10.852a1.918 1.918 0 0 0 1.983 1.842h17.443a1.917 1.917 0 0 0 1.982-1.842V53.51a1.914 1.914 0 0 0-1.982-1.843Z"/>
  <path class="i" d="M69.447 89.644h-3.826v16.097h3.826Zm6.395 5.533h-3.826v10.565h3.826Zm6.394-13.674H78.41v24.238h3.826ZM88.63 99.92h-3.825v5.823h3.826V99.92Zm6.392-15.175h-3.827v20.998h3.827V84.744Zm6.394 3.636H97.59v17.362h3.826Zm6.395 3.951h-3.827v13.41h3.827Zm6.39-15.728h-3.826v29.14h3.826Zm6.395 3.083h-3.826v26.056h3.826Zm6.394 4.663h-3.826v21.393h3.826Zm6.391 16.11h-3.826v5.283h3.826Zm6.394-10.262h-3.826v15.545h3.826Z"/>
  <path class="j" d="M69.447 94.272h-3.826v11.47h3.826Zm6.395 3.943h-3.826v7.527h3.826Zm6.394-9.742H78.41v17.27h3.826v-17.27Zm6.394 13.12h-3.825v4.148h3.826v-4.148Zm6.392-13.897h-3.827v18.046h3.827Zm6.394 5.676H97.59v12.37h3.826Zm6.395 2.816h-3.827v9.554h3.827v-9.554Zm6.39-11.207h-3.826v20.761h3.826v-20.76Zm6.395-2.125h-3.826v22.886h3.826Zm6.394 7.644h-3.826v15.242h3.826Zm6.391 11.48h-3.826v3.762h3.826Zm6.394-7.313h-3.826v11.075h3.826Z"/>
  <path class="b" d="M224.057 27.67a1.96 1.96 0 0 1-.369-2.206l.828-1.745a14.009 14.009 0 0 1-1.321-3.104l-1.833-.612a1.96 1.96 0 0 1-1.336-1.834L220 15.56a1.953 1.953 0 0 1 1.299-1.86l1.821-.649a14.01 14.01 0 0 1 1.258-3.13l-.863-1.728a1.96 1.96 0 0 1 .353-2.24l1.829-1.867a1.952 1.952 0 0 1 2.234-.397l1.744.83a13.974 13.974 0 0 1 3.104-1.322l.612-1.834a1.96 1.96 0 0 1 1.834-1.335L237.837 0a1.962 1.962 0 0 1 1.402.573 2.002 2.002 0 0 1 .459.725l.648 1.822a14.01 14.01 0 0 1 3.13 1.258l1.727-.863a1.956 1.956 0 0 1 2.241.352l1.866 1.83a1.98 1.98 0 0 1 .397 2.233l-.828 1.745a13.95 13.95 0 0 1 1.32 3.104l1.834.611a1.952 1.952 0 0 1 1.335 1.834l.026 2.613a1.953 1.953 0 0 1-1.298 1.86l-1.822.65a13.958 13.958 0 0 1-1.258 3.128l.863 1.728a1.953 1.953 0 0 1-.352 2.241l-1.829 1.865a1.957 1.957 0 0 1-2.234.398l-1.744-.829a14.01 14.01 0 0 1-3.104 1.321l-.612 1.834a1.955 1.955 0 0 1-1.835 1.335l-2.612.026a1.965 1.965 0 0 1-1.402-.573 1.994 1.994 0 0 1-.458-.725l-.648-1.82a14.006 14.006 0 0 1-3.13-1.26l-1.728.863a1.955 1.955 0 0 1-2.241-.352q-.948-.928-1.893-1.858Z"/>
  <path class="k" d="M235.746 31.812a.67.67 0 0 1-.631-.445l-.645-1.81a1.214 1.214 0 0 0-.846-.765 12.35 12.35 0 0 1-3.093-1.245 1.203 1.203 0 0 0-1.139-.035l-1.719.86a.67.67 0 0 1-.768-.122l-1.563-1.533a.67.67 0 0 1-.136-.765l.824-1.736a1.217 1.217 0 0 0-.059-1.138 12.36 12.36 0 0 1-1.304-3.067 1.245 1.245 0 0 0-.306-.533 1.2 1.2 0 0 0-.476-.298l-1.823-.608a.672.672 0 0 1-.458-.628l-.022-2.19a.67.67 0 0 1 .445-.638l1.812-.645a1.208 1.208 0 0 0 .764-.846 12.379 12.379 0 0 1 1.244-3.094 1.204 1.204 0 0 0 .036-1.137l-.86-1.72a.671.671 0 0 1 .121-.768l1.534-1.564a.666.666 0 0 1 .765-.136l1.736.825a1.218 1.218 0 0 0 1.137-.058 12.393 12.393 0 0 1 3.067-1.305 1.207 1.207 0 0 0 .831-.78l.609-1.825a.667.667 0 0 1 .628-.458l2.197-.022a.665.665 0 0 1 .63.445l.646 1.811a1.213 1.213 0 0 0 .846.764 12.42 12.42 0 0 1 3.093 1.245 1.203 1.203 0 0 0 1.139.035l1.718-.859a.67.67 0 0 1 .768.121l1.564 1.534a.67.67 0 0 1 .136.765l-.824 1.735a1.205 1.205 0 0 0 .058 1.137 12.432 12.432 0 0 1 1.305 3.068 1.221 1.221 0 0 0 .781.831l1.824.61a.67.67 0 0 1 .457.627l.022 2.19a.67.67 0 0 1-.445.638l-1.811.644a1.217 1.217 0 0 0-.765.848 12.372 12.372 0 0 1-1.243 3.091 1.206 1.206 0 0 0-.035 1.14l.858 1.72a.675.675 0 0 1-.12.767l-1.534 1.563a.673.673 0 0 1-.765.136l-1.736-.824a1.184 1.184 0 0 0-.512-.116 1.218 1.218 0 0 0-.625.173 12.4 12.4 0 0 1-3.068 1.306 1.206 1.206 0 0 0-.83.78l-.609 1.824a.672.672 0 0 1-.628.458l-2.197.022Z"/>
  <path class="k" d="M226.633 24.503a1.88 1.88 0 0 0-.088-1.768 11.73 11.73 0 0 1-1.234-2.9 1.874 1.874 0 0 0-1.216-1.29l-1.823-.608-.022-2.19 1.812-.646a1.882 1.882 0 0 0 1.189-1.312 11.71 11.71 0 0 1 1.176-2.927 1.877 1.877 0 0 0 .054-1.766l-.86-1.722 1.533-1.564 1.736.825a1.877 1.877 0 0 0 1.767-.088 11.734 11.734 0 0 1 2.901-1.234 1.874 1.874 0 0 0 1.29-1.213l.609-1.826 2.19-.022.645 1.812a1.871 1.871 0 0 0 1.314 1.19 11.73 11.73 0 0 1 2.924 1.175 1.88 1.88 0 0 0 1.769.052l1.719-.858 1.564 1.533-.824 1.735a1.879 1.879 0 0 0 .087 1.768 11.75 11.75 0 0 1 1.236 2.902 1.873 1.873 0 0 0 1.214 1.288l1.824.61.021 2.19-1.811.644a1.873 1.873 0 0 0-1.189 1.315 11.734 11.734 0 0 1-1.176 2.924 1.869 1.869 0 0 0-.053 1.768l.859 1.72-1.533 1.564-1.736-.824a1.874 1.874 0 0 0-1.767.087 11.734 11.734 0 0 1-2.903 1.235 1.873 1.873 0 0 0-1.288 1.215l-.609 1.823-2.19.022-.645-1.81a1.852 1.852 0 0 0-.424-.68 1.886 1.886 0 0 0-.89-.51 11.703 11.703 0 0 1-2.924-1.177 1.876 1.876 0 0 0-1.769-.052l-1.72.86-1.563-1.534.824-1.736Z"/>
  <path class="c" d="M236.699 26.388a9.691 9.691 0 1 0-9.691-9.69 9.691 9.691 0 0 0 9.691 9.69Z"/>
  <path d="M244.578 15.442a.783.783 0 0 0-.01-1.107l-.004-.005a.786.786 0 0 0-1.111.013l-.001.001-.477.489a6.667 6.667 0 0 0-12.007-1.68.786.786 0 0 0 1.112 1.069.789.789 0 0 0 .213-.22 5.097 5.097 0 0 1 9.1 1.042l-.652-.337a.788.788 0 0 0-.724 1.397l2.084 1.079.019.008a.77.77 0 0 0 .099.039l.043.014a.78.78 0 0 0 .134.023l.01.002h.005c.011 0 .023-.002.034-.001h.055l.024-.003a.763.763 0 0 0 .085-.01l.037-.008a.388.388 0 0 0 .045-.014.71.71 0 0 0 .168-.072l.048-.03a.794.794 0 0 0 .096-.079l.009-.007.013-.01.001-.001.015-.016.006-.006 1.531-1.57Zm-2.394 3.712a.784.784 0 0 0-1.084.234l-.003.005a5.096 5.096 0 0 1-9.099-1.044l.651.338a.787.787 0 1 0 .724-1.398l-2.084-1.078a.385.385 0 0 0-.036-.014.72.72 0 0 0-.225-.065.824.824 0 0 0-.133-.007h-.005l-.015.002a.774.774 0 0 0-.13.02l-.031.008-.056.018-.054.02-.036.018-.048.03-.045.026q-.019.013-.037.028c-.014.011-.027.024-.04.036l-.01.01a.231.231 0 0 0-.024.02l-.012.011-.011.012-1.529 1.568a.787.787 0 0 0 1.126 1.098l.477-.489a6.668 6.668 0 0 0 12.007 1.68.783.783 0 0 0-.232-1.083Z" style="fill:#f58535"/>
  <path d="M204.352 186.09a.792.792 0 0 0 .332-.046.177.177 0 0 0 .095-.174.201.201 0 0 0-.127-.173 1.71 1.71 0 0 0-.387-.174 3.28 3.28 0 0 1-.364-.158 1.078 1.078 0 0 1-.276-.19.745.745 0 0 1-.173-.268 1.008 1.008 0 0 1-.064-.37.825.825 0 0 1 .316-.672 1.355 1.355 0 0 1 .86-.244 2.436 2.436 0 0 1 .53.055 2.534 2.534 0 0 1 .404.103l-.15.67c-.111-.039-.214-.063-.325-.094a1.574 1.574 0 0 0-.387-.04c-.268 0-.403.071-.403.221a.396.396 0 0 0 .016.095.232.232 0 0 0 .072.079 1.428 1.428 0 0 0 .363.174 3.076 3.076 0 0 1 .458.204.878.878 0 0 1 .284.222.602.602 0 0 1 .15.26 1.196 1.196 0 0 1 .047.332.765.765 0 0 1-.34.679 1.682 1.682 0 0 1-.947.229 2.41 2.41 0 0 1-.671-.071c-.127-.032-.245-.072-.363-.11l.14-.696a2.845 2.845 0 0 0 .444.135c.158.007.308.023.466.023Zm-4.353-.867a1.886 1.886 0 0 1 .12-.695 1.49 1.49 0 0 1 .323-.505 1.246 1.246 0 0 1 .458-.3 1.414 1.414 0 0 1 .537-.102 1.325 1.325 0 0 1 1.011.394 1.629 1.629 0 0 1 .371 1.153 1.187 1.187 0 0 1-.008.165c0 .063-.007.11-.007.158h-1.928a.58.58 0 0 0 .245.419 1.023 1.023 0 0 0 .585.158 3.037 3.037 0 0 0 .458-.04 1.52 1.52 0 0 0 .371-.118l.119.694a1.495 1.495 0 0 1-.443.126q-.15.027-.3.048-.161.015-.324.016a1.82 1.82 0 0 1-.711-.119 1.267 1.267 0 0 1-.79-.82 2.579 2.579 0 0 1-.087-.632Zm1.999-.324a.669.669 0 0 0-.039-.213.511.511 0 0 0-.506-.37.563.563 0 0 0-.245.055.546.546 0 0 0-.174.125.574.574 0 0 0-.11.19 1.06 1.06 0 0 0-.048.213h1.122Zm-4.313-1.957.854-.135v.885h1.026v.71h-1.026v1.057a.783.783 0 0 0 .095.427.41.41 0 0 0 .172.13.405.405 0 0 0 .214.027 1.478 1.478 0 0 0 .277-.023 1.521 1.521 0 0 0 .268-.07l.118.662a2.456 2.456 0 0 1-.347.11 2.277 2.277 0 0 1-.466.048 1.41 1.41 0 0 1-.577-.095.926.926 0 0 1-.363-.26 1.106 1.106 0 0 1-.197-.41 1.983 1.983 0 0 1-.048-.53v-2.533Zm-3.451 2.281a1.885 1.885 0 0 1 .118-.695 1.505 1.505 0 0 1 .324-.505 1.254 1.254 0 0 1 .458-.3 1.419 1.419 0 0 1 .537-.102 1.32 1.32 0 0 1 1.01.394 1.634 1.634 0 0 1 .373 1.153 1.353 1.353 0 0 1-.008.165 1.078 1.078 0 0 0-.009.158h-1.934a.562.562 0 0 0 .244.419 1.023 1.023 0 0 0 .585.158 2.918 2.918 0 0 0 .458-.04 1.684 1.684 0 0 0 .379-.118l.118.694a1.21 1.21 0 0 1-.181.071 1.601 1.601 0 0 1-.26.056q-.15.025-.3.047a3.844 3.844 0 0 1-.324.016 1.833 1.833 0 0 1-.711-.118 1.283 1.283 0 0 1-.79-.821 1.963 1.963 0 0 1-.087-.632Zm1.998-.324a.697.697 0 0 0-.04-.213.518.518 0 0 0-.26-.315.563.563 0 0 0-.656.125.585.585 0 0 0-.11.19.997.997 0 0 0-.048.213Zm-5.237-1.105c.182-.047.372-.086.56-.118a4.475 4.475 0 0 1 .72-.055 1.734 1.734 0 0 1 .632.102.9.9 0 0 1 .403.277 1.13 1.13 0 0 1 .213.434 2.235 2.235 0 0 1 .063.56v1.698h-.845v-1.587a1.168 1.168 0 0 0-.111-.584.442.442 0 0 0-.403-.174 1.48 1.48 0 0 0-.197.008 1.145 1.145 0 0 0-.182.016v2.32h-.853Zm-.6.655c-.08-.015-.167-.039-.27-.055a1.58 1.58 0 0 0-.694.016v2.297h-.853v-2.858a4.135 4.135 0 0 1 .537-.15 2.621 2.621 0 0 1 .695-.07c.055 0 .11.007.167.007a.895.895 0 0 1 .196.025c.064.007.127.015.198.03a.649.649 0 0 1 .165.048l-.14.711v-.001Zm-5.3.774a1.889 1.889 0 0 1 .119-.695 1.49 1.49 0 0 1 .323-.505 1.258 1.258 0 0 1 .458-.3 1.414 1.414 0 0 1 .537-.102 1.325 1.325 0 0 1 1.011.394 1.617 1.617 0 0 1 .371 1.145 1.186 1.186 0 0 1-.007.166 1.234 1.234 0 0 0-.008.158h-1.936a.566.566 0 0 0 .246.418 1.02 1.02 0 0 0 .584.158 2.896 2.896 0 0 0 .458-.04 2 2 0 0 0 .372-.11l.118.694a1.227 1.227 0 0 1-.182.072 1.707 1.707 0 0 1-.26.055l-.301.048a4.312 4.312 0 0 1-.323.015 1.836 1.836 0 0 1-.712-.118 1.28 1.28 0 0 1-.789-.821 2.892 2.892 0 0 1-.08-.632Zm2.006-.324a.668.668 0 0 0-.04-.213.508.508 0 0 0-.26-.315.567.567 0 0 0-.49 0 .546.546 0 0 0-.173.126.57.57 0 0 0-.112.19 1.06 1.06 0 0 0-.047.212h1.122Zm-3.389.277c0-.553-.205-.82-.608-.82a.988.988 0 0 0-.26.03.664.664 0 0 0-.206.087v1.547c.04.008.095.016.158.024a1.956 1.956 0 0 0 .213.008.604.604 0 0 0 .53-.237 1.128 1.128 0 0 0 .173-.64Zm.87.032a1.865 1.865 0 0 1-.111.654 1.333 1.333 0 0 1-.3.498 1.443 1.443 0 0 1-.49.324 1.912 1.912 0 0 1-.663.11c-.103 0-.214-.008-.325-.015-.11-.009-.22-.024-.331-.032q-.155-.022-.308-.056a1.049 1.049 0 0 1-.26-.07v-4.224l.852-.134v1.5a1.596 1.596 0 0 1 .632-.127 1.308 1.308 0 0 1 .569.118 1.16 1.16 0 0 1 .41.316 1.34 1.34 0 0 1 .253.498 2.78 2.78 0 0 1 .071.64Zm-3.602 1.389a5.486 5.486 0 0 1-1.28.165 1.758 1.758 0 0 1-.64-.102 1.054 1.054 0 0 1-.403-.284 1.199 1.199 0 0 1-.213-.45 2.288 2.288 0 0 1-.063-.568v-1.666h.853v1.57a1.199 1.199 0 0 0 .11.593.431.431 0 0 0 .403.18 1.501 1.501 0 0 0 .198-.007 1.144 1.144 0 0 0 .181-.023v-2.313h.854v2.905Zm-4.976-1.816c.086-.095.165-.19.26-.284.086-.103.174-.197.26-.292.088-.103.166-.19.237-.276.072-.087.143-.167.198-.23h1.011c-.205.23-.403.459-.593.672a15.03 15.03 0 0 1-.631.654 4.015 4.015 0 0 1 .355.371c.118.143.237.285.356.443.11.15.22.308.315.457.095.15.175.293.238.419h-.98c-.064-.103-.134-.206-.213-.324-.08-.118-.166-.236-.245-.363a3.899 3.899 0 0 0-.285-.347 1.866 1.866 0 0 0-.283-.276v1.318h-.854v-4.326l.854-.134v2.518Z"/>
  <path d="M253.588 175.473h-.978v-3.814a11.023 11.023 0 0 1 .042-1.132 2.058 2.058 0 0 1-.17.545l-1.79 4.437h-.683l-1.794-4.393-.17-.592a8.338 8.338 0 0 1 .043 1.174v3.82h-.939v-5.91h1.407l1.58 3.938.254.671a4.39 4.39 0 0 1 .256-.712l1.62-3.939h1.364l-.042 5.907Zm1.832-5.111a.556.556 0 0 1-.426-.168.453.453 0 0 1-.17-.377.436.436 0 0 1 .17-.381.772.772 0 0 1 .426-.168.555.555 0 0 1 .427.168.45.45 0 0 1 .171.376.436.436 0 0 1-.171.382.543.543 0 0 1-.427.168Zm.47 5.111h-.982v-4.23h.981Zm4.39-.166a2.354 2.354 0 0 1-1.236.296 2.116 2.116 0 0 1-1.535-.587 2 2 0 0 1-.592-1.508 2.244 2.244 0 0 1 .64-1.676 2.303 2.303 0 0 1 1.704-.629 2.597 2.597 0 0 1 1.023.21v.872a1.712 1.712 0 0 0-.939-.336 1.269 1.269 0 0 0-1.022.419 1.559 1.559 0 0 0-.384 1.09 1.438 1.438 0 0 0 .384 1.048 1.38 1.38 0 0 0 .98.376 1.52 1.52 0 0 0 .982-.376v.8Zm3.453-3.142a.913.913 0 0 0-.512-.125.896.896 0 0 0-.725.382 1.56 1.56 0 0 0-.296 1.046v2.018h-.981v-4.244h.981v.88a1.69 1.69 0 0 1 .425-.712.977.977 0 0 1 .682-.252.876.876 0 0 1 .384.084l.042.923Zm2.6 3.437a2.026 2.026 0 0 1-2.17-2.135 2.33 2.33 0 0 1 3.88-1.676 2.177 2.177 0 0 1 .55 1.637 2.355 2.355 0 0 1-.593 1.633 2.639 2.639 0 0 1-1.668.549l.001-.008Zm.043-3.687a1.112 1.112 0 0 0-.895.382 1.642 1.642 0 0 0-.342 1.09 1.55 1.55 0 0 0 .342 1.048 1.126 1.126 0 0 0 .895.382 1.1 1.1 0 0 0 .894-.382 1.606 1.606 0 0 0 .296-1.09 1.681 1.681 0 0 0-.296-1.091 1.24 1.24 0 0 0-.894-.336v-.003Zm2.9 3.433v-.882a2.17 2.17 0 0 0 1.194.42q.893 0 .894-.503a.586.586 0 0 0-.086-.252.426.426 0 0 0-.212-.168 1.657 1.657 0 0 0-.296-.125l-.384-.126a4.825 4.825 0 0 1-.469-.208 2.304 2.304 0 0 1-.342-.252.905.905 0 0 1-.213-.335 1.146 1.146 0 0 1 .043-.963.831.831 0 0 1 .384-.377 2.25 2.25 0 0 1 .554-.25 3.313 3.313 0 0 1 .64-.084 2.834 2.834 0 0 1 1.065.168v.839a1.717 1.717 0 0 0-1.023-.296.848.848 0 0 0-.341.04c-.086.043-.17.043-.256.085a.383.383 0 0 0-.213.376.517.517 0 0 0 .042.25.327.327 0 0 0 .17.169 1.661 1.661 0 0 0 .297.125c.128.042.218.084.384.125a2.631 2.631 0 0 0 .51.21c.17.041.255.167.384.25a2.315 2.315 0 0 1 .255.336 1.465 1.465 0 0 1 .085.46.761.761 0 0 1-.17.544 1.095 1.095 0 0 1-.384.38 4.187 4.187 0 0 1-.592.252 2.77 2.77 0 0 1-1.923-.21l.002.003Zm5.927.254a2.027 2.027 0 0 1-2.17-2.135 2.33 2.33 0 0 1 3.88-1.675 2.186 2.186 0 0 1 .554 1.633 2.356 2.356 0 0 1-.592 1.634 2.716 2.716 0 0 1-1.676.545l.004-.002Zm.043-3.686a1.112 1.112 0 0 0-.895.381 1.642 1.642 0 0 0-.342 1.09 1.55 1.55 0 0 0 .342 1.048 1.126 1.126 0 0 0 .895.382 1.107 1.107 0 0 0 .894-.382 1.606 1.606 0 0 0 .296-1.09 1.682 1.682 0 0 0-.296-1.091 1.226 1.226 0 0 0-.897-.342l.003.003Zm5.581-1.888a.87.87 0 0 0-.47-.125c-.468 0-.725.25-.725.795v.588h.981v.752h-.98v3.48h-.983v-3.48h-.726v-.76h.726v-.665a1.274 1.274 0 0 1 .426-1.047 1.836 1.836 0 0 1 1.662-.296v.754h.082l.007.004Zm2.815 5.404a1.825 1.825 0 0 1-.768.126c-.851 0-1.236-.382-1.236-1.174v-2.386h-.725v-.756h.725v-.964l.981-.251v1.256h1.023v.755h-1.023v2.098a.938.938 0 0 0 .128.544.538.538 0 0 0 .47.168.723.723 0 0 0 .424-.131v.712l.001.003Zm-30.518 8.74h-1.11l-.553-1.507h-2.388l-.514 1.509h-1.107l2.26-5.907h1.104l2.308 5.906Zm-1.918-2.303-.853-2.346a2.618 2.618 0 0 1-.085-.376 2.62 2.62 0 0 1-.085.376l-.81 2.346Zm5.803-1.51-2.303 3.056h2.303v.754h-3.67v-.369l2.388-3.108h-2.132v-.754h3.454v.416l-.04.004Zm4.6 3.815h-.982v-.67a1.428 1.428 0 0 1-1.321.754c-1.023 0-1.536-.587-1.536-1.802v-2.514h.98v2.43q0 1.13.896 1.13a.932.932 0 0 0 .725-.296 1.34 1.34 0 0 0 .296-.838v-2.426h.98l-.039 4.232Zm3.75-3.31a.913.913 0 0 0-.512-.125.884.884 0 0 0-.725.382 1.56 1.56 0 0 0-.296 1.046v2.017h-.98v-4.237h.98v.88a1.696 1.696 0 0 1 .426-.713.98.98 0 0 1 .675-.25.878.878 0 0 1 .383.084Zm4.35 1.472h-2.947a1.179 1.179 0 0 0 .384.927 1.395 1.395 0 0 0 .981.335 2.038 2.038 0 0 0 1.283-.418v.754a2.765 2.765 0 0 1-1.54.38 2.019 2.019 0 0 1-1.491-.592 2.199 2.199 0 0 1-.554-1.634 2.238 2.238 0 0 1 .592-1.592 1.959 1.959 0 0 1 1.491-.63 1.707 1.707 0 0 1 1.364.545 2.185 2.185 0 0 1 .47 1.548l-.034.377Zm-.939-.67a1.126 1.126 0 0 0-.255-.796.798.798 0 0 0-.682-.297.955.955 0 0 0-.726.297 1.235 1.235 0 0 0-.34.796Z" style="fill:#3860ad"/>
  <path d="m235.957 169.823-3.178 6.4 5.599 6.487-10.39 1.173 16.12.163Zm-.627-2.526-7.298 6.103-5.417 9.136 4.612-.461Z" style="fill-rule:evenodd;fill:#3860ad"/>
  <path d="M20.1 174.996a3.034 3.034 0 0 0 .113.92 5.635 5.635 0 0 0 .33.741.436.436 0 0 1 .073.238.41.41 0 0 1-.196.307l-.652.435a.502.502 0 0 1-.265.092.469.469 0 0 1-.32-.145 3.138 3.138 0 0 1-.372-.485q-.173-.296-.32-.607a3.808 3.808 0 0 1-3.019 1.423 2.838 2.838 0 0 1-2.064-.742 2.903 2.903 0 0 1 .174-4.1 3.79 3.79 0 0 1 2.529-.794 7.809 7.809 0 0 1 1.094.082c.382.05.774.132 1.188.225v-.766a2.286 2.286 0 0 0-.485-1.65 2.33 2.33 0 0 0-1.683-.474 4.692 4.692 0 0 0-1.114.135 8.475 8.475 0 0 0-1.115.35 3.205 3.205 0 0 1-.36.135.593.593 0 0 1-.165.03c-.145 0-.218-.104-.218-.318v-.507a.659.659 0 0 1 .072-.36.772.772 0 0 1 .291-.217 5.85 5.85 0 0 1 1.302-.463 6.212 6.212 0 0 1 1.614-.196 3.72 3.72 0 0 1 2.703.834 3.373 3.373 0 0 1 .857 2.537v3.34Zm-4.19 1.568a3.32 3.32 0 0 0 1.06-.185 2.306 2.306 0 0 0 .98-.66 1.637 1.637 0 0 0 .35-.66 3.64 3.64 0 0 0 .104-.897v-.434a8.117 8.117 0 0 0-1.918-.237 2.37 2.37 0 0 0-1.539.414 1.437 1.437 0 0 0-.506 1.184 1.322 1.322 0 0 0 .876 1.41 1.337 1.337 0 0 0 .59.065Zm8.287 1.115a.576.576 0 0 1-.392-.103.825.825 0 0 1-.217-.403l-2.426-7.982a1.858 1.858 0 0 1-.093-.411.224.224 0 0 1 .144-.252.22.22 0 0 1 .103-.014h1.013a.58.58 0 0 1 .403.104.877.877 0 0 1 .206.403l1.734 6.825 1.608-6.81a.515.515 0 0 1 .61-.505h.823a.62.62 0 0 1 .414.104.712.712 0 0 1 .197.402l1.629 6.907 1.784-6.907a.913.913 0 0 1 .207-.402.672.672 0 0 1 .403-.104h.959a.228.228 0 0 1 .201.064.235.235 0 0 1 .064.2 1.666 1.666 0 0 1-.093.43l-2.489 7.972a.791.791 0 0 1-.214.4.653.653 0 0 1-.392.103h-.893a.608.608 0 0 1-.414-.103.728.728 0 0 1-.196-.41l-1.599-6.672-1.59 6.64a.808.808 0 0 1-.196.414.649.649 0 0 1-.412.102l-.886.008Zm13.251.278a6.92 6.92 0 0 1-1.59-.185 4.737 4.737 0 0 1-1.187-.414.584.584 0 0 1-.381-.577v-.53c0-.217.082-.318.238-.318a.596.596 0 0 1 .185.03c.062.02.155.063.265.103a5.483 5.483 0 0 0 1.135.36 6.004 6.004 0 0 0 1.227.125 2.793 2.793 0 0 0 1.508-.34 1.111 1.111 0 0 0 .53-.979 1.008 1.008 0 0 0-.265-.723 2.584 2.584 0 0 0-1.042-.53l-1.497-.463a3.142 3.142 0 0 1-1.649-1.06 2.456 2.456 0 0 1-.53-1.497 2.29 2.29 0 0 1 .266-1.144 2.642 2.642 0 0 1 .742-.844 3.31 3.31 0 0 1 1.06-.53 4.486 4.486 0 0 1 1.301-.175 5.155 5.155 0 0 1 .692.042c.236.03.453.072.67.112a4 4 0 0 1 .589.166 2.069 2.069 0 0 1 .431.186.867.867 0 0 1 .31.265.564.564 0 0 1 .093.342v.473c0 .215-.081.329-.238.329a1.057 1.057 0 0 1-.392-.124 4.704 4.704 0 0 0-1.98-.4 2.666 2.666 0 0 0-1.373.288.989.989 0 0 0-.484.917.978.978 0 0 0 .31.733 3.162 3.162 0 0 0 1.133.568l1.498.47a3.14 3.14 0 0 1 1.59.991 2.337 2.337 0 0 1 .475 1.444 2.613 2.613 0 0 1-.266 1.194 2.76 2.76 0 0 1-.752.909 3.359 3.359 0 0 1-1.145.577 4.943 4.943 0 0 1-1.47.21h-.007Z" style="fill:#334b59"/>
  <path d="M39.403 182.963a22.23 22.23 0 0 1-12.567 3.84 22.744 22.744 0 0 1-15.341-5.845c-.32-.289-.031-.681.35-.455a30.959 30.959 0 0 0 15.351 4.073 30.649 30.649 0 0 0 11.711-2.384c.568-.264 1.053.363.496.771Zm1.413-1.61c-.432-.557-2.867-.265-3.975-.133-.331.04-.382-.249-.085-.464a6.14 6.14 0 0 1 5.502-.516 6.046 6.046 0 0 1-1.922 5.176c-.264.238-.545.113-.42-.196.418-1.015 1.334-3.317.9-3.862Z" style="fill:#eda23f"/>
  <path class="q" d="M138.087 168.27h4.535a2.91 2.91 0 0 1 2.988 2.831q.002.064 0 .128v4.947a2.913 2.913 0 0 1-2.862 2.961h-4.658l.224-.906a5.12 5.12 0 0 0 .139-.549c.024-.184.12-.24.282-.266q1.806-.384 3.604-.78a.82.82 0 0 0 .567-.293.832.832 0 0 0 .194-.608l-.004-.034v-4.022a.83.83 0 0 0-.73-.882l-3.7-.8a.265.265 0 0 1-.17-.127c-.141-.536-.27-1.053-.409-1.6Zm-2.515.01c-.13.534-.267 1.032-.387 1.543-.026.12-.103.137-.202.158l-3.7.816a.846.846 0 0 0-.725.869v4.112a.837.837 0 0 0 .736.858l3.681.8a.246.246 0 0 1 .224.208c.12.498.248.994.376 1.508h-4.577a2.906 2.906 0 0 1-2.933-2.877v-5.087a2.888 2.888 0 0 1 2.835-2.913c1.523-.021 3.042 0 4.562 0Z"/>
  <path class="q" d="M138.505 173.515v.38h-3.324v-.38Z"/>
  <path d="M122.523 186.837h-.627c-.029 0-.075-.056-.085-.093q-.153-.524-.29-1.051a.135.135 0 0 0-.051-.091.142.142 0 0 0-.1-.03l-.008.002h-2.197a.136.136 0 0 0-.103.026.14.14 0 0 0-.054.09v.006c-.091.339-.187.672-.281 1.01a.46.46 0 0 1-.037.128H118c.026-.107.048-.203.074-.296a24.696 24.696 0 0 1 1.414-4.123c.082-.178.175-.349.266-.533a.13.13 0 0 1 .139-.08h.709a.194.194 0 0 1 .121.025.192.192 0 0 1 .08.095 15.12 15.12 0 0 1 .82 1.894 30.008 30.008 0 0 1 .883 2.904.816.816 0 0 0 .017.117Zm-1.279-1.95v-.039a18.274 18.274 0 0 0-.876-2.241.219.219 0 0 0-.128-.11c-.03 0-.088.067-.107.115q-.36.87-.707 1.738c-.07.17-.12.349-.181.533l2 .005Zm4.675 1.949v-5.019h.662v1.351c.2-.026.38-.056.564-.074a2.507 2.507 0 0 1 .867.04.993.993 0 0 1 .8.997q.016.839 0 1.676a1.066 1.066 0 0 1-1.045 1.085 7.617 7.617 0 0 1-.867 0c-.266 0-.533-.03-.8-.043a.598.598 0 0 0-.181-.013Zm.674-2.98v2.292a3.06 3.06 0 0 0 1.126.067c.328-.056.438-.17.44-.498v-1.5c0-.302-.112-.419-.408-.46a3.43 3.43 0 0 0-1.158.1Zm6.417 2.98v-5.02h.653v1.353c.2-.026.381-.056.563-.074a2.212 2.212 0 0 1 1.024.09.912.912 0 0 1 .64.85c.024.59.03 1.181 0 1.77a1.067 1.067 0 0 1-1.045 1.088h-.022a8.88 8.88 0 0 1-.922-.021l-.75-.035c-.038-.003-.085 0-.141 0Zm.655-.684a3.04 3.04 0 0 0 1.145.067c.314-.05.424-.174.427-.493v-1.472c0-.346-.115-.458-.459-.496a3.532 3.532 0 0 0-.973.075c-.115.02-.144.064-.144.176v2.001Zm21.379-3.002v-1.333h.654v5h-.028c-.47.03-.938.067-1.41.083a1.532 1.532 0 0 1-.728-.144.903.903 0 0 1-.569-.762 17.573 17.573 0 0 1 0-1.97.974.974 0 0 1 .913-.93 3.332 3.332 0 0 1 .976.013l.192.043Zm0 3.009v-2.132c0-.2 0-.203-.198-.235a2.328 2.328 0 0 0-.933-.015.337.337 0 0 0-.308.363v.004l.001.006v1.65a.36.36 0 0 0 .299.386 2.422 2.422 0 0 0 1.139-.027Zm-23.486-1.502a3.675 3.675 0 0 0-.035-.619c-.02-.135-.134-.202-.268-.239a1.7 1.7 0 0 0-.768-.02c-.24.041-.48.096-.735.15l-.16-.645c.267-.058.504-.125.754-.162a2.435 2.435 0 0 1 1.145.05.97.97 0 0 1 .706.933v2.665a.3.3 0 0 1 0 .059l-.018.014c-.557.029-1.115.071-1.672.085a1.252 1.252 0 0 1-.897-.33 1.116 1.116 0 0 1-.311-.948 1.098 1.098 0 0 1 .578-.812 2.599 2.599 0 0 1 1.354-.203 1.601 1.601 0 0 1 .327.022Zm0 1.098v-.285c0-.096-.038-.147-.137-.15a6.325 6.325 0 0 0-.677-.019 2.017 2.017 0 0 0-.534.123.34.34 0 0 0-.227.366.43.43 0 0 0 .486.453c.333 0 .666-.046 1.002-.07.07 0 .094-.037.091-.104s-.013-.213-.013-.32l.009.006Zm7.73 1.053-.035.024c-.534.029-1.088.066-1.633.082a1.266 1.266 0 0 1-.8-.226 1.085 1.085 0 0 1-.432-1.082.988.988 0 0 1 .664-.83 2.731 2.731 0 0 1 1.265-.154l.309.03a2.387 2.387 0 0 0-.043-.66.344.344 0 0 0-.266-.207 2.092 2.092 0 0 0-.92.019c-.182.035-.36.082-.558.125l-.16-.637a3.752 3.752 0 0 1 1.186-.208 2.79 2.79 0 0 1 .7.082.945.945 0 0 1 .714.91c.016.362 0 .728 0 1.09v1.642h.008Zm-.67-1.466c-.083-.016-.158-.033-.235-.04a2.29 2.29 0 0 0-1.067.09.373.373 0 0 0-.266.402.393.393 0 0 0 .349.419 2.206 2.206 0 0 0 .498.027 6.747 6.747 0 0 0 .726-.078l-.005-.82Zm5.652-3.283-.157.621c-.243-.056-.472-.12-.707-.157a3.575 3.575 0 0 0-1.448.035.528.528 0 0 0-.457.377.554.554 0 0 0-.02.207l.002.016v2.412a.562.562 0 0 0 .462.586 3.605 3.605 0 0 0 1.422.045c.239-.037.477-.101.733-.157l.163.643c-.195.047-.38.106-.57.141a4.678 4.678 0 0 1-1.908-.014 1.214 1.214 0 0 1-.987-1.234c0-.8.016-1.599 0-2.399a1.25 1.25 0 0 1 1.014-1.282 4.636 4.636 0 0 1 2.368.118l.05.018a.243.243 0 0 1 .04.024Zm1.909 2.94v-.8a1.146 1.146 0 0 1 1.107-1.126 4.561 4.561 0 0 1 .829.032 1.123 1.123 0 0 1 .904 1.099v1.554a1.149 1.149 0 0 1-1.105 1.156 4.519 4.519 0 0 1-.759-.018 1.134 1.134 0 0 1-.976-1.12c-.003-.261 0-.52 0-.778Zm.664 0v.75a.494.494 0 0 0 .481.507h.497a.494.494 0 0 0 .5-.31.494.494 0 0 0 .034-.205v-1.46a.502.502 0 0 0-.534-.533h-.464a.515.515 0 0 0-.386.146.505.505 0 0 0-.147.386l.019.718Zm5.522 1.816c-.504.035-1 .083-1.5.096a1.686 1.686 0 0 1-.57-.101.988.988 0 0 1-.696-.848 2.276 2.276 0 0 1-.023-.324v-2.469h.663v2.554a.426.426 0 0 0 .096.348.439.439 0 0 0 .328.153 2.737 2.737 0 0 0 1.027-.067v-2.986h.662l.013 3.644Zm-29.348-5.003h.645v5.014h-.645Zm21.882-.007h.645v5.021h-.645Zm-20.425 1.359h.65v3.662h-.65Zm.33-.463a.436.436 0 0 1-.451-.422v-.021a.443.443 0 0 1 .433-.452h.011a.448.448 0 0 1 .452.443v.009a.438.438 0 0 1-.432.443Z" style="fill:#30393f"/>
  <path d="M197.603 168.153a1.291 1.291 0 0 0-.64-.74l-6.105-2.92a1.114 1.114 0 0 0-.5-.1 2.111 2.111 0 0 0-.5.04l-6.105 2.94a1.072 1.072 0 0 0-.6.74l-1.502 6.58a1.269 1.269 0 0 0 .22.96l4.223 5.22a1.458 1.458 0 0 0 .921.421h6.725a.995.995 0 0 0 .921-.42l4.222-5.22a1.361 1.361 0 0 0 .24-.96l-1.52-6.54Z" style="fill:#326de6"/>
  <path class="c" d="M196.672 174.433c-.02 0-.04 0-.04-.02s-.04-.02-.08-.02a.949.949 0 0 0-.24-.02.259.259 0 0 1-.12-.02h-.02a4.06 4.06 0 0 1-.68-.12.235.235 0 0 1-.14-.14l-.161-.04a5.218 5.218 0 0 0-.08-1.76 5.452 5.452 0 0 0-.7-1.64l.12-.12v-.02a.28.28 0 0 1 .06-.18 3.619 3.619 0 0 1 .56-.4l.12-.06c.08-.04.14-.08.22-.12.02-.02.04-.02.06-.04.02-.02 0-.02 0-.04a.39.39 0 0 0 .092-.545l-.011-.016a.38.38 0 0 0-.28-.14.477.477 0 0 0-.281.1l-.02.02c-.02.02-.04.04-.06.04a1.296 1.296 0 0 0-.16.18c-.02.04-.06.06-.08.08a2.616 2.616 0 0 1-.5.441.289.289 0 0 1-.12.04.116.116 0 0 1-.08-.02h-.02l-.16.1c-.161-.16-.341-.32-.501-.48a5.132 5.132 0 0 0-2.602-1.04l-.02-.16v.02a.282.282 0 0 1-.1-.161 4.105 4.105 0 0 1 .04-.68v-.02c0-.04.02-.08.02-.12.02-.08.02-.16.04-.24v-.12a.4.4 0 0 0-.34-.42.41.41 0 0 0-.34.14.397.397 0 0 0-.12.28v.1a1.056 1.056 0 0 0 .04.24.257.257 0 0 1 .02.12v.02a3.712 3.712 0 0 1 .04.68.275.275 0 0 1-.1.16v.04l-.02.16c-.22.02-.44.06-.68.1a4.77 4.77 0 0 0-2.463 1.4l-.12-.08h-.02c-.02 0-.04.02-.08.02a.28.28 0 0 1-.12-.04 3.685 3.685 0 0 1-.5-.46c-.02-.04-.06-.06-.08-.08-.06-.06-.1-.12-.16-.18-.02-.02-.04-.02-.06-.04l-.02-.02a.48.48 0 0 0-.28-.1.304.304 0 0 0-.281.14.432.432 0 0 0 .08.56l.008.002.007.004.003.007.002.008s.04.04.06.04a2.292 2.292 0 0 0 .22.12l.12.06a2.815 2.815 0 0 1 .561.4.203.203 0 0 1 .06.18v-.02l.12.12c-.02.04-.04.06-.06.1a4.746 4.746 0 0 0-.701 3.28l-.16.04v.008l-.006.006-.006.004-.008.001a.31.31 0 0 1-.14.14 3.77 3.77 0 0 1-.68.121.268.268 0 0 0-.12.02c-.08 0-.16.02-.241.02-.02 0-.04.02-.08.02-.02 0-.02 0-.04.02a.397.397 0 0 0-.257.162.383.383 0 0 0-.063.298.368.368 0 0 0 .4.28.176.176 0 0 0 .1-.02c.02 0 .02 0 .02-.02s.06 0 .08 0c.08-.02.16-.06.22-.08a.293.293 0 0 1 .12-.04h.021a3.613 3.613 0 0 1 .66-.18h.02a.232.232 0 0 1 .16.06l.008.002.006.003.005.007.001.008.18-.02a4.832 4.832 0 0 0 1.641 2.34 3.2 3.2 0 0 0 .54.36l-.099.14.001.007.005.007.006.005.007.001a.234.234 0 0 1 .02.2 3.307 3.307 0 0 1-.319.58v.02a.348.348 0 0 1-.08.1c-.04.04-.08.12-.14.2-.02.02-.02.04-.04.06l-.002.008-.004.006-.007.005h-.008a.414.414 0 0 0 .161.541.372.372 0 0 0 .14.04.452.452 0 0 0 .38-.24l.001-.008.005-.006.006-.005h.008c0-.02.02-.041.04-.06.02-.081.06-.141.08-.22l.04-.12a3.38 3.38 0 0 1 .26-.62.307.307 0 0 1 .16-.12c.02 0 .02 0 .02-.021l.08-.16a4.716 4.716 0 0 0 1.742.32 4.026 4.026 0 0 0 1.08-.14 6.029 6.029 0 0 0 .64-.18l.081.14c.02 0 .02 0 .02.02a.314.314 0 0 1 .16.12 3.348 3.348 0 0 1 .26.62v.02l.04.12a.723.723 0 0 0 .08.22c.02.02.02.04.04.06l.002.008.004.006.007.005h.008a.44.44 0 0 0 .38.241.49.49 0 0 0 .16-.04.328.328 0 0 0 .18-.22.513.513 0 0 0-.026-.314l-.006-.004-.008-.002c0-.02-.02-.04-.04-.06a.716.716 0 0 0-.14-.2.361.361 0 0 0-.08-.1v-.04a2.337 2.337 0 0 1-.32-.58.234.234 0 0 1 .02-.2l.001-.008.005-.006.006-.004.007-.002-.06-.16a4.946 4.946 0 0 0 2.162-2.72l.16.02.008-.002.007-.004.004-.006.002-.008a.227.227 0 0 1 .16-.06h.02a3.346 3.346 0 0 1 .64.18h.02a.285.285 0 0 0 .12.04 1.03 1.03 0 0 0 .22.1c.02 0 .04.02.08.02.02 0 .02 0 .04.02a.176.176 0 0 0 .1.02.43.43 0 0 0 .4-.28.475.475 0 0 0-.36-.42Zm-5.784-.62-.54.26-.54-.26-.14-.58.38-.48h.6l.38.48Zm3.263-1.3a3.856 3.856 0 0 1 .08 1.26l-1.902-.54a.33.33 0 0 1-.24-.399v-.001a.327.327 0 0 1 .08-.14l1.501-1.36a4.078 4.078 0 0 1 .48 1.18Zm-1.081-1.92-1.641 1.16a.34.34 0 0 1-.441-.08.184.184 0 0 1-.046-.064.206.206 0 0 1-.014-.076l-.12-2.02a3.766 3.766 0 0 1 2.262 1.08Zm-3.623-1.02.4-.081-.1 2a.331.331 0 0 1-.34.32.458.458 0 0 1-.16-.04l-1.661-1.18a3.967 3.967 0 0 1 1.86-1.02Zm-2.441 1.76 1.48 1.32a.322.322 0 0 1 .04.46.23.23 0 0 1-.068.068.238.238 0 0 1-.091.032l-1.942.56a4.202 4.202 0 0 1 .58-2.44Zm-.341 3.38 1.982-.34a.329.329 0 0 1 .34.26.246.246 0 0 1 .012.102.253.253 0 0 1-.032.098l-.761 1.84a3.938 3.938 0 0 1-1.541-1.96Zm4.544 2.48a4.093 4.093 0 0 1-.861.1 4.485 4.485 0 0 1-1.26-.2l.98-1.78a.31.31 0 0 1 .4-.08.954.954 0 0 1 .16.14l.96 1.74a3.185 3.185 0 0 0-.38.08Zm2.44-1.74a3.816 3.816 0 0 1-1.2 1.2l-.78-1.88a.325.325 0 0 1 .18-.38.6.6 0 0 1 .18-.04l2.001.34a2.99 2.99 0 0 1-.38.76Z"/>
  <path d="m81.056 171.029.447.008 1.215-1.215.059-.515a5.46 5.46 0 0 0-8.9 2.652.658.658 0 0 1 .416-.023l2.429-.4s.125-.207.188-.194a3.034 3.034 0 0 1 4.146-.313Z" style="fill:#ea4335"/>
  <path d="M84.43 171.963a5.47 5.47 0 0 0-1.649-2.657l-1.72 1.721a3.03 3.03 0 0 1 1.131 2.362v.303a1.517 1.517 0 1 1 0 3.034h-3.035l-.303.305v1.822l.303.302h3.035a3.943 3.943 0 0 0 2.234-7.191Z" style="fill:#4285f4"/>
  <path d="M76.115 179.158h3.034v-2.43h-3.034a1.502 1.502 0 0 1-.624-.135l-.438.134-1.215 1.215-.107.411a3.894 3.894 0 0 0 2.385.805Z" style="fill:#34a853"/>
  <path d="M76.115 171.265a3.945 3.945 0 0 0-2.383 7.09l1.76-1.76a1.517 1.517 0 1 1 2.006-2.005l1.76-1.76a3.94 3.94 0 0 0-3.144-1.564Z" style="fill:#fbbc05"/>
  <path d="M60.384 186.811a2.953 2.953 0 0 1-2.14-.88 2.936 2.936 0 0 1 0-4.228 2.956 2.956 0 0 1 2.14-.88 2.862 2.862 0 0 1 2.052.824l-.577.578a2.08 2.08 0 0 0-1.475-.585 2.052 2.052 0 0 0-1.523.637 2.213 2.213 0 0 0 0 3.08 2.174 2.174 0 0 0 3.036.037 1.729 1.729 0 0 0 .446-1.03h-1.958v-.818h2.754a2.613 2.613 0 0 1 .04.508 2.584 2.584 0 0 1-.71 1.914 2.758 2.758 0 0 1-2.09.84Zm6.4-.547a1.996 1.996 0 0 1-2.746 0 1.966 1.966 0 0 1 0-2.753 1.996 1.996 0 0 1 2.747 0 1.966 1.966 0 0 1 0 2.753Zm-2.14-.54a1.053 1.053 0 0 0 1.535 0 1.26 1.26 0 0 0 .004-1.677 1.07 1.07 0 0 0-1.542 0 1.26 1.26 0 0 0 .003 1.677Zm6.363.54a1.996 1.996 0 0 1-2.746 0 1.966 1.966 0 0 1 0-2.753 1.996 1.996 0 0 1 2.746 0 1.966 1.966 0 0 1 0 2.753Zm-2.14-.54a1.053 1.053 0 0 0 1.535 0 1.26 1.26 0 0 0 .003-1.677 1.07 1.07 0 0 0-1.542 0 1.26 1.26 0 0 0 .004 1.677Zm4.915 2.823a1.698 1.698 0 0 1-1.08-.344 1.987 1.987 0 0 1-.628-.797l.738-.306a1.205 1.205 0 0 0 .365.483.929.929 0 0 0 .607.204.986.986 0 0 0 .755-.292 1.188 1.188 0 0 0 .274-.841v-.274h-.03a1.232 1.232 0 0 1-1.014.439 1.763 1.763 0 0 1-1.293-.562 1.861 1.861 0 0 1-.555-1.36 1.885 1.885 0 0 1 .555-1.369 1.759 1.759 0 0 1 1.293-.566 1.385 1.385 0 0 1 .595.125 1.214 1.214 0 0 1 .42.306h.03v-.31h.803v3.462a2.014 2.014 0 0 1-.515 1.51 1.82 1.82 0 0 1-1.32.5Zm.06-2.491a.942.942 0 0 0 .734-.332 1.202 1.202 0 0 0 .295-.83 1.229 1.229 0 0 0-.295-.84.938.938 0 0 0-.735-.336 1.004 1.004 0 0 0-.76.336 1.183 1.183 0 0 0-.314.84 1.16 1.16 0 0 0 .315.83 1.007 1.007 0 0 0 .76.332Zm3.206-5.03v5.67h-.847v-5.67Zm2.322 5.785a1.842 1.842 0 0 1-1.366-.555 1.877 1.877 0 0 1-.548-1.374 1.898 1.898 0 0 1 .53-1.388 1.74 1.74 0 0 1 1.29-.54 1.632 1.632 0 0 1 .65.127 1.533 1.533 0 0 1 .496.329 2.284 2.284 0 0 1 .314.39 2.393 2.393 0 0 1 .19.38l.088.22-2.578 1.067a.98.98 0 0 0 .935.585 1.105 1.105 0 0 0 .95-.533l.656.439a2.142 2.142 0 0 1-.62.591 1.766 1.766 0 0 1-.987.262Zm-1.073-1.986 1.72-.716a.586.586 0 0 0-.274-.296.884.884 0 0 0-.445-.112 1 1 0 0 0-.697.306 1.031 1.031 0 0 0-.311.818Zm7.167 1.986a2.732 2.732 0 1 1 0-5.465 2.42 2.42 0 0 1 1.92.855l-.467.453a1.76 1.76 0 0 0-1.454-.664 1.994 1.994 0 0 0-2.035 2.089 2.026 2.026 0 0 0 .588 1.513 1.982 1.982 0 0 0 1.447.577 2.05 2.05 0 0 0 1.603-.76l.467.468a2.545 2.545 0 0 1-.9.683 2.745 2.745 0 0 1-1.174.251Zm3.345-.116h-.673v-5.23h.673Zm1.096-3.151a1.877 1.877 0 0 1 2.644 0 2.049 2.049 0 0 1 0 2.725 1.878 1.878 0 0 1-2.644 0 2.049 2.049 0 0 1 0-2.725Zm.5 2.3a1.129 1.129 0 0 0 1.642 0 1.27 1.27 0 0 0 .348-.938 1.284 1.284 0 0 0-.348-.939 1.129 1.129 0 0 0-1.642 0 1.27 1.27 0 0 0-.347.939 1.284 1.284 0 0 0 .347.938Zm6.381.851h-.643v-.496h-.03a1.201 1.201 0 0 1-.467.43 1.37 1.37 0 0 1-.664.18 1.258 1.258 0 0 1-1.019-.41 1.641 1.641 0 0 1-.347-1.096v-2.192h.673v2.082q0 1.002.883 1a.821.821 0 0 0 .68-.335 1.224 1.224 0 0 0 .262-.774v-1.973h.673v3.58Zm2.279.116a1.575 1.575 0 0 1-1.198-.548 2.086 2.086 0 0 1 0-2.718 1.575 1.575 0 0 1 1.198-.548 1.537 1.537 0 0 1 .735.174 1.225 1.225 0 0 1 .486.44h.03l-.03-.497v-1.65h.672v5.231h-.643v-.497h-.03a1.242 1.242 0 0 1-.485.44 1.548 1.548 0 0 1-.735.173Zm.11-.614a1.071 1.071 0 0 0 .807-.35 1.491 1.491 0 0 0 0-1.877 1.097 1.097 0 0 0-1.612.003 1.48 1.48 0 0 0 0 1.877 1.067 1.067 0 0 0 .804.354Z" style="fill:#5f6368"/>
</svg>
