<svg xmlns="http://www.w3.org/2000/svg" viewBox="0 0 87.796 80.875"><defs><style>.a{fill:#e24329}.b{fill:#fc6d26}.c{fill:#fca326}</style></defs><path class="a" d="m43.898 80.875 16.166-49.753H27.732Z"/><path class="b" d="M43.898 80.875 27.732 31.122H5.076Z"/><path class="c" d="M5.076 31.122.164 46.242a3.347 3.347 0 0 0 1.216 3.742l42.518 30.891Z"/><path class="a" d="M5.076 31.122h22.656L17.996 1.157a1.673 1.673 0 0 0-3.183 0Z"/><path class="b" d="m43.898 80.875 16.166-49.753H82.72Z"/><path class="c" d="m82.72 31.122 4.912 15.12a3.347 3.347 0 0 1-1.216 3.742L43.898 80.875 82.72 31.122Z"/><path class="a" d="M82.72 31.122H60.064L69.8 1.157a1.673 1.673 0 0 1 3.183 0Z"/></svg>