<svg xmlns="http://www.w3.org/2000/svg" viewBox="0 0 72.129 99.735"><defs><style>.a{fill:#d33833}.b{fill:#ef3d3a}.c{fill:#231f20}.d{fill:#f0d6b7}.e{fill:#335061}.g{fill:#dcd9d8}.h{fill:#f7e4cd}.i{fill:#49728b}.j{fill:#fff}.k{stroke:#d33833;stroke-width:2px}.l{fill:#81b0c4}.m{fill:#1d1919}</style></defs><path class="a" d="M71.057 48.058c0 19.754-15.662 35.783-34.992 35.783S1.072 67.81 1.072 48.058s15.662-35.782 34.993-35.782 34.992 16.029 34.992 35.782"/><path class="b" d="M2.512 56.92s-2.54-37.307 31.86-38.38l-2.4-4.007-18.652 6.265-5.334 6.124-4.656 8.917L.677 46.224l.79 6.942"/><path class="c" d="M12.106 23.648A35.094 35.094 0 0 0 2.173 48.2a35.094 35.094 0 0 0 9.933 24.551 33.337 33.337 0 0 0 23.959 10.16 33.337 33.337 0 0 0 23.958-10.16 35.094 35.094 0 0 0 9.933-24.55 35.094 35.094 0 0 0-9.933-24.552A33.45 33.45 0 0 0 36.065 13.49a33.386 33.386 0 0 0-23.959 10.16Zm-1.552 50.598A37.156 37.156 0 0 1 0 48.199a37.274 37.274 0 0 1 10.554-26.074 35.623 35.623 0 0 1 25.51-10.809 35.623 35.623 0 0 1 25.511 10.809 37.173 37.173 0 0 1 10.554 26.074 37.156 37.156 0 0 1-10.554 26.047 35.51 35.51 0 0 1-25.51 10.808 35.51 35.51 0 0 1-25.51-10.808Z"/><path class="d" d="m50.795 48.256-5.333.79-7.196.818-4.656.113-4.544-.14-3.47-1.073-3.077-3.33-2.398-6.801-.537-1.467-3.188-1.073-1.863-3.076-1.326-4.402 1.467-3.866 3.471-1.214 2.794 1.327 1.326 2.935 1.609-.254.536-.678-.536-3.076-.141-3.866.79-5.333-.028-3.048 2.426-3.894 4.262-3.076 7.45-3.189L46.9 2.597l7.196 5.192 3.33 5.334 2.145 3.866.536 9.594-1.609 8.269-2.935 7.337L52.8 46.11"/><path class="e" d="m46.28 71.311-19.048.79v3.189l1.608 11.203-.79.931-13.32-4.543-.93-1.608-1.327-15.07-3.132-9.03-.677-2.145 10.667-7.337 3.33-1.326 2.934 3.612 2.54 2.258 2.935.93 1.326.396 1.609 6.942 1.213 1.467 3.076-1.072-2.145 4.148 11.57 5.475-1.439.79"/><path d="m28.61 24.938 3.47-1.214 2.794 1.326 1.327 2.935 1.608-.254.395-1.608-.79-3.076.79-7.337-.677-4.007 2.399-2.794 5.192-4.12-1.467-2.004-7.337 3.612-3.076 2.399-1.722 3.725-2.652 3.612-.79 4.261.536 4.544" transform="translate(-13.935 -.132)" style="fill:#6d6b6d"/><path class="g" d="M20.149 12.276s2.003-4.938 9.99-7.337.395-1.722.395-1.722l-8.664 3.33-3.33 3.33-1.467 2.653 3.076-.254M16.142 23.874s-2.794-9.34 7.873-10.667L23.62 11.6l-7.337 1.721-2.145 6.942.536 4.543 1.468-.93"/><path class="h" d="m20.403 36.262 1.75-1.693a1.125 1.125 0 0 1 .93 1.016c.142.931.537 9.34 6.265 13.856.537.423-4.26-.677-4.26-.677l-4.262-6.66M44.926 33.723s.31-4.036 1.41-3.725a1.509 1.509 0 0 1 1.101 1.41s-2.653 1.694-2.511 2.315M55.988 18.936s-2.202.451-2.4 2.398 2.4.395 2.795.254M39.874 19.077s-2.935.395-2.935 2.257 3.33 1.722 4.262.932M21.757 27.74s-5.05-3.076-5.587-.14-1.721 5.05.79 8.126l-1.721-.536-1.609-4.12-.536-4.007 3.076-3.189 3.47.254 2.004 1.609.113 2.003M24.156 19.33S26.414 7.593 37.871 5.335c9.425-1.863 14.392.395 16.254 2.54 0 0-8.41-9.99-16.395-6.942-7.987 3.076-13.856 8.663-13.715 12.247.226 6.152.141 6.152.141 6.152M55.056 9.2s-3.866-.141-4.007 3.33a2.797 2.797 0 0 0 .254 1.072s3.076-3.47 4.939-1.608"/><path class="h" d="M38.153 13.97s-.677-5.306-5.193-2.23c-2.934 2.003-2.652 4.797-2.144 5.333.536.536.395 1.609.79.875s.282-3.132 1.75-3.81c1.439-.677 3.866-1.41 4.797-.169"/><path class="i" d="m25.623 49.977-12.529 5.588s5.192 20.656 2.54 27.062l-1.863-.677-.14-7.873-3.472-14.9-1.467-4.12 13.065-8.805 3.866 3.725M26.893 61.406l1.778 2.173v7.986h-2.116S26.3 65.978 26.3 65.3s.254-3.076.254-3.076M26.95 72.778l-6.011.254 1.721 1.214 4.262.677"/><path class="e" d="m47.465 71.452 4.939-.14 1.213 12.246-5.051.678-1.1-12.784"/><path class="e" d="m48.792 71.452 7.45-.395s3.075-7.732 3.075-8.127 2.653-11.203 2.653-11.203l-6.01-6.265-1.214-1.072-3.189 3.188v12.389l-2.765 11.485"/><path class="i" d="m52.122 70.52-4.657.932.678 3.725c1.721.79 4.656-1.326 4.656-1.326M52.263 47.183l9.34 6.942.254-3.188-7.055-6.52-2.54 2.766"/><path class="j" d="m31.578 97.696-2.766-11.203-1.383-8.268-.225-6.124 12.5-.677h7.761L46.76 85.42l1.213 10.808-.14 2.003-10.132.79-6.123-1.326"/><path class="g" d="M45.744 71.311s-.677 13.856 1.326 23.733a25.28 25.28 0 0 1-9.848 3.188l11.203-.395 1.326-.79-1.608-21.842-.424-4.684"/><path class="j" d="m53.815 82.514 5.192-1.467 9.849-.536 1.467-4.544-2.653-7.873-3.075-.395-4.262 1.326-4.063 2.004-2.173-.395-1.693.677"/><path class="g" d="M53.73 79.833s3.471-1.608 4.007-1.467l-1.467-7.337 1.721-.677s1.214 6.942 1.214 7.732c0 0 7.45.395 8.127.395a12.132 12.132 0 0 0 1.213-6.265l1.468 4.261.14 2.399-2.144 3.189-2.399.536-4.007-.141-1.326-1.722-4.656.678-1.468.536"/><path class="j" d="m48.481 70.38-2.935-7.45-3.076-4.402s.678-1.863 1.609-1.863h3.076l2.935 1.072-.254 4.939-1.355 7.704"/><path class="g" d="M49.074 67.84s-3.725-7.196-3.725-8.268c0 0 .677-1.609 1.608-1.214s2.935 1.468 2.935 1.468v-2.54l-4.543-.931-3.076.395 5.192 12.303 1.073.142"/><path class="j" d="m32.763 50.26-3.697-.396-3.47-1.072v1.213l1.692 1.863 5.334 2.398"/><path class="g" d="M26.809 50.654s4.12 1.722 5.474 1.327l.141 1.608-3.725-.79-2.257-1.608.367-.537"/><path class="a" d="M53.815 57.117a24.631 24.631 0 0 1-6.096-.847 13.947 13.947 0 0 1 .085-1.975 4.66 4.66 0 0 1 2.088-.452 3.61 3.61 0 0 0-2.314-.254 3.835 3.835 0 0 0-.395-1.213c1.27-.452 4.261-3.415 5.954-2.455.819.48 1.157 3.132 1.214 4.458a4.666 4.666 0 0 1-.536 2.738"/><path class="k" d="M53.815 57.117a24.631 24.631 0 0 1-6.096-.847 13.947 13.947 0 0 1 .085-1.975 4.66 4.66 0 0 1 2.088-.452 3.61 3.61 0 0 0-2.314-.254 3.835 3.835 0 0 0-.395-1.213c1.27-.452 4.261-3.415 5.954-2.455.819.48 1.157 3.132 1.214 4.458a4.666 4.666 0 0 1-.536 2.738Z"/><path class="a" d="M43.007 53.42a3.067 3.067 0 0 1-.029.508c-.705.451-1.834.451-2.624.847a7.4 7.4 0 0 1 2.822.705c-.028.423-.028.875-.056 1.298-1.299.875-2.484 2.201-4.008 3.048-.733.395-3.245 1.41-4.007 1.213-.423-.113-.48-.649-.649-1.157a16.754 16.754 0 0 1-1.298-4.458c-.085-2.06-.31-5.531 1.919-5.108a19.454 19.454 0 0 1 5.277 1.919 5.358 5.358 0 0 0 2.653 1.185"/><path class="k" d="M43.007 53.42a3.067 3.067 0 0 1-.029.508c-.705.451-1.834.451-2.624.847a7.4 7.4 0 0 1 2.822.705c-.028.423-.028.875-.056 1.298-1.299.875-2.484 2.201-4.008 3.048-.733.395-3.245 1.41-4.007 1.213-.423-.113-.48-.649-.649-1.157a16.754 16.754 0 0 1-1.298-4.458c-.085-2.06-.31-5.531 1.919-5.108a19.454 19.454 0 0 1 5.277 1.919 5.358 5.358 0 0 0 2.653 1.185Z"/><path class="a" d="M44.276 55.875a7.724 7.724 0 0 1-.338-2.427c3.02-2.003 3.556 3.443.338 2.427"/><path class="k" d="M44.276 55.875a7.724 7.724 0 0 1-.338-2.427c3.02-2.003 3.556 3.443.338 2.427Z"/><path class="b" d="M48.622 56.778s-.931-1.326-.254-1.721 1.327 0 1.722-.678 0-1.072.14-1.862.79-.931 1.468-1.072 2.54-.396 2.794.254l-.79-2.4-1.609-.535-5.051 2.935-.254 1.467v2.935M34.625 61.18c-.169-2.088-.338-4.148-.508-6.236-.282-3.104.734-2.568 3.443-2.568a6.951 6.951 0 0 1 2.681.79c.734 1.496-1.213 1.157.847 2.286 1.721.93 4.797-.565 4.092-2.681-.396-.48-2.032-.141-2.625-.452l-3.132-1.608c-1.327-.677-4.374-1.693-5.785-.734-3.584 2.427.225 8.522 1.495 11.062"/><path class="c" d="M38.153 13.97c-3.64-.847-5.446 1.523-6.547 3.978-.988-.226-.593-1.58-.339-2.258.65-1.777 3.274-4.176 5.418-3.837.903.113 2.145.96 1.468 2.116M55.846 18.09h.17a38.199 38.199 0 0 0 2.568 5.022c-.706 1.637-5.25 3.048-5.193.17.988-.424 2.681-.085 3.556-.65a9.9 9.9 0 0 1-1.1-4.543M39.987 18.146c.79 1.439 1.044 2.934 2.145 4.007.508.48 1.467 1.072.987 2.427a3.106 3.106 0 0 1-1.41 1.157c-1.722.508-5.757.113-4.403-2.06 1.44.056 3.358.93 4.43-.113-.818-1.298-2.285-3.895-1.749-5.418M55.197 32.65c-2.596 1.665-5.502 3.5-9.792 3.076a2.888 2.888 0 0 1-.367-3.725c.452.79.17 2.258 1.468 2.484 2.427.423 5.249-1.496 6.998-2.145 1.073-1.834-.084-2.483-1.072-3.669-2.004-2.398-4.656-5.39-4.572-8.973.819-.593.875.903.988 1.157 1.044 2.426 3.669 5.559 5.56 7.647.479.508 1.24 1.016 1.326 1.355.254.96-.65 2.144-.537 2.793M20.826 30.9c-.818-.479-1.016-2.51-1.975-2.567-1.383-.085-1.129 2.652-1.129 4.261-.931-.847-1.1-3.5-.423-4.854-.79-.395-1.13.423-1.58.706.592-4.092 6.01-1.891 5.107 2.455M56.834 34.372c-1.213 2.314-2.935 4.854-6.49 4.938a8.077 8.077 0 0 1 0-2.342c2.737-.282 4.43-1.665 6.49-2.596M39.79 35.867c2.257 1.186 6.434 1.327 9.538 1.242a10.283 10.283 0 0 1 .17 2.342c-3.98.17-8.664-.818-9.708-3.584M39.366 38.069c1.58 3.95 6.97 3.499 11.514 3.386a2.285 2.285 0 0 1-1.185 1.326c-1.468.593-5.475 1.044-7.507-.028-1.27-.677-2.116-2.23-2.822-3.132-.31-.424-2.003-1.524 0-1.552"/><path class="l" d="M55 59.826a78.913 78.913 0 0 1-5.785 9.171c.903-2.68 1.298-7.196 1.44-10.639A3.344 3.344 0 0 1 55 59.826"/><path class="c" d="M64.905 71.17c-2.06.423-3.5 2.427-5.531 2.286 1.129-1.552 3.048-2.23 5.53-2.286M65.808 74.387a31.083 31.083 0 0 1-5.362.31c.819-1.241 3.923-.79 5.362-.31M66.4 77.18c-1.89.029-4.232 0-6.038-.14 1.072-1.157 4.825-.424 6.039.14"/><path class="g" d="M51.444 84.8c.282 2.37 1.214 4.77 1.1 7.365a7.98 7.98 0 0 1-3.047.65c-.085-2.202-.395-5.588-.31-7.705.677.057 1.693-.48 2.257-.31"/><path class="d" d="M48.397 49.808c-.96.62-1.75 1.383-2.681 2.06a5.789 5.789 0 0 1-4.6-1.298c.028-.085.17-.057.17-.17 2.172.96 4.938-.395 7.11-.592"/><path class="l" d="M37.052 64.567c.593-2.568 2.935-3.923 5.052-5.334 2.172 2.766 3.499 6.321 4.966 9.764a50.016 50.016 0 0 1-10.018-4.43"/><path class="c" d="M49.187 85.139c-.085 2.116.197 5.474.31 7.704a7.979 7.979 0 0 0 3.048-.65c.113-2.596-.819-4.994-1.1-7.365-.565-.197-1.581.339-2.258.31ZM27.4 73.174a110.613 110.613 0 0 0 4.713 23.14 30.521 30.521 0 0 0 16.819.31c-.875-4.233-.508-9.397-1.016-13.94-.395-3.415-.198-6.83-.734-10.3-5.841-1.214-14.081-.283-19.782.79Zm21.165-.734c-.057 3.64.17 7.252.451 10.893a34.82 34.82 0 0 0 3.64-.65c-.423-3.499-.366-7.478-1.241-10.582a8.965 8.965 0 0 0-2.85.339Zm7.083-.593a10.047 10.047 0 0 0-2.06 0c.31 2.963 1.016 6.237 1.27 9.37.987.027 1.524-.452 2.342-.594.056-2.737-.226-6.518-1.552-8.776Zm10.752 9.82c2.088-.507 3.386-3.047 2.793-5.672-.395-1.75-1.072-5.079-1.834-6.208-.536-.818-2.032-1.919-3.245-1.157-1.947 1.242-5.362 1.609-6.773 3.104a49.427 49.427 0 0 1 1.214 8.58c2.426.14 5.39-.678 7.421.197-1.41.451-3.217.451-4.43 1.128a9.35 9.35 0 0 0 4.854.029Zm-19.359-12.67c-1.467-3.443-2.794-6.998-4.967-9.764-2.116 1.411-4.43 2.766-5.05 5.334a51.475 51.475 0 0 0 10.017 4.43Zm3.612-10.639c-.141 3.443-.536 7.958-1.44 10.64A81.373 81.373 0 0 0 55 59.825a3.344 3.344 0 0 0-4.346-1.468Zm-4.092-1.439c-.818-.085-1.524.96-2.596.508-.254.282-.48.565-.734.847 2.37 2.878 3.471 6.942 5.306 10.3.987-3.245.874-6.773 1.1-10.3-1.354.056-2.116-1.27-3.076-1.355Zm-2.624-3.47a7.724 7.724 0 0 0 .338 2.426c3.217 1.016 2.681-4.43-.338-2.427Zm-3.584-1.186a19.454 19.454 0 0 0-5.277-1.919c-2.23-.423-2.004 3.048-1.919 5.108a17.076 17.076 0 0 0 1.298 4.458c.17.508.226 1.045.65 1.157.761.17 3.3-.818 4.006-1.213a41.43 41.43 0 0 0 4.008-3.048c.028-.423.028-.875.056-1.298a6.8 6.8 0 0 0-2.822-.705c.762-.395 1.919-.395 2.624-.847a3.068 3.068 0 0 1 .029-.508 5.906 5.906 0 0 1-2.653-1.185Zm-13.263-2.399c-1.157 1.185 3.245 2.766 4.628 2.85 0-.733.423-1.439.338-1.975-1.665-.282-3.837-.085-4.966-.875Zm14.222.536c0 .113-.14.085-.169.17a5.85 5.85 0 0 0 4.6 1.298c.903-.65 1.721-1.44 2.68-2.06-2.2.197-4.966 1.552-7.11.592Zm13.038 3.951c-.057-1.298-.395-3.979-1.214-4.459-1.693-.987-4.684 2.004-5.954 2.456a3.835 3.835 0 0 1 .395 1.213 3.588 3.588 0 0 1 2.314.254 4.66 4.66 0 0 0-2.088.452c-.17.536.056 1.241-.085 1.975a26.039 26.039 0 0 0 6.096.846 4.568 4.568 0 0 0 .536-2.737Zm-29.207-3.358c-.367-.254-2.822-3.443-3.16-3.302-4.431 1.75-8.58 4.77-12.276 7.648 3.527 7.59 4.966 16.875 5.22 25.82 4.036 1.891 7.591 4.629 13.094 4.91-.649-4.486-1.213-8.521-1.58-12.754-1.383-.593-3.358.028-4.656-.17 0-1.552 1.975-.677 2.144-1.721.113-.79-1.1-.847-.705-2.088 1.016.367 1.552 1.185 2.624 1.495.988-2.144 0-5.954.141-7.76.028-.339.17-1.863.931-1.609.678.226-.028 4.092.029 5.785.056 1.58-.198 3.076.451 4.064a151.567 151.567 0 0 1 16.452-1.354 36.73 36.73 0 0 1-4.402-1.976c-.903-.508-3.697-1.552-3.95-2.399-.424-1.354 1.072-2.06 1.326-3.217-2.681 1.468-3.19-1.41-3.838-3.414a28.17 28.17 0 0 1-1.044-4.261 53.514 53.514 0 0 1-6.801-3.697Zm26.865-2.935c3.696-1.778 4.374 6.688 2.906 9.426.226.818.988 1.128 1.298 1.862-2.06 3.697-4.345 7.14-6.462 10.78 1.552-.988 3.81-.17 5.644-.903.677-.254 1.157-1.806 1.665-3.048a65.042 65.042 0 0 0 3.527-10.893 12.825 12.825 0 0 0 .452-2.99c-.17-1.186-1.75-2.06-2.568-2.766-1.496-1.355-2.427-2.512-4.007-3.782-.593.931-1.947 1.552-2.455 2.314ZM16.706 15.295c-1.75 1.948-1.383 5.56-1.185 8.156 3.189-2.004 7.393.17 7.365 3.555 1.524-.028.565-1.89.282-3.104-.903-3.922 1.524-8.155.113-11.739a9.595 9.595 0 0 0-6.575 3.132Zm12.586-11.26c-3.979 1.13-9.087 4.036-10.723 7.62 1.27-.197 2.144-.818 3.386-.903a7.807 7.807 0 0 0 1.637.057c1.072-.283 2.003-2.71 2.822-3.613.79-.874 1.75-1.27 2.398-2.06.424-.197 1.044-.197 1.073-.818a.612.612 0 0 0-.593-.282Zm20.741 1.073c-4.148-2.342-11.146-4.092-15.549-1.89-3.555 1.777-8.353 4.712-9.99 8.409 1.525 3.584-.45 6.857-.592 10.498-.056 1.947.903 3.612.988 5.728-.536.875-2.117.96-3.217.903-.367-1.862-1.016-3.95-2.935-4.176a4.442 4.442 0 0 0-4.81 4.039q-.012.125-.016.25c-.14 2.765 2.117 7.337 5.334 7.027 1.242-.113 1.552-1.355 2.906-1.355.734 1.468-1.128 1.919-1.326 2.963a7.091 7.091 0 0 0 .282 1.834 25.486 25.486 0 0 0 3.16 7.366c1.638 2.342 4.826 2.68 8.27 2.906.62-1.326 2.878-1.213 4.345-.875a14.523 14.523 0 0 1-4.77-3.894c-1.551-1.721-3.131-3.555-3.216-5.813 2.963 4.092 5.39 7.676 10.752 9.482 4.063 1.354 8.804-.621 11.936-2.822 1.298-.903 2.06-2.37 2.992-3.669 3.442-4.966 5.05-12.021 4.712-18.879-.14-2.822-.14-5.644-1.1-7.534-.988-1.976-4.346-3.782-6.321-1.976-.367-1.947 1.636-3.132 3.979-2.426-1.665-2.173-3.415-4.741-5.814-6.096Zm7.732 63.804c3.246-1.608 9.285-4.317 11.288 0a33.595 33.595 0 0 1 2.004 5.955c.536 2.314-.593 7.224-2.992 7.986a14.33 14.33 0 0 1-7.11.14 4.12 4.12 0 0 1-.876-1.128 9.732 9.732 0 0 0-4.938.847c.141 1.354-.762 1.552-1.637 1.834-.62 2.512 1.27 5.785.819 8.043-.31 1.636-2.314 1.89-3.782 2.172a11.054 11.054 0 0 0 .17 2.427c-.34 1.242-1.835 1.947-3.274 2.117-4.713.564-11.852.818-16.367-.819-1.27-3.104-2.258-6.857-3.302-10.384-4.402.48-7.986-1.891-11.344-3.471-1.157-.537-2.766-.847-3.217-1.778-.423-.903-.254-2.625-.367-4.233a65.042 65.042 0 0 0-1.58-12.388c-.48-1.92-1.355-3.584-1.947-5.419a37.787 37.787 0 0 1-1.778-5.502c-.367-2.512 2.003-2.653 3.499-3.754 2.342-1.693 4.176-2.624 6.716-4.148.762-.451 3.02-1.58 3.274-2.116.508-1.044-.875-2.512-1.242-3.33a10.039 10.039 0 0 1-.988-3.669 7.107 7.107 0 0 1-4.712-3.02c-1.609-2.37-2.738-6.744-1.327-10.045.113-.254.65-.79.734-1.186.17-.79-.31-1.834-.339-2.68-.14-4.318.734-8.043 3.64-9.341 1.186-4.713 5.419-6.265 9.398-8.607a29.548 29.548 0 0 1 4.825-2.06c6.068-2.23 15.408-1.806 20.46 2.004 2.144 1.608 5.559 5.023 6.772 7.506 3.245 6.519 2.991 17.44.734 25.397a26.083 26.083 0 0 1-1.355 3.923c-.423.903-1.75 2.68-1.608 3.471.17.818 3.047 2.991 3.668 3.584 1.1 1.072 3.217 2.483 3.387 3.838.197 1.439-.621 3.414-1.044 4.797-1.355 4.628-2.71 8.89-4.262 13.037Z"/><path class="h" d="M36.178 36.855c.169-.226 1.128-.593 2.483.057 0 0-1.609.254-1.468 2.934l-.677-.14c.028.027-.677-2.4-.338-2.85"/><path class="m" d="M47.86 59.77a.729.729 0 1 1 0-.011v.01M48.594 63.184a.734.734 0 1 1-.734-.734.712.712 0 0 1 .734.69v.044"/></svg>