<svg xmlns="http://www.w3.org/2000/svg" viewBox="0 0 24 24"><defs><style>.a{fill:#f16a21}</style></defs><path class="a" d="M13.423 5.795h5.168a3.314 3.314 0 0 1 3.366 2.8 3.04 3.04 0 0 1 .042.575v5.643a3.326 3.326 0 0 1-3.273 3.378h-5.3c.088-.359.17-.696.255-1.034a5.899 5.899 0 0 0 .158-.626c.028-.21.137-.274.322-.304q2.059-.438 4.108-.888a.952.952 0 0 0 .867-1.029l-.004-.038V9.684a.946.946 0 0 0-.833-1.006l-4.217-.912a.304.304 0 0 1-.194-.146c-.161-.611-.307-1.201-.465-1.825ZM10.559 5.808c-.15.608-.304 1.176-.441 1.76-.03.137-.119.155-.231.18l-4.217.93a.967.967 0 0 0-.827.99v4.692a.955.955 0 0 0 .839.98l4.196.911a.283.283 0 0 1 .255.237c.137.569.283 1.134.429 1.721H5.345A3.314 3.314 0 0 1 2 14.926V9.125a3.296 3.296 0 0 1 3.232-3.323c1.736-.025 3.469 0 5.202 0Z"/><path class="a" d="M13.894 11.779v.435h-3.788v-.435Z"/></svg>