<svg xmlns="http://www.w3.org/2000/svg" viewBox="0 0 136 136"><defs><style>.a{fill:#ffc348;}.b{fill:#8ddcff;}.c{fill:#fff;}.d{fill:#f58535;}</style></defs><title>anomaly-detection-to-avoid-budget-overruns</title><path class="a" d="M7.27272,85.28361a5.12078,5.12078,0,0,1,1.50758,1.504l3.96549-4.17075a5.10915,5.10915,0,0,1-1.42726-1.58839Z"/><path class="a" d="M110.97777,47.25393l4.46894,3.71751a5.12673,5.12673,0,0,1,1.23315-1.74271l-4.65365-3.87142A5.10572,5.10572,0,0,1,110.97777,47.25393Z"/><path class="a" d="M17.49479,83.28535l4.31144,8.15779A5.08967,5.08967,0,0,1,23.525,90.14077l-4.22584-7.9963A5.071,5.071,0,0,1,17.49479,83.28535Z"/><path class="a" d="M103.07644,46.97213,80.633,84.17491,52.57754,72.58485a1.06922,1.06922,0,0,0-1.09746.175L29.56333,91.49458a5.0521,5.0521,0,0,1,1.00683,1.93911L52.36761,74.80094,80.66624,86.49113a1.06627,1.06627,0,0,0,1.31765-.43382l22.72627-37.67209A5.12628,5.12628,0,0,1,103.07644,46.97213Z"/><path class="a" d="M134.03594,35.85811l-7.00377,3.25557a1.02892,1.02892,0,0,0-.20664,1.73871l1.77979,1.41512-5.62454,6.48882a5.11008,5.11008,0,0,1,1.47788,1.54481l5.81428-6.70769,1.96264,1.56025a1.02889,1.02889,0,0,0,1.64711-.59311l1.59415-7.55682A1.02924,1.02924,0,0,0,134.03594,35.85811Z"/><path class="b" d="M106.659,66.63285a39.03045,39.03045,0,0,1-31.59017,42.757,38.05965,38.05965,0,0,1-30.02164-6.71272A37.5979,37.5979,0,0,1,29.15167,76.3802a38.947,38.947,0,0,1,33.1255-44.016,37.82086,37.82086,0,0,1,29.44429,7.79A38.20884,38.20884,0,0,1,106.659,66.63285ZM71.40929,104.27158a33.45456,33.45456,0,0,0,29.71161-36.7833A32.388,32.388,0,0,0,89.095,45.19437,32.32549,32.32549,0,0,0,64.2066,37.75481,32.29694,32.29694,0,0,0,41.72183,50.13055,32.7,32.7,0,0,0,35.05007,77.5783,33.43363,33.43363,0,0,0,71.40929,104.27158Z"/><path class="b" d="M101.908,98.22551l.05842-.07306a4.6649,4.6649,0,0,1,6.542-.74378c5.8503,4.6378,17.3396,13.75956,23.85261,18.93591a5.082,5.082,0,0,1,2.2387,3.59688,4.68077,4.68077,0,0,1-2.28281,4.5237,4.38477,4.38477,0,0,1-4.77869.07926,5.78527,5.78527,0,0,1-.82538-.56821c-6.49809-5.17038-18.166-14.47392-24.0768-19.19272A4.66163,4.66163,0,0,1,101.908,98.22551Z"/><path class="c" d="M103.65138,99.64839l-.03243.0384a2.46839,2.46839,0,0,1-3.42907.33344L97.46,97.82987a2.46684,2.46684,0,0,1-.35851-3.49659l.06872-.083a2.46438,2.46438,0,0,1,3.47191-.32848l2.69426,2.234A2.4698,2.4698,0,0,1,103.65138,99.64839Z"/><path class="c" d="M71.53678,105.466A34.63413,34.63413,0,0,1,33.872,77.81425a33.87417,33.87417,0,0,1,6.91132-28.43332A33.45656,33.45656,0,0,1,64.07546,36.56081a33.48623,33.48623,0,0,1,25.782,7.70669,33.55094,33.55094,0,0,1,12.45775,23.09442A34.65582,34.65582,0,0,1,71.53678,105.466Z"/><path class="d" d="M65.72785,47.73482,45.90327,82.072a2.58793,2.58793,0,0,0,2.24121,3.88189H87.79364A2.58792,2.58792,0,0,0,90.03485,82.072L70.21028,47.73482A2.58793,2.58793,0,0,0,65.72785,47.73482Z"/><path class="c" d="M63.69952,74.9398a3.78782,3.78782,0,0,1,1.19763-2.80255,3.9059,3.9059,0,0,1,2.82645-1.17372,3.85371,3.85371,0,0,1,1.97609.539,4.0107,4.0107,0,0,1,1.46112,1.4613,3.85162,3.85162,0,0,1,.53887,1.97592A3.90451,3.90451,0,0,1,70.526,77.76642a3.788,3.788,0,0,1-2.80236,1.19745,4.04869,4.04869,0,0,1-4.02408-4.02407Zm7.90436-26.34774V64.4245a4.27713,4.27713,0,0,1-.94616,2.85036,3.26742,3.26742,0,0,1-2.64671,1.1259,3.23225,3.23225,0,0,1-2.61077-1.13759,4.25438,4.25438,0,0,1-.9582-2.83867V48.59206a4.28983,4.28983,0,0,1,.94616-2.83867,3.22642,3.22642,0,0,1,2.62281-1.1376,3.26261,3.26261,0,0,1,2.63484,1.1376A4.25829,4.25829,0,0,1,71.60388,48.59206Z"/><path class="a" d="M21.6695,95.20809a4.01566,4.01566,0,1,1,4.44125,3.539A4.01292,4.01292,0,0,1,21.6695,95.20809Z"/><path class="a" d="M.52579,90.01022a4.01566,4.01566,0,1,1,4.44126,3.539A4.01293,4.01293,0,0,1,.52579,90.01022Z"/><path class="a" d="M11.75259,78.96185a4.01566,4.01566,0,1,1,4.44126,3.539A4.01292,4.01292,0,0,1,11.75259,78.96185Z"/><path class="a" d="M103.152,44.36892a4.01565,4.01565,0,1,1,4.44125,3.539A4.01292,4.01292,0,0,1,103.152,44.36892Z"/><path class="a" d="M116.1363,53.4154a4.01566,4.01566,0,1,1,4.44125,3.539A4.01292,4.01292,0,0,1,116.1363,53.4154Z"/><path class="a" d="M7.27272,85.28361a5.12078,5.12078,0,0,1,1.50758,1.504l3.96549-4.17075a5.10915,5.10915,0,0,1-1.42726-1.58839Z"/><path class="a" d="M110.97777,47.25393l4.46894,3.71751a5.12673,5.12673,0,0,1,1.23315-1.74271l-4.65365-3.87142A5.10572,5.10572,0,0,1,110.97777,47.25393Z"/><path class="a" d="M17.49479,83.28535l4.31144,8.15779A5.08967,5.08967,0,0,1,23.525,90.14077l-4.22584-7.9963A5.071,5.071,0,0,1,17.49479,83.28535Z"/><path class="a" d="M103.07644,46.97213,80.633,84.17491,52.57754,72.58485a1.06922,1.06922,0,0,0-1.09746.175L29.56333,91.49458a5.0521,5.0521,0,0,1,1.00683,1.93911L52.36761,74.80094,80.66624,86.49113a1.06627,1.06627,0,0,0,1.31765-.43382l22.72627-37.67209A5.12628,5.12628,0,0,1,103.07644,46.97213Z"/><path class="a" d="M134.03594,35.85811l-7.00377,3.25557a1.02892,1.02892,0,0,0-.20664,1.73871l1.77979,1.41512-5.62454,6.48882a5.11008,5.11008,0,0,1,1.47788,1.54481l5.81428-6.70769,1.96264,1.56025a1.02889,1.02889,0,0,0,1.64711-.59311l1.59415-7.55682A1.02924,1.02924,0,0,0,134.03594,35.85811Z"/><path class="b" d="M106.659,66.63285a39.03045,39.03045,0,0,1-31.59017,42.757,38.05965,38.05965,0,0,1-30.02164-6.71272A37.5979,37.5979,0,0,1,29.15167,76.3802a38.947,38.947,0,0,1,33.1255-44.016,37.82086,37.82086,0,0,1,29.44429,7.79A38.20884,38.20884,0,0,1,106.659,66.63285ZM71.40929,104.27158a33.45456,33.45456,0,0,0,29.71161-36.7833A32.388,32.388,0,0,0,89.095,45.19437,32.32549,32.32549,0,0,0,64.2066,37.75481,32.29694,32.29694,0,0,0,41.72183,50.13055,32.7,32.7,0,0,0,35.05007,77.5783,33.43363,33.43363,0,0,0,71.40929,104.27158Z"/><path class="b" d="M101.908,98.22551l.05842-.07306a4.6649,4.6649,0,0,1,6.542-.74378c5.8503,4.6378,17.3396,13.75956,23.85261,18.93591a5.082,5.082,0,0,1,2.2387,3.59688,4.68077,4.68077,0,0,1-2.28281,4.5237,4.38477,4.38477,0,0,1-4.77869.07926,5.78527,5.78527,0,0,1-.82538-.56821c-6.49809-5.17038-18.166-14.47392-24.0768-19.19272A4.66163,4.66163,0,0,1,101.908,98.22551Z"/><path class="c" d="M103.65138,99.64839l-.03243.0384a2.46839,2.46839,0,0,1-3.42907.33344L97.46,97.82987a2.46684,2.46684,0,0,1-.35851-3.49659l.06872-.083a2.46438,2.46438,0,0,1,3.47191-.32848l2.69426,2.234A2.4698,2.4698,0,0,1,103.65138,99.64839Z"/><path class="c" d="M71.53678,105.466A34.63413,34.63413,0,0,1,33.872,77.81425a33.87417,33.87417,0,0,1,6.91132-28.43332A33.45656,33.45656,0,0,1,64.07546,36.56081a33.48623,33.48623,0,0,1,25.782,7.70669,33.55094,33.55094,0,0,1,12.45775,23.09442A34.65582,34.65582,0,0,1,71.53678,105.466Z"/><path class="d" d="M65.72785,47.73482,45.90327,82.072a2.58793,2.58793,0,0,0,2.24121,3.88189H87.79364A2.58792,2.58792,0,0,0,90.03485,82.072L70.21028,47.73482A2.58793,2.58793,0,0,0,65.72785,47.73482Z"/><path class="c" d="M63.69952,74.9398a3.78782,3.78782,0,0,1,1.19763-2.80255,3.9059,3.9059,0,0,1,2.82645-1.17372,3.85371,3.85371,0,0,1,1.97609.539,4.0107,4.0107,0,0,1,1.46112,1.4613,3.85162,3.85162,0,0,1,.53887,1.97592A3.90451,3.90451,0,0,1,70.526,77.76642a3.788,3.788,0,0,1-2.80236,1.19745,4.04869,4.04869,0,0,1-4.02408-4.02407Zm7.90436-26.34774V64.4245a4.27713,4.27713,0,0,1-.94616,2.85036,3.26742,3.26742,0,0,1-2.64671,1.1259,3.23225,3.23225,0,0,1-2.61077-1.13759,4.25438,4.25438,0,0,1-.9582-2.83867V48.59206a4.28983,4.28983,0,0,1,.94616-2.83867,3.22642,3.22642,0,0,1,2.62281-1.1376,3.26261,3.26261,0,0,1,2.63484,1.1376A4.25829,4.25829,0,0,1,71.60388,48.59206Z"/><path class="a" d="M21.6695,95.20809a4.01566,4.01566,0,1,1,4.44125,3.539A4.01292,4.01292,0,0,1,21.6695,95.20809Z"/><path class="a" d="M.52579,90.01022a4.01566,4.01566,0,1,1,4.44126,3.539A4.01293,4.01293,0,0,1,.52579,90.01022Z"/><path class="a" d="M11.75259,78.96185a4.01566,4.01566,0,1,1,4.44126,3.539A4.01292,4.01292,0,0,1,11.75259,78.96185Z"/><path class="a" d="M103.152,44.36892a4.01565,4.01565,0,1,1,4.44125,3.539A4.01292,4.01292,0,0,1,103.152,44.36892Z"/><path class="a" d="M116.1363,53.4154a4.01566,4.01566,0,1,1,4.44125,3.539A4.01292,4.01292,0,0,1,116.1363,53.4154Z"/></svg>