<svg xmlns="http://www.w3.org/2000/svg" viewBox="0 0 136 136"><defs><style>.a{fill:#8ddcff;}.b{fill:#fff;}.c{fill:#f58535;}.d{fill:#326de3;}</style></defs><title>cloud-resource-usage-cost-transparency</title><path class="a" d="M87.16138,59.90173,83.17585,58.533a18.36474,18.36474,0,0,0-2.28613-5.49439l1.842-3.79315c.20434-.42059-.23383-.44122-3.64795-3.96844-.31806-.31787-.44385.05255-4.18518,1.78552a18.36478,18.36478,0,0,0-5.50019-2.2724L68.01972,40.808c-.1532-.44238-.47754-.14672-5.3858-.22674-.44916.00043-.27558.34851-1.6958,4.21942a18.36286,18.36286,0,0,0-5.49451,2.28619l-3.793-1.842a.34648.34648,0,0,0-.39667.067l-3.572,3.58093a.3466.3466,0,0,0-.066.39685L49.46754,53.078a18.36692,18.36692,0,0,0-2.2724,5.50013c-3.7779,1.397-4.21613,1.24658-4.21509,1.70666.09417,5.00616-.19055,5.23694.24029,5.38507l3.98542,1.36871A18.37071,18.37071,0,0,0,49.492,72.533c-1.68372,3.65912-2.10181,3.86371-1.77509,4.1897l3.581,3.572c.32007.31927.46289-.06153,4.18518-1.78559a18.3664,18.3664,0,0,0,5.50018,2.2724l1.37872,3.98206c.15284.44195.47742.14673,5.38569.22674.45166-.00067.28283-.36792,1.696-4.21942a18.37129,18.37129,0,0,0,5.49445-2.28613l3.79309,1.8421c.4215.20416.44122-.234,3.96856-3.648a.34655.34655,0,0,0,.066-.39679l-1.85162-3.78839a18.36679,18.36679,0,0,0,2.27234-5.50018c3.77789-1.397,4.21564-1.24652,4.21521-1.70654C87.30738,60.27875,87.59192,60.04944,87.16138,59.90173ZM65.1908,76.9469A14.16123,14.16123,0,1,1,79.352,62.78564,14.16126,14.16126,0,0,1,65.1908,76.9469Z"/><polygon class="a" points="118.032 78.513 118.392 134.429 3.612 134.429 3.612 99.406 32.526 119.371 65.193 97.032 93.831 97.739 118.032 78.513"/><path class="b" d="M3.6445,62.47467a3.14156,3.14156,0,1,1,3.11467,3.16822A3.13537,3.13537,0,0,1,3.6445,62.47467Z"/><path class="b" d="M29.38482,118.073a3.14148,3.14148,0,1,1,3.14136,3.14136A3.13932,3.13932,0,0,1,29.38482,118.073Z"/><path class="b" d="M29.31974,128.667a3.14146,3.14146,0,1,1,3.14136,3.14136A3.13932,3.13932,0,0,1,29.31974,128.667Z"/><path class="b" d="M62.04934,128.667a3.14145,3.14145,0,1,1,3.14133,3.14136A3.13929,3.13929,0,0,1,62.04934,128.667Z"/><path class="b" d="M90.6956,128.667a3.14136,3.14136,0,1,1,3.14136,3.14136A3.13932,3.13932,0,0,1,90.6956,128.667Z"/><path class="b" d="M113.08758,128.667a3.14146,3.14146,0,1,1,3.14137,3.14136A3.13932,3.13932,0,0,1,113.08758,128.667Z"/><path class="b" d="M62.04934,97.02476a3.14145,3.14145,0,1,1,3.14133,3.13764A3.143,3.143,0,0,1,62.04934,97.02476Z"/><path class="b" d="M90.69364,97.733a3.14332,3.14332,0,1,1,3.14332,3.14156A3.14262,3.14262,0,0,1,90.69364,97.733Z"/><polygon class="b" points="93.425 96.858 64.932 96.152 32.528 118.33 4.096 98.698 3.112 100.12 32.522 120.426 65.447 97.894 94.247 98.608 118.105 79.828 118.105 77.041 93.425 96.858"/><path class="b" d="M58.27026,62.78479A6.92041,6.92041,0,1,1,65.19067,69.707,6.92175,6.92175,0,0,1,58.27026,62.78479Z"/><path class="b" d="M116.719,129.30444h-.98015v-2.548h.98015Zm0-5.096h-.98015v-2.54994h.98015Zm0-5.09792h-.98015v-2.548h.98015Zm0-5.096h-.98015v-2.548h.98015Zm0-5.09793h-.98015v-2.548h.98015Zm0-5.096h-.98015v-2.548h.98015Zm0-5.096h-.98015V96.17478h.98015Zm0-5.09792h-.98015v-2.548h.98015Zm0-5.096h-.98015v-2.548h.98015Zm0-5.09793h-.98015v-2.548h.98015Zm0-5.096h-.98015V75.789h.98015Zm0-5.096h-.98015V70.691h.98015Zm0-5.09793h-.98015v-2.548h.98015Zm0-5.096h-.98015v-2.548h.98015Zm0-5.09793h-.98015v-2.548h.98015Zm0-5.096h-.98015v-2.548h.98015Z"/><path class="b" d="M10.74821,42.61475,7.67365,36.33214A.91824.91824,0,0,0,6.031,36.31789L2.84855,42.54748a.91852.91852,0,0,0,.8101,1.33627l2.11262.018V133.449a.98016.98016,0,1,0,1.96031,0V43.91832l2.1841.01857A.91828.91828,0,0,0,10.74821,42.61475Z"/><path class="b" d="M134.97827,127.62532l-6.25936-3.04863a.92814.92814,0,0,0-1.33429.84409l.02336,2.14147c-.00981-.00024-.01822-.00561-.028-.00561H1.48016a.98016.98016,0,1,0,0,1.96032H127.38c.01728,0,.03177-.009.04905-.00982l.0229,2.14392a.92771.92771,0,0,0,1.35157.81513l6.19256-3.18166A.92752.92752,0,0,0,134.97827,127.62532Z"/><path class="b" d="M86.91655,82.02208A6.92041,6.92041,0,1,1,93.837,88.94426,6.91826,6.91826,0,0,1,86.91655,82.02208Z"/><path class="b" d="M25.604,93.242a6.92227,6.92227,0,1,1,6.92217,6.92041A6.9235,6.9235,0,0,1,25.604,93.242Z"/><path class="c" d="M32.52611,94.05515a.8126.8126,0,0,1-.43355-.1252L6.36179,77.72978a.81374.81374,0,1,1,.8671-1.37726L32.43174,92.22l32.206-29.82332a.81279.81279,0,0,1,1.01006-.07569L93.622,81.33273l21.44386-31.48558a.81377.81377,0,1,1,1.3455.91569L94.50963,82.92023a.81107.81107,0,0,1-1.12966.2149L65.26842,64.03094,33.07926,93.83838A.81505.81505,0,0,1,32.52611,94.05515Z"/><path class="b" d="M33.01626,130.03759h-.98015v-2.548h.98015Zm0-5.096h-.98015v-2.54994h.98015Zm0-5.09792h-.98015v-2.548h.98015Zm0-5.096h-.98015v-2.548h.98015Zm0-5.09793h-.98015v-2.548h.98015Zm0-5.096h-.98015v-2.548h.98015Zm0-5.096h-.98015V96.90792h.98015Z"/><rect class="b" x="93.34689" y="128.02947" width="0.98014" height="1.27497"/><path class="b" d="M94.327,125.46051h-.98014v-2.56915H94.327Zm0-5.13811h-.98014v-2.56916H94.327Zm0-5.13811h-.98014v-2.56916H94.327Zm0-5.13812h-.98014V107.477H94.327Zm0-5.13811h-.98014V102.3389H94.327Zm0-5.13811h-.98014V97.20079H94.327Zm0-5.13811h-.98014V92.06268H94.327Z"/><path class="b" d="M65.68074,129.30444H64.7006v-2.548h.98014Zm0-5.096H64.7006v-2.54994h.98014Zm0-5.09792H64.7006v-2.548h.98014Zm0-5.096H64.7006v-2.548h.98014Zm0-5.09793H64.7006v-2.548h.98014Zm0-5.096H64.7006v-2.548h.98014Zm0-5.096H64.7006V96.17478h.98014Zm0-5.09792H64.7006v-2.548h.98014Zm0-5.096H64.7006v-2.548h.98014Zm0-5.09793H64.7006v-2.548h.98014Zm0-5.096H64.7006V75.789h.98014Zm0-5.096H64.7006V70.691h.98014Zm0-5.09793H64.7006v-2.548h.98014Z"/><rect class="b" x="6.75156" y="62.01322" width="1.27396" height="0.98014"/><path class="b" d="M61.2548,62.99337H58.59391v-.98015H61.2548Zm-5.32277,0H53.27094v-.98015H55.932Zm-5.32293,0H47.94817v-.98015H50.6091Zm-5.32281,0H42.6254v-.98015h2.66089Zm-5.32277,0H37.30266v-.98015h2.66086Zm-5.32293,0H31.97868v-.98015h2.66191Zm-5.32281,0H26.6559v-.98015h2.66188Zm-5.32277,0H21.33313v-.98015H23.995Zm-5.32294,0H16.01016v-.98015h2.66191Zm-5.3228,0H10.68739v-.98015h2.66188Z"/><path class="b" d="M50.34944,18.10934a1.15932,1.15932,0,0,1-1.11333-.98194C47.45867,10.70239,42.56228,6.37,35.96578,5.84621,29.77961,5.35488,24.92876,7.91668,21.63,13.2381a1.51026,1.51026,0,0,1-1.12993.80973A11.4455,11.4455,0,0,0,15.23277,16.316a11.94764,11.94764,0,0,0-2.37941,16.75643,11.58234,11.58234,0,0,0,9.65473,4.8895c2.50985.02206,12.82537.02111,17.28676.01684,2.81013.00356,5.62073.00522,8.43086-.02028a13.86018,13.86018,0,0,0,3.09665-.35791,9.95255,9.95255,0,0,0-.97292-19.49124Zm.44495,17.29672a11.57133,11.57133,0,0,1-2.58908.29553c-1.72668.01589-3.55061.02265-5.911.02265l-.93687-.00083a.3606.3606,0,0,0-.05171-.00332l-13.73187.00415c-1.94727,0-3.55109-.00581-5.04581-.01922a9.38546,9.38546,0,0,1-7.85688-3.96947,9.69469,9.69469,0,0,1,1.934-13.62835,9.2696,9.2696,0,0,1,4.24318-1.82938,3.72349,3.72349,0,0,0,2.70008-1.85038c2.62512-4.23571,6.30761-6.38339,10.944-6.38339.42171,0,.85765.01684,1.29406.05183,5.51258.43843,9.72683,4.03956,11.27468,9.634a3.39687,3.39687,0,0,0,2.97,2.61421,7.69531,7.69531,0,0,1,.76325,15.062Z"/><path class="d" d="M88.876,16.34122c-.07573-.16351-.12467-.28895-.19026-.405a.916.916,0,0,0-.21268-.29966c-.33167-.2418-.67761-.46414-1.01965-.6916-.22015-.1464-.45319-.2755-.66213-.43619a.71775.71775,0,0,1-.15879-.97356.69228.69228,0,0,1,.95608-.13116,5.41894,5.41894,0,0,1,.55711.50281c.3297.31.65357.62638.98789.93131a.64375.64375,0,0,0,.25863.12275c.16594.04612.33654.07551.49767.11025.46517-.37879.93023-.803,1.44022-1.16378a8.63341,8.63341,0,0,1,4.19065-1.54507c.14038-.0141.24125-.22292.25863-.25246a1.9644,1.9644,0,0,0,.13637-1.2861c-.02114-.4301-.11353-.85654-.138-1.28667a.68607.68607,0,1,1,1.36879-.0088c-.02186.43025-.09515.85765-.13356,1.2874-.023.25782-.0318.51769-.03019.77658a.18859.18859,0,0,0,.00321.03386,1.41975,1.41975,0,0,0,.08121.25652,2.62826,2.62826,0,0,0,.16106.36752.24968.24968,0,0,0,.16673.10751,9.15972,9.15972,0,0,1,5.54346,2.70723c.019.01943.04088.0361.02063.01839.21881-.05173.40272-.08849.58224-.14044a.67532.67532,0,0,0,.259-.12459c.29644-.26392.58468-.53714.87286-.8102.21225-.2011.40895-.42.632-.60793a.68647.68647,0,1,1,.8625,1.06816c-.232.17642-.48948.31892-.73234.48141-.34141.22844-.68308.45682-1.01695.696a.66558.66558,0,0,0-.17226.23007c-.08152.15156-.14984.31022-.24337.50744a9.00679,9.00679,0,0,1,1.42135,6.14073,2.25017,2.25017,0,0,0,.45113.35448,3.54563,3.54563,0,0,0,.81167.23536c.47379.07636.95651.09758,1.43009.17493a.68627.68627,0,1,1-.2896,1.33615c-.26186-.06792-.51439-.1712-.77265-.2538-.391-.12507-.78159-.2521-1.17639-.3641a.70481.70481,0,0,0-.30851.00813c-.155.029-.30644.07747-.5105.13111-.05236.13854-.12423.34057-.20447.53921a8.95137,8.95137,0,0,1-3.61516,4.32306c-.137.08623-.197.16094-.10717.31089a.15546.15546,0,0,1,.0233.11725.76876.76876,0,0,0,.13364.73053c.20286.34115.42315.67187.63061,1.01035.10905.17792.21643.35813.30712.54575a.68506.68506,0,1,1-1.23494.593c-.11575-.2521-.19169-.52224-.29072-.78231-.14609-.38368-.28953-.7687-.45058-1.14612a.84119.84119,0,0,0-.2243-.26532c-.1127-.10146-.23973-.187-.40376-.31237a9.01333,9.01333,0,0,1-6.34829-.03651c-.1835.32814-.60311.44487-.71259.85037-.09945.36835-.24564.72431-.37588,1.084-.07577.20926-.14893.4208-.24413.62141a.687.687,0,1,1-1.24038-.59084c.12386-.24833.284-.47838.42485-.71845.2148-.36621.43149-.73148.63642-1.10319a.66561.66561,0,0,0,.058-.27982c.00888-.17128.00252-.34334.00252-.51508l.05286-.01485c-.04981-.03459-.09837-.07115-.14961-.10346a8.95814,8.95814,0,0,1-3.77758-4.70223c-.05623-.15868-.1159-.239-.29135-.18273a.191.191,0,0,1-.13967-.01369.76862.76862,0,0,0-.68589-.03275c-.3765.12485-.7503.25781-1.12651.38356-.21114.07057-.42171.147-.638.197a.6919.6919,0,0,1-.85446-.5654.66273.66273,0,0,1,.53478-.82941c.4865-.08326.9815-.11578,1.47165-.17929a3.87177,3.87177,0,0,0,.57257-.11707,1.033,1.033,0,0,0,.2853-.15946c.12633-.0876.24527-.18585.41252-.31419A8.98647,8.98647,0,0,1,88.876,16.34122ZM103.25208,23.713c-.79006-.134-1.53744-.26235-2.28545-.3869-.467-.07776-.93306-.16641-1.403-.219a.58276.58276,0,0,0-.67393.55631.95861.95861,0,0,0,.08158.40315c.42929,1.05078.86634,2.09841,1.30194,3.14661.01988.04785.04825.09218.08054.153A7.241,7.241,0,0,0,103.25208,23.713Zm-7.70394-9.59439a7.20188,7.20188,0,0,0-4.17675,2.00559c.06665.05351.11235.09419.16194.12938q.82735.58713,1.65576,1.17276c.387.27394.76748.55771,1.16277.8191A.61853.61853,0,0,0,95.3553,17.802a2.86164,2.86164,0,0,0,.03432-.33227q.08067-1.3887.15709-2.77766C95.55662,14.50654,95.54814,14.32006,95.54814,14.11865ZM90.2859,17.48146a7.19372,7.19372,0,0,0-1.01654,4.55742c1.17591-.33943,2.31544-.65947,3.44905-.99931a.63712.63712,0,0,0,.27107-1.13772c-.19759-.19622-.41354-.374-.62144-.55979C91.68233,18.72917,90.99649,18.11643,90.2859,17.48146Zm12.29047.00361c-.27528.24592-.53461.47736-.79367.7091-.62905.56267-1.26347,1.11949-1.88505,1.69029a.637.637,0,0,0,.23509,1.13546c.03921.01437.07957.02572.11975.03728q1.587.45652,3.17428.91209c.06244.01789.12767.026.20495.04132A7.33906,7.33906,0,0,0,102.57637,17.48507ZM94.11953,28.11414a7.30252,7.30252,0,0,0,4.62966.01083.3596.3596,0,0,0-.01587-.08342c-.56949-1.03156-1.12744-2.06981-1.71528-3.09084a.63292.63292,0,0,0-1.17341.04389c-.38091.68178-.75722,1.36615-1.13514,2.0496C94.51781,27.39084,94.32694,27.73792,94.11953,28.11414Zm-1.549-.7751c.46-1.11414.91628-2.21341,1.365-3.31578a.78912.78912,0,0,0,.05265-.34691c-.03168-.40528-.37917-.62494-.84252-.54639q-1.21516.206-2.43025.41249c-.34635.05913-.6922.1213-1.03962.18233A6.996,6.996,0,0,0,92.57056,27.339Zm4.73806-13.22451c.01753.31711.0326.60149.04909.88578.05333.91922.10155,1.83878.16307,2.75745a.61466.61466,0,0,0,.94083.513,1.48116,1.48116,0,0,0,.15987-.09894q1.36681-.96659,2.73228-1.93509a1.61989,1.61989,0,0,0,.13038-.11711A7.30051,7.30051,0,0,0,97.30862,14.11453Z"/><path class="d" d="M103.48569,39.23251h-.00949q-2.46906-.00426-4.94192-.0019l-2.11851.001-2.01889-.001-5.04249.0019h-.00474a3.36432,3.36432,0,0,1-2.702-1.28742L77.7932,26.9446a3.31288,3.31288,0,0,1-.65082-2.90785q1.36474-5.91579,2.721-11.83063l.41838-1.82346a3.34621,3.34621,0,0,1,1.90695-2.37087Q88.45309,5.02614,94.71186,2.031a3.52911,3.52911,0,0,1,2.312-.39942,3.82075,3.82075,0,0,1,.86809.28367l12.73856,6.069a3.455,3.455,0,0,1,1.97051,2.45815q1.37613,6.01257,2.76554,12.02228l.36146,1.5635a3.33189,3.33189,0,0,1-.66126,2.92777l-8.80609,10.94831A3.409,3.409,0,0,1,103.48569,39.23251Zm-2.8329-1.65458q1.41312,0,2.82626.0019h.00569a1.77988,1.77988,0,0,0,1.4876-.7106L113.77843,25.92a1.66377,1.66377,0,0,0,.33964-1.51986l-.36146-1.56445q-1.38609-6.01255-2.76649-12.02512a1.80643,1.80643,0,0,0-1.06922-1.33391l-12.73856-6.07a2.23271,2.23271,0,0,0-.49428-.15654,1.90318,1.90318,0,0,0-1.26276.27039Q89.16655,6.5204,82.9002,9.50319a1.72,1.72,0,0,0-1.00755,1.24853l-.41933,1.82345q-1.35764,5.91721-2.72,11.83253a1.64318,1.64318,0,0,0,.32825,1.50183l8.85258,10.9986a1.69774,1.69774,0,0,0,1.4155.6717h.00285l9.18178-.001Q99.59306,37.57746,100.65279,37.57793Z"/></svg>