<svg xmlns="http://www.w3.org/2000/svg" viewBox="0 0 136 136"><defs><style>.a{fill:#ffc348;}.b{fill:#8ddcff;}.c{fill:#fff;}.d{fill:#f58535;}</style></defs><title>cost-anomaly-detection-08.11.22</title><path class="a" d="M7.27272,74.70789a5.12066,5.12066,0,0,1,1.50758,1.504l3.96549-4.17075a5.10919,5.10919,0,0,1-1.42726-1.5884Z"/><path class="a" d="M110.97777,36.67821l4.46894,3.7175a5.12669,5.12669,0,0,1,1.23315-1.7427l-4.65365-3.87143A5.10584,5.10584,0,0,1,110.97777,36.67821Z"/><path class="a" d="M17.49479,72.70963l4.31144,8.15778A5.08964,5.08964,0,0,1,23.525,79.56505l-4.22584-7.99631A5.071,5.071,0,0,1,17.49479,72.70963Z"/><path class="a" d="M103.07644,36.39641,80.633,73.59918,52.57754,62.00912a1.06924,1.06924,0,0,0-1.09746.175L29.56333,80.91886a5.05213,5.05213,0,0,1,1.00683,1.9391L52.36761,64.22522,80.66624,75.9154a1.06628,1.06628,0,0,0,1.31765-.43381L104.71016,37.8095A5.12652,5.12652,0,0,1,103.07644,36.39641Z"/><path class="a" d="M134.03594,25.28238,127.03217,28.538a1.02892,1.02892,0,0,0-.20664,1.73871l1.77979,1.41513-5.62454,6.48881a5.11011,5.11011,0,0,1,1.47788,1.54482l5.81428-6.7077,1.96264,1.56025a1.02889,1.02889,0,0,0,1.64711-.59311l1.59415-7.55682A1.02924,1.02924,0,0,0,134.03594,25.28238Z"/><path class="b" d="M106.659,56.05712a39.03045,39.03045,0,0,1-31.59017,42.757,38.05961,38.05961,0,0,1-30.02164-6.71272A37.5979,37.5979,0,0,1,29.15167,65.80447a38.947,38.947,0,0,1,33.1255-44.016,37.82083,37.82083,0,0,1,29.44429,7.79A38.20882,38.20882,0,0,1,106.659,56.05712ZM71.40929,93.69585A33.45456,33.45456,0,0,0,101.1209,56.91256,32.388,32.388,0,0,0,89.095,34.61865,32.32541,32.32541,0,0,0,64.2066,27.17909,32.29687,32.29687,0,0,0,41.72183,39.55483a32.7,32.7,0,0,0-6.67176,27.44775A33.43362,33.43362,0,0,0,71.40929,93.69585Z"/><path class="b" d="M101.908,87.64979l.05842-.07307a4.66489,4.66489,0,0,1,6.542-.74377c5.8503,4.63779,17.3396,13.75955,23.85261,18.93591a5.08194,5.08194,0,0,1,2.2387,3.59687,4.68077,4.68077,0,0,1-2.28281,4.5237,4.38477,4.38477,0,0,1-4.77869.07926,5.78445,5.78445,0,0,1-.82538-.56821c-6.49809-5.17038-18.166-14.47392-24.0768-19.19271A4.66163,4.66163,0,0,1,101.908,87.64979Z"/><path class="c" d="M103.65138,89.07266l-.03243.0384a2.46839,2.46839,0,0,1-3.42907.33345L97.46,87.25414a2.46684,2.46684,0,0,1-.35851-3.49659l.06872-.083a2.46437,2.46437,0,0,1,3.47191-.32848L103.33642,85.58A2.4698,2.4698,0,0,1,103.65138,89.07266Z"/><path class="c" d="M71.53678,94.89027A34.63411,34.63411,0,0,1,33.872,67.23852,33.87418,33.87418,0,0,1,40.78333,38.8052,33.45656,33.45656,0,0,1,64.07546,25.98508a33.48623,33.48623,0,0,1,25.782,7.70669A33.551,33.551,0,0,1,102.31525,56.7862,34.6558,34.6558,0,0,1,71.53678,94.89027Z"/><path class="d" d="M65.72785,37.15909,45.90327,71.49627a2.58793,2.58793,0,0,0,2.24121,3.88189H87.79364a2.58792,2.58792,0,0,0,2.24121-3.88189L70.21028,37.15909A2.58794,2.58794,0,0,0,65.72785,37.15909Z"/><path class="c" d="M63.69952,64.36407a3.78778,3.78778,0,0,1,1.19763-2.80254,3.90586,3.90586,0,0,1,2.82645-1.17372,3.85379,3.85379,0,0,1,1.97609.539,4.01072,4.01072,0,0,1,1.46112,1.46131,3.85159,3.85159,0,0,1,.53887,1.97591A3.90453,3.90453,0,0,1,70.526,67.1907a3.788,3.788,0,0,1-2.80236,1.19744,4.04869,4.04869,0,0,1-4.02408-4.02407Zm7.90436-26.34774V53.84877a4.27713,4.27713,0,0,1-.94616,2.85036A3.26743,3.26743,0,0,1,68.011,57.825a3.23226,3.23226,0,0,1-2.61077-1.1376,4.25436,4.25436,0,0,1-.9582-2.83867V38.01633a4.28983,4.28983,0,0,1,.94616-2.83867A3.22645,3.22645,0,0,1,68.011,34.04007a3.26264,3.26264,0,0,1,2.63484,1.13759A4.25829,4.25829,0,0,1,71.60388,38.01633Z"/><path class="a" d="M21.6695,84.63236a4.01566,4.01566,0,1,1,4.44125,3.539A4.01292,4.01292,0,0,1,21.6695,84.63236Z"/><path class="a" d="M.52579,79.43449a4.01566,4.01566,0,1,1,4.44126,3.539A4.01294,4.01294,0,0,1,.52579,79.43449Z"/><path class="a" d="M11.75259,68.38612a4.01566,4.01566,0,1,1,4.44126,3.539A4.01292,4.01292,0,0,1,11.75259,68.38612Z"/><path class="a" d="M103.152,33.7932a4.01565,4.01565,0,1,1,4.44125,3.539A4.01293,4.01293,0,0,1,103.152,33.7932Z"/><path class="a" d="M116.1363,42.83967a4.01566,4.01566,0,1,1,4.44125,3.539A4.01292,4.01292,0,0,1,116.1363,42.83967Z"/></svg>