<svg xmlns="http://www.w3.org/2000/svg" xmlns:xlink="http://www.w3.org/1999/xlink" viewBox="0 0 136 136"><defs><style>.a{fill:none;}.b{fill:#fff;}.c{clip-path:url(#a);}.d{fill:#333f53;}.e{fill:#8ddcff;}.f{fill:#ffc348;}.g{fill:#f6f6fa;}.h{fill:#f58535;}</style><clipPath id="a"><circle class="a" cx="68.00034" cy="73.63261" r="47.98672"/></clipPath></defs><title>FinOps-cloud-cost-optimization</title><path class="b" d="M68.00049,129.64234a56.00977,56.00977,0,1,1,56.00976-56.00977A56.07354,56.07354,0,0,1,68.00049,129.64234Zm0-109.18555a53.17578,53.17578,0,1,0,53.17578,53.17578A53.23676,53.23676,0,0,0,68.00049,20.45679Z"/><g class="c"><path class="b" d="M96.24652,85.5192l.00971.01257Z"/><path class="d" d="M60.35487,31.40405a1.8941,1.8941,0,0,0-.33543-.04779c-1.93912.17121-3.87907.33523-5.81474.53968-.16961.01792-.39783.28074-.45223.47159q-1.60125,5.61855-3.14924,11.25213a1.23365,1.23365,0,0,0,.10518.89041,19.85156,19.85156,0,0,0,1.66729,2.327,79.10011,79.10011,0,0,0,10.20836,9.4407c.72911.591,1.47442,1.16291,2.22747,1.72319a1.62236,1.62236,0,0,0,1.41971.43655,1.36245,1.36245,0,0,0,.61143-2.40034c-.70034-.72684-1.437-1.41857-2.14833-2.135a1.063,1.063,0,0,1-.08143-1.48225c.38894-.39539.89573-.35651,1.41007.0884,1.78183,1.54134,3.56183,3.08489,5.35508,4.61286a1.67664,1.67664,0,0,0,2.34788-.05325,1.50567,1.50567,0,0,0-.2569-2.32151c-1.46986-1.224-2.96691-2.41527-4.45028-3.62308a1.09519,1.09519,0,0,1-.31286-1.61907c.42462-.49433.9332-.48977,1.57573.04081q2.86767,2.36807,5.7253,4.7483a1.6256,1.6256,0,0,0,1.84964.37106,1.80509,1.80509,0,0,0,.58026-2.92339q-.68366-.66462-1.42028-1.27428c-1.31032-1.08382-2.63786-2.1468-3.94932-3.22925a1.05889,1.05889,0,0,1-.25212-1.54633,1.10878,1.10878,0,0,1,1.53666.00584c1.83386,1.53459,3.67065,3.066,5.48551,4.62283a1.59979,1.59979,0,0,0,2.49995-.2086,1.63638,1.63638,0,0,0-.21546-2.44113q-6.20216-5.006-12.4243-9.98714a1.08273,1.08273,0,0,0-.764-.14349,15.92156,15.92156,0,0,0-1.91241.42907,1.90631,1.90631,0,0,0-.78682.44495c-.54132.53427-.99167,1.16717-1.56336,1.66258A12.85292,12.85292,0,0,1,62.37436,41.767,3.06992,3.06992,0,0,1,57.90841,40.133a5.92848,5.92848,0,0,1-.414-1.95658,9.20181,9.20181,0,0,1,2.46537-6.27812C60.0757,31.75416,60.19083,31.60932,60.35487,31.40405Zm8.32251-1.68321a9.585,9.585,0,0,0-8.89012,6.5628,4.71741,4.71741,0,0,0-.1266,2.97355,1.09988,1.09988,0,0,0,1.5752.78957,3.64979,3.64979,0,0,0,1.27791-.73072c.91631-.90369,1.75112-1.88944,2.64391-2.818a1.79621,1.79621,0,0,1,.80582-.513c.97079-.23249,1.97812-.32809,2.93213-.60944a1.63072,1.63072,0,0,1,1.66241.30732c4.01055,3.26359,8.0387,6.50559,12.04064,9.77965.62208.50893,1.13484,1.15065,1.70726,1.72182a.67439.67439,0,0,0,.3822.23325,8.91588,8.91588,0,0,0,1.26492-.09475c.29693-.04279.40384-.22531.29757-.54033-.15258-.45226-.26684-.9174-.39911-1.37657-1.19057-4.13309-2.38873-8.264-3.5619-12.40206-.12735-.44917-.30932-.51075-.71157-.36963-.55035.19308-1.12715.31135-1.67575.50858a1.47248,1.47248,0,0,1-1.21755-.112c-1.16438-.559-2.3294-1.12148-3.52126-1.61749A20.214,20.214,0,0,0,68.67738,29.72084Zm22.52418-.6502c-.21731.05469-.32085.07831-.423.10683-2.12927.59417-4.25627,1.19665-6.3894,1.77662-.40019.10881-.48446.26507-.37006.67171,1.00605,3.576,1.9887,7.15855,2.97942,10.73885.53306,1.92636,1.07317,3.8508,1.59847,5.77927.1011.37117.2218.518.65943.38057,2.09168-.6569,4.19068-1.29251,6.30032-1.88882.53932-.15244.586-.36411.446-.85554-1.013-3.55575-1.99671-7.11982-2.99072-10.681q-.77754-2.78567-1.5635-5.569A2.28414,2.28414,0,0,0,91.20156,29.07064ZM39.781,45.95337a1.60437,1.60437,0,0,0,.23127.11644c2.2477.63279,4.49716,1.25932,6.74319,1.898.37794.10747.487-.06406.58061-.39051q2.1946-7.65639,4.40717-15.30762c.14961-.51938.28624-1.04249.44231-1.61289L44.786,28.589Z"/><path class="b" d="M60.35487,31.40405c-.164.20527-.27917.35011-.39512.49429a9.20181,9.20181,0,0,0-2.46537,6.27812,5.92848,5.92848,0,0,0,.414,1.95658A3.06992,3.06992,0,0,0,62.37436,41.767a12.85292,12.85292,0,0,0,2.29651-1.69092c.57169-.49541,1.022-1.12831,1.56336-1.66258a1.90631,1.90631,0,0,1,.78682-.44495,15.92156,15.92156,0,0,1,1.91241-.42907,1.08273,1.08273,0,0,1,.764.14349q6.22737,4.97454,12.4243,9.98714a1.63638,1.63638,0,0,1,.21546,2.44113,1.59979,1.59979,0,0,1-2.49995.2086c-1.81486-1.55687-3.65165-3.08824-5.48551-4.62283a1.10878,1.10878,0,0,0-1.53666-.00584,1.05889,1.05889,0,0,0,.25212,1.54633c1.31146,1.08245,2.639,2.14543,3.94932,3.22925q.7347.60771,1.42028,1.27428a1.80509,1.80509,0,0,1-.58026,2.92339,1.6256,1.6256,0,0,1-1.84964-.37106q-2.85877-2.37882-5.7253-4.7483c-.64253-.53058-1.15111-.53514-1.57573-.04081a1.09519,1.09519,0,0,0,.31286,1.61907c1.48337,1.20781,2.98042,2.39911,4.45028,3.62308a1.50567,1.50567,0,0,1,.2569,2.32151,1.67664,1.67664,0,0,1-2.34788.05325c-1.79325-1.528-3.57325-3.07152-5.35508-4.61286-.51434-.44491-1.02113-.48379-1.41007-.0884a1.063,1.063,0,0,0,.08143,1.48225c.71135.71642,1.448,1.40815,2.14833,2.135a1.36245,1.36245,0,0,1-.61143,2.40034,1.62236,1.62236,0,0,1-1.41971-.43655c-.75305-.56028-1.49836-1.13218-2.22747-1.72319A79.10011,79.10011,0,0,1,52.3757,46.837a19.85156,19.85156,0,0,1-1.66729-2.327,1.23365,1.23365,0,0,1-.10518-.89041q1.54371-5.6346,3.14924-11.25213c.0544-.19085.28262-.45367.45223-.47159,1.93567-.20445,3.87562-.36847,5.81474-.53968A1.8941,1.8941,0,0,1,60.35487,31.40405Z"/><path class="b" d="M68.67738,29.72084a20.214,20.214,0,0,1,6.48611,1.69255c1.19186.496,2.35688,1.05845,3.52126,1.61749a1.47248,1.47248,0,0,0,1.21755.112c.5486-.19723,1.1254-.3155,1.67575-.50858.40225-.14112.58422-.07954.71157.36963,1.17317,4.138,2.37133,8.269,3.5619,12.40206.13227.45917.24653.92431.39911,1.37657.10627.315-.00064.49754-.29757.54033a8.91588,8.91588,0,0,1-1.26492.09475.67439.67439,0,0,1-.3822-.23325c-.57242-.57117-1.08518-1.21289-1.70726-1.72182-4.00194-3.27406-8.03009-6.51606-12.04064-9.77965a1.63072,1.63072,0,0,0-1.66241-.30732c-.954.28135-1.96134.377-2.93213.60944a1.79621,1.79621,0,0,0-.80582.513c-.89279.92854-1.7276,1.91429-2.64391,2.818a3.64979,3.64979,0,0,1-1.27791.73072,1.09988,1.09988,0,0,1-1.5752-.78957,4.71741,4.71741,0,0,1,.1266-2.97355A9.585,9.585,0,0,1,68.67738,29.72084Z"/><path class="e" d="M91.20156,29.07064a2.28414,2.28414,0,0,1,.24688.45956q.79186,2.78159,1.5635,5.569c.994,3.56116,1.97775,7.12523,2.99072,10.681.14.49143.09336.7031-.446.85554-2.10964.59631-4.20864,1.23192-6.30032,1.88882-.43763.13744-.55833-.0094-.65943-.38057-.5253-1.92847-1.06541-3.85291-1.59847-5.77927-.99072-3.5803-1.97337-7.16287-2.97942-10.73885-.1144-.40664-.03013-.5629.37006-.67171,2.13313-.58,4.26013-1.18245,6.3894-1.77662C90.88071,29.149,90.98425,29.12533,91.20156,29.07064Z"/><path class="e" d="M39.781,45.95337,44.786,28.589l7.39954,2.06773c-.15607.5704-.2927,1.09351-.44231,1.61289q-2.20461,7.65351-4.40717,15.30762c-.09358.32645-.20267.498-.58061.39051-2.246-.63866-4.49549-1.26519-6.74319-1.898A1.60437,1.60437,0,0,1,39.781,45.95337Z"/><path class="e" d="M50.02089,108.24736v10.659H38.95829v-9.88858a.76113.76113,0,0,1,.76044-.76113Z"/><path class="f" d="M131.634,70.63249c.00464-.57007-.44207-.35449-5.33416-2.19641a23.283,23.283,0,0,0-2.83448-6.992l2.37439-4.78583c.26374-.53168-.29187-.56207-4.58215-5.07037-.39966-.40571-.56006.06066-5.32178,2.21734a23.28316,23.28316,0,0,0-6.9505-2.93506L107.27919,45.804a.43924.43924,0,0,0-.41309-.29907l-6.41217-.04621a.43934.43934,0,0,0-.41742.293l-1.779,5.04114a23.285,23.285,0,0,0-6.99194,2.83447c-4.62085-2.17358-4.87446-2.70343-5.28937-2.29351-4.442,4.53479-4.90369,4.48248-4.65467,5.00366L83.62666,61.157a23.28854,23.28854,0,0,0-2.935,6.95038c-4.80444,1.73028-5.361,1.53411-5.36529,2.11926l-.04615,6.41217c-.00409.57312.46705.36383,5.33417,2.19641a23.32353,23.32353,0,0,0,1.987,5.46558h4.48193a1.81339,1.81339,0,0,1,1.81458,1.81457v8.32227c.57434-.27692,1.25458-.59742,2.08057-.9715.24109.152.49194.28094.73724.42328V85.583a16.79284,16.79284,0,1,1,16.70361,4.04065v7.52741l.23737-.67261a23.2883,23.2883,0,0,0,6.99194-2.8346c4.62085,2.17359,4.8739,2.70307,5.28943,2.29377,4.44354-4.53669,4.90375-4.48322,4.65466-5.00379l-2.30517-4.81958a23.28272,23.28272,0,0,0,2.93493-6.95032l5.06641-1.70629C131.85072,77.26848,131.47987,76.85405,131.634,70.63249Z"/><path class="b" d="M104.4535,74.16923h-8.772a.68949.68949,0,0,0-.68951.68952V98.42986a4.49815,4.49815,0,0,1,.40759,6.15325l-.40759.524v14.5138a.68947.68947,0,0,0,.68951.68945h8.772a.68948.68948,0,0,0,.68952-.68945V74.85875A.6895.6895,0,0,0,104.4535,74.16923Z"/><path class="g" d="M77.21962,90.70933A1.00133,1.00133,0,0,1,78.221,89.708H86.0774V88.29991a.99839.99839,0,0,0-.99841-.99841H76.0019a.99834.99834,0,0,0-.99835.99841v23.97852q1.1088-1.11612,2.21607-2.23352Z"/><path class="b" d="M58.57722,114.6707l1.42334.8797c2.26093,1.39654,4.59216,2.83966,6.88178,4.30029a.94713.94713,0,0,0,.05676-.28131V99.36851a.97337.97337,0,0,0-.97339-.97338H56.83863a.97337.97337,0,0,0-.97338.97338v14.61915c.09057-.00556.17712-.02906.26873-.02906A4.65656,4.65656,0,0,1,58.57722,114.6707Z"/><path class="e" d="M83.00105,120.52306H85.079a.99844.99844,0,0,0,.99841-.99842v-2.95685l-2.45764,3.15955Q83.31022,120.12505,83.00105,120.52306Z"/><path class="e" d="M77.21962,90.70933v19.33558q1.81128-1.82136,3.61828-3.64679l4.211-4.23255q.51333-.51654,1.0285-1.03113V89.708H78.221A1.00133,1.00133,0,0,0,77.21962,90.70933Z"/></g><path class="b" d="M37.05468,67.02356a26.44155,26.44155,0,0,0-12.1915,8.46151,26.52275,26.52275,0,0,0,12.20364,8.46532A10.78871,10.78871,0,0,1,37.05468,67.02356Z"/><path class="b" d="M50.10214,67.02077a10.791,10.791,0,0,1,.00112,16.923,26.39792,26.39792,0,0,0,12.21156-8.463A26.44867,26.44867,0,0,0,50.10214,67.02077Z"/><path class="e" d="M43.60011,67.42186a8.06035,8.06035,0,1,0,8.05786,8.114A8.041,8.041,0,0,0,43.60011,67.42186Zm2.71112,11.5459a4.44169,4.44169,0,0,1-5.46912-.0188A4.36379,4.36379,0,0,1,39.502,73.89049a2.26616,2.26616,0,0,0,2.85614.27575c.9317-.63775,1.1242-1.50177.67431-3.02716a4.33653,4.33653,0,0,1,4.5188,2.36652A4.43845,4.43845,0,0,1,46.31123,78.96776Z"/><path class="a" d="M56.13862,113.9586a4.65693,4.65693,0,0,1,2.4433.7121l1.42328.8797c2.38348,1.47223,4.84747,2.99432,7.25592,4.53625q6.7695-6.86416,13.58148-13.68853l4.21094-4.23255q1.77768-1.78884,3.56195-3.571a4.68452,4.68452,0,0,1,3.3147-1.41254,4.53613,4.53613,0,0,1,3.474,7.40112L85.592,117.19786a46.98051,46.98051,0,1,0-33.86511.52057,4.533,4.533,0,0,1,4.41174-3.75983Z"/><path class="b" d="M118,73.63255a50,50,0,1,0-65.42743,47.55274,4.54857,4.54857,0,0,1-.8457-3.46686,47.00923,47.00923,0,1,1,33.86511-.52057l-1.96753,2.52948q-.716.92-1.43121,1.8407A50.08051,50.08051,0,0,0,118,73.63255Z"/><path class="h" d="M67.53857,134.36129a2.95366,2.95366,0,0,1-2.42-1.2357q-5.22883-6.69163-10.45583-13.38471a1.96288,1.96288,0,0,1,2.57819-2.90159c2.89306,1.7894,5.79327,3.56811,8.65787,5.40226a2.32576,2.32576,0,0,0,3.15648-.34413q8.8734-8.99612,17.80563-17.93422,1.77515-1.78527,3.55634-3.56451a1.9817,1.9817,0,0,1,2.97348,2.62035q-3.8103,4.9047-7.62588,9.80529Q77.921,122.907,70.08049,132.99244A3.09372,3.09372,0,0,1,67.53857,134.36129Z"/></svg>