<svg xmlns="http://www.w3.org/2000/svg" viewBox="0 0 136 136"><defs><style>.a{fill:#fff;}.b{fill:#8ddcff;}.c{fill:#f48435;}.d{fill:#4ab4ee;}.e{fill:#ffc248;}</style></defs><title>geo-network-traffic-cost-map-08.11.22</title><path class="a" d="M94.05568,94.70662a49.90282,49.90282,0,0,1-17.41124,6.82467.31944.31944,0,0,0-.1973.09768l-4.449,6.73164a5.57134,5.57134,0,0,1-9.29654-.001l-4.45-6.73262a.20749.20749,0,0,0-.07521-.07423A49.50219,49.50219,0,0,1,40.689,94.69587c-14.35456,3.51087-23.91921,9.76684-23.91921,16.90578,0,10.98959,22.64555,19.89825,50.58011,19.89825,27.935,0,50.58011-8.90866,50.58011-19.89825C117.93,104.47,108.38533,98.21968,94.05568,94.70662Z"/><path class="b" d="M102.75663,97.3968a8.966,8.966,0,0,1,1.5165,4.84346c0,10.9895-22.64555,19.89829-50.58015,19.89829-13.78893,0-26.28257-2.17335-35.40658-5.69344C23.78543,125.09333,43.66281,131.5,67.35,131.5c27.93474,0,50.58024-8.90879,50.58024-19.89829C117.93029,106.0368,112.11683,101.008,102.75663,97.3968Z"/><path class="a" d="M23.89005,64.80931a45.01722,45.01722,0,0,1-1.77912-14.75477,45.51839,45.51839,0,0,1,43.407-43.10713q.92742-.03663,1.84994-.03711a44.9081,44.9081,0,0,1,31.36484,12.637,46.42848,46.42848,0,0,1,3.23641,3.44737l1.89339-1.49061a48.7802,48.7802,0,0,0-3.45959-3.69437A47.33224,47.33224,0,0,0,65.42219,4.53879a47.94194,47.94194,0,0,0-45.71793,45.4044,47.39062,47.39062,0,0,0,2.14,16.40948Z"/><path class="a" d="M106.38344,29.208a45.3173,45.3173,0,0,1-30.643,67.50213,5.14024,5.14024,0,0,0-3.38438,2.2123l-4.45,6.7336a.66706.66706,0,0,1-1.1125,0l-4.449-6.7336a5.051,5.051,0,0,0-3.2662-2.19081A45.32353,45.32353,0,0,1,26.76555,72.175l-1.95005,1.4712a47.72257,47.72257,0,0,0,33.82524,25.455,2.63184,2.63184,0,0,1,1.69365,1.14962l4.449,6.73457a3.07,3.07,0,0,0,2.56685,1.37915h.001a3.06512,3.06512,0,0,0,2.5649-1.38013l4.45-6.73359a2.75193,2.75193,0,0,1,1.81867-1.17208,47.73028,47.73028,0,0,0,32.11058-71.376Z"/><path class="c" d="M119.73252,13.48765c-2.94825.56675-7.89835,1.53561-10.53031,2.05557a1.1507,1.1507,0,0,0-.70261,1.81461c.4025.545.89542,1.21072,1.42319,1.92219L80.13524,42.72766,67.68857,40.68784A1.80874,1.80874,0,0,0,65.81451,41.6L57.44125,56.83629l-18.95582-.07a1.83184,1.83184,0,0,0-1.09409.36386L15.61477,73.55786a1.80553,1.80553,0,0,0,2.17449,2.88295h0L39.08,60.37941l19.41983.07154h.00684a1.80552,1.80552,0,0,0,1.58235-.93578l8.2756-15.05749,11.97086,1.96177a1.81122,1.81122,0,0,0,1.40819-.36294L112.07747,22.1791c.69439.93244,1.35112,1.81256,1.866,2.5a1.15079,1.15079,0,0,0,1.93439-.13968c1.27-2.33824,3.66074-6.74336,5.08557-9.36953a1.15258,1.15258,0,0,0-1.23089-1.68226Z"/><path class="d" d="M67.61568,25.14327c-.08715-.00064-.17345-.00129-.25975-.00129a26.91359,26.91359,0,0,0-.18541,53.82629c.06024.00064.12047.00064.18028.00064a26.91348,26.91348,0,0,0,.26488-53.82564ZM82.53591,50.76492a43.96347,43.96347,0,0,0-1.69607-11.15727A30.593,30.593,0,0,0,86.574,37.10884a24.08072,24.08072,0,0,1,5.09972,13.65608Zm-2.55478,2.58533a41.80238,41.80238,0,0,1-1.57259,10.46154,45.53567,45.53567,0,0,0-9.75044-1.26948V53.35025Zm-11.32859-2.594V41.60213a45.85616,45.85616,0,0,0,9.75557-1.30431,41.75842,41.75842,0,0,1,1.573,10.45845ZM68.65511,65.096a42.71253,42.71253,0,0,1,8.94555,1.15157c-.17857.45456-.35459.9025-.54684,1.344a19.12222,19.12222,0,0,1-3.95264,6.11266A8.79659,8.79659,0,0,1,68.75636,76.258q-.05.01122-.10125.02115ZM80.03624,37.18125a24.66862,24.66862,0,0,0-4.81476-8.16481A30.60477,30.60477,0,0,1,79.62526,31.024a24.47538,24.47538,0,0,1,5.23729,4.11626A28.10043,28.10043,0,0,1,80.03624,37.18125Zm-2.43558.68206a42.65857,42.65857,0,0,1-8.94427,1.15136V27.839c.18114.03664.36014.07648.53616.12689a9.16621,9.16621,0,0,1,4.11114,2.64876,20.17157,20.17157,0,0,1,3.986,6.45658C77.39645,37.33089,77.49813,37.59309,77.60066,37.86331Zm-.07732,34.21946a28.29176,28.29176,0,0,0,2.50906-5.15441h0A27.8878,27.8878,0,0,1,84.863,68.972a24.33954,24.33954,0,0,1-9.59749,6.09578A20.18634,20.18634,0,0,0,77.52334,72.08277Zm3.32291-7.59512A44.443,44.443,0,0,0,82.5342,53.354h9.13909a24.35407,24.35407,0,0,1-5.08136,13.62757q-.28517-.14226-.56564-.283c-.78651-.395-1.52944-.76782-2.313-1.10682-.77541-.33655-1.582-.63218-2.36253-.91842Q81.09959,64.58133,80.84625,64.48765ZM52.17168,53.34715a43.94946,43.94946,0,0,0,1.69606,11.15567,30.62016,30.62016,0,0,0-5.73329,2.49924,24.07748,24.07748,0,0,1-5.101-13.65491Zm13.87781-2.58746H54.72688a41.77282,41.77282,0,0,1,1.57217-10.46037,45.65367,45.65367,0,0,0,9.75044,1.30024Zm.00342,2.59739v9.18309a45.577,45.577,0,0,0-9.753,1.2729,41.84015,41.84015,0,0,1-1.57431-10.456ZM49.845,68.972a28.03924,28.03924,0,0,1,4.82887-2.043,28.63069,28.63069,0,0,0,2.51931,5.16872,20.4083,20.4083,0,0,0,2.24633,2.96758A24.35146,24.35146,0,0,1,49.845,68.972Zm7.261-2.72342A42.49344,42.49344,0,0,1,66.05291,65.096V76.2691c-.3123-.07113-.61092-.144-.89545-.23882a8.93408,8.93408,0,0,1-3.50791-2.28306A20.61,20.61,0,0,1,57.10607,66.24855ZM49.845,35.13936a24.33251,24.33251,0,0,1,9.59707-6.09622,20.26319,20.26319,0,0,0-2.25658,2.98253,28.44964,28.44964,0,0,0-2.51034,5.15665,27.904,27.904,0,0,1-4.83015-2.043Zm16.207,3.89336a47.15486,47.15486,0,0,1-8.94684-1.16086v-.00022c.10082-.26744.20335-.53392.31229-.79826a20.5473,20.5473,0,0,1,3.742-6.19939,9.59645,9.59645,0,0,1,4.00177-2.79487,9.1585,9.1585,0,0,1,.89076-.23988ZM48.13317,37.1082a30.55779,30.55779,0,0,0,5.73372,2.498A43.93852,43.93852,0,0,0,52.173,50.75809H43.03388A24.08119,24.08119,0,0,1,48.13317,37.1082Z"/><path class="e" d="M60.23938,89.04267a3.69737,3.69737,0,0,1-.7352-.08273l-.14487-.03234a41.99443,41.99443,0,0,1-6.68018-2.13841A36.49652,36.49652,0,0,1,35.01456,71.18031,37.19556,37.19556,0,0,1,31.76964,40.69,37.69331,37.69331,0,0,1,52.8284,17.838a1.09005,1.09005,0,0,0,.65435-1.18706l-.43788-1.9823a1.21685,1.21685,0,0,1,1.64952-1.38953l7.42036,3.02475a1.16116,1.16116,0,0,1,.72273.87639A1.22129,1.22129,0,0,1,62.514,18.284l-5.47477,5.5787a1.20824,1.20824,0,0,1-1.1115.34055l-.0877-.02115a1.21274,1.21274,0,0,1-.85462-.89629L54.578,21.52058a1.02132,1.02132,0,0,0-.55358-.692,1.05461,1.05461,0,0,0-.23822-.08054,1.0198,1.0198,0,0,0-.64935.07992l-.089.04252c-.99513.48024-1.93689.93485-2.84312,1.45049A34.58331,34.58331,0,0,0,59.9222,86.13115l.09268.01681c1.703.37567,1.78076,1.15316,1.65635,1.78822a1.2933,1.2933,0,0,1-.54735.88137A1.58111,1.58111,0,0,1,60.23938,89.04267Z"/><path class="e" d="M80.2358,91.3913a1.419,1.419,0,0,1-.28487-.02924,1.39328,1.39328,0,0,1-.25129-.07716l-6.69638-2.73178a1.42015,1.42015,0,0,1-.4708-2.31072l4.95044-5.01449a1.40507,1.40507,0,0,1,1.00578-.42233,1.41938,1.41938,0,0,1,.28549.02924c.03546.00684.07029.01555.10511.02488a1.40914,1.40914,0,0,1,.989,1.04246l.29287,1.2645a1.02829,1.02829,0,0,0,.79117.7719,1.05973,1.05973,0,0,0,.20714.02114,1.03669,1.03669,0,0,0,.4416-.10014c12.32291-5.9139,19.12191-15.65927,20.20978-28.96616A34.08519,34.08519,0,0,0,85.9606,23.15261c-.70347-.44255-1.43057-.86459-2.16079-1.25363a35.731,35.731,0,0,0-9.1271-3.35226l-.27556-.05567a2.22744,2.22744,0,0,1-.5405-.16763,1.356,1.356,0,0,1-.76629-1.61A1.33366,1.33366,0,0,1,74.39654,15.628l.07651-.00217a2.17905,2.17905,0,0,1,.43229.05131l.31907.06966a36.52306,36.52306,0,0,1,9.68317,3.50873,37.43662,37.43662,0,0,1-3.04653,67.62636A1.02628,1.02628,0,0,0,81.26146,88.04l.35578,1.6321a1.41929,1.41929,0,0,1-1.38144,1.7192Z"/></svg>