<svg xmlns="http://www.w3.org/2000/svg" viewBox="0 0 136 136"><defs><style>.a{fill:#fff;}.b{fill:#8ddcff;}.c{fill:#f58535;}.d{fill:#ffc348;}.e{fill:#333f53;}</style></defs><title>it-environment-management-08.11.22</title><path class="a" d="M100.71776,27.9238a2.47823,2.47823,0,1,1,2.47823,2.47678A2.48145,2.48145,0,0,1,100.71776,27.9238Z"/><path class="a" d="M110.07406,27.9238a2.47823,2.47823,0,1,1,2.47823,2.47678A2.48145,2.48145,0,0,1,110.07406,27.9238Z"/><path class="a" d="M119.36611,27.9238a2.47823,2.47823,0,1,1,2.47823,2.47678A2.48145,2.48145,0,0,1,119.36611,27.9238Z"/><path class="b" d="M125.7626,66.54105l-.40776-3.889a2.93033,2.93033,0,0,0-1.04468-1.94892l-.00048-.00048a2.9418,2.9418,0,0,0-1.20391-.59581l-2.8189-.65275a20.93552,20.93552,0,0,0-2.40641-4.43956l.98845-2.7166a2.96541,2.96541,0,0,0-.90624-3.27262l-3.03908-2.46264a2.92732,2.92732,0,0,0-3.38968-.20872l-2.45271,1.53017a20.95906,20.95906,0,0,0-4.84165-1.4339l-1.22329-2.62293a2.97708,2.97708,0,0,0-.78529-1.01563l-.00047-.00059a2.94205,2.94205,0,0,0-2.17016-.65559l-3.8891.40718a2.9277,2.9277,0,0,0-2.54486,2.24919l-.653,2.81878a20.93955,20.93955,0,0,0-4.43956,2.40653l-2.71637-.98834a2.9252,2.9252,0,0,0-3.273.90672l-2.46216,3.03849a2.92578,2.92578,0,0,0-.20885,3.38932l1.52994,2.45342a20.92822,20.92822,0,0,0-1.43355,4.84142l-2.62281,1.22328a2.92631,2.92631,0,0,0-1.67263,2.95545l.40729,3.89017a2.93194,2.93194,0,0,0,1.04421,1.948l.00094.00048a2.934,2.934,0,0,0,1.20439.59534l2.81843.65346a20.9585,20.9585,0,0,0,2.40641,4.43908l-.988,2.71661a2.93352,2.93352,0,0,0,.86088,3.23446s.02552.02161,3.08444,2.50091a2.92642,2.92642,0,0,0,3.38921.2086l2.45319-1.52993a20.966,20.966,0,0,0,4.84164,1.434l1.22329,2.62258a2.97465,2.97465,0,0,0,.78481,1.01562l.001.00059a2.94309,2.94309,0,0,0,2.16969.65594l3.8891-.4074a2.92668,2.92668,0,0,0,2.54533-2.24872l.653-2.81926a20.96026,20.96026,0,0,0,4.43908-2.40629l2.71684.98893a2.92714,2.92714,0,0,0,3.273-.9079l2.46169-3.0379a2.92607,2.92607,0,0,0,.20932-3.38944l-1.53041-2.45366a20.89387,20.89387,0,0,0,1.43355-4.84094L124.0895,69.497A2.92778,2.92778,0,0,0,125.7626,66.54105Zm-5.99122,1.25305a2.81035,2.81035,0,0,0-1.58711,2.12729,17.55658,17.55658,0,0,1-1.33952,4.5239,2.80557,2.80557,0,0,0,.171,2.64254l1.52285,2.44138-2.06433,2.54709L113.7707,81.093a2.8048,2.8048,0,0,0-2.62.3793,17.58921,17.58921,0,0,1-4.15181,2.25084,2.80319,2.80319,0,0,0-1.74823,1.99145l-.65015,2.80307-3.26068.34244-1.21762-2.60852a2.75658,2.75658,0,0,0-.72811-.95291,2.81919,2.81919,0,0,0-1.39764-.63326,17.5061,17.5061,0,0,1-4.52366-1.3407,2.80593,2.80593,0,0,0-2.64408.172l-2.4409,1.5219-2.54627-2.06338.98326-2.704a2.80651,2.80651,0,0,0-.3813-2.62151,17.52211,17.52211,0,0,1-2.24766-4.14956,2.86891,2.86891,0,0,0-.82214-1.16258,2.79944,2.79944,0,0,0-1.17273-.58719l-2.80236-.6485L79.057,67.821l2.60864-1.217a2.81086,2.81086,0,0,0,1.58664-2.12363,17.54573,17.54573,0,0,1,1.34-4.52755,2.80689,2.80689,0,0,0-.16962-2.64018l-1.5238-2.44386,2.06386-2.54734,2.70408.984a2.80513,2.80513,0,0,0,2.62046-.38047,17.57808,17.57808,0,0,1,4.14944-2.24884,2.80923,2.80923,0,0,0,1.74965-1.99l.65015-2.806,3.26021-.34244,1.21809,2.60876a2.76,2.76,0,0,0,.72764.95266,2.82363,2.82363,0,0,0,1.39858.63362,17.56766,17.56766,0,0,1,4.52366,1.34058,2.809,2.809,0,0,0,2.64361-.17222l2.43948-1.52155,2.54769,2.06456-.98278,2.7016a2.80819,2.80819,0,0,0,.37941,2.62176,17.577,17.577,0,0,1,2.25049,4.15145,2.83852,2.83852,0,0,0,.82072,1.16127,2.79539,2.79539,0,0,0,1.17131.58719l2.80331.64992.34067,3.26092Z"/><path class="c" d="M114.9209,69.17211a1.41318,1.41318,0,0,0-1.36016-2.47756l-1.0763.59055a11.97613,11.97613,0,0,0-19.75115-9.17655A1.41311,1.41311,0,1,0,94.566,60.26a9.15467,9.15467,0,0,1,15.08908,6.55976l-.94308-.9211a1.41334,1.41334,0,0,0-1.97516,2.02209l3.01531,2.945c.00889.00873.01943.01435.02854.0228a1.405,1.405,0,0,0,.15021.11925c.022.01544.04279.03306.06548.04709a1.42084,1.42084,0,0,0,.2175.11l.01779.00895.00775.00177c.01932.00732.04026.00953.06.01611.03072.01013.06108.02147.09274.02971.0146.00382.02922.00349.04391.00678a1.41133,1.41133,0,0,0,.15107.02617c.02265.00245.04453.006.06718.00733.02893.00191.057-.0001.08572.00005a1.39679,1.39679,0,0,0,.15041-.00721c.03686-.0038.073-.0081.10907-.01479.02263-.00421.04424-.00984.06662-.01516.03326-.00788.066-.01565.09879-.02605a1.40429,1.40429,0,0,0,.20587-.08475l.01894-.00777c.00861-.00456.01815-.00628.02673-.01107l.00332-.00131.03333-.01831.0145-.0079Z"/><path class="c" d="M108.8626,74.29746a1.41261,1.41261,0,0,0-1.99188-.159,9.155,9.155,0,0,1-15.0892-6.56l.94275.92075a1.41334,1.41334,0,0,0,1.97516-2.02209l-3.01482-2.94446c-.01684-.01639-.0366-.02756-.05391-.043a1.398,1.398,0,0,0-.11952-.09505c-.03551-.02512-.0715-.0484-.10873-.06991a1.41587,1.41587,0,0,0-.12611-.06447c-.04113-.0184-.08219-.03521-.12453-.04958-.03331-.01127-.06627-.02257-.10038-.03145l-.00729-.00267c-.00923-.00231-.01857-.002-.02783-.00418-.042-.00975-.08377-.018-.12636-.0238-.03541-.00494-.07045-.00965-.1063-.012-.01906-.00127-.03791-.00133-.057-.0017-.03551-.00085-.07047.00065-.10592.00252-.03474.00181-.06909.0032-.10392.00756-.02411.00308-.04761.00694-.07139.01119-.033.006-.06508.015-.09768.02319-.03068.00789-.06124.014-.0916.024-.02659.00865-.05236.01838-.07842.02858-.02979.01171-.05806.0268-.0871.04066l-.02328.01085c-.01648.00838-.034.01252-.0504.02148l-.02673.01458-.025.01377-3.44951,1.893a1.41326,1.41326,0,0,0,1.36022,2.4777l1.076-.59057a11.97659,11.97659,0,0,0,19.75152,9.17647A1.41332,1.41332,0,0,0,108.8626,74.29746Z"/><path class="a" d="M13.71294,36.15573a5.68906,5.68906,0,0,1-.75419-.03591c-.58989-.07812-.94-.39865-.93735-.85565.00269-.46059.35734-.77843.949-.84936a6.41066,6.41066,0,0,1,.77843-.03681l.60784.00359h8.85994q.6249.86731,1.151,1.77324Z"/><path class="a" d="M129.64668,133.3176H6.35332A3.35332,3.35332,0,0,1,3,129.96428V21.94637a3.35332,3.35332,0,0,1,3.35332-3.35332H18.5552a22.63025,22.63025,0,0,0-.04092,3.11259H8.43369a2.41951,2.41951,0,0,0-2.41951,2.41951v104.065a2.41951,2.41951,0,0,0,2.41951,2.41951H127.56631a2.41951,2.41951,0,0,0,2.41951-2.41951V24.12958a2.41951,2.41951,0,0,0-2.41951-2.41952H87.33177V34.36721l35.01577-.00114a5.56932,5.56932,0,0,1,.74636.0376c.45777.06192.94318.324.93654.87572-.00553.4633-.37041.78285-.97524.85693a5.98517,5.98517,0,0,1-.732.03317l-64.40679-.0011a17.55135,17.55135,0,0,1,1.22071-1.80121H84.8229V21.70564H63.81763c.04644-.6192.07077-1.19528.0763-1.76693,0,0-.06856-1.01284-.0973-1.34566h65.85005A3.35332,3.35332,0,0,1,133,21.94637V129.96428A3.35332,3.35332,0,0,1,129.64668,133.3176Z"/><path class="d" d="M58.97365,20.23124A17.47354,17.47354,0,0,1,55.33829,31.2203a21.99851,21.99851,0,0,0-4.3273,9.3894,1.668,1.668,0,0,1-1.91439,1.5019,1.69017,1.69017,0,0,1-1.288-2.19949,25.355,25.355,0,0,1,4.8925-10.65961,14.48359,14.48359,0,1,0-23.06717-.02687A26.30236,26.30236,0,0,1,34.526,39.8984a1.68542,1.68542,0,0,1-1.26282,2.20941,1.66468,1.66468,0,0,1-1.92882-1.48209A23.90481,23.90481,0,0,0,26.97442,31.153,17.77134,17.77134,0,1,1,58.82325,18.3972C58.90365,19.119,58.94263,19.84548,58.97365,20.23124Z"/><path class="d" d="M41.25105,49.14c2.57162,0,5.14325-.004,7.71486.00162a2.09927,2.09927,0,1,1,.10421,4.18284q-7.87056.03166-15.74133.0023a2.07552,2.07552,0,0,1-2.14474-1.47787,1.97873,1.97873,0,0,1,.80574-2.3221,2.921,2.921,0,0,1,1.39077-.37026C36.00368,49.12216,38.62749,49.14,41.25105,49.14Z"/><path class="d" d="M45.82072,54.77135A2.12563,2.12563,0,0,1,48.2,56.87465a2.15487,2.15487,0,0,1-2.40307,2.09314c-5.14391.004-4.09692.00484-9.24082-.00057a2.11632,2.11632,0,1,1,.02377-4.19614C39.15184,54.76667,43.24877,54.76618,45.82072,54.77135Z"/><path class="d" d="M41.19741,47.668c-2.67529,0-5.35073.01678-8.02578-.00807a2.07526,2.07526,0,0,1-.84751-3.97447,2.88089,2.88089,0,0,1,1.05978-.18961q7.7921-.01746,15.58425-.00384a2.10326,2.10326,0,1,1-.05653,4.17691c-2.57138.00859-5.14281.00241-7.71421.00241Z"/><path class="d" d="M41.21227,24.968c-.23857-.0497-.47715-.08946-.71573-.15905a.69467.69467,0,0,1-.497-.507,7.416,7.416,0,0,1-.23857-1.03382c-.169-1.06365-.30816-2.13723-.46721-3.21082l-.47715-3.39969c-.15905-1.10341-.3181-2.21676-.47715-3.32017a2.26352,2.26352,0,0,1,.22864-1.30222,2.83418,2.83418,0,0,1,2.36586-1.66008,2.783,2.783,0,0,1,2.95236,1.81913,2.86905,2.86905,0,0,1,.12923,1.39169c-.14911,1.03382-.27833,2.06765-.42744,3.09153-.14911,1.09347-.29822,2.18694-.44733,3.29035-.11929.90459-.24852,1.80919-.36781,2.71378a5.7,5.7,0,0,1-.3181,1.41157,1.133,1.133,0,0,1-.86483.80519c-.12923.01988-.25846.02982-.38768.03976C41.22221,24.94815,41.21227,24.95809,41.21227,24.968Z"/><path class="d" d="M41.252,27.52277a2.82018,2.82018,0,0,1,2.8132,2.88278A2.8735,2.8735,0,0,1,41.262,33.27839a2.95,2.95,0,0,1-2.95236-2.87284A2.89192,2.89192,0,0,1,41.252,27.52277Z"/><rect class="b" x="14.77124" y="95.42751" width="58.55436" height="25.53671" rx="2.51152"/><path class="e" d="M56.82448,108.17c-.82052-.80915-1.617-1.58833-2.40639-2.37458q-1.64139-1.6348-3.27407-3.27837a1.521,1.521,0,1,1,2.13968-2.1515q3.33528,3.33078,6.6634,6.66871a1.52371,1.52371,0,0,1-.00307,2.32913q-3.33891,3.35-6.68462,6.69328a1.52054,1.52054,0,1,1-2.13342-2.1622q2.70648-2.70821,5.41075-5.4186C56.61917,108.39328,56.69686,108.306,56.82448,108.17Z"/><path class="e" d="M31.2347,108.18706c.72557.71179,1.39469,1.36,2.05461,2.01737q1.8576,1.85055,3.70562,3.71069a1.52016,1.52016,0,1,1-2.15425,2.14257q-3.35627-3.355-6.70784-6.71473a1.50405,1.50405,0,0,1-.02459-2.25773q3.38892-3.41326,6.79837-6.80612a1.5008,1.5008,0,0,1,2.14064.02245,1.517,1.517,0,0,1-.047,2.16725q-2.14462,2.1549-4.29677,4.3023C32.241,107.2321,31.76353,107.67814,31.2347,108.18706Z"/><path class="e" d="M38.7516,114.99206c.11383-.30783.20486-.62648.345-.92182q2.08872-4.40135,4.19133-8.79611,1.07975-2.264,2.15878-4.52829a1.51465,1.51465,0,1,1,2.74392,1.28214c-1.0371,2.201-2.08662,4.39619-3.13232,6.59317-1.08717,2.28409-2.18015,4.56545-3.26015,6.85293a1.62915,1.62915,0,0,1-1.20845,1.04483A1.57668,1.57668,0,0,1,38.7516,114.99206Z"/><path class="a" d="M19.37744,92.64905a.39084.39084,0,0,1-.39056-.39056V89.652a.39056.39056,0,0,1,.78112,0v2.60645A.39084.39084,0,0,1,19.37744,92.64905Zm0-5.212a.39084.39084,0,0,1-.39056-.39057V84.44005a.39056.39056,0,0,1,.78112,0v2.60644A.39084.39084,0,0,1,19.37744,87.43706Zm0-5.21289a.39084.39084,0,0,1-.39056-.39057V79.22806a.39056.39056,0,0,1,.78112,0V81.8336A.39084.39084,0,0,1,19.37744,82.22417Zm0-5.212a.39084.39084,0,0,1-.39056-.39057V74.01517a.39056.39056,0,0,1,.78112,0v2.60644A.39084.39084,0,0,1,19.37744,77.01218Zm0-5.212a.39084.39084,0,0,1-.39056-.39056V68.80318a.39056.39056,0,1,1,.78112,0v2.60644A.39084.39084,0,0,1,19.37744,71.80018Zm0-5.21288a.39084.39084,0,0,1-.39056-.39057V63.59119a.39056.39056,0,1,1,.78112,0v2.60554A.39084.39084,0,0,1,19.37744,66.5873Zm0-5.212a.39084.39084,0,0,1-.39056-.39056V58.3783a.39056.39056,0,1,1,.78112,0v2.60644A.39084.39084,0,0,1,19.37744,61.3753Zm0-5.212a.39084.39084,0,0,1-.39056-.39056V53.16631a.39056.39056,0,1,1,.78112,0v2.60644A.39084.39084,0,0,1,19.37744,56.16331Zm0-5.21289a.39084.39084,0,0,1-.39056-.39056V47.95342a.39056.39056,0,1,1,.78112,0v2.60644A.39084.39084,0,0,1,19.37744,50.95042Zm6.59378-4.98034H24.822a.39057.39057,0,0,1,0-.78113h1.14925a.39057.39057,0,0,1,0,.78113Zm-3.75569,0H19.60909a.39057.39057,0,1,1,0-.78113h2.60644a.39057.39057,0,0,1,0,.78113Z"/><path class="a" d="M85.63034,45.97008H83.02479a.39057.39057,0,0,1,0-.78113h2.60555a.39057.39057,0,0,1,0,.78113Zm-5.212,0H77.8119a.39057.39057,0,0,1,0-.78113h2.60645a.39057.39057,0,0,1,0,.78113Zm-5.212,0H72.59991a.39057.39057,0,0,1,0-.78113h2.60644a.39057.39057,0,1,1,0,.78113Zm-5.21289,0H67.38792a.39057.39057,0,0,1,0-.78113h2.60554a.39057.39057,0,1,1,0,.78113Zm-5.212,0H62.175a.39057.39057,0,0,1,0-.78113h2.60644a.39057.39057,0,1,1,0,.78113Zm-5.212,0H56.963a.39057.39057,0,1,1,0-.78113h2.60644a.39057.39057,0,0,1,0,.78113Z"/><path class="a" d="M117.40777,116.94115a.39865.39865,0,0,1-.39056-.53781v-2.40892a.39056.39056,0,1,1,.78112,0v2.55616A.39084.39084,0,0,1,117.40777,116.94115Zm-2.65672,0H112.1446a.39057.39057,0,0,1,0-.78113h2.60645a.39057.39057,0,0,1,0,.78113Zm-5.212,0h-2.60645a.39057.39057,0,0,1,0-.78113h2.60645a.39057.39057,0,0,1,0,.78113Zm-5.21289,0h-2.60555a.39057.39057,0,0,1,0-.78113h2.60555a.39057.39057,0,0,1,0,.78113Zm-5.212,0H96.50773a.39057.39057,0,0,1,0-.78113h2.60645a.39057.39057,0,0,1,0,.78113Zm-5.212,0H91.29574a.39057.39057,0,0,1,0-.78113h2.60644a.39057.39057,0,1,1,0,.78113Zm-5.21288,0H86.08375a.39057.39057,0,0,1,0-.78113H88.6893a.39057.39057,0,0,1,0,.78113Zm-5.212,0H80.87086a.39057.39057,0,0,1,0-.78113H83.4773a.39057.39057,0,1,1,0,.78113Zm-5.212,0H75.65887a.39057.39057,0,0,1,0-.78113h2.60644a.39057.39057,0,1,1,0,.78113Zm39.14246-5.16171a.39084.39084,0,0,1-.39056-.39057v-2.60644a.39056.39056,0,1,1,.78112,0v2.60644A.39084.39084,0,0,1,117.40777,111.77944Zm0-5.21289a.39084.39084,0,0,1-.39056-.39057v-2.60554a.39056.39056,0,1,1,.78112,0V106.176A.39084.39084,0,0,1,117.40777,106.56655Zm0-5.212a.39084.39084,0,0,1-.39056-.39056V98.35755a.39056.39056,0,1,1,.78112,0V100.964A.39084.39084,0,0,1,117.40777,101.35455Zm0-5.212a.39084.39084,0,0,1-.39056-.39056V93.14556a.39056.39056,0,1,1,.78112,0V95.752A.39084.39084,0,0,1,117.40777,96.14256Zm0-5.21289a.39084.39084,0,0,1-.39056-.39056V87.93356a.39056.39056,0,0,1,.78112,0v2.60555A.39084.39084,0,0,1,117.40777,90.92967Z"/></svg>