<svg xmlns="http://www.w3.org/2000/svg" viewBox="0 0 136 136"><defs><style>.a{fill:#fbbc05;}.b{fill:#f58635;}.c,.g{fill:none;}.d{fill:#fff;}.e{fill:#80d8ff;}.f{fill:#4ab4ee;}.g{stroke:#fff;stroke-linecap:round;stroke-linejoin:round;stroke-width:2.83465px;}</style></defs><title>ML-AI-profiling-optimization</title><rect class="a" x="74.87995" y="102.49621" width="17.73237" height="31.94978" rx="8.86618"/><rect class="b" x="12.33172" y="85.92292" width="17.73237" height="48.52307" rx="8.86618"/><rect class="c" x="43.60583" y="70.9937" width="17.73237" height="63.45229" rx="2.64728"/><rect class="c" x="74.87995" y="102.49621" width="17.73237" height="31.94978" rx="2.64728"/><rect class="c" x="105.9359" y="56.88991" width="17.73237" height="77.55607" rx="2.64728"/><rect class="c" x="12.33172" y="85.92292" width="17.73237" height="48.52307" rx="2.64728"/><path class="d" d="M79.32743,31.11118V43.44677a1.3432,1.3432,0,1,1-2.6864,0V31.86114l-4.55435-2.80825a1.34314,1.34314,0,0,1,1.40983-2.28659l5.19264,3.20159A1.343,1.343,0,0,1,79.32743,31.11118Z"/><path class="d" d="M74.61852,46.63109a1.34344,1.34344,0,0,1-2.47446.72589l-3.851-6.00892H59.897a1.3432,1.3432,0,0,1,0-2.6864h9.13061a1.34285,1.34285,0,0,1,1.13095.61854L74.406,45.90766A1.33706,1.33706,0,0,1,74.61852,46.63109Z"/><path class="d" d="M85.26909,25.7353V41.98079a1.3432,1.3432,0,1,1-2.68639,0V25.7353a1.3432,1.3432,0,1,1,2.68639,0Z"/><path class="d" d="M59.994,39.06669a4.32224,4.32224,0,1,1-5.15738-3.281A4.32719,4.32719,0,0,1,59.994,39.06669Zm-6.14794,1.367a1.97584,1.97584,0,1,0,1.49986-2.35753A1.978,1.978,0,0,0,53.84606,40.43366Z"/><path class="d" d="M88.14524,20.8715a4.32224,4.32224,0,1,1-5.15738-3.281A4.32719,4.32719,0,0,1,88.14524,20.8715Zm-6.14794,1.367a1.97584,1.97584,0,1,0,1.49986-2.35754A1.978,1.978,0,0,0,81.9973,22.23848Z"/><path class="d" d="M73.21524,25.6281a4.32224,4.32224,0,1,1-5.15738-3.281A4.32718,4.32718,0,0,1,73.21524,25.6281Zm-6.14794,1.367a1.97584,1.97584,0,1,0,1.49986-2.35754A1.978,1.978,0,0,0,67.0673,26.99508Z"/><path class="d" d="M96.22046,27.90836a1.342,1.342,0,0,1-.6386,1.14453l-4.55435,2.80825V43.44677a1.3432,1.3432,0,1,1-2.6864,0V31.11118a1.343,1.343,0,0,1,.63829-1.14329L94.172,26.7663a1.3437,1.3437,0,0,1,2.04843,1.14206Z"/><path class="d" d="M108.88089,40.00486a1.34306,1.34306,0,0,1-1.3432,1.3432H99.14162l-4.0151,6.26559a1.3432,1.3432,0,0,1-2.2619-1.44932l4.41151-6.88413a1.3436,1.3436,0,0,1,1.131-.61854h9.1306A1.34306,1.34306,0,0,1,108.88089,40.00486Z"/><path class="d" d="M112.55846,35.7857a4.32216,4.32216,0,1,1-5.15738,3.281A4.32707,4.32707,0,0,1,112.55846,35.7857Zm-.5093,2.29043a1.9758,1.9758,0,1,0,1.49986,2.35753A1.97806,1.97806,0,0,0,112.04916,38.07613Z"/><path class="d" d="M84.7205,50.18321a4.62363,4.62363,0,1,1-5.51711,3.50984A4.62888,4.62888,0,0,1,84.7205,50.18321Z"/><path class="d" d="M99.2083,22.00768a4.32216,4.32216,0,1,1-5.15738,3.281A4.32706,4.32706,0,0,1,99.2083,22.00768Zm-.5093,2.29043a1.9758,1.9758,0,1,0,1.49986,2.35753A1.97806,1.97806,0,0,0,98.699,24.29811Z"/><path class="e" d="M54.64549,79.06778a6.00013,6.00013,0,0,1-.67284-6.47465l.63358-1.33a8.85806,8.85806,0,0,0-2.13416-.26946H52.472a8.86619,8.86619,0,0,0-8.86617,8.86617v45.72A8.86616,8.86616,0,0,0,52.472,134.446h.00006a8.8662,8.8662,0,0,0,8.86618-8.86617V85.86722c-.08808-.06584-.1852-.1173-.26982-.18807A42.72186,42.72186,0,0,1,54.64549,79.06778Z"/><path class="f" d="M120.13177,58.68266l.09312,1.27765a3.64664,3.64664,0,0,1-.17023,1.3956c-.35466,1.08595-1.294,3.969-4.04961,4.92348l-3.359,1.17684a.91273.91273,0,0,0-.55964,1.1617l.17463.50084a.91161.91161,0,0,0,.05082.11719l1.30025,2.52614a6.193,6.193,0,0,1-.5026,6.86182,36.9863,36.9863,0,0,1-6.87655,6.96656c-.09536.07423-.1991.128-.297.19623V125.5798a8.86617,8.86617,0,1,0,17.73234,0V65.75608A8.84284,8.84284,0,0,0,120.13177,58.68266Z"/><path class="d" d="M82.20158,88.69546c-1.63715,0-2.54529-.01783-2.6959-.03431-.483-.06417-1.1755-.29054-1.53911-1.50213l-1.71112-5.45195a.72879.72879,0,0,0-.37341-.43536c-1.45623-.72143-2.55063-1.17371-3.60849-1.6113l-.22191-.09179a.73306.73306,0,0,0-.59266.01515c-1.76726.84085-3.30191,1.663-4.78666,2.45795l-.85289.45629c-.0606.01337-.79228.20142-.93041.22414a1.71165,1.71165,0,0,1-1.00974-.40327,38.564,38.564,0,0,1-5.79462-5.96395,1.61975,1.61975,0,0,1-.16933-1.855l2.66292-5.58875a.73354.73354,0,0,0,.04011-.52359,29.88178,29.88178,0,0,0-1.05252-2.92493l-.065-.16a.72811.72811,0,0,0-.40016-.40148l-2.4018-.983-3.61205-1.184a2.35331,2.35331,0,0,1-1.15857-1.14431,1.92709,1.92709,0,0,1-.26469-.97765c-.01426-1.39608-.04189-4.56654-.0098-6.35876l2.24584-.3137a38.75733,38.75733,0,0,1,.31192,4.21273c.02852.74594.05436,1.42236.09981,1.95174a.73012.73012,0,0,0,.57929.65281l2.68609.55745,2.02928.6684a3.87643,3.87643,0,0,1,2.40269,2.18747l.76911,1.8488c.96785,2.17856.614,3.39149.26469,4.11559L61.0595,74.28243a.727.727,0,0,0,.00446.63855,15.6558,15.6558,0,0,0,3.93111,4.74835.72989.72989,0,0,0,.87784.05971l3.87674-2.5337a3.69222,3.69222,0,0,1,1.82073-.479,4.08376,4.08376,0,0,1,1.56051.32974c1.36.55255,2.25118.91171,3.19586,1.24947a3.96306,3.96306,0,0,1,2.38754,2.14692l1.73429,4.997a.73025.73025,0,0,0,.68979.49016c.27,0,.75218.00535,1.33324.01114.88764.00891,2.00433.0205,2.95079.0205.9215,0,1.51861-.0107,1.82608-.03342a.73016.73016,0,0,0,.65325-.54542l1.21561-4.70289a3.90233,3.90233,0,0,1,2.63083-2.58539c.0713-.02139.2745-.09536.557-.20052A17.66158,17.66158,0,0,1,95.58749,76.858a6.11244,6.11244,0,0,1,2.687.82615l3.89457,1.8693a.72953.72953,0,0,0,.86447-.17735c.38144-.43491.80476-.89611,1.24858-1.37914.87606-.95359,1.86886-2.03462,2.75472-3.16066a.73187.73187,0,0,0,.02852-.86447L105.76328,72.074l-1.14431-2.2289a4.05962,4.05962,0,0,1-.06506-3.58354,21.674,21.674,0,0,0,.81367-2.0266,4.13809,4.13809,0,0,1,2.67718-2.71016l5.01571-1.76681a.73025.73025,0,0,0,.4866-.7348l-.303-4.75993,2.15137-.30925.44917,6.17917c-.40283,1.19244-.81991,1.8497-1.27443,2.007L108.928,64.11734a.72693.72693,0,0,0-.40194.34445c-.401.7495-.66038,1.286-.87872,1.73963-.164.33955-.30391.63053-.46789.93221a.72887.72887,0,0,0-.04723.58953l1.09975,3.14239a.61108.61108,0,0,0,.0401.09313l1.44465,2.8073a1.86653,1.86653,0,0,1-.1016,2.216,32.65433,32.65433,0,0,1-6.06733,6.14754,1.76534,1.76534,0,0,1-1.08816.41441c-.041-.01381-.713-.172-.86715-.22013l-4.56475-2.19147a3.39731,3.39731,0,0,0-1.43573-.5276,5.95475,5.95475,0,0,0-1.76727.61716c-.50442.20632-1.07657.43981-1.27086.49819a.72926.72926,0,0,0-.47233.4407l-1.794,4.74344-.48571,1.45668a1.62948,1.62948,0,0,1-1.36,1.21293C87.9757,88.64154,85.2299,88.69546,82.20158,88.69546Z"/><path class="d" d="M97.07222,51.85589a13.6809,13.6809,0,1,1-16.32433-10.3851A13.69658,13.69658,0,0,1,97.07222,51.85589ZM74.25849,56.92845a9.69,9.69,0,1,0,7.35564-11.56189A9.70052,9.70052,0,0,0,74.25849,56.92845Z"/><polyline class="g" points="21.198 115.746 52.291 89.077 83.746 122.534 114.836 88.695"/></svg>