<svg xmlns="http://www.w3.org/2000/svg" viewBox="0 0 130 130"><defs><style>.a{fill:#80d8ff;}.b{fill:#4ab4ee;}.c{fill:#fbbc05;}.d{fill:#f58635;}.e{fill:none;stroke:#fff;stroke-linecap:round;stroke-linejoin:round;stroke-width:2.83465px;}.f{fill:#fff;}</style></defs><title>ML-AI-optimization-profiling-14.11.22-01</title><path class="a" d="M51.10964,70.87055a6.24081,6.24081,0,0,1-.69983-6.73438l.65894-1.38336A9.18933,9.18933,0,0,0,39.627,71.69446v47.55445a9.22192,9.22192,0,0,0,18.44384,0V77.94282c-.09155-.06843-.19256-.12195-.28057-.19556A44.43327,44.43327,0,0,1,51.10964,70.87055Z"/><path class="b" d="M119.22353,49.66755l.09687,1.32885a3.79344,3.79344,0,0,1-.17707,1.45166c-.369,1.12952-1.34594,4.12824-4.21216,5.121l-3.49371,1.22406a.94936.94936,0,0,0-.58215,1.20825l.1817.521a.95138.95138,0,0,0,.05286.12188l1.35241,2.62744a6.44151,6.44151,0,0,1-.52276,7.13721,38.47346,38.47346,0,0,1-7.15247,7.24609c-.09918.07721-.20709.13312-.309.20411v41.38977a9.22193,9.22193,0,0,0,18.44385,0V57.02479A9.19767,9.19767,0,0,0,119.22353,49.66755Z"/><rect class="c" x="72.156" y="95.23906" width="18.44388" height="33.23175" rx="9.22193"/><rect class="d" x="7.09806" y="78.00077" width="18.44388" height="50.47004" rx="9.22193"/><polyline class="e" points="16.32 109.021 48.661 81.281 81.378 116.081 113.716 80.885"/><path class="f" d="M79.77142,80.88456c-1.70284,0-2.64742-.01854-2.80407-.03569-.50242-.06674-1.22267-.30219-1.60087-1.5624L73.5867,73.61576a.758.758,0,0,0-.38839-.45282c-1.51466-.75038-2.653-1.22081-3.75329-1.676l-.23081-.09548a.76241.76241,0,0,0-.61643.01576c-1.83817.87459-3.43441,1.72972-4.97873,2.55657l-.88711.47461c-.063.0139-.82407.20949-.96775.23313a1.78039,1.78039,0,0,1-1.05025-.41945,40.11293,40.11293,0,0,1-6.02713-6.20325,1.68475,1.68475,0,0,1-.17612-1.92948l2.76977-5.813a.763.763,0,0,0,.04172-.54459,31.08316,31.08316,0,0,0-1.09475-3.0423l-.06767-.16639a.75733.75733,0,0,0-.41621-.4176l-2.49817-1.02244-3.757-1.23147a2.44776,2.44776,0,0,1-1.205-1.19023A2.00437,2.00437,0,0,1,48.008,51.6745c-.01483-1.45209-.04357-4.74977-.0102-6.61389l2.336-.32629a40.3098,40.3098,0,0,1,.32443,4.38176c.02967.77587.05655,1.47944.10382,2.03005a.75941.75941,0,0,0,.60253.679l2.79387.57982,2.1107.69522a4.032,4.032,0,0,1,2.4991,2.27524l.8,1.923c1.00669,2.266.63868,3.52756.27531,4.28072l-2.0625,4.3141a.75619.75619,0,0,0,.00464.66417,16.28388,16.28388,0,0,0,4.08884,4.93887.75914.75914,0,0,0,.91306.06211l4.0323-2.63537a3.84044,3.84044,0,0,1,1.89379-.49824,4.24762,4.24762,0,0,1,1.62312.343c1.41454.57472,2.34151.94828,3.32409,1.2996A4.12209,4.12209,0,0,1,76.1442,72.3004l1.80387,5.19749a.75956.75956,0,0,0,.71748.50983c.28087,0,.78235.00557,1.38674.01159.92325.00927,2.08474.02132,3.06918.02132.95848,0,1.57955-.01112,1.89935-.03476a.75943.75943,0,0,0,.67946-.5673l1.26438-4.8916a4.059,4.059,0,0,1,2.7364-2.68912c.07416-.02225.28551-.09919.57936-.20857a18.37008,18.37008,0,0,1,3.414-1.07713,6.3578,6.3578,0,0,1,2.7948.85929l4.05084,1.94431a.7588.7588,0,0,0,.89915-.18446c.39674-.45236.837-.93207,1.29868-1.43448.91121-.99185,1.94385-2.11626,2.86525-3.28748a.76123.76123,0,0,0,.02966-.89916l-1.35429-1.974-1.19023-2.31834a4.22256,4.22256,0,0,1-.06767-3.72733,22.54427,22.54427,0,0,0,.84632-2.10791,4.30414,4.30414,0,0,1,2.78461-2.81891l5.217-1.8377a.75957.75957,0,0,0,.50612-.76429l-.31517-4.95092,2.23769-.32165.46719,6.42711c-.419,1.24028-.8528,1.92391-1.32556,2.08752l-5.86861,2.05648a.756.756,0,0,0-.41806.35827c-.41714.77958-.68688,1.33761-.914,1.80943-.17056.35318-.31609.65583-.48666.96961a.75816.75816,0,0,0-.04913.61319l1.14388,3.26847a.63531.63531,0,0,0,.04171.09687l1.50261,2.91994a1.9414,1.9414,0,0,1-.10567,2.3049,33.9644,33.9644,0,0,1-6.31078,6.39421,1.83624,1.83624,0,0,1-1.13182.431c-.04264-.01436-.74158-.1789-.90194-.229l-4.74791-2.2794a3.53365,3.53365,0,0,0-1.49335-.54877,6.1937,6.1937,0,0,0-1.83817.64193c-.52466.21459-1.11977.45745-1.32185.51817a.75855.75855,0,0,0-.49129.45838l-1.866,4.93378-.5052,1.51512A1.69485,1.69485,0,0,1,86.262,80.758C85.77722,80.82848,82.92124,80.88456,79.77142,80.88456Z"/><path class="f" d="M111.34634,25.85181a4.48616,4.48616,0,0,0-5.22492,2.9914H96.62716a1.39744,1.39744,0,0,0-1.17633.64331L91.477,35.68769a14.32035,14.32035,0,0,0-2.52551-2.05036V21.76978l4.362-2.68964a4.54906,4.54906,0,1,0-1.26294-2.50378L86.82119,19.8006a1.39671,1.39671,0,0,0-.66388,1.18915V32.28193a14.16565,14.16565,0,0,0-3.19531-.75037V15.564a4.49275,4.49275,0,1,0-2.79419.00458v15.9212a13.18016,13.18016,0,0,0-3.38587.69171V20.98975a1.39671,1.39671,0,0,0-.66388-1.18915l-5.401-3.33007a1.38627,1.38627,0,0,0-.20068-.09742,4.44822,4.44822,0,0,0-.09186-1.08648,4.49566,4.49566,0,1,0-3.41284,5.36425,4.45154,4.45154,0,0,0,2.53662-1.61847l4.43945,2.73737V33.49061a14.16747,14.16747,0,0,0-2.771,2.19305L67.2452,29.48652a1.39678,1.39678,0,0,0-1.17633-.64331h-9.497c-.01276,0-.02454.00341-.03723.00378a4.49336,4.49336,0,1,0,.00415,2.787c.01129.00024.02173.00336.03308.00336h8.733l4.0055,6.25c.0205.032.05346.04882.076.07855a14.24523,14.24523,0,1,0,23.9325.0263L97.3912,31.6374H106.117a4.48786,4.48786,0,1,0,5.22937-5.78559ZM94.4786,15.46332a2.05509,2.05509,0,1,1,1.56012,2.45215A2.05746,2.05746,0,0,1,94.4786,15.46332ZM66.482,18.2685a2.05507,2.05507,0,1,1,1.56012-2.45215A2.05739,2.05739,0,0,1,66.482,18.2685ZM52.73025,32.24634a2.05509,2.05509,0,1,1,1.56012-2.45215A2.05739,2.05739,0,0,1,52.73025,32.24634ZM79.55892,11.761a2.05512,2.05512,0,1,1,2.45215,1.56006A2.0574,2.0574,0,0,1,79.55892,11.761Zm3.9765,43.73273a10.07858,10.07858,0,1,1,7.65119-12.02594A10.08975,10.08975,0,0,1,83.53542,55.49372Zm28.84125-24.80744a2.05512,2.05512,0,1,1-1.56006-2.45214A2.05742,2.05742,0,0,1,112.37667,30.68628Z"/><path class="f" d="M82.39138,40.827a4.80916,4.80916,0,1,0,3.6507,5.73834A4.81475,4.81475,0,0,0,82.39138,40.827Z"/></svg>