<svg xmlns="http://www.w3.org/2000/svg" viewBox="0 0 130 130"><defs><style>.a{fill:#fff;}.b{fill:#80d8ff;}.c{fill:#fbbc05;}.d{fill:#f58635;}.e{fill:#f24d4d;}</style></defs><title>ML-metrics-and-KPI-tracking-14.11.22</title><path class="a" d="M62.61642,105.49451c.00452-.05249.01581-.103.01581-.15662V75.31152a1.84229,1.84229,0,1,0-3.68457,0v30.02637c0,.05536.01153.10754.0163.16168-.22443.0362-.44855.06433-.67328.11432a11.54425,11.54425,0,1,0,4.32574-.11938Zm-.43176,17.63232a6.42745,6.42745,0,1,1,4.87945-7.66937A6.43459,6.43459,0,0,1,62.18466,123.12683Z"/><path class="a" d="M108.07193,114.35364a11.52294,11.52294,0,0,0-8.9574-8.7768,1.826,1.826,0,0,0,.02405-.239V93.419a1.84257,1.84257,0,0,0-1.84229-1.84278H85.35489V75.31152a1.84229,1.84229,0,1,0-3.68457,0V93.419a1.84256,1.84256,0,0,0,1.84228,1.84277H95.454v10.07617c0,.02893.00714.05579.00848.08435-.37537.04529-.75189.10791-1.1286.19165a11.51317,11.51317,0,1,0,13.738,8.73975Zm-9.844,8.77319a6.42745,6.42745,0,1,1,4.8794-7.66937A6.43469,6.43469,0,0,1,98.22793,123.12683Z"/><path class="a" d="M38.07705,73.46875a1.84256,1.84256,0,0,0-1.84228,1.84277V91.57617H24.29336A1.84256,1.84256,0,0,0,22.45108,93.419v11.91894c0,.05542.01153.10761.01629.16174-.2243.0362-.4483.06433-.67291.11426a11.54422,11.54422,0,1,0,4.32544-.11944c.00452-.05249.01575-.10291.01575-.15656V95.26172h11.9414A1.84256,1.84256,0,0,0,39.91934,93.419V75.31152A1.84256,1.84256,0,0,0,38.07705,73.46875ZM30.5679,115.45746a6.42758,6.42758,0,1,1-7.66956-4.87909A6.43482,6.43482,0,0,1,30.5679,115.45746Z"/><path class="b" d="M115.81606,89.24127C107.136,82.55854,98.35528,76.0061,89.60566,69.41373a2.6354,2.6354,0,0,0-.80883-.28108c-.69628.75086-1.33752,1.44219-2.07616,2.23818-.91229-.75189-1.64624-1.35695-2.34808-1.93534C96.61594,45.3977,83.79786,23.12174,67.94962,15.05,50.999,6.41666,29.20592,11.58591,18.29976,27.01061a39.27744,39.27744,0,0,0,5.403,51.97782c13.49617,12.32583,36.48134,15.33906,54.61892-1.55138.79122.63715,1.60694,1.294,2.40147,1.93381-.52591,1.01638-.95424,1.844-1.46446,2.83005,9.164,6.86547,18.13309,13.69435,27.23313,20.34434,3.30885,2.418,8.45769,1.33737,10.90415-1.89709A8.01514,8.01514,0,0,0,115.81606,89.24127Z"/><path class="a" d="M54.42586,81.1661a31.42823,31.42823,0,0,1-8.72868-62.24745c17.0086-2.42917,33.06051,9.46583,35.44657,26.26684A31.61459,31.61459,0,0,1,54.42586,81.1661Z"/><rect class="c" x="39.41036" y="36.91111" width="8.2662" height="29.5792" rx="1.35897"/><rect class="d" x="52.36412" y="51.59646" width="8.2662" height="14.89385" rx="1.35897"/><rect class="c" x="65.40129" y="30.33643" width="8.2662" height="36.15389" rx="1.35897"/><rect class="e" x="26.24571" y="43.87058" width="8.2662" height="22.61973" rx="1.35897"/><path class="a" d="M56.62637,59.45166a1.41711,1.41711,0,0,1-1.03271-.44678L43.35537,45.98779,31.36856,56.269a1.4173,1.4173,0,1,1-1.84571-2.15136L42.5375,42.95459a1.4169,1.4169,0,0,1,1.95557.105L56.61465,55.95215,68.5961,42.91162a1.4172,1.4172,0,1,1,2.08691,1.918L57.66983,58.99316a1.41721,1.41721,0,0,1-1.03516.4585Z"/></svg>