<svg xmlns="http://www.w3.org/2000/svg" viewBox="0 0 130 130"><defs><style>.a{fill:#ffc048;}.b{fill:#fff;}.c{fill:#f58635;}</style></defs><title>runsets-14.11.22</title><path class="a" d="M64.25819,5.261V5.249l-.65359-.001h-.06709c-20.32379,0-36.91512,13.9695-36.99969,31.167v.133a27.03708,27.03708,0,0,0,3.16682,12.70634c.10967.21532,10.96327,21.754,12.41586,41.86074-.0338,9.90457,9.43553,18.005,21.12495,18.06313h1.01274v-.66927c11.21614-.19216,20.2213-7.97969,20.17341-17.52971,1.47165-20.6139,12.486-42.39826,12.486-42.39826a26.831,26.831,0,0,0,3.09677-12.49044v-.13118C99.93165,19.13071,83.99772,5.52806,64.25819,5.261Z"/><path class="b" d="M93.3105,37.87238A7.4744,7.4744,0,1,0,80.27888,44.277l-9.254,10.85974a1.41764,1.41764,0,0,0-.33886.91943V91.46484l.00146.01477L64.539,91.51V38.653c.06824-.01319.13623-.01954.20453-.03473a7.48523,7.48523,0,1,0-3.03949.03906V91.524l-6.01953.02972v-23.084a1.415,1.415,0,0,0-.14306-.62012L48.06813,52.48749a7.49531,7.49531,0,1,0-2.499,1.34277L52.84956,68.7959V91.56769l-10.71.05285.07538,15.271a6.96338,6.96338,0,0,0,6.92309,7.00171l28.50379-.14063a6.96318,6.96318,0,0,0,6.853-7.07012l-.075-15.27063-10.899.05377.00006-.0008V56.57813L82.47682,46.068A7.46376,7.46376,0,0,0,93.3105,37.87238Zm-33.52442-5.8086a3.41678,3.41678,0,1,1,4.07685,2.59369A3.42049,3.42049,0,0,1,59.78608,32.06378ZM42.60988,50.03613a3.41672,3.41672,0,1,1,4.07684-2.59369A3.42067,3.42067,0,0,1,42.60988,50.03613ZM86.75581,42.83a3.41672,3.41672,0,1,1,2.59381-4.07691A3.42057,3.42057,0,0,1,86.75581,42.83Z"/><path class="c" d="M122.00557,58.88153c-.03267.09218-.2698,2.57519-.77679,5.274S119.945,69.769,119.65146,70.925A60.98024,60.98024,0,0,1,63.06987,116.6547c-.79838.02931-1.59738.04164-2.39679.04264A56.83375,56.83375,0,0,1,4.2335,67.154a52.6032,52.6032,0,0,1-.02005-14.29013Q4.148,54.90321,4.21506,57c.78734,24.2239,17.07781,44.094,40.54027,49.43817a50.944,50.944,0,0,0,13.14346,1.25523c20.544-.75429,38.75906-14.68536,44.74652-33.65089a40.81526,40.81526,0,0,0,1.2159-7.2574,31.90628,31.90628,0,0,0-.23521-7.22877l-3.94692.14492,12.69218-18.42882,13.89283,17.45272Z"/></svg>