<svg xmlns="http://www.w3.org/2000/svg" viewBox="0 0 136 136"><defs><style>.a{fill:#fff;}.b,.h{fill:none;stroke:#fff;stroke-linecap:round;stroke-linejoin:round;}.b{stroke-width:3.68504px;}.c{fill:#4ab4ee;}.d{fill:#80d8ff;}.e{fill:#f24d4d;}.f{fill:#fbbc05;}.g{fill:#f58635;}.h{stroke-width:2.83465px;}.i{fill:#ffc348;}</style></defs><title>Optimal-performance-infrastructure-cost-for-ML-AI-tasks</title><path class="a" d="M38.66427,120.49521a11.46186,11.46186,0,1,1-13.67652-8.70063A11.475,11.475,0,0,1,38.66427,120.49521Zm-17.43491,3.8766a6.39882,6.39882,0,1,0,4.85734-7.635A6.4058,6.4058,0,0,0,21.22936,124.37181Z"/><path class="a" d="M74.99719,120.49521a11.46185,11.46185,0,1,1-13.67652-8.70063A11.475,11.475,0,0,1,74.99719,120.49521Zm-17.4349,3.8766a6.39882,6.39882,0,1,0,4.85734-7.635A6.4058,6.4058,0,0,0,57.56229,124.37181Z"/><path class="a" d="M110.87918,120.49521a11.46185,11.46185,0,1,1-13.67652-8.70063A11.475,11.475,0,0,1,110.87918,120.49521Zm-17.4349,3.8766a6.39882,6.39882,0,1,0,4.85734-7.635A6.40579,6.40579,0,0,0,93.44428,124.37181Z"/><line class="b" x1="63.80857" y1="111.52003" x2="63.80857" y2="81.62734"/><polyline class="b" points="27.476 111.52 27.476 99.654 41.198 99.654 41.198 81.627"/><polyline class="b" points="100.152 111.52 100.152 99.654 86.43 99.654 86.43 81.627"/><path class="c" d="M118.58871,95.49521c-8.64125-6.65283-17.38266-13.17595-26.09314-19.73883a2.62381,2.62381,0,0,0-.8052-.27981c-.69317.74749-1.33154,1.43573-2.06688,2.22816-.9082-.74853-1.63887-1.35088-2.33757-1.92668C99.47449,51.8478,86.71376,29.6715,70.93643,21.63591,54.06164,13.04116,32.36606,18.18728,21.50869,33.543a39.10172,39.10172,0,0,0,5.37884,51.74528c13.43579,12.27069,36.31812,15.27044,54.37456-1.54444.78768.63431,1.59975,1.28819,2.39072,1.92516-.52355,1.01183-.95,1.83575-1.4579,2.81739,9.123,6.83475,18.052,13.63308,27.11128,20.25332,3.29406,2.4072,8.41986,1.33138,10.85537-1.8886A7.9793,7.9793,0,0,0,118.58871,95.49521Z"/><path class="a" d="M57.47317,87.45618a31.28763,31.28763,0,0,1-8.68963-61.969c16.93251-2.41829,32.9126,9.42349,35.288,26.14934A31.47314,31.47314,0,0,1,57.47317,87.45618Z"/><path class="d" d="M46.63945,43.39918h0a4.1146,4.1146,0,0,1,4.1146,4.1146V68.73144A4.11461,4.11461,0,0,1,46.63946,72.846h0a4.11461,4.11461,0,0,1-4.11461-4.11461V47.51379a4.11461,4.11461,0,0,1,4.11461-4.11461Z"/><rect class="e" x="55.42065" y="58.01883" width="8.22922" height="14.82722" rx="4.11461"/><rect class="f" x="68.39949" y="36.85391" width="8.22922" height="35.99214" rx="4.11461"/><path class="g" d="M33.5337,50.32752h0a4.11461,4.11461,0,0,1,4.11461,4.11461V68.73144A4.11461,4.11461,0,0,1,33.53371,72.846h0a4.1146,4.1146,0,0,1-4.1146-4.1146V54.44212A4.11461,4.11461,0,0,1,33.5337,50.32752Z"/><polyline class="h" points="33.6 61.599 46.557 50.486 59.664 64.428 72.619 50.328"/><path class="i" d="M94.03275,52.49971c-.02215-.0516-.22386-1.455-.59622-2.97512s-.91541-3.15708-1.12181-3.80667C87.69557,31.1406,72.976,20.95932,56.5198,20.95932c-.49118,0-.98235.00964-1.47353.02572C37.39,21.633,23.27655,33.9448,21.48777,50.26026a27.59225,27.59225,0,0,0,.31,8.10548q-.08622-1.15528-.09231-2.34594C21.64278,42.26413,31.20331,30.655,45.49794,27.1353a33.77781,33.77781,0,0,1,8.04693-.98565c12.63908,0,24.14458,7.52209,28.25106,18.15424a21.63556,21.63556,0,0,1,.91076,4.09092,16.72717,16.72717,0,0,1,.01855,4.1049H80.297l8.21371,10.18812,8.142-10.18812Z"/></svg>