<svg xmlns="http://www.w3.org/2000/svg" viewBox="0 0 136 136"><defs><style>.a{fill:#ffc048;}.b{fill:none;stroke:#fff;stroke-linecap:round;stroke-linejoin:round;stroke-width:2.83465px;}.c{fill:#fff;}.d{fill:#f58635;}</style></defs><title>Runsets-to-run-experiments-in-parallel</title><path class="a" d="M67.22126,17.50253v-.01261l-.68613-.00105h-.07044c-21.33564,0-38.753,14.665-38.84178,32.71865v.13967a28.38326,28.38326,0,0,0,3.32448,13.339c.11514.226,11.5091,22.83707,13.034,43.94486-.03548,10.39769,9.90529,18.90143,22.17669,18.96243h1.06317v-.70258c11.77455-.20173,21.22806-8.377,21.17777-18.40246,1.54492-21.6402,13.10763-44.50914,13.10763-44.50914a28.16678,28.16678,0,0,0,3.251-13.1123v-.13771C104.67078,32.06281,87.94355,17.78293,67.22126,17.50253Z"/><line class="b" x1="66.02785" y1="108.12131" x2="66.02785" y2="50.27582"/><path class="c" d="M73.6873,43.15819A7.8465,7.8465,0,1,1,64.3247,37.202,7.85549,7.85549,0,0,1,73.6873,43.15819ZM62.52647,45.63977A3.58689,3.58689,0,1,0,65.24927,41.36,3.59078,3.59078,0,0,0,62.52647,45.63977Z"/><path class="c" d="M97.72,51.73756a7.8465,7.8465,0,1,1-9.3626-5.95623A7.85549,7.85549,0,0,1,97.72,51.73756ZM86.55914,54.21914A3.58689,3.58689,0,1,0,89.282,49.93932,3.59079,3.59079,0,0,0,86.55914,54.21914Z"/><polyline class="b" points="75.457 107.999 75.457 70.827 85.853 58.628"/><path class="c" d="M46.97673,53.34629a7.84636,7.84636,0,1,1-9.3626,5.95623A7.85526,7.85526,0,0,1,46.97673,53.34629Zm-.92457,4.158a3.58681,3.58681,0,1,0,2.7228,4.27981A3.59093,3.59093,0,0,0,46.05216,57.50428Z"/><polyline class="b" points="56.733 109.121 56.733 83.858 47.853 65.604"/><path class="c" d="M81.27121,131.39564l-29.92287.14765a7.31008,7.31008,0,0,1-7.26779-7.35029l-.07912-16.03131,44.38533-.21907.07871,16.03088A7.30988,7.30988,0,0,1,81.27121,131.39564Z"/><path class="d" d="M127.8437,73.7927c-.0343.09678-.28323,2.70341-.81546,5.53658s-1.34775,5.8929-1.65586,7.10654a64.01625,64.01625,0,0,1-59.39861,48.0064c-.83812.03077-1.6769.04371-2.51611.04476A59.66331,59.66331,0,0,1,4.20813,82.47708a55.22226,55.22226,0,0,1-.021-15.0016q-.06872,2.14083.00169,4.342c.82654,25.42993,17.92806,46.28925,42.55865,51.89954a53.48013,53.48013,0,0,0,13.79782,1.31773c21.56677-.79185,40.68875-15.41651,46.97431-35.32627a42.848,42.848,0,0,0,1.27644-7.61872,33.49625,33.49625,0,0,0-.24692-7.58867l-4.14343.15213,13.32408-19.34632,14.58452,18.32163Z"/></svg>