<svg xmlns="http://www.w3.org/2000/svg" viewBox="0 0 113.772 126.94"><defs><style>.a{fill:#ffc048}.b{opacity:.3}.c,.e{fill:#004c74}.c{opacity:.5}.c,.l,.q,.r{isolation:isolate}.k,.l,.q,.r{opacity:.35}.h{fill:#f24d4d}.i{opacity:.55}.j{fill:#e83d3d}.l{fill:#f49f22}.q{fill:#ffb248}.r,.s{fill:#f4ad3b}.u{opacity:.15}.v{fill:#1291c9}.x{fill:#fff}</style></defs><rect class="a" x="76.023" y="87.428" width="36.851" height="36.851" rx="3.11"/><g class="b"><path class="c" d="M96.938 100.904a1.153 1.153 0 0 1-1.086.76h-7.728a1.151 1.151 0 0 1-1.153-1.149V88.327a1.154 1.154 0 0 1 1.153-1.152h1.62a1.077 1.077 0 0 0-.072.392v12.188a1.151 1.151 0 0 0 1.153 1.149Z"/></g><path d="M124.063 127.311a2.96 2.96 0 0 1-2.78 1.944H90.35a2.957 2.957 0 0 1-2.958-2.956V95.363a2.957 2.957 0 0 1 1.84-2.739 3.014 3.014 0 0 0-.234 1.173v30.728a3.062 3.062 0 0 0 3.06 3.063h30.728a3.097 3.097 0 0 0 1.278-.277Z" transform="translate(-11.366 -4.976)" style="fill:#eda52f"/><path class="e" d="M109.916 125.177H78.982a3.86 3.86 0 0 1-3.856-3.856V90.386a3.86 3.86 0 0 1 3.856-3.856h30.934a3.86 3.86 0 0 1 3.856 3.856v30.935a3.86 3.86 0 0 1-3.856 3.856ZM78.982 88.326a2.063 2.063 0 0 0-2.061 2.06v30.935a2.063 2.063 0 0 0 2.06 2.06h30.935a2.063 2.063 0 0 0 2.06-2.06V90.386a2.063 2.063 0 0 0-2.06-2.06Z"/><path d="M93.7 97.75h24.112a1.085 1.085 0 0 1 1.085 1.084v24.113a1.085 1.085 0 0 1-1.085 1.084H93.7a1.084 1.084 0 0 1-1.085-1.084V98.834a1.084 1.084 0 0 1 1.085-1.085Z" transform="translate(-11.366 -4.976)" style="opacity:.35;fill:#ffc76e;isolation:isolate"/><path d="M117.696 123.723v.31a1.226 1.226 0 0 1-1.223 1.229H92.644a1.228 1.228 0 0 1-1.228-1.227V100.21a1.228 1.228 0 0 1 1.227-1.229h.26v23.514a1.228 1.228 0 0 0 1.227 1.228Z" transform="translate(-11.366 -4.976)" style="fill:#ed8d2f" class="b"/><path class="e" d="M106.303 119.953H82.477a2.129 2.129 0 0 1-2.126-2.126V94a2.129 2.129 0 0 1 2.126-2.126h23.826a2.129 2.129 0 0 1 2.126 2.126v23.826a2.129 2.129 0 0 1-2.126 2.126ZM82.477 93.671a.331.331 0 0 0-.33.33v23.826a.331.331 0 0 0 .33.33h23.826a.331.331 0 0 0 .33-.33V94a.331.331 0 0 0-.33-.33Z"/><g class="b"><path class="c" d="M98.823 102.725A6.424 6.424 0 1 1 87.1 99.097V92.66h1.572v4.834a6.423 6.423 0 0 1 10.152 5.23Z"/></g><path class="h" d="M90.515 86.414h7.732a1.15 1.15 0 0 1 1.15 1.15v12.19a1.15 1.15 0 0 1-1.15 1.15h-7.732a1.153 1.153 0 0 1-1.153-1.153V87.567a1.153 1.153 0 0 1 1.153-1.153Z"/><g class="i"><path class="j" d="M99.228 87.834v12.188a1.151 1.151 0 0 1-1.153 1.15h-.24v-12.85a.405.405 0 0 0-.404-.407h-8.238v-.08a1.154 1.154 0 0 1 1.153-1.153h7.729a1.154 1.154 0 0 1 1.153 1.152Z"/></g><path class="j" d="M99.397 93.514v6.24a1.151 1.151 0 0 1-1.153 1.15h-7.729a1.151 1.151 0 0 1-1.153-1.15V88.048l.27-.112q2.237 7.785 9.765 5.579Z"/><path class="e" d="M98.245 101.803h-7.73a2.052 2.052 0 0 1-2.05-2.049V87.565a2.052 2.052 0 0 1 2.05-2.049h7.73a2.052 2.052 0 0 1 2.05 2.05v12.188a2.052 2.052 0 0 1-2.05 2.05Zm-7.73-14.491a.254.254 0 0 0-.254.253v12.19a.254.254 0 0 0 .254.253h7.73a.254.254 0 0 0 .254-.254V87.565a.254.254 0 0 0-.254-.253Z"/><circle class="a" cx="94.395" cy="101.966" r="6.424"/><g class="k"><circle class="l" cx="94.395" cy="101.966" r="3.368"/></g><path class="e" d="M94.395 109.287a7.321 7.321 0 1 1 7.32-7.322 7.33 7.33 0 0 1-7.32 7.322Zm0-12.847a5.526 5.526 0 1 0 5.526 5.525 5.526 5.526 0 0 0-5.526-5.525Z"/><rect class="e" x="92.591" y="100.332" width="1.252" height="3.72" rx=".577"/><rect class="e" x="94.957" y="100.332" width="1.252" height="3.72" rx=".577"/><path d="M14.951 92.404h31.477a2.687 2.687 0 0 1 2.687 2.688v31.476a2.687 2.687 0 0 1-2.687 2.687H14.95a2.687 2.687 0 0 1-2.687-2.687V95.092a2.687 2.687 0 0 1 2.687-2.688Z" transform="translate(-11.366 -4.976)" style="fill:#39bb4a"/><path d="M48.937 127.311a2.96 2.96 0 0 1-2.779 1.944H15.224a2.958 2.958 0 0 1-2.958-2.958V95.363a2.957 2.957 0 0 1 1.839-2.739 3.014 3.014 0 0 0-.234 1.173v32.497a1.294 1.294 0 0 0 1.294 1.294H47.66a3.097 3.097 0 0 0 1.278-.277Z" transform="translate(-11.366 -4.976)" style="fill:#2aad36"/><path class="e" d="M34.79 125.177H3.857A3.86 3.86 0 0 1 0 121.32V90.386a3.86 3.86 0 0 1 3.856-3.856h30.935a3.86 3.86 0 0 1 3.855 3.856v30.935a3.86 3.86 0 0 1-3.855 3.856ZM3.857 88.326a2.063 2.063 0 0 0-2.06 2.06v30.935a2.063 2.063 0 0 0 2.06 2.06h30.935a2.063 2.063 0 0 0 2.06-2.06V90.386a2.063 2.063 0 0 0-2.06-2.06Z"/><path d="M19.36 97.75H41.9a1.87 1.87 0 0 1 1.87 1.87v22.541a1.87 1.87 0 0 1-1.87 1.87H19.36a1.87 1.87 0 0 1-1.87-1.87V99.62a1.87 1.87 0 0 1 1.87-1.87Z" transform="translate(-11.366 -4.976)" style="fill:#3c6"/><path d="M42.57 123.723v.31a1.228 1.228 0 0 1-1.227 1.229H18.095a1.804 1.804 0 0 1-1.804-1.804V100.21a1.228 1.228 0 0 1 1.228-1.229h.258v23.514a1.228 1.228 0 0 0 1.228 1.228Z" transform="translate(-11.366 -4.976)" style="fill:#2a9136" class="b"/><path class="e" d="M31.507 119.953H7.021a1.795 1.795 0 0 1-1.795-1.795V93.67a1.796 1.796 0 0 1 1.795-1.796h24.487a1.795 1.795 0 0 1 1.795 1.795v24.487a1.796 1.796 0 0 1-1.796 1.796Zm0-26.282H7.022v24.486h24.487Z"/><g class="b"><path class="c" d="M23.406 102.726a6.424 6.424 0 1 1-11.853-3.43v-10.97a1.154 1.154 0 0 1 1.152-1.152h1.62a1.095 1.095 0 0 0-.069.391v9.34a6.43 6.43 0 0 1 9.15 5.82Z"/></g><path class="h" d="M15.047 86.414h7.732a1.15 1.15 0 0 1 1.15 1.15V99.75a1.153 1.153 0 0 1-1.154 1.153h-7.728a1.153 1.153 0 0 1-1.153-1.153V87.567a1.153 1.153 0 0 1 1.153-1.153Z"/><g class="i"><path class="j" d="M23.76 87.834v12.188a1.151 1.151 0 0 1-1.154 1.15h-.24v-12.85a.405.405 0 0 0-.403-.407h-8.238v-.08a1.154 1.154 0 0 1 1.153-1.153h7.728a1.154 1.154 0 0 1 1.153 1.152Z"/></g><path class="j" d="M23.928 93.514v6.24a1.151 1.151 0 0 1-1.153 1.15h-7.728a1.151 1.151 0 0 1-1.153-1.15V88.048l.27-.112q2.237 7.785 9.764 5.579Z"/><path class="e" d="M22.777 101.803h-7.73a2.052 2.052 0 0 1-2.05-2.049V87.565a2.052 2.052 0 0 1 2.05-2.049h7.73a2.052 2.052 0 0 1 2.049 2.05v12.188a2.052 2.052 0 0 1-2.05 2.05Zm-7.73-14.491a.254.254 0 0 0-.254.253v12.19a.254.254 0 0 0 .254.253h7.73a.254.254 0 0 0 .254-.254V87.565a.254.254 0 0 0-.254-.253Z"/><circle class="a" cx="18.927" cy="101.966" r="6.424"/><circle class="l" cx="18.927" cy="101.966" r="3.368"/><path class="e" d="M18.926 109.287a7.321 7.321 0 1 1 7.322-7.322 7.33 7.33 0 0 1-7.322 7.322Zm0-12.847a5.526 5.526 0 1 0 5.526 5.525 5.526 5.526 0 0 0-5.526-5.525Z"/><rect class="e" x="16.599" y="100.543" width="1.044" height="3.103" rx=".481"/><path class="e" d="M18.876 100.543h.082a.481.481 0 0 1 .481.481v2.14a.481.481 0 0 1-.481.482h-.082a.481.481 0 0 1-.481-.482v-2.14a.481.481 0 0 1 .481-.48ZM20.704 100.543h.082a.481.481 0 0 1 .481.481v2.14a.481.481 0 0 1-.481.482h-.082a.481.481 0 0 1-.481-.482v-2.14a.481.481 0 0 1 .481-.48Z"/><path class="a" d="m86.808 29.301-.51.058c-3.515.424-5.673 1.206-6.851 2.574a3.274 3.274 0 0 1 1.11 3.1v.003a3.292 3.292 0 1 1-6.48-1.176q.03-.159.073-.314h-.003a8.995 8.995 0 0 1 5.336-6.887h.003a20.517 20.517 0 0 1 6.532-1.606.726.726 0 0 0 .097-.01l.108-.011a6.284 6.284 0 0 0-1.817-12.435 6.147 6.147 0 0 0-.514.093l.008.036c.01.079.014.154.021.233v.011a3.242 3.242 0 0 1-.14 1.21 3.29 3.29 0 1 1-5.217-3.533v-.004a10.073 10.073 0 0 1 1.289-.912l.003-.003A10.594 10.594 0 1 1 86.808 29.3Z"/><path class="q" d="M88.36 24.303a6.281 6.281 0 0 0-2.812-11.764 3.048 3.048 0 0 0-.032-.441l-.008-.036c.17-.04.341-.068.514-.094a6.283 6.283 0 0 1 2.337 12.335Z"/><path class="r" d="M83.921 12.96s-.054.51-.14 1.22a3.29 3.29 0 1 1-5.217-3.533v-.004a10.074 10.074 0 0 1 1.289-.912 2.608 2.608 0 1 0 4.068 3.228ZM80.557 35.032v.004a3.293 3.293 0 0 1-6.48-1.176q.03-.159.073-.314h-.003a8.995 8.995 0 0 1 5.336-6.888h.003c-3.723 3.591-2.987 11.585 1.07 8.374Z"/><path class="e" d="M77.315 38.633a4.197 4.197 0 0 1-4.145-3.595 4.148 4.148 0 0 1 .093-1.655c1.399-7.99 9.577-8.885 12.656-9.222a.924.924 0 0 1 .063-.004l.144-.018A5.387 5.387 0 0 0 84.82 13.45 4.188 4.188 0 1 1 77.937 10a.747.747 0 0 1 .055-.05 11.489 11.489 0 0 1 18.683 7.23 11.501 11.501 0 0 1-9.738 13.009l-.536.062c-2.74.33-4.583.885-5.694 1.727a4.193 4.193 0 0 1-3.392 6.655Zm-2.272-5.006a.88.88 0 0 1-.03.163 2.371 2.371 0 0 0-.066.993 2.395 2.395 0 0 0 4.742-.68v-.002a2.367 2.367 0 0 0-.82-1.48.898.898 0 0 1-.11-1.265l.006-.007c1.319-1.534 3.609-2.422 7.426-2.881l.515-.06a9.696 9.696 0 1 0-7.515-17.119.842.842 0 0 1-.062.055 2.393 2.393 0 1 0 3.882 1.51.933.933 0 0 1 .683-1.039 7.58 7.58 0 0 1 .583-.108 7.182 7.182 0 0 1 2.078 14.212l-.14.016c-.024.004-.07.01-.124.014-4.595.505-9.987 1.84-11.048 7.678Z"/><path class="a" d="m26.256 29.301.51.058c3.516.424 5.674 1.206 6.852 2.574a3.274 3.274 0 0 0-1.11 3.1v.003a3.293 3.293 0 0 0 6.48-1.176q-.03-.159-.074-.314h.004a8.995 8.995 0 0 0-5.336-6.887h-.004a20.517 20.517 0 0 0-6.532-1.606.726.726 0 0 1-.097-.01l-.107-.011a6.284 6.284 0 0 1 1.817-12.435c.172.025.344.054.513.093l-.007.036c-.01.08-.015.154-.022.233v.011a3.242 3.242 0 0 0 .14 1.21 3.29 3.29 0 1 0 5.218-3.533v-.004a10.073 10.073 0 0 0-1.29-.912l-.003-.003A10.594 10.594 0 1 0 26.256 29.3Z"/><path class="q" d="M24.705 24.303a6.281 6.281 0 0 1 2.812-11.764 3.048 3.048 0 0 1 .032-.441l.007-.036a6.148 6.148 0 0 0-.513-.094 6.283 6.283 0 0 0-2.338 12.335Z"/><path class="s" d="M29.143 12.96s.054.51.14 1.22a3.29 3.29 0 1 0 5.218-3.533v-.004a10.073 10.073 0 0 0-1.29-.912 2.608 2.608 0 1 1-4.068 3.228Z"/><path class="r" d="M32.508 35.032v.004a3.293 3.293 0 0 0 6.48-1.176q-.03-.159-.074-.314h.004a8.995 8.995 0 0 0-5.336-6.887h-.004c3.724 3.59 2.988 11.584-1.07 8.373Z"/><path class="e" d="M35.756 38.633a4.249 4.249 0 0 1-.606-.044 4.19 4.19 0 0 1-2.793-6.61c-1.111-.843-2.954-1.399-5.698-1.729l-.506-.058a11.5 11.5 0 0 1-9.764-13.007v-.005a11.489 11.489 0 0 1 18.684-7.23c.02.016.038.033.056.05a4.188 4.188 0 1 1-6.888 3.45 5.387 5.387 0 0 0-1.27 10.693l.075.008.055.007c3.124.34 11.302 1.235 12.701 9.225a4.191 4.191 0 0 1-4.046 5.25ZM18.167 17.435a9.706 9.706 0 0 0 8.216 10.977l.486.055c3.821.46 6.112 1.348 7.43 2.882a.897.897 0 0 1-.095 1.265l-.008.007a2.37 2.37 0 0 0-.82 1.48 2.395 2.395 0 1 0 4.741.682 2.367 2.367 0 0 0-.065-.993.875.875 0 0 1-.03-.165c-1.062-5.837-6.454-7.171-11.048-7.676a1.968 1.968 0 0 1-.157-.018l-.075-.008a7.181 7.181 0 0 1 2.044-14.216c.2.029.393.065.585.108a.898.898 0 0 1 .688 1.004 2.405 2.405 0 0 0 2.01 2.745l.014.002a2.392 2.392 0 0 0 1.853-4.222.818.818 0 0 1-.062-.055 9.694 9.694 0 0 0-15.707 6.146Z"/><path class="a" d="M34.246.898h45.459a2.317 2.317 0 0 1 2.317 2.317v.393a2.317 2.317 0 0 1-2.317 2.317H34.246a2.317 2.317 0 0 1-2.317-2.317v-.394A2.317 2.317 0 0 1 34.246.898Z"/><path class="r" d="M39.948 5.925h-5.505a2.514 2.514 0 0 1 0-5.027h5.505a2.514 2.514 0 0 0 0 5.027Z"/><path class="e" d="M79.508 6.823H34.443a3.412 3.412 0 0 1 0-6.823h45.065a3.412 3.412 0 0 1 0 6.823ZM34.443 1.796a1.616 1.616 0 0 0-.008 3.231h45.073a1.616 1.616 0 0 0 .008-3.231H34.443Z"/><path class="a" d="m78.908 5.925-.316 2.514L76.05 28.55a19.632 19.632 0 0 1-38.975-.172l-2.338-19.94-.294-2.514Z"/><path class="s" d="M78.592 8.439H48.757a7.573 7.573 0 0 0-7.521 8.457l1.078 9.177c1.156 9.89 9.465 18.154 19.42 18.154 1.798 0 3.622-1.054 5.285-1.514A19.633 19.633 0 0 1 37.075 28.38l-2.338-19.94-.294-2.514h44.465Z"/><path class="e" d="M56.574 46.621a20.532 20.532 0 0 1-20.389-18.138L33.434 5.027h46.494l-2.986 23.638A20.566 20.566 0 0 1 56.574 46.62ZM35.452 6.823l2.516 21.451a18.734 18.734 0 0 0 37.193.166l2.73-21.617Z"/><path class="a" d="M63.189 49.554H49.793a2.315 2.315 0 0 1-2.315-2.315 2.315 2.315 0 0 1 2.315-2.315h13.396a2.315 2.315 0 0 1 2.315 2.315 2.315 2.315 0 0 1-2.315 2.315Z"/><path class="r" d="M54.017 49.554h-4.223a2.314 2.314 0 1 1 0-4.629h4.223a2.314 2.314 0 0 0 0 4.629Z"/><path class="e" d="M63.189 50.452H49.793a3.213 3.213 0 0 1 0-6.426h13.396a3.213 3.213 0 0 1 0 6.426Zm-13.396-4.63a1.417 1.417 0 0 0-.002 2.834H63.19a1.417 1.417 0 0 0 .002-2.834H49.793Z"/><path class="a" d="M52.478 49.433h8.396v11.491h-8.396z"/><path class="r" d="M60.978 51.588 52.876 54.7v-5.267h7.998l.104 2.155z"/><path class="e" d="M60.873 61.821h-8.395a.898.898 0 0 1-.898-.897V49.433a.898.898 0 0 1 .898-.898h8.395a.898.898 0 0 1 .898.898v11.49a.898.898 0 0 1-.898.898Zm-7.498-1.795h6.6V50.33h-6.6Z"/><path class="a" d="M63.328 65.613H49.396a2.894 2.894 0 0 1-2.893-2.894 2.894 2.894 0 0 1 2.893-2.894h13.932a2.894 2.894 0 0 1 2.894 2.894 2.894 2.894 0 0 1-2.894 2.894Z"/><path class="r" d="M53.388 65.612h-3.993a2.894 2.894 0 0 1-.012-5.788h4.005a2.894 2.894 0 0 0 0 5.788Z"/><path class="e" d="M63.328 66.51H49.396a3.791 3.791 0 0 1 0-7.582h13.932a3.791 3.791 0 0 1 0 7.583Zm-13.932-5.787a1.996 1.996 0 1 0-.005 3.992h13.937a1.996 1.996 0 1 0 .005-3.992H49.396Z"/><path class="a" d="M75.558 73.318a1.692 1.692 0 0 1-1.691 1.691H37.463a1.689 1.689 0 0 1-1.688-1.69v-.001a7.693 7.693 0 0 1 7.681-7.706h24.396a7.707 7.707 0 0 1 7.706 7.706Z"/><path class="r" d="M54.017 75.01H37.463a1.689 1.689 0 0 1-1.688-1.69v-.002a7.716 7.716 0 0 1 5.315-7.329c.409 6.205 5.684 8.417 12.927 9.02Z"/><path class="e" d="M73.867 75.906H37.465a2.591 2.591 0 0 1-2.589-2.588 8.613 8.613 0 0 1 8.603-8.604h24.374a8.613 8.613 0 0 1 8.603 8.604 2.591 2.591 0 0 1-2.589 2.588ZM43.48 66.51a6.815 6.815 0 0 0-6.807 6.808.794.794 0 0 0 .793.792h36.402a.794.794 0 0 0 .793-.792 6.815 6.815 0 0 0-6.807-6.808Z"/><rect x="30.779" y="74.703" width="51.34" height="51.34" rx="3.86" style="fill:#4ab4ee"/><g class="u"><path class="e" d="M59.916 93.477a1.606 1.606 0 0 1-1.512 1.06H47.637a1.604 1.604 0 0 1-1.606-1.601v-16.98a1.608 1.608 0 0 1 1.606-1.606h2.256a1.5 1.5 0 0 0-.099.546v16.98a1.604 1.604 0 0 0 1.606 1.601Z"/></g><path class="v" d="M81.871 123.334A4.125 4.125 0 0 1 78 126.043H34.903a4.12 4.12 0 0 1-4.122-4.119v-43.1a4.12 4.12 0 0 1 2.562-3.815 4.2 4.2 0 0 0-.325 1.635v45.359a1.718 1.718 0 0 0 1.718 1.718h45.355a4.314 4.314 0 0 0 1.78-.387Z"/><path class="e" d="M77.997 126.94H34.9a5.025 5.025 0 0 1-5.019-5.018V78.824a5.025 5.025 0 0 1 5.02-5.019h43.096a5.025 5.025 0 0 1 5.02 5.02v43.097a5.025 5.025 0 0 1-5.02 5.018ZM34.9 75.6a3.227 3.227 0 0 0-3.224 3.224v43.098a3.227 3.227 0 0 0 3.224 3.223h43.097a3.227 3.227 0 0 0 3.224-3.223V78.824a3.227 3.227 0 0 0-3.224-3.223Z"/><path d="M51.202 87.126h33.062a1.776 1.776 0 0 1 1.776 1.776v33.063a1.776 1.776 0 0 1-1.776 1.776H51.202a1.776 1.776 0 0 1-1.777-1.776V88.902a1.776 1.776 0 0 1 1.777-1.776Z" transform="translate(-11.366 -4.976)" style="fill:#8ddcff"/><g class="b"><path class="v" d="M73.002 118.335v.433a1.711 1.711 0 0 1-1.711 1.711H39.893a3.504 3.504 0 0 1-3.504-3.504V85.577a1.711 1.711 0 0 1 1.71-1.71h.361v32.757a1.711 1.711 0 0 0 1.711 1.71Z"/></g><path class="e" d="M72.963 119.663H39.77a2.612 2.612 0 0 1-2.609-2.61V83.862a2.612 2.612 0 0 1 2.61-2.61h33.192a2.612 2.612 0 0 1 2.609 2.61v33.193a2.612 2.612 0 0 1-2.61 2.609ZM39.77 83.048a.814.814 0 0 0-.813.813v33.193a.815.815 0 0 0 .813.813h33.193a.815.815 0 0 0 .813-.813V83.86a.814.814 0 0 0-.813-.813Z"/><g class="u"><path class="e" d="M62.543 96.014A8.95 8.95 0 1 1 46.21 90.96v-8.968h2.19v6.735a8.949 8.949 0 0 1 14.144 7.287Z"/></g><path class="h" d="M63.342 74.896v16.98a1.604 1.604 0 0 1-1.606 1.601H50.969a1.604 1.604 0 0 1-1.607-1.601v-16.98a1.608 1.608 0 0 1 1.607-1.606h10.767a1.608 1.608 0 0 1 1.606 1.606Z"/><g class="i"><path class="j" d="M63.106 75.27v16.979A1.604 1.604 0 0 1 61.5 93.85h-.334V75.947a.564.564 0 0 0-.563-.565H49.127v-.113a1.608 1.608 0 0 1 1.606-1.606H61.5a1.608 1.608 0 0 1 1.606 1.606Z"/></g><path class="j" d="M63.342 83.181v8.695a1.604 1.604 0 0 1-1.606 1.601H50.969a1.604 1.604 0 0 1-1.607-1.601v-16.31c.236-.1.377-.156.377-.156q3.116 10.845 13.603 7.771Z"/><path class="e" d="M61.737 94.377H50.968a2.505 2.505 0 0 1-2.502-2.501V74.895a2.505 2.505 0 0 1 2.502-2.503h10.77a2.505 2.505 0 0 1 2.502 2.503v16.98a2.505 2.505 0 0 1-2.503 2.502ZM50.968 74.188a.708.708 0 0 0-.706.707v16.98a.707.707 0 0 0 .706.707h10.77a.707.707 0 0 0 .706-.706V74.895a.708.708 0 0 0-.707-.707Z"/><circle class="a" cx="56.373" cy="94.956" r="8.949"/><g class="k"><circle class="l" cx="56.373" cy="94.956" r="4.692"/></g><g class="b"><path class="s" d="M61.067 94.956a4.648 4.648 0 0 1-1.587 3.51 4.687 4.687 0 0 0-6.891-6.284 4.694 4.694 0 0 1 8.478 2.774Z"/></g><path class="e" d="M56.374 104.803a9.847 9.847 0 1 1 9.846-9.847 9.858 9.858 0 0 1-9.846 9.847Zm0-17.898a8.051 8.051 0 1 0 8.05 8.051 8.051 8.051 0 0 0-8.05-8.05Z"/><path class="e" d="M56.255 92.357h.147a.866.866 0 0 1 .867.866v3.853a.866.866 0 0 1-.867.866h-.147a.866.866 0 0 1-.866-.866v-3.853a.866.866 0 0 1 .866-.866Z"/><path class="x" d="M62.895 30.614a10.65 10.65 0 0 0-.013-1.801 4.932 4.932 0 0 1-2.093-.682 1.464 1.464 0 0 1-.508.923 2.43 2.43 0 0 1 .975 1.912c.131 1.563.971 2.745 1.766 2.255s-.245-.879-.127-2.607Z"/><path class="x" d="M61.612 30.76a2.4 2.4 0 0 0-.672-1.941 1.768 1.768 0 0 0 .028-.333 4.813 4.813 0 0 0 1.915.33c-.123-1.164-.527-2.145-1.54-2.164a1.432 1.432 0 0 0-1.355 2.068c.34.548 1.138.682 1.268 2.246.12 1.423.826 2.53 1.551 2.347-.707-.005-1.24-1.164-1.195-2.552Z"/><path class="x" d="m56.854 28.699-.084.048c.214.52.936 1.001 2.71.66a1.719 1.719 0 0 0 1.183-2.478 26.338 26.338 0 0 0-3.81 1.77Z"/><path class="x" d="M65.697 25.886a16.04 16.04 0 0 0-5.745 1.317c.204.672 1.512 1.715 3.98 1.654 2.207-.054 3.191-1.626 2.976-2.878a6.927 6.927 0 0 0-1.211-.093ZM52.496 21.116H46.56a.253.253 0 1 1 0-.506h5.935a.51.51 0 0 0 .431-.307l.772-2.238a.253.253 0 1 1 .478.165l-.772 2.238a1.015 1.015 0 0 1-.91.648ZM56.854 17.45H55.27a.253.253 0 0 1-.003-.505h1.586a.253.253 0 0 0 .252-.253v-1.92a.253.253 0 0 1 .506 0v1.92a.759.759 0 0 1-.758.758Z"/><path class="x" d="M56.213 16.304h-5.02a.253.253 0 1 1 0-.505h5.02a.253.253 0 0 1 0 .505ZM53.938 18.4a.253.253 0 0 1-.239-.335 1.685 1.685 0 0 1 1.572-1.12.253.253 0 0 1 0 .505 1.173 1.173 0 0 0-1.094.78.253.253 0 0 1-.239.17ZM60.497 17.45h-1.622a.759.759 0 0 1-.758-.758v-1.92a.253.253 0 0 1 .505 0v1.92a.253.253 0 0 0 .253.253h1.622a.253.253 0 0 1 0 .505Z"/><path class="x" d="M61.816 18.77a.253.253 0 0 1-.252-.253 1.068 1.068 0 0 0-1.067-1.067.253.253 0 0 1 0-.505 1.574 1.574 0 0 1 1.572 1.572.253.253 0 0 1-.253.253Z"/><path class="x" d="M67.7 21.116h-5.378a.759.759 0 0 1-.758-.758v-1.84a.253.253 0 0 1 .505 0v1.84a.253.253 0 0 0 .253.252h5.377a.253.253 0 0 1 0 .506ZM63.966 21.621h-1.644a.759.759 0 0 0-.758.758v1.84a.253.253 0 0 0 .505 0v-1.84a.253.253 0 0 1 .253-.253h1.644a.253.253 0 0 1 .252.253v1.034a.253.253 0 0 0 .506 0v-1.034a.759.759 0 0 0-.758-.758Z"/><path class="x" d="M67.555 24.999h-2.579a.759.759 0 0 1-.758-.758v-.828a.253.253 0 0 1 .506 0v.828a.253.253 0 0 0 .252.252h2.579a.253.253 0 0 1 0 .506Z"/><path class="x" d="M67.24 23.853h-1.623a.253.253 0 0 1-.253-.253V22.38a.759.759 0 0 1 .758-.758h1.634a.253.253 0 0 1 0 .505h-1.634a.253.253 0 0 0-.252.253v.968h1.37a.253.253 0 0 1 0 .506ZM66.296 19.97h-3.334a.253.253 0 0 1-.252-.253v-2.905a.253.253 0 0 1 .505 0v2.652h3.08a.253.253 0 0 1 0 .506ZM61.816 23.967a.253.253 0 0 0-.252.253 1.068 1.068 0 0 1-1.067 1.066h-1.622a.759.759 0 0 0-.758.758v1.771a.253.253 0 0 0 .505 0v-1.77a.253.253 0 0 1 .253-.253h1.622a1.574 1.574 0 0 0 1.572-1.572.253.253 0 0 0-.253-.253ZM51.962 24.128a.253.253 0 0 1-.239-.336l.526-1.523a.092.092 0 0 0-.102-.143h-5.994a.253.253 0 0 1 0-.505h5.994a.59.59 0 0 1 .58.813l-.526 1.523a.253.253 0 0 1-.239.17Z"/><path class="x" d="M53.148 25.792a1.496 1.496 0 0 1-1.425-2 .253.253 0 1 1 .478.165.991.991 0 0 0 .947 1.33.253.253 0 0 1 0 .505Z"/><path class="x" d="M57.36 28.477a.253.253 0 0 1-.254-.252v-2.18a.253.253 0 0 0-.252-.253h-3.706a.253.253 0 0 1 0-.506h3.706a.759.759 0 0 1 .758.758v2.18a.253.253 0 0 1-.253.253ZM63.138 26.346a.253.253 0 0 1-.253-.252v-3.252a.253.253 0 0 1 .505 0v3.252a.253.253 0 0 1-.252.252ZM65.93 18.824h-1.822a.253.253 0 0 1 0-.506h1.823a.253.253 0 0 1 0 .506ZM55.067 28.084h-3.65a.253.253 0 0 1 0-.506h3.65a.253.253 0 0 1 0 .506ZM49.43 24.418h-3.277a.253.253 0 1 1 0-.505h3.277a.253.253 0 0 1 0 .505ZM52.184 19.97h-4.992a.253.253 0 1 1 0-.506h4.813l.695-2.007a.092.092 0 0 0-.101-.142h-3.266a.253.253 0 0 1 0-.505H52.6a.589.589 0 0 1 .578.813l-.754 2.177a.253.253 0 0 1-.239.17Z"/><path class="x" d="M51.423 18.636h-3.524a.253.253 0 1 1 0-.505h3.524a.253.253 0 0 1 0 .505ZM53.495 26.432h-.351a2.137 2.137 0 0 1-2.032-2.846l.17-.483a.253.253 0 0 0-.24-.336h-.914a.253.253 0 0 0 0 .505h.559l-.052.147a2.642 2.642 0 0 0 2.509 3.519h.35a.253.253 0 0 0 .001-.506Z"/><path class="x" d="M56.213 26.432h-2.718a.253.253 0 0 0 0 .506h2.465v1.936a.253.253 0 1 0 .506 0v-2.189a.253.253 0 0 0-.253-.253ZM50.128 22.767h-4.244a.253.253 0 0 0 0 .505h4.244a.253.253 0 0 0 0-.505Z"/><path class="x" d="M68.056 21.974a4.548 4.548 0 0 0-.014-.595c-.108-1.223-.764-1.54-1.042-1.62l-.25-.072-.052-.254a4.006 4.006 0 0 0-1.537-2.476 3.528 3.528 0 0 0-1.912-.698l-.353-.004-.064-.348a.992.992 0 0 0-.763-.821 1.41 1.41 0 0 0-.367-.048 2.096 2.096 0 0 0-.985.287l-.415.231-.188-.436a1.449 1.449 0 0 0-.738-.745 1.086 1.086 0 0 0-.468-.108 1.421 1.421 0 0 0-.847.33l-.246.193-.259-.174a1.371 1.371 0 0 0-.684-.21h-.013a2.213 2.213 0 0 0-.297.001 1.785 1.785 0 0 0-1.13.471l-.206.194-.26-.111a3.522 3.522 0 0 0-1.394-.258 5.102 5.102 0 0 0-.893.082 2.728 2.728 0 0 0-2.103 1.38l-.098.195-.216.035a4.506 4.506 0 0 0-2.274 1.43 5.525 5.525 0 0 0-1.398 2.537l-.022.096-.063.077a4.03 4.03 0 0 0-.702 1.364l-.007.022-.003.017a3.833 3.833 0 0 0-.136 1.312 2.307 2.307 0 0 0 1.171 2.02l.12.063.063.12a2.084 2.084 0 0 0 1.046 1.033 2.26 2.26 0 0 0 .615.084 2.325 2.325 0 0 0 .349-.026l.26-.04.153.215a.967.967 0 0 0 .47.358 1.424 1.424 0 0 0 .473.07c.06 0 .123-.002.188-.007l.396-.032.062.392a2.317 2.317 0 0 0 1.562 1.822 4.372 4.372 0 0 0 3.581-.073l.038-.015.034-.021c.22-.134.449-.268.68-.4 1.488-.84 5.32-2.795 8.779-2.795a6.46 6.46 0 0 1 1.306.113.89.89 0 0 0 .181.02.618.618 0 0 0 .165-.021l.123-.034.093-.09a.86.86 0 0 0 .21-.421l.002-.008a1.713 1.713 0 0 0-.151-1.528l-.184-.237.16-.254a3.233 3.233 0 0 0 .454-1.584Zm-.505-.022a2.723 2.723 0 0 1-.376 1.336l-.21.332a.373.373 0 0 0 .021.427l.24.31a1.27 1.27 0 0 1 .064 1.086l-.002.006a.65.65 0 0 1-.074.194.116.116 0 0 1-.03.003.4.4 0 0 1-.079-.01 6.949 6.949 0 0 0-1.408-.123c-3.579 0-7.505 2-9.027 2.861-.237.134-.47.271-.695.407a3.874 3.874 0 0 1-3.214.068 1.821 1.821 0 0 1-1.24-1.428l-.08-.513a.373.373 0 0 0-.369-.315l-.03.002-.518.041c-.05.004-.1.007-.147.007a.919.919 0 0 1-.303-.042.464.464 0 0 1-.228-.175l-.2-.28a.373.373 0 0 0-.304-.157.367.367 0 0 0-.056.004l-.341.052a1.82 1.82 0 0 1-.273.02 1.754 1.754 0 0 1-.478-.065 1.63 1.63 0 0 1-.736-.784l-.083-.156a.374.374 0 0 0-.16-.158l-.157-.08a1.816 1.816 0 0 1-.897-1.608 3.327 3.327 0 0 1 .12-1.144l.007-.03a3.504 3.504 0 0 1 .61-1.187l.081-.1a.373.373 0 0 0 .074-.15l.029-.127a4.995 4.995 0 0 1 1.263-2.293 4.06 4.06 0 0 1 1.999-1.29l.282-.045a.373.373 0 0 0 .273-.2l.129-.256a2.24 2.24 0 0 1 1.74-1.11 4.594 4.594 0 0 1 .804-.074 3.017 3.017 0 0 1 1.195.217l.34.146a.373.373 0 0 0 .404-.072l.268-.254a1.287 1.287 0 0 1 .818-.334 1.982 1.982 0 0 1 .233-.001h.007a.895.895 0 0 1 .437.125l.338.228a.373.373 0 0 0 .439-.016l.321-.251a.952.952 0 0 1 .536-.224.585.585 0 0 1 .252.06.945.945 0 0 1 .49.488l.246.57a.373.373 0 0 0 .524.179l.543-.303a1.597 1.597 0 0 1 .739-.223.904.904 0 0 1 .235.03.487.487 0 0 1 .398.425l.083.455a.373.373 0 0 0 .363.306l.463.005a3.037 3.037 0 0 1 1.634.612 3.5 3.5 0 0 1 1.325 2.16l.069.332a.373.373 0 0 0 .263.283l.326.094c.177.05.597.267.677 1.178a4.044 4.044 0 0 1 .013.529Z"/><path class="e" d="m58.4 23.83-1.585-4.614a.272.272 0 0 0-.24-.17h-.873a.272.272 0 0 0-.24.17L53.87 23.83a.121.121 0 0 0 .122.171h.81a.26.26 0 0 0 .234-.173l.231-.763a.26.26 0 0 1 .233-.174h1.27a.26.26 0 0 1 .234.174l.23.763a.26.26 0 0 0 .234.173h.81a.121.121 0 0 0 .123-.17Zm-1.778-1.727h-.973a.063.063 0 0 1-.065-.087l.525-1.732c.014-.048.038-.048.052 0l.525 1.732a.063.063 0 0 1-.064.087ZM59.13 24.001a.181.181 0 0 1-.182-.18v-4.595a.181.181 0 0 1 .181-.18h.783a.181.181 0 0 1 .181.18v4.594a.181.181 0 0 1-.18.181ZM80.584 54.979a1.507 1.507 0 0 1-.104.591 2.642 2.642 0 0 1-.333.546l-.542.708a1.424 1.424 0 0 0-.257.524.811.811 0 0 1-.18.339.633.633 0 0 1-.877-.01.553.553 0 0 1-.14-.401 1.113 1.113 0 0 1 .073-.404 1.681 1.681 0 0 1 .253-.417l.672-.849a1.027 1.027 0 0 0 .262-.627.68.68 0 0 0-.656-.705h-.057a.724.724 0 0 0-.555.217 1.04 1.04 0 0 0-.226.429.839.839 0 0 1-.163.298.547.547 0 0 1-.41.144.515.515 0 0 1-.393-.158.573.573 0 0 1-.14-.415 1.327 1.327 0 0 1 .134-.54 1.631 1.631 0 0 1 .385-.53 1.927 1.927 0 0 1 1.354-.5 2.183 2.183 0 0 1 .957.205 1.634 1.634 0 0 1 .686.611 1.728 1.728 0 0 1 .257.944Zm-2.356 4.54a.708.708 0 1 1 .501.208.683.683 0 0 1-.5-.208ZM102.275 43.332a1.507 1.507 0 0 1-.104.59 2.642 2.642 0 0 1-.334.547l-.541.708a1.424 1.424 0 0 0-.258.524.811.811 0 0 1-.18.339.633.633 0 0 1-.876-.01.553.553 0 0 1-.14-.401 1.112 1.112 0 0 1 .073-.404 1.68 1.68 0 0 1 .253-.417l.672-.849a1.027 1.027 0 0 0 .262-.627.68.68 0 0 0-.656-.705h-.057a.724.724 0 0 0-.555.217 1.04 1.04 0 0 0-.226.429.838.838 0 0 1-.163.298.547.547 0 0 1-.41.144.515.515 0 0 1-.393-.158.573.573 0 0 1-.14-.415 1.328 1.328 0 0 1 .133-.54 1.632 1.632 0 0 1 .386-.53 1.927 1.927 0 0 1 1.354-.5 2.183 2.183 0 0 1 .957.205 1.634 1.634 0 0 1 .686.611 1.728 1.728 0 0 1 .257.944Zm-2.356 4.54a.708.708 0 1 1 .501.208.683.683 0 0 1-.5-.208ZM107.54 75.05a1.507 1.507 0 0 1-.104.592 2.643 2.643 0 0 1-.334.546l-.542.708a1.424 1.424 0 0 0-.257.524.811.811 0 0 1-.18.338.633.633 0 0 1-.876-.009.553.553 0 0 1-.14-.401 1.112 1.112 0 0 1 .072-.404 1.68 1.68 0 0 1 .253-.418l.672-.848a1.027 1.027 0 0 0 .262-.628.68.68 0 0 0-.656-.704h-.057a.724.724 0 0 0-.555.217 1.04 1.04 0 0 0-.226.428.839.839 0 0 1-.162.299.547.547 0 0 1-.411.144.515.515 0 0 1-.393-.158.573.573 0 0 1-.14-.415 1.328 1.328 0 0 1 .134-.54 1.632 1.632 0 0 1 .386-.53 1.927 1.927 0 0 1 1.353-.5 2.183 2.183 0 0 1 .957.204 1.634 1.634 0 0 1 .686.612 1.728 1.728 0 0 1 .258.943Zm-2.356 4.54a.708.708 0 1 1 .5.208.683.683 0 0 1-.5-.207ZM20.651 37.36a1.507 1.507 0 0 1-.104.59 2.642 2.642 0 0 1-.333.546l-.542.709a1.424 1.424 0 0 0-.257.524.811.811 0 0 1-.18.338.633.633 0 0 1-.876-.009.553.553 0 0 1-.14-.402 1.112 1.112 0 0 1 .072-.404 1.68 1.68 0 0 1 .253-.417l.672-.849a1.027 1.027 0 0 0 .262-.627.68.68 0 0 0-.656-.704h-.057a.724.724 0 0 0-.555.216 1.04 1.04 0 0 0-.226.43.838.838 0 0 1-.163.297.547.547 0 0 1-.41.145.515.515 0 0 1-.393-.158.573.573 0 0 1-.14-.415 1.328 1.328 0 0 1 .134-.54 1.631 1.631 0 0 1 .385-.53 1.927 1.927 0 0 1 1.354-.501 2.183 2.183 0 0 1 .957.205 1.634 1.634 0 0 1 .686.612 1.728 1.728 0 0 1 .257.943Zm-2.356 4.54a.708.708 0 1 1 .501.207.683.683 0 0 1-.5-.208ZM39.635 51.314a1.507 1.507 0 0 1-.104.591 2.641 2.641 0 0 1-.334.546l-.541.709a1.424 1.424 0 0 0-.258.523.811.811 0 0 1-.18.339.633.633 0 0 1-.876-.01.553.553 0 0 1-.14-.4 1.112 1.112 0 0 1 .073-.405 1.68 1.68 0 0 1 .252-.417l.673-.849a1.027 1.027 0 0 0 .261-.627.68.68 0 0 0-.655-.705h-.057a.724.724 0 0 0-.555.217 1.04 1.04 0 0 0-.226.43.839.839 0 0 1-.163.297.547.547 0 0 1-.41.145.515.515 0 0 1-.393-.158.573.573 0 0 1-.14-.415 1.328 1.328 0 0 1 .133-.54 1.631 1.631 0 0 1 .386-.53 1.927 1.927 0 0 1 1.354-.501 2.183 2.183 0 0 1 .957.205 1.634 1.634 0 0 1 .686.611 1.728 1.728 0 0 1 .257.944Zm-2.356 4.54a.708.708 0 1 1 .501.208.683.683 0 0 1-.5-.208ZM6.815 56.735a1.507 1.507 0 0 1-.104.592 2.642 2.642 0 0 1-.333.546l-.542.708a1.424 1.424 0 0 0-.258.524.811.811 0 0 1-.18.338.633.633 0 0 1-.876-.009.553.553 0 0 1-.14-.401 1.113 1.113 0 0 1 .073-.404 1.68 1.68 0 0 1 .253-.418l.672-.848a1.027 1.027 0 0 0 .262-.628.68.68 0 0 0-.656-.704h-.057a.724.724 0 0 0-.555.217 1.04 1.04 0 0 0-.226.429.838.838 0 0 1-.163.298.547.547 0 0 1-.41.144.515.515 0 0 1-.393-.158.573.573 0 0 1-.14-.415 1.328 1.328 0 0 1 .133-.54 1.632 1.632 0 0 1 .386-.53 1.927 1.927 0 0 1 1.354-.5 2.183 2.183 0 0 1 .957.205 1.634 1.634 0 0 1 .686.61 1.728 1.728 0 0 1 .257.944Zm-2.356 4.54a.708.708 0 1 1 .501.208.683.683 0 0 1-.5-.207ZM105.886 10.897a1.507 1.507 0 0 1-.104.591 2.642 2.642 0 0 1-.334.546l-.542.709a1.424 1.424 0 0 0-.257.524.811.811 0 0 1-.18.338.633.633 0 0 1-.876-.009.553.553 0 0 1-.14-.402 1.113 1.113 0 0 1 .073-.403 1.68 1.68 0 0 1 .252-.418l.673-.849a1.027 1.027 0 0 0 .261-.627.68.68 0 0 0-.655-.704h-.058a.724.724 0 0 0-.555.217 1.04 1.04 0 0 0-.226.428.838.838 0 0 1-.162.298.547.547 0 0 1-.41.145.515.515 0 0 1-.393-.158.573.573 0 0 1-.14-.415 1.327 1.327 0 0 1 .133-.54 1.631 1.631 0 0 1 .386-.53 1.927 1.927 0 0 1 1.354-.501 2.183 2.183 0 0 1 .956.205 1.634 1.634 0 0 1 .687.612 1.728 1.728 0 0 1 .257.943Zm-2.356 4.54a.708.708 0 1 1 .5.208.683.683 0 0 1-.5-.208ZM20.366 73.308a1.507 1.507 0 0 1-.104.591 2.642 2.642 0 0 1-.334.546l-.541.709a1.424 1.424 0 0 0-.258.523.811.811 0 0 1-.18.339.633.633 0 0 1-.876-.01.553.553 0 0 1-.14-.4 1.112 1.112 0 0 1 .073-.405 1.68 1.68 0 0 1 .252-.417l.673-.849a1.027 1.027 0 0 0 .261-.627.68.68 0 0 0-.655-.705h-.057a.724.724 0 0 0-.555.217 1.04 1.04 0 0 0-.226.43.838.838 0 0 1-.163.297.546.546 0 0 1-.41.145.515.515 0 0 1-.393-.158.573.573 0 0 1-.14-.415 1.328 1.328 0 0 1 .133-.54 1.632 1.632 0 0 1 .386-.53 1.927 1.927 0 0 1 1.354-.501 2.183 2.183 0 0 1 .957.205 1.634 1.634 0 0 1 .686.612 1.728 1.728 0 0 1 .257.943Zm-2.356 4.54a.708.708 0 1 1 .501.208.683.683 0 0 1-.5-.208Z"/></svg>