<svg xmlns="http://www.w3.org/2000/svg" viewBox="0 0 77 83.64984"><defs><style>.a{fill:#ef3e2b;}</style></defs><title>databricks</title><polygon class="a" points="0 21.839 0 24.346 38.518 46.04 73.076 26.672 73.076 34.557 38.518 54.107 1.962 33.322 0 34.376 0 49.456 38.518 71.113 73.076 51.782 73.076 59.485 38.518 78.999 1.962 58.213 0 59.303 0 61.992 38.518 83.65 77 61.992 77 46.949 75.219 45.858 38.518 66.644 4.106 46.949 4.106 39.245 38.518 58.577 77 36.883 77 22.021 75.219 20.967 38.518 41.752 5.887 23.293 38.518 4.833 65.554 20.059 67.879 18.641 67.879 16.643 38.518 0 0 21.839"/></svg>