<svg xmlns="http://www.w3.org/2000/svg" viewBox="0 0 78.075 76.038"><defs><style>.a{fill:#fff}</style></defs><path class="a" d="M16.442 56.398c-.02-.074-.018-.171-.065-.219a4.148 4.148 0 0 0-2.017-1.318l.024.023c-.027-.042-.043-.104-.08-.12a4.876 4.876 0 0 0-3.127-.487c-.898.19-1.068.663-.442 1.324a5.213 5.213 0 0 0 1.063.876 9.7 9.7 0 0 1 3.393 3.69 14.715 14.715 0 0 1 .872 1.794 8.005 8.005 0 0 0 5.196 4.767 12.44 12.44 0 0 0 5.24.52c.814-.08 1.621-.233 2.432-.349a2.738 2.738 0 0 1 .344-.001c.02.206.051.405.053.604.022 2.1.008 4.199.065 6.297.051 1.904-1.385 2.547-2.874 2.105a24.509 24.509 0 0 1-2.301-.859A38.983 38.983 0 0 1 .88 30.749a38.3 38.3 0 0 1 8.693-17.31A38.67 38.67 0 0 1 28.222 1.53 37.814 37.814 0 0 1 41.224.073a38.387 38.387 0 0 1 24.72 10.692A38.947 38.947 0 0 1 51.8 75.835a3.12 3.12 0 0 1-1.435.176 1.725 1.725 0 0 1-1.591-1.433 4.664 4.664 0 0 1-.073-.99c.004-3.583.027-7.167.018-10.75a9.753 9.753 0 0 0-1.144-4.727 16.504 16.504 0 0 0-1.095-1.569c-.07-.098-.146-.192-.272-.355.876-.135 1.674-.245 2.468-.383a26.566 26.566 0 0 0 4.893-1.297 14.647 14.647 0 0 0 9.393-10.121 24.104 24.104 0 0 0 .763-9.96 14.38 14.38 0 0 0-3.295-7.328c-.147-.176-.29-.356-.434-.536a.557.557 0 0 1-.044-.099 14.504 14.504 0 0 0-.42-10.24 5.47 5.47 0 0 0-2.324.039 16.697 16.697 0 0 0-4.876 1.815c-1.06.569-2.084 1.204-3.104 1.842a1.059 1.059 0 0 1-.925.138 36.966 36.966 0 0 0-11.354-1.109A33.22 33.22 0 0 0 30.046 20a1.556 1.556 0 0 1-1.417-.223 25.857 25.857 0 0 0-5.644-2.932 10.873 10.873 0 0 0-3.06-.704c-.43-.024-.864-.004-1.273-.004a5.28 5.28 0 0 0-.609 1.556 14.222 14.222 0 0 0-.262 7.579.927.927 0 0 0 .056.222 1.47 1.47 0 0 1-.339 1.834 14.256 14.256 0 0 0-3.289 8.438 25.129 25.129 0 0 0 1.03 9.026 14.725 14.725 0 0 0 9.445 9.796 29.849 29.849 0 0 0 6.491 1.523c.152.02.303.044.454.07.022.003.041.025.12.079a17.55 17.55 0 0 0-1.072 1.514 10.421 10.421 0 0 0-.777 1.748c-.208.601-.326 1.234-.5 1.918a9.875 9.875 0 0 1-6.462.758c-.024.042-.075.09-.066.119.07.213.22.419.016.64a.791.791 0 0 1-.778.21 1.5 1.5 0 0 1-.286-.108.693.693 0 0 1-.475-.557c-.035-.311.205-.44.453-.542a.976.976 0 0 0 .147-.099 8.873 8.873 0 0 1-3.897-3.706 10.243 10.243 0 0 0-1.011-1.35 2.813 2.813 0 0 0-.613-.422Z"/><path class="a" d="M28.652 63.831a3.293 3.293 0 0 1-.445-.086c-.2-.071-.404-.201-.379-.422a.807.807 0 0 1 .274-.499.932.932 0 0 1 .933-.171c.196.073.376.166.418.4a.476.476 0 0 1-.243.517 5.188 5.188 0 0 1-.558.261ZM25.4 63.79a.803.803 0 0 1-.821-.547c-.035-.28.315-.589.731-.647.435-.06.924.248.932.586.007.313-.398.605-.842.608ZM20.228 61.599a.491.491 0 0 1-.535.503 1.091 1.091 0 0 1-.922-.874.467.467 0 0 1 .484-.54 1.115 1.115 0 0 1 .973.91ZM18.066 59.051a.45.45 0 0 1-.584.417.984.984 0 0 1-.657-.848.454.454 0 0 1 .65-.474 1.075 1.075 0 0 1 .591.905ZM16.442 56.398l-.014-.015c.073.134.197.265.205.402a.593.593 0 0 1-.149.46.528.528 0 0 1-.484-.01 1.287 1.287 0 0 1-.431-.51.381.381 0 0 1 .47-.538 1.763 1.763 0 0 1 .403.21ZM14.36 54.861c.054.083.104.168.162.247.111.152.212.337.038.467a.786.786 0 0 1-.487.093.473.473 0 0 1-.315-.185.6.6 0 0 1-.108-.4c.014-.082.174-.171.282-.196a1.998 1.998 0 0 1 .452-.003Z"/></svg>