<svg xmlns="http://www.w3.org/2000/svg" xmlns:xlink="http://www.w3.org/1999/xlink" viewBox="0 0 95.448 98.673"><defs><linearGradient id="a" x1="-355.258" y1="227.385" x2="-357.106" y2="225.538" gradientTransform="matrix(11.02802 0 0 -11.02802 3965.18 2528.257)" gradientUnits="userSpaceOnUse"><stop offset=".18" stop-color="#0052cc"/><stop offset="1" stop-color="#2684ff"/></linearGradient><linearGradient id="b" x1="-354.769" y1="222.078" x2="-352.925" y2="223.922" xlink:href="#a"/></defs><path d="M96.57 47.238 54.11 4.778 49.994.662 18.032 32.626 3.416 47.238a3.916 3.916 0 0 0 0 5.524l29.2 29.2 17.379 17.374 31.958-31.963.498-.493L96.57 52.784a3.907 3.907 0 0 0 .02-5.526ZM49.994 64.589 35.405 50l14.59-14.589L64.58 50Z" transform="translate(-2.276 -.663)" style="fill:#2684ff"/><path d="M49.995 35.41A24.558 24.558 0 0 1 49.889.782l-31.923 31.91 17.373 17.374Z" transform="translate(-2.276 -.663)" style="fill:url(#a)"/><path d="M64.62 49.96 49.995 64.59a24.567 24.567 0 0 1 0 34.737l32.011-31.993Z" transform="translate(-2.276 -.663)" style="fill:url(#b)"/></svg>