<svg xmlns="http://www.w3.org/2000/svg" viewBox="0 0 77 92.8807"><defs><style>.a{fill:#ee4c2c;}</style></defs><title>pytorch</title><path class="a" d="M38.80408.55965c0,4.39894.01654,8.57166-.02687,12.74377A1.94761,1.94761,0,0,1,38.175,14.4705c-2.8628,2.90147-5.75529,5.77371-8.63809,8.65551-3.80433,3.803-7.6249,7.59-11.407,11.415a28.14277,28.14277,0,0,0-8.25846,17.8776A29.13886,29.13886,0,0,0,33.7658,83.32911c15.58828,2.73028,30.95778-7.94583,33.54167-23.41041,1.58694-9.49782-1.00832-17.82517-7.49086-24.9473-.15568-.171-.30209-.35053-.42941-.49882l6.87021-6.72852a5.89385,5.89385,0,0,1,.48512.43757A38.02045,38.02045,0,0,1,77.0739,49.54317,38.84455,38.84455,0,0,1,48.08505,92.34328,38.63,38.63,0,0,1,6.538,75.61305,37.77742,37.77742,0,0,1,.5082,52.58193a37.5618,37.5618,0,0,1,11.12938-24.931C20.44926,18.74427,29.35063,9.92615,38.21479,1.07131,38.34906.93719,38.50149.82123,38.80408.55965Z" transform="translate(-0.4365 -0.55965)"/><path class="a" d="M57.50211,20.68194A4.94,4.94,0,0,1,52.61373,25.709a4.97685,4.97685,0,1,1-.08434-9.95288A4.89892,4.89892,0,0,1,57.50211,20.68194Z" transform="translate(-0.4365 -0.55965)"/></svg>