<svg xmlns="http://www.w3.org/2000/svg" viewBox="0 0 78.38 78.371"><defs><style>.a{fill:#eb3c63}.b{fill:#308dd3}.c{fill:#46cd88}.d{fill:#fbb11c}</style></defs><path class="a" d="M16.466 49.524a8.233 8.233 0 1 1-8.233-8.232h8.233ZM20.614 49.524a8.233 8.233 0 0 1 16.466 0v20.614a8.233 8.233 0 0 1-16.466 0Z"/><path class="b" d="M28.847 16.466a8.233 8.233 0 1 1 8.233-8.233v8.233ZM28.847 20.614a8.233 8.233 0 0 1 0 16.466H8.233a8.233 8.233 0 0 1 0-16.466Z"/><path class="c" d="M61.906 28.847a8.233 8.233 0 1 1 8.232 8.233h-8.232ZM57.757 28.847a8.233 8.233 0 0 1-16.465 0V8.233a8.233 8.233 0 0 1 16.465 0Z"/><path class="d" d="M49.524 61.906a8.233 8.233 0 1 1-8.232 8.232v-8.232ZM49.524 57.757a8.233 8.233 0 1 1-.017-16.465h20.631a8.233 8.233 0 0 1 .018 16.465h-.018Z"/></svg>