<svg xmlns="http://www.w3.org/2000/svg" viewBox="0 0 77 71.74709"><defs><style>.a{fill:#e87314;}.b{fill:#fff;}</style></defs><title>spark</title><path class="a" d="M60.845,15.48253a8.83689,8.83689,0,0,0-7.431-4.35607H23.94648a9.45515,9.45515,0,0,0-7.43094,4.35607L1.3974,42.64393a10.94354,10.94354,0,0,0,0,8.96838L16.51554,78.51747a8.8369,8.8369,0,0,0,7.431,4.35607h29.98a9.45517,9.45517,0,0,0,7.431-4.35607L76.4756,51.61231a10.94356,10.94356,0,0,0,0-8.96839Z" transform="translate(-0.4365 -11.12646)"/><path class="b" d="M23.69024,59.812c-2.56239-1.025-5.12479-2.30616-7.43094-3.33111-4.86856-2.04992-6.406-7.431-.76872-9.48087,4.61231-1.53744,8.96838-3.07487,13.5807-4.35607C29.84,38.5441,30.60872,34.188,31.37743,30.08819c.76872-5.89351,5.63727-8.19967,8.71215-2.5624,2.04991,3.33112,3.84359,6.66223,5.89351,9.73711,4.61231-1.2812,9.48086-2.5624,14.09317-3.8436,4.86856-1.53744,6.91848,2.5624,3.58736,6.14975-3.33112,3.8436-6.66223,7.94343-9.99335,11.787,2.04992,4.09983,4.09984,7.94342,6.14975,12.04326,2.04992,4.61231-2.04991,7.68719-6.66223,6.406-3.07487-1.025-6.14975-1.79368-9.22462-2.81864l-1.025-6.91847,9.7371,2.5624L46.7518,51.09983l9.22463-11.0183L42.652,43.66888,36.246,32.90682l-2.30615,13.5807L20.61537,50.84359,30.865,54.94343,23.69024,59.812Z" transform="translate(-0.4365 -11.12646)"/></svg>