<svg xmlns="http://www.w3.org/2000/svg" viewBox="0 0 24 24"><path d="M7.641 10.368a2.148 2.148 0 0 0 .069.593 4.37 4.37 0 0 0 .218.48.293.293 0 0 1 .044.15.256.256 0 0 1-.125.2l-.418.281a.337.337 0 0 1-.175.056.293.293 0 0 1-.2-.093 1.791 1.791 0 0 1-.237-.313 5.273 5.273 0 0 1-.206-.387 2.497 2.497 0 0 1-1.954.912 1.823 1.823 0 0 1-1.33-.475 1.71 1.71 0 0 1-.493-1.28 1.717 1.717 0 0 1 .624-1.367 2.429 2.429 0 0 1 1.63-.518 4.727 4.727 0 0 1 .68.056 7.364 7.364 0 0 1 .762.144V8.32a1.467 1.467 0 0 0-.312-1.061 1.517 1.517 0 0 0-1.074-.306 2.86 2.86 0 0 0-.718.087 5.338 5.338 0 0 0-.718.225 1.305 1.305 0 0 1-.237.087h-.106c-.094.019-.094-.043-.094-.187V6.84a.375.375 0 0 1 0-.23.456.456 0 0 1 .181-.144 3.746 3.746 0 0 1 .837-.294 4.027 4.027 0 0 1 1.036-.13 2.404 2.404 0 0 1 1.742.542 2.173 2.173 0 0 1 .574 1.63Zm-2.684 1.011a2.085 2.085 0 0 0 .68-.119 1.436 1.436 0 0 0 .624-.424 1.18 1.18 0 0 0 .231-.425 2.585 2.585 0 0 0 .063-.58V9.55a5.919 5.919 0 0 0-.624-.113 5.31 5.31 0 0 0-.625-.037 1.548 1.548 0 0 0-.986.262.936.936 0 0 0-.325.768.924.924 0 0 0 .244.706.936.936 0 0 0 .718.243Zm5.331.718a.343.343 0 0 1-.25-.069.48.48 0 0 1-.137-.256L8.334 6.634a1.186 1.186 0 0 1-.068-.25c0-.106.05-.162.156-.162h.655a.343.343 0 0 1 .256.069.48.48 0 0 1 .131.256l1.118 4.37 1.036-4.37a.456.456 0 0 1 .131-.256.412.412 0 0 1 .262-.088h.531a.393.393 0 0 1 .269.07.443.443 0 0 1 .124.255l1.05 4.451 1.148-4.45a.55.55 0 0 1 .137-.257.393.393 0 0 1 .256-.069h.625a.15.15 0 0 1 .168.163.775.775 0 0 1 0 .112.256.256 0 0 1-.05.162l-1.598 5.139a.5.5 0 0 1-.144.256.387.387 0 0 1-.25.068h-.58a.368.368 0 0 1-.262-.068.462.462 0 0 1-.131-.263L12.28 7.483l-1.024 4.283a.506.506 0 0 1-.131.262.375.375 0 0 1-.262.069Zm8.54.181a4.37 4.37 0 0 1-1.023-.125 2.79 2.79 0 0 1-.762-.262.474.474 0 0 1-.206-.187.393.393 0 0 1-.043-.188v-.337c0-.137.056-.206.156-.206h.118l.163.069a3.496 3.496 0 0 0 .736.23 3.746 3.746 0 0 0 .787.107 1.873 1.873 0 0 0 .974-.218.724.724 0 0 0 .343-.625.656.656 0 0 0-.18-.468 1.667 1.667 0 0 0-.669-.343l-.967-.313a2.054 2.054 0 0 1-1.062-.68 1.573 1.573 0 0 1-.33-.961 1.417 1.417 0 0 1 .18-.762 1.648 1.648 0 0 1 .475-.543 2.073 2.073 0 0 1 .693-.35 3.078 3.078 0 0 1 .836-.112 3.517 3.517 0 0 1 .444 0l.437.075.374.106a2.235 2.235 0 0 1 .281.118.624.624 0 0 1 .2.169.362.362 0 0 1 .056.219v.312c0 .137-.05.212-.15.212a.668.668 0 0 1-.256-.081 3.072 3.072 0 0 0-1.248-.256 1.648 1.648 0 0 0-.88.187.695.695 0 0 0-.12 1.061 2.142 2.142 0 0 0 .738.369l.942.293a2.048 2.048 0 0 1 1.03.624 1.486 1.486 0 0 1 .306.93 1.717 1.717 0 0 1-.175.769 1.83 1.83 0 0 1-.487.586 2.204 2.204 0 0 1-.736.369 3.122 3.122 0 0 1-.974.212Z" style="fill:#252f3e"/><path d="M20.084 15.506a14.31 14.31 0 0 1-8.116 2.497 14.64 14.64 0 0 1-9.883-3.746c-.206-.181 0-.437.225-.287a19.978 19.978 0 0 0 9.889 2.622A19.753 19.753 0 0 0 19.765 15c.362-.169.68.237.319.506Zm.911-1.005c-.28-.363-1.873-.175-2.56-.088-.212 0-.243-.162-.05-.3a3.948 3.948 0 0 1 3.54-.33 3.892 3.892 0 0 1-1.248 3.333c-.181.156-.35.075-.275-.124.281-.687.874-2.173.593-2.491Z" style="fill:#f19620"/></svg>