<svg xmlns="http://www.w3.org/2000/svg" viewBox="0 0 24 24"><defs><style>.a{fill:#0782c5}</style></defs><path class="a" d="m16.006 18.075-.812-.975-3.919-4.675c-.138-.163-.075-.294 0-.444.331-.9.625-1.793.981-2.693q.688-1.875 1.363-3.75c0-.063.056-.12.1-.213 2.75 4.8 5.506 9.569 8.281 14.381H6.838ZM12.963 4.319c-.294.625-.582 1.25-.875 1.875l-3.682 7.919q-.869 1.875-1.75 3.75a.325.325 0 0 1-.231.175H2l.075-.163C3.7 15.062 5.319 12.25 6.963 9.437a2.788 2.788 0 0 1 .662-.724l5.169-4.344a.412.412 0 0 1 .106-.075Z"/></svg>