<svg xmlns="http://www.w3.org/2000/svg" viewBox="0 0 24 24"><path d="M11.93 2.299a1.338 1.338 0 0 0-.509.129L4.468 5.75a1.32 1.32 0 0 0-.72.895l-1.715 7.462a1.31 1.31 0 0 0 .18 1.011q.036.054.077.105l4.812 5.984a1.334 1.334 0 0 0 1.04.496l7.717-.002a1.334 1.334 0 0 0 1.04-.495l4.81-5.985a1.31 1.31 0 0 0 .258-1.116l-1.718-7.462a1.32 1.32 0 0 0-.72-.895l-6.954-3.32a1.339 1.339 0 0 0-.644-.13Z" style="fill:#326ce5"/><path d="M12 4.838a.441.441 0 0 0-.417.463l.001.011c0 .035-.002.077 0 .107a3.47 3.47 0 0 0 .056.396 3.888 3.888 0 0 1 .047.755.454.454 0 0 1-.136.215l-.01.176a5.416 5.416 0 0 0-.752.116A5.353 5.353 0 0 0 8.07 8.63a6.751 6.751 0 0 1-.15-.107.329.329 0 0 1-.247-.024 3.887 3.887 0 0 1-.562-.506 3.465 3.465 0 0 0-.273-.291c-.026-.022-.065-.052-.093-.074a.495.495 0 0 0-.29-.11.401.401 0 0 0-.332.147.441.441 0 0 0 .103.614l.006.004c.027.023.06.051.086.07a3.469 3.469 0 0 0 .345.202 3.885 3.885 0 0 1 .62.434.463.463 0 0 1 .083.24l.133.12a5.385 5.385 0 0 0-.85 3.754l-.173.05a.577.577 0 0 1-.18.181 3.886 3.886 0 0 1-.745.123 3.483 3.483 0 0 0-.4.032c-.031.006-.076.018-.11.026h-.004l-.006.002a.418.418 0 1 0 .185.811h.006l.008-.003c.034-.008.077-.016.107-.024a3.478 3.478 0 0 0 .374-.143 3.89 3.89 0 0 1 .725-.214.46.46 0 0 1 .24.085l.181-.031a5.416 5.416 0 0 0 2.4 2.996l-.075.182a.412.412 0 0 1 .037.235 4.067 4.067 0 0 1-.377.677 3.485 3.485 0 0 0-.223.333c-.017.03-.038.079-.054.112a.418.418 0 1 0 .752.356v-.002c.016-.032.039-.075.052-.105a3.47 3.47 0 0 0 .12-.382 2.91 2.91 0 0 1 .322-.747.337.337 0 0 1 .18-.088l.094-.17a5.386 5.386 0 0 0 3.84.01l.09.16a.33.33 0 0 1 .212.128 3.884 3.884 0 0 1 .286.7 3.481 3.481 0 0 0 .12.382l.052.106a.418.418 0 1 0 .752-.355c-.016-.033-.037-.081-.054-.112a3.467 3.467 0 0 0-.223-.332 3.89 3.89 0 0 1-.37-.66.326.326 0 0 1 .033-.246 1.43 1.43 0 0 1-.07-.168 5.416 5.416 0 0 0 2.4-3.018c.054.008.147.025.178.03a.329.329 0 0 1 .233-.086 3.89 3.89 0 0 1 .725.214 3.479 3.479 0 0 0 .374.144c.03.008.073.016.107.023l.008.003h.006a.418.418 0 1 0 .185-.81c-.035-.009-.086-.022-.12-.029a3.481 3.481 0 0 0-.4-.032 3.885 3.885 0 0 1-.746-.123.467.467 0 0 1-.18-.18l-.167-.049a5.406 5.406 0 0 0-.867-3.745l.147-.133a.329.329 0 0 1 .078-.236 3.885 3.885 0 0 1 .62-.434 3.48 3.48 0 0 0 .345-.202c.027-.02.064-.051.092-.074a.418.418 0 1 0-.519-.651c-.028.022-.067.052-.092.074a3.482 3.482 0 0 0-.275.29 3.898 3.898 0 0 1-.561.508.463.463 0 0 1-.253.028l-.158.113a5.454 5.454 0 0 0-3.455-1.67 10.043 10.043 0 0 1-.01-.185.33.33 0 0 1-.135-.208 3.895 3.895 0 0 1 .047-.755 3.473 3.473 0 0 0 .057-.396l-.001-.118A.441.441 0 0 0 12 4.838Zm-.522 3.228-.123 2.183-.009.005a.367.367 0 0 1-.582.28l-.004.003-1.79-1.27a4.287 4.287 0 0 1 2.065-1.124 4.384 4.384 0 0 1 .443-.077Zm1.044 0a4.323 4.323 0 0 1 2.493 1.203l-1.779 1.26-.006-.002a.367.367 0 0 1-.583-.28l-.002-.001ZM8.32 10.083l1.634 1.462-.002.009a.367.367 0 0 1-.144.63l-.001.007-2.095.605a4.286 4.286 0 0 1 .608-2.713Zm7.346.001a4.366 4.366 0 0 1 .627 2.705l-2.106-.606-.002-.01a.367.367 0 0 1-.144-.63v-.004l1.625-1.455Zm-4.003 1.574h.67l.416.52-.15.65-.6.288-.603-.29-.15-.649Zm2.147 1.78a.365.365 0 0 1 .084.006l.004-.004 2.167.366a4.292 4.292 0 0 1-1.735 2.18l-.841-2.032.003-.004a.368.368 0 0 1 .318-.512Zm-3.64.01a.367.367 0 0 1 .332.51l.006.008-.832 2.012a4.31 4.31 0 0 1-1.73-2.165l2.149-.364.003.004a.372.372 0 0 1 .072-.006Zm1.815.88a.37.37 0 0 1 .336.193h.008l1.06 1.914a4.39 4.39 0 0 1-.424.118 4.303 4.303 0 0 1-2.348-.12l1.056-1.91h.002a.367.367 0 0 1 .31-.195Z" style="fill:#fff"/></svg>