<svg xmlns="http://www.w3.org/2000/svg" viewBox="0 0 370 370"><defs><style>.a{fill:#004c74}.c{fill:#f58535}.d{fill:#fff}</style></defs><path class="a" d="M47.136 305.733a4.958 4.958 0 0 1-3.806-1.772A185.147 185.147 0 0 1 0 185C0 82.99 82.99 0 185 0a185.207 185.207 0 0 1 118.399 42.854 4.969 4.969 0 0 1-6.364 7.633A175.252 175.252 0 0 0 185 9.937C88.47 9.937 9.937 88.47 9.937 185a175.195 175.195 0 0 0 41 112.567 4.969 4.969 0 0 1-3.801 8.166Z"/><path d="M185 370a185.143 185.143 0 0 1-118.982-43.348 4.969 4.969 0 0 1 6.395-7.606A175.192 175.192 0 0 0 185 360.063c96.53 0 175.063-78.533 175.063-175.063a175.134 175.134 0 0 0-41.467-113.12 4.969 4.969 0 0 1 7.58-6.425A185.082 185.082 0 0 1 370 185c0 102.01-82.99 185-185 185Z" style="fill:#4ab4ee"/><path class="a" d="M252.107 253.006h-20.032v-82.152h20.032ZM117.893 199.154h20.032v53.852h-20.032Z"/><path class="a" d="M282.123 91.89H87.877a16.867 16.867 0 0 0-16.867 16.867v152.486a16.867 16.867 0 0 0 16.867 16.868h186.785a24.395 24.395 0 0 0 24.328-24.462V108.757a16.867 16.867 0 0 0-16.867-16.868Zm6.851 161.759a14.402 14.402 0 0 1-14.328 14.445H87.877a6.86 6.86 0 0 1-6.851-6.85V108.756a6.86 6.86 0 0 1 6.851-6.851h194.246a6.86 6.86 0 0 1 6.851 6.85Z"/><path class="a" d="M214.046 228.396v-25.577h-20.032v15.097a44.4 44.4 0 0 1 9.974 3.68 49.877 49.877 0 0 1 10.058 6.8ZM175.986 217.926v-30.734h-20.032v41.166a48.066 48.066 0 0 1 14.117-8.584 43.556 43.556 0 0 1 5.915-1.848Z"/><path class="c" d="M185.504 259.992a34.877 34.877 0 0 1-18.769-5.368 46.239 46.239 0 0 1-13.01-11.958c-.226-.302-.38-.528-.081-.922 5.06-6.703 11.267-11.968 19.146-15.059 9.487-3.722 18.79-3.07 27.829 1.53a45.12 45.12 0 0 1 15.656 13.433c.227.302.379.528.081.922a44.562 44.562 0 0 1-19.196 15.093 31.26 31.26 0 0 1-11.656 2.329Zm-.519-6.3a11.536 11.536 0 1 0-11.515-11.193 11.58 11.58 0 0 0 11.515 11.193Zm-9.342-23.642a37.862 37.862 0 0 0-17.457 12.11 37.978 37.978 0 0 0 17.475 12.116 15.436 15.436 0 0 1-.018-24.226Zm18.683-.004a15.44 15.44 0 0 1 .002 24.22 37.8 37.8 0 0 0 17.486-12.112 37.872 37.872 0 0 0-17.488-12.108Z"/><path class="c" d="M179.148 239.878c1.486 1.124 2.845 1.246 4.09.395 1.334-.913 1.61-2.15.965-4.333 2.345-.557 5.295.988 6.47 3.387a6.337 6.337 0 0 1-9.606 7.79 6.243 6.243 0 0 1-1.92-7.239ZM127.912 178.546a2.835 2.835 0 0 1-1.446-5.275l39.062-23.113a2.833 2.833 0 0 1 2.851-.02l35.794 20.491 36.972-34.993a2.834 2.834 0 1 1 3.896 4.117l-38.501 36.441a2.836 2.836 0 0 1-3.356.402l-36.19-20.719-37.642 22.273a2.82 2.82 0 0 1-1.44.396Z"/><circle class="d" cx="242.091" cy="137.694" r="12.066"/><path class="c" d="M242.09 152.595a14.9 14.9 0 1 1 14.902-14.9 14.917 14.917 0 0 1-14.901 14.9Zm0-24.132a9.231 9.231 0 1 0 9.232 9.231 9.241 9.241 0 0 0-9.231-9.231Z"/><circle class="d" cx="204.03" cy="172.706" r="12.066"/><path class="c" d="M204.03 187.606a14.9 14.9 0 1 1 14.9-14.9 14.917 14.917 0 0 1-14.9 14.9Zm0-24.131a9.231 9.231 0 1 0 9.23 9.231 9.241 9.241 0 0 0-9.23-9.231Z"/><circle class="d" cx="127.909" cy="176.712" r="12.066"/><path class="c" d="M127.91 191.613a14.9 14.9 0 1 1 14.9-14.9 14.917 14.917 0 0 1-14.9 14.9Zm0-24.132a9.231 9.231 0 1 0 9.23 9.231 9.242 9.242 0 0 0-9.23-9.231Z"/><circle class="d" cx="165.97" cy="152.93" r="12.066"/><path class="c" d="M165.97 167.83a14.9 14.9 0 1 1 14.9-14.9 14.917 14.917 0 0 1-14.9 14.9Zm0-24.131a9.231 9.231 0 1 0 9.231 9.23 9.242 9.242 0 0 0-9.231-9.23Z"/></svg>