<svg xmlns="http://www.w3.org/2000/svg" viewBox="0 0 370 370"><defs><style>.a{fill:#004c74}.c{fill:#eb3c63}.d{fill:#308dd3}.e{fill:#46cd88}.f{fill:#fbb11c}</style></defs><path class="a" d="M44.364 237.608a3.671 3.671 0 0 1-1.573-2.245c-.06-5.58-.367-11.957.734-17.42 2.636-13.085 10.188-23.21 22.277-26.523a4.606 4.606 0 0 1 4.513.785 28.81 28.81 0 0 0 35.342-.14 4.045 4.045 0 0 1 3.907-.746c12.623 2.994 21.427 14.321 22.87 28.35.514 5.007.63 10.07.728 15.103.033 1.723-.998 2.869-2.75 3.569-2.03.81-11.24 5.06-21.534 7.078a125.155 125.155 0 0 1-35.294.596c-13.975-1.908-26.988-7.117-29.22-8.407ZM108.846 167.532c.012 14.375-12.703 21.827-22.243 21.094a20.92 20.92 0 0 1-19.512-22.456c.66-11 10.849-20.053 21.725-19.302 11.38.785 20.672 10.37 20.03 20.664ZM232.657 185.176l-11.79-11.79a5.056 5.056 0 1 0-7.15 7.15l3.248 3.246h-63.931l3.248-3.246a5.056 5.056 0 0 0-3.573-8.631 5.055 5.055 0 0 0-3.575 1.48l-11.791 11.791a5.056 5.056 0 0 0 0 7.15l11.79 11.79a5.056 5.056 0 1 0 7.15-7.15l-3.248-3.246h63.931l-3.248 3.246a5.056 5.056 0 0 0 3.573 8.632 5.055 5.055 0 0 0 3.575-1.481l11.791-11.791a5.056 5.056 0 0 0 0-7.15Z"/><path class="a" d="M47.136 305.733a4.958 4.958 0 0 1-3.806-1.772A185.147 185.147 0 0 1 0 185C0 82.99 82.99 0 185 0a185.207 185.207 0 0 1 118.399 42.854 4.969 4.969 0 0 1-6.364 7.633A175.252 175.252 0 0 0 185 9.937C88.47 9.937 9.937 88.47 9.937 185a175.195 175.195 0 0 0 41 112.567 4.969 4.969 0 0 1-3.801 8.166Z"/><path d="M185 370a185.143 185.143 0 0 1-118.982-43.348 4.969 4.969 0 0 1 6.395-7.606A175.192 175.192 0 0 0 185 360.063c96.53 0 175.063-78.533 175.063-175.063a175.134 175.134 0 0 0-41.467-113.12 4.969 4.969 0 0 1 7.58-6.425A185.082 185.082 0 0 1 370 185c0 102.01-82.99 185-185 185Z" style="fill:#4ab4ee"/><path class="c" d="M265.795 208.453a9.197 9.197 0 1 1-9.196-9.196h9.196ZM270.43 208.453a9.197 9.197 0 1 1 18.393 0v23.028a9.197 9.197 0 0 1-18.394 0v-23.028Z"/><path class="d" d="M279.626 171.524a9.197 9.197 0 1 1 9.197-9.197v9.197ZM279.626 176.158a9.197 9.197 0 0 1 0 18.393H256.6a9.197 9.197 0 0 1 0-18.393Z"/><path class="e" d="M316.556 185.355a9.197 9.197 0 1 1 9.196 9.196h-9.196ZM311.922 185.355a9.197 9.197 0 0 1-18.394 0v-23.028a9.197 9.197 0 0 1 18.394 0Z"/><path class="f" d="M302.725 222.284a9.197 9.197 0 1 1-9.197 9.197v-9.197ZM302.725 217.65a9.197 9.197 0 1 1 0-18.393h23.027a9.197 9.197 0 1 1 0 18.393Z"/><path d="M228.327 136.232a8.546 8.546 0 0 0-2.288-4.862c-1.164-1.12-2.416-2.153-3.636-3.214a13.541 13.541 0 0 1-3.068-3.476 30.196 30.196 0 0 1-2.836-7.463 78.922 78.922 0 0 1-1.473-8.406c-.44-3.052-1-6.09-1.616-9.112a40.543 40.543 0 0 0-2.35-8.087 25.167 25.167 0 0 0-10.224-11.816 27.673 27.673 0 0 0-5.558-2.515c-1.037-.35-1.028-.354-.756-1.382a9.327 9.327 0 0 0 .392-4.078 8.878 8.878 0 0 0-3.623-5.823 8.272 8.272 0 0 0-6.89-1.487 8.903 8.903 0 0 0-4.923 3.057 8.624 8.624 0 0 0-1.88 6.89 11.676 11.676 0 0 0 .55 2.051c.099.321.055.465-.289.594-1.374.514-2.765.998-4.093 1.617a24.086 24.086 0 0 0-12.633 13.622 60.827 60.827 0 0 0-2.955 11.751c-.534 3.09-.947 6.2-1.439 9.296a39.72 39.72 0 0 1-2.015 7.892 14.522 14.522 0 0 1-3.377 5.666c-1.12 1.055-2.322 2.02-3.487 3.027a9.816 9.816 0 0 0-2.664 3.067 14.934 14.934 0 0 0-.907 9.89 3.818 3.818 0 0 0 4.027 3.198c2.83-.013 5.659.069 8.488.082 5.708.028 11.416.037 17.124.056.181.001.362.028.506.04.119.726.217 1.384.335 2.038a11.558 11.558 0 0 0 6.099 8.274 10.615 10.615 0 0 0 3.553 1.232h3.627c.228-.043.462-.068.685-.131a11.653 11.653 0 0 0 8.667-8.29c.3-1.023.45-2.091.68-3.194h2.626c5.82-.007 11.638-.005 17.457-.026 2.097-.008 4.195-.083 6.292-.101a3.391 3.391 0 0 0 2.765-1.337 5.885 5.885 0 0 0 1.294-3.408 21.961 21.961 0 0 0-.187-5.132Zm-42.13-66.071a2.895 2.895 0 0 1 2.909 3.044 2.956 2.956 0 0 1-2.834 2.76 3.044 3.044 0 0 1-2.926-2.994 2.916 2.916 0 0 1 2.852-2.81Zm-.13 81.9a6.102 6.102 0 0 1-5.704-5.763h11.745a6.082 6.082 0 0 1-6.04 5.763Zm-35.189-12.883c.126-.901.237-1.69.382-2.475a2.18 2.18 0 0 1 .997-1.264 32.415 32.415 0 0 0 4.874-4.315 19.93 19.93 0 0 0 3.364-5.317 49.575 49.575 0 0 0 3.215-11.019c.167-.924.273-1.843.375-2.733.096-.823.195-1.676.336-2.496.576-3.358 1.105-6.379 1.756-9.363a34.463 34.463 0 0 1 1.62-5.53 17.612 17.612 0 0 1 12.094-10.793 22.684 22.684 0 0 1 6.29-.794c.696 0 1.395.023 2.096.058a19.586 19.586 0 0 1 10.123 3.444 17.747 17.747 0 0 1 6.741 9.298 54.453 54.453 0 0 1 1.97 8.105l.131.766c.363 2.098.729 4.207.985 6.305a56.604 56.604 0 0 0 1.975 9.873 32.393 32.393 0 0 0 3.008 7.299 20.843 20.843 0 0 0 4.433 5.128c.95.811 1.907 1.616 2.885 2.398a2.392 2.392 0 0 1 .777 1.372 10.26 10.26 0 0 1 .299 2.053Z" style="fill:#f58535"/></svg>