<svg xmlns="http://www.w3.org/2000/svg" viewBox="0 0 370 370"><defs><style>.a{fill:#004c74}</style></defs><path class="a" d="M47.136 305.733a4.958 4.958 0 0 1-3.806-1.772A185.147 185.147 0 0 1 0 185C0 82.99 82.99 0 185 0a185.207 185.207 0 0 1 118.399 42.854 4.969 4.969 0 0 1-6.364 7.633A175.252 175.252 0 0 0 185 9.937C88.47 9.937 9.937 88.47 9.937 185a175.195 175.195 0 0 0 41 112.567 4.969 4.969 0 0 1-3.801 8.166Z"/><path d="M185 370a185.143 185.143 0 0 1-118.982-43.348 4.969 4.969 0 0 1 6.395-7.606A175.192 175.192 0 0 0 185 360.063c96.53 0 175.063-78.533 175.063-175.063a175.134 175.134 0 0 0-41.467-113.12 4.969 4.969 0 0 1 7.58-6.425A185.082 185.082 0 0 1 370 185c0 102.01-82.99 185-185 185Z" style="fill:#4ab4ee"/><path class="a" d="M241.426 222.911c-.55-8.712-3.12-16.41-8.282-23.083a40.601 40.601 0 0 0-19.096-13.648l3.492-15.978c3.241.733 6.567 1.904 10.024 2.256 9.618.98 14.954-.827 21.3-5.405a5.428 5.428 0 0 1 5.203-.868 30.965 30.965 0 0 1 22.455 28.675c.126 5.227.1 10.46-.018 15.686a3.674 3.674 0 0 1-1.304 2.73c-4.425 2.554-28.672 8.82-33.774 9.635ZM156.599 185.792c-17.114 6.589-26.498 18.71-28.274 37.078-4.507-.732-29.451-7.222-34.017-9.74a2.153 2.153 0 0 1-.913-1.62c.18-7.436-.175-14.955.848-22.28 1.161-8.32 6.487-14.531 13.213-19.299 2.49-1.765 5.555-2.733 8.382-4.01a4.067 4.067 0 0 1 4.602.894 26.712 26.712 0 0 0 13.003 5.612c5.948 1.007 11.94.674 17.464-2.333a8.434 8.434 0 0 1 1.594-.424c.731 5.476.667 11.038 4.098 16.122ZM206.167 169.477c.011 14.612-12.914 22.187-22.61 21.442a21.265 21.265 0 0 1-19.835-22.826c.67-11.182 11.028-20.384 22.084-19.621 11.568.798 21.012 10.54 20.36 21.005ZM138.65 120.14c11.795.113 21.518 9.686 21.045 21.32-.522 12.831-8.708 20.798-20.82 21.127-13.94.379-21.75-11.19-21.602-21.417a21.147 21.147 0 0 1 21.377-21.03ZM252.363 141.424c-.04 12.96-9.182 21.676-23.372 21.031-9.875-.448-18.789-8.887-18.943-20.875a21.159 21.159 0 1 1 42.315-.156ZM230.143 222.474c-1.466-14.26-10.416-25.774-23.247-28.817a4.111 4.111 0 0 0-3.972.76 29.287 29.287 0 0 1-35.925.14 4.682 4.682 0 0 0-4.587-.798c-12.29 3.368-19.966 13.661-22.646 26.961-1.118 5.554-.807 12.036-.745 17.709a3.732 3.732 0 0 0 1.598 2.281c1.915 1.107 11.64 5.053 23.172 7.423a9.916 9.916 0 0 1 9.887-9.408h1.155v-.74a10.135 10.135 0 1 1 20.27 0v.74h1.22a9.923 9.923 0 0 1 9.912 9.912v.006c10.45-2.055 19.792-6.365 21.853-7.188 1.78-.711 2.83-1.876 2.795-3.628-.1-5.116-.217-10.262-.74-15.353Z"/><path d="M196.323 252.54h-7.23v6.748a4.126 4.126 0 0 1-4.125 4.126 4.126 4.126 0 0 1-4.126-4.126v-6.749h-7.165a3.902 3.902 0 0 1-3.902-3.902 3.902 3.902 0 0 1 3.902-3.902h7.165v-6.75a4.126 4.126 0 0 1 4.126-4.126 4.126 4.126 0 0 1 4.126 4.127v6.749h7.229a3.902 3.902 0 0 1 3.902 3.902 3.902 3.902 0 0 1-3.902 3.902Z" style="fill:#f58535"/></svg>