<svg xmlns="http://www.w3.org/2000/svg" viewBox="0 0 370 370"><defs><style>.a{fill:#004c74}.c{fill:#f58535}</style></defs><path class="a" d="M47.136 305.733a4.958 4.958 0 0 1-3.806-1.772A185.147 185.147 0 0 1 0 185C0 82.99 82.99 0 185 0a185.207 185.207 0 0 1 118.399 42.854 4.969 4.969 0 0 1-6.364 7.633A175.252 175.252 0 0 0 185 9.937C88.47 9.937 9.937 88.47 9.937 185a175.195 175.195 0 0 0 41 112.567 4.969 4.969 0 0 1-3.801 8.166Z"/><path d="M185 370a185.143 185.143 0 0 1-118.982-43.348 4.969 4.969 0 0 1 6.395-7.606A175.192 175.192 0 0 0 185 360.063c96.53 0 175.063-78.533 175.063-175.063a175.134 175.134 0 0 0-41.467-113.12 4.969 4.969 0 0 1 7.58-6.425A185.082 185.082 0 0 1 370 185c0 102.01-82.99 185-185 185Z" style="fill:#4ab4ee"/><path class="a" d="M175.096 273.219a18.345 18.345 0 0 1-12.978-5.346l-64.027-63.675a18.423 18.423 0 0 1-.072-26.028l69.81-70.195a18.393 18.393 0 0 1 16.392-5.12l53.797 9.934a18.29 18.29 0 0 1 14.738 14.657l10.23 53.74a18.394 18.394 0 0 1-5.03 16.42l-69.81 70.196a18.35 18.35 0 0 1-13.05 5.417Zm5.78-163.584a11.313 11.313 0 0 0-8.023 3.338l-69.809 70.194a11.336 11.336 0 0 0 .044 16.006l64.027 63.675a11.332 11.332 0 0 0 16.007-.044l69.809-70.196a11.314 11.314 0 0 0 3.093-10.097l-10.23-53.74a11.248 11.248 0 0 0-9.064-9.014l-53.796-9.933a11.337 11.337 0 0 0-2.058-.189Zm4.758 155.668Z"/><path class="a" d="M223.853 158.872a17.004 17.004 0 0 1-12.07-4.975h-.002a17.123 17.123 0 0 1 12.027-29.263h.046a17.119 17.119 0 0 1 .048 34.238Zm-7.075-10a9.966 9.966 0 0 0 7.076 2.913h.029a10.032 10.032 0 0 0-.029-20.064h-.027a10.037 10.037 0 0 0-7.049 17.151Z"/><path class="a" d="M224.86 144.295a3.543 3.543 0 0 1-2.496-6.058l34.907-34.66a3.543 3.543 0 1 1 4.993 5.029l-34.908 34.66a3.53 3.53 0 0 1-2.496 1.029Z"/><path class="c" d="M225.276 197.76h-.12a37.56 37.56 0 0 0 .125 75.12l.327-.001a37.56 37.56 0 0 0-.332-75.119Z"/><path d="m225.547 265.29-.275.002a29.972 29.972 0 0 1-.1-59.943h.102a29.972 29.972 0 0 1 .273 59.942Z" style="fill:#fff"/><path class="c" d="M236.587 239.223h-7.23v6.749a4.126 4.126 0 0 1-4.125 4.126 4.126 4.126 0 0 1-4.126-4.126v-6.75h-7.165a3.902 3.902 0 0 1-3.902-3.902 3.902 3.902 0 0 1 3.902-3.902h7.165v-6.749a4.126 4.126 0 0 1 4.126-4.126 4.126 4.126 0 0 1 4.126 4.126v6.75h7.229a3.902 3.902 0 0 1 3.902 3.901 3.902 3.902 0 0 1-3.902 3.903Z"/></svg>