<svg version="1.1" id="Layer_1" xmlns="http://www.w3.org/2000/svg" x="0" y="0" viewBox="0 0 44.2 30.8" style="enable-background:new 0 0 44.2 30.8" xml:space="preserve"><style>.st0{fill:#fff}</style><path class="st0" d="M13 9.4c0-.1-.1-.2-.2-.3-3.5-2.7-8.4-2-11.1 1.4-2.2 2.9-2.2 6.8 0 9.7.1.1.2.2.3.2.1 0 .2 0 .3-.1l1.4-1.4c.2-.2.2-.4 0-.6-1.6-2.3-1-5.4 1.2-7 1.7-1.2 4-1.2 5.8 0 .2.1.4.1.6 0l1.4-1.4c.2-.2.3-.4.3-.5zM14.2 10.5c-.1-.2-.4-.2-.6-.1l-1.4 1.4c-.2.2-.2.4 0 .6 1.6 2.3 1 5.4-1.2 7-1.7 1.2-4 1.2-5.8 0-.2-.1-.4-.1-.6 0L3.1 21c-.2.2-.2.5 0 .6 1.4 1.1 3.1 1.7 4.9 1.7h.5c4.4-.3 7.7-4 7.4-8.4-.1-1.6-.7-3.1-1.7-4.4zM27.7 6.5h-2.5V4.3h2c.3 0 .5-.2.6-.5v-.1c0-.3-.2-.5-.5-.6h-2.1v-2h2.4c.3 0 .5-.2.6-.5V.5c0-.3-.2-.5-.5-.6h-3c-.3 0-.6.2-.6.5V7c0 .2 0 .3.1.5.1.1.3.2.5.2h3c.4 0 .6-.2.6-.6 0-.3-.2-.6-.6-.6.1 0 0 0 0 0zM20.2.1h-1.9c-.7 0-.8.5-.8.7v6.4c0 .2 0 .3.2.5.1.1.3.2.5.1H20c1 0 1.9-.4 2.4-1.2.6-.8.9-1.7.9-2.6 0-.9-.2-1.8-.8-2.6C22 .6 21.1.1 20.2.1zM22.1 4c0 .7-.2 1.3-.6 1.8-.4.5-1 .8-1.6.8h-1.3V1.2h1.5c.6 0 1.2.3 1.5.8.3.6.5 1.3.5 2zM36.2 1c-.1-.8-.6-.9-.8-.9-.3 0-.7.1-.9.8l-1.4 4.6L31.7.9c-.2-.7-.6-.8-.9-.8-.3 0-.7.1-.8.9l-1 6v.2c0 .3.2.5.5.5h.1c.3 0 .6-.3.6-.6l.8-5 1.6 5c.1.5.4.6.6.6.2 0 .5-.1.6-.6l1.6-5 .7 5c0 .3.3.6.6.6s.6-.2.6-.5V7l-1.1-6zM43.3 1.3C42.8.4 41.8 0 40.8 0s-1.9.4-2.5 1.2c-.6.8-.8 1.8-.8 2.7 0 1 .3 1.9.8 2.7.6.8 1.5 1.3 2.5 1.3s1.9-.4 2.5-1.2c.6-.8.9-1.7.8-2.7.1-1-.2-2-.8-2.7zM43 4c0 .7-.2 1.4-.5 1.9-.6.9-1.8 1.1-2.7.5-.2-.1-.4-.3-.5-.5-.4-.6-.6-1.3-.6-2s.2-1.4.5-1.9c.6-.9 1.8-1.1 2.7-.5.2.1.4.3.5.5.4.6.6 1.3.6 2z"/></svg>