<svg xmlns="http://www.w3.org/2000/svg" viewBox="0 0 129 30.79843"><defs><style>.a{fill:#004c74;}.b{fill:#4ab4ee;}</style></defs><title>logo OptScale_colored_demo</title><path class="a" d="M53.07089,15.75851a7.21005,7.21005,0,0,0-1.40176-.84666,15.181,15.181,0,0,0-1.60424-.73136l-1.428-.57685a10.05576,10.05576,0,0,1-1.22389-.59042c-.69816-.3887-1.05191-.78181-1.05191-1.16811a1.433,1.433,0,0,1,.80056-1.32863A3.84965,3.84965,0,0,1,49.0955,10.087a5.85257,5.85257,0,0,1,2.91118.64209,1.45442,1.45442,0,0,0,.72618.20056A1.17159,1.17159,0,0,0,53.973,9.63388a1.26772,1.26772,0,0,0-.69366-1.20182,8.455,8.455,0,0,0-4.13227-.99077,6.21141,6.21141,0,0,0-3.78144,1.09045,4.13648,4.13648,0,0,0-1.70625,3.55036,3.58025,3.58025,0,0,0,1.83922,2.92227,10.38388,10.38388,0,0,0,1.72222.95354l.37886.16573.42228.15291c.34421.14211.68024.27462,1.01063.39992a7.51551,7.51551,0,0,1,1.89491.93312,1.58822,1.58822,0,0,1,.82548,1.26618,1.6412,1.6412,0,0,1-.879,1.488,3.84354,3.84354,0,0,1-1.9319.45475,5.93351,5.93351,0,0,1-3.35079-1.12967,1.72039,1.72039,0,0,0-.92652-.34507,1.31762,1.31762,0,0,0-1.39533,1.42791c0,.48838.5417.91774.87734,1.145a8.13036,8.13036,0,0,0,4.7441,1.54746,6.51571,6.51571,0,0,0,3.80246-1.06123,4.27216,4.27216,0,0,0,1.83825-3.71128A3.60064,3.60064,0,0,0,53.07089,15.75851Z"/><path class="a" d="M75.381,7.49037a7.12584,7.12584,0,0,0-4.032,1.02842c-1.0945.71715-1.5829,1.32012-1.5829,1.95633a1.32773,1.32773,0,0,0,.36327.93027,1.26335,1.26335,0,0,0,.91971.38321,1.72487,1.72487,0,0,0,1.15628-.4837,4.09359,4.09359,0,0,1,3.16033-1.23332c2.34,0,3.33825.92987,3.33825,3.10988v.72986a.14527.14527,0,0,1-.14527.14527H74.51445c-3.39729,0-5.50809,1.79054-5.50809,4.67246A4.7643,4.7643,0,0,0,70.244,22.02272c1.01356,1.03037,2.35871,1.47028,4.49884,1.47028a5.872,5.872,0,0,0,3.86779-1.10806.10278.10278,0,0,1,.16082.05275,1.518,1.518,0,0,0,.16482.35966,1.45666,1.45666,0,0,0,2.40486.00039,2.00866,2.00866,0,0,0,.24752-1.19578V12.83149C81.58863,9.33722,79.44186,7.49037,75.381,7.49037Zm3.12751,8.91907a.19547.19547,0,0,1,.19548.19548h0v1.06013a3.21028,3.21028,0,0,1-.67179,2.3544,4.01491,4.01491,0,0,1-3.0614.92284c-2.78766,0-3.10988-1.27164-3.10988-2.22849,0-1.52894.97445-2.30436,2.89678-2.30436Z"/><path class="a" d="M12.94763,9.41784a.44276.44276,0,0,0-.171-.32214A7.92892,7.92892,0,0,0,1.65446,20.21783a.44275.44275,0,0,0,.32215.171l.02816.0009A.44273.44273,0,0,0,2.31785,20.26l1.44549-1.44548a.4428.4428,0,0,0,.04976-.56688,5.02191,5.02191,0,0,1,6.99337-6.99337.44274.44274,0,0,0,.56687-.04976l1.44549-1.44548A.44281.44281,0,0,0,12.94763,9.41784Z"/><path class="b" d="M14.21044,10.52953a.44277.44277,0,0,0-.66339-.04223l-1.44549,1.44549a.4428.4428,0,0,0-.04976.56688A5.02191,5.02191,0,0,1,5.05842,19.493a.44284.44284,0,0,0-.56686.04977L3.04607,20.98828a.44278.44278,0,0,0,.04223.6634,7.93,7.93,0,0,0,4.8525,1.65444q.2352,0,.47141-.01393a7.92892,7.92892,0,0,0,5.79823-12.76266Z"/><path class="a" d="M29.29827,10.03432l-.00017-.00024A5.76951,5.76951,0,0,0,24.368,7.39416a5.00669,5.00669,0,0,0-2.8737.96843l-.00525.00367a5.9793,5.9793,0,0,0-.77291.64886V8.95243a1.58817,1.58817,0,0,0-.3903-1.1339,1.6812,1.6812,0,0,0-2.23322,0,1.58817,1.58817,0,0,0-.39031,1.1339V29.18934a1.69979,1.69979,0,0,0,.36941,1.15611,1.40779,1.40779,0,0,0,1.11207.453,1.49686,1.49686,0,0,0,1.13549-.43068,1.614,1.614,0,0,0,.39686-1.153V22.0945a4.58084,4.58084,0,0,0,.8705.62654,5.40533,5.40533,0,0,0,2.78136.73838A5.75188,5.75188,0,0,0,29.29432,20.927a9.01891,9.01891,0,0,0,1.58676-5.41075A9.37427,9.37427,0,0,0,29.29827,10.03432Zm-2.24972,9.0319A2.735,2.735,0,0,1,24.547,20.5987a3.06954,3.06954,0,0,1-2.7452-1.5297l-.003-.00464a6.36756,6.36756,0,0,1-.9291-3.54807,6.32352,6.32352,0,0,1,.92912-3.52314l.00652-.01015A3.05039,3.05039,0,0,1,24.547,10.408a2.684,2.684,0,0,1,2.49086,1.64077l.00632.01168A7.2659,7.2659,0,0,1,27.8418,15.618a6.77126,6.77126,0,0,1-.791,3.44423Z"/><path class="a" d="M67.44546,19.88756l-.00155-.00154a1.2481,1.2481,0,0,0-.89035-.38738.98537.98537,0,0,0-.66452.21643,4.49119,4.49119,0,0,1-2.61838.78181,4.1269,4.1269,0,0,1-3.18772-1.4841,5.12187,5.12187,0,0,1-1.33786-3.59267,5.44437,5.44437,0,0,1,1.28537-3.77659,4.07469,4.07469,0,0,1,3.16079-1.37815,6.8998,6.8998,0,0,1,2.66292.56394.51525.51525,0,0,0,.07322.02437,1.59736,1.59736,0,0,0,.3898.068,1.31244,1.31244,0,0,0,1.04023-.42753,1.611,1.611,0,0,0,.3432-1.08763,1.25406,1.25406,0,0,0-.36437-.86739A2.525,2.525,0,0,0,66.50417,7.99a7.923,7.923,0,0,0-3.3391-.62417A7.1394,7.1394,0,0,0,57.91275,9.568a7.83139,7.83139,0,0,0-2.198,5.72088,8.18578,8.18578,0,0,0,2.16061,5.7619,7.03019,7.03019,0,0,0,5.342,2.34522,6.778,6.778,0,0,0,3.77694-1.13486.51886.51886,0,0,0,.04732-.03506,1.84606,1.84606,0,0,0,.81687-1.36964A1.35479,1.35479,0,0,0,67.44546,19.88756Z"/><path class="a" d="M85.35713.0875a1.40753,1.40753,0,0,0-1.50427,1.55807V21.86482a1.53118,1.53118,0,0,0,3.06235,0V1.64557A1.43168,1.43168,0,0,0,85.35713.0875Z"/><path class="a" d="M101.11667,18.652a2.21954,2.21954,0,0,0-1.47825.58315A4.76052,4.76052,0,0,1,96.40379,20.398,4.00872,4.00872,0,0,1,93.536,19.10645a4.14,4.14,0,0,1-1.28932-2.2917h8.34349a1.89229,1.89229,0,0,0,1.63632-.71862l.01467-.02126a3.40939,3.40939,0,0,0,.34233-1.80857,6.91539,6.91539,0,0,0-1.70938-4.88537,6.30072,6.30072,0,0,0-4.89187-1.93971,6.18711,6.18711,0,0,0-5.13,2.52881,8.5682,8.5682,0,0,0-1.76175,5.40984,8.114,8.114,0,0,0,1.884,5.50662,6.84312,6.84312,0,0,0,5.42925,2.38163,7.14976,7.14976,0,0,0,5.78731-2.421,1.14613,1.14613,0,0,0,.31371-.83643,1.26222,1.26222,0,0,0-1.38814-1.35871Zm-8.85786-4.65652a4.22652,4.22652,0,0,1,1.08924-2.46739l.00355-.004A3.40048,3.40048,0,0,1,96.06092,10.311a3.15029,3.15029,0,0,1,2.568,1.17589,4.42754,4.42754,0,0,1,.94952,2.50862Z"/><path class="a" d="M41.71064,21.11344a1.45989,1.45989,0,0,0-1.84491-.92672q-.03678.01219-.07287.02631a3.69382,3.69382,0,0,1-1.89811.09155c-.67465-.1896-1.02755-1.1752-1.02755-1.74225V10.55354h2.25144a1.489,1.489,0,0,0,1.489-1.48895h0a1.489,1.489,0,0,0-1.489-1.489H36.8672V2.04711A2.11434,2.11434,0,0,0,36.60666.78762a1.53462,1.53462,0,0,0-2.53132,0,2.11426,2.11426,0,0,0-.26053,1.25949V7.57563H32.64169a1.489,1.489,0,0,0-1.48895,1.48895h0a1.489,1.489,0,0,0,1.48895,1.489h1.17312v8.08869a8.64227,8.64227,0,0,0,.08128,1.30562,2.08574,2.08574,0,0,0,.20588.602,4.18317,4.18317,0,0,0,1.80989,2.13067,5.01826,5.01826,0,0,0,2.59353.66264,7.9252,7.9252,0,0,0,2.12127-.31185,1.55771,1.55771,0,0,0,1.084-1.91776Z"/><path class="a" d="M112.52361,6.51857h-2.4961V4.28114h1.95468a.51246.51246,0,0,0,.56695-.54791.52551.52551,0,0,0-.56695-.57682h-1.95468V1.19908h2.41854a.5168.5168,0,0,0,.567-.55779.521.521,0,0,0-.567-.56719h-2.93731a.575.575,0,0,0-.60547.6445V6.99882a.68159.68159,0,0,0,.11994.48722.61268.61268,0,0,0,.48554.15751h3.01487c.39112,0,.62474-.20857.62474-.55755a.54946.54946,0,0,0-.62475-.56743Z"/><path class="a" d="M105.00607.10122h-1.93279c-.70578,0-.78309.48008-.78309.68707v6.357a.64174.64174,0,0,0,.15213.48257.63079.63079,0,0,0,.47634.13467H104.814a3.0281,3.0281,0,0,0,2.44155-1.18461,4.07449,4.07449,0,0,0,.88035-2.61737,4.42038,4.42038,0,0,0-.77311-2.61488A2.76779,2.76779,0,0,0,105.00607.10122Zm1.92282,3.85934a3.00488,3.00488,0,0,1-.56113,1.84176,1.9015,1.9015,0,0,1-1.60609.81427h-1.31429v-5.367h1.45146a1.71633,1.71633,0,0,1,1.50384.81426,3.24514,3.24514,0,0,1,.5262,1.89663Z"/><path class="a" d="M121.05546.98277c-.10724-.78309-.55864-.90031-.82051-.90031-.30426,0-.70828.13592-.91029.78808l-1.43151,4.63994-1.3941-4.6362c-.192-.67086-.591-.81177-.89282-.81177-.25937,0-.71077.11846-.838.91652l-.95767,6.03155a.61389.61389,0,0,0-.02244.19328.5069.5069,0,0,0,.55614.54866.59511.59511,0,0,0,.60845-.58146l.00007-.00337.75566-4.99158,1.5562,5.01154c.14216.47509.409.57484.60852.57484.197,0,.46387-.09975.606-.5711l1.61358-5.00655.70079,4.99158a.59173.59173,0,0,0,.60353.5761.53873.53873,0,0,0,.57859-.60727.35418.35418,0,0,0-.01247-.07108Z"/><path class="a" d="M128.16454,1.25771A3.01227,3.01227,0,0,0,125.62822,0a2.95292,2.95292,0,0,0-2.49891,1.24914,4.34506,4.34506,0,0,0-.823,2.66728,4.40628,4.40628,0,0,0,.823,2.68687A2.967,2.967,0,0,0,125.62822,7.861a3.02762,3.02762,0,0,0,2.53632-1.24668A4.29271,4.29271,0,0,0,129,3.94459,4.33848,4.33848,0,0,0,128.16454,1.25771ZM127.80292,3.974a3.24379,3.24379,0,0,1-.54868,1.93127,1.93087,1.93087,0,0,1-3.20469-.0294,3.35139,3.35139,0,0,1-.55863-1.9778,3.23206,3.23206,0,0,1,.54866-1.92269,1.9435,1.9435,0,0,1,3.2047.02939A3.32914,3.32914,0,0,1,127.80292,3.974Z"/></svg>