<svg xmlns="http://www.w3.org/2000/svg" viewBox="0 0 44.2 30.8"><defs><style>.a{fill:#004c74;}.b{fill:#4ab4ee;}</style></defs><title>logo OptScale_colored_O_demo</title><path class="a" d="M13,9.4c0-.1-.1-.2-.2-.3A7.91107,7.91107,0,0,0,1.7,20.2c.1.1.2.2.3.2H2a.36737.36737,0,0,0,.3-.1l1.4-1.4a.375.375,0,0,0,0-.6,5.022,5.022,0,0,1,7-7,.6375.6375,0,0,0,.6,0l1.4-1.4A.91373.91373,0,0,0,13,9.4Z"/><path class="b" d="M14.2,10.5c-.1-.2-.4-.2-.6-.1h0l-1.4,1.4a.375.375,0,0,0,0,.6,5.022,5.022,0,0,1-7,7,.6375.6375,0,0,0-.6,0L3.1,21c-.2.2-.2.5,0,.6h0A7.881,7.881,0,0,0,8,23.3h.5a7.86716,7.86716,0,0,0,7.4-8.4A8.00378,8.00378,0,0,0,14.2,10.5Z"/><path class="a" d="M27.7,6.5H25.2V4.3h2a.63378.63378,0,0,0,.6-.5V3.7a.63378.63378,0,0,0-.5-.6H25.2v-2h2.4a.63378.63378,0,0,0,.6-.5V.5a.63378.63378,0,0,0-.5-.6h-3a.56.56,0,0,0-.6.5V7a.90151.90151,0,0,0,.1.5.76385.76385,0,0,0,.5.2h3a.53033.53033,0,0,0,.6-.6.5764.5764,0,0,0-.6-.6Z"/><path class="a" d="M20.2.1H18.3a.69868.69868,0,0,0-.8.7V7.2a.55052.55052,0,0,0,.2.5.43974.43974,0,0,0,.5.1H20a2.73021,2.73021,0,0,0,2.4-1.2A4.317,4.317,0,0,0,23.3,4a4.20261,4.20261,0,0,0-.8-2.6A2.77176,2.77176,0,0,0,20.2.1ZM22.1,4a2.79194,2.79194,0,0,1-.6,1.8,2.08761,2.08761,0,0,1-1.6.8H18.6V1.2h1.5a1.76316,1.76316,0,0,1,1.5.8,4.55191,4.55191,0,0,1,.5,2Z"/><path class="a" d="M36.2,1c-.1-.8-.6-.9-.8-.9-.3,0-.7.1-.9.8L33.1,5.5,31.7.9c-.2-.7-.6-.8-.9-.8s-.7.1-.8.9L29,7v.2a.47239.47239,0,0,0,.5.5h.1a.64523.64523,0,0,0,.6-.6h0l.8-5,1.6,5c.1.5.4.6.6.6s.5-.1.6-.6l1.6-5,.7,5a.64523.64523,0,0,0,.6.6.56.56,0,0,0,.6-.5V7Z"/><path class="a" d="M43.3,1.3A2.76449,2.76449,0,0,0,40.8,0a3.03391,3.03391,0,0,0-2.5,1.2,4.49019,4.49019,0,0,0-.8,2.7,5.02931,5.02931,0,0,0,.8,2.7,3.12708,3.12708,0,0,0,2.5,1.3,3.03391,3.03391,0,0,0,2.5-1.2A3.76755,3.76755,0,0,0,44.1,4,3.63471,3.63471,0,0,0,43.3,1.3ZM43,4a3.82964,3.82964,0,0,1-.5,1.9,1.92993,1.92993,0,0,1-2.7.5,1.205,1.205,0,0,1-.5-.5,3.60573,3.60573,0,0,1-.6-2A3.82964,3.82964,0,0,1,39.2,2a1.92993,1.92993,0,0,1,2.7-.5,1.205,1.205,0,0,1,.5.5A3.60573,3.60573,0,0,1,43,4Z"/></svg>