<svg xmlns="http://www.w3.org/2000/svg" viewBox="0 0 23.196 45"><defs><style>.a{fill:#fff}</style></defs><path class="a" d="M18.93 13.694a.647.647 0 0 0-.25-.471 11.592 11.592 0 0 0-16.26 16.26.647.647 0 0 0 .47.25l.042.002a.647.647 0 0 0 .457-.19l2.114-2.113a.647.647 0 0 0 .072-.829A7.342 7.342 0 0 1 15.8 16.38a.647.647 0 0 0 .829-.073l2.113-2.113a.647.647 0 0 0 .188-.5ZM20.777 15.32a.647.647 0 0 0-.97-.063l-2.114 2.114a.647.647 0 0 0-.072.829A7.342 7.342 0 0 1 7.396 28.424a.647.647 0 0 0-.829.073L4.454 30.61a.647.647 0 0 0 .062.97A11.594 11.594 0 0 0 11.61 34q.344 0 .69-.02a11.592 11.592 0 0 0 8.477-18.66Z"/></svg>