<svg xmlns="http://www.w3.org/2000/svg" viewBox="0 0 129 30.798"><defs><style>.a{fill:#fff}</style></defs><path class="a" d="M53.07 15.759a7.21 7.21 0 0 0-1.4-.847 15.18 15.18 0 0 0-1.605-.732l-1.428-.576a10.056 10.056 0 0 1-1.224-.59c-.698-.39-1.052-.783-1.052-1.169a1.433 1.433 0 0 1 .8-1.329 3.85 3.85 0 0 1 1.934-.43 5.853 5.853 0 0 1 2.912.643 1.454 1.454 0 0 0 .726.2 1.172 1.172 0 0 0 1.24-1.295 1.268 1.268 0 0 0-.694-1.202 8.455 8.455 0 0 0-4.132-.99 6.211 6.211 0 0 0-3.781 1.09 4.136 4.136 0 0 0-1.707 3.55 3.58 3.58 0 0 0 1.84 2.922 10.384 10.384 0 0 0 1.722.954l.379.166.422.153c.344.142.68.274 1.01.4a7.516 7.516 0 0 1 1.896.933 1.588 1.588 0 0 1 .825 1.266 1.641 1.641 0 0 1-.879 1.488 3.844 3.844 0 0 1-1.932.455 5.934 5.934 0 0 1-3.35-1.13 1.72 1.72 0 0 0-.927-.345 1.318 1.318 0 0 0-1.396 1.428c0 .488.542.917.878 1.145a8.13 8.13 0 0 0 4.744 1.547 6.516 6.516 0 0 0 3.802-1.061 4.272 4.272 0 0 0 1.839-3.711 3.6 3.6 0 0 0-1.461-2.933ZM75.381 7.49a7.126 7.126 0 0 0-4.032 1.029c-1.095.717-1.583 1.32-1.583 1.956a1.328 1.328 0 0 0 .363.93 1.263 1.263 0 0 0 .92.384 1.725 1.725 0 0 0 1.156-.484 4.094 4.094 0 0 1 3.16-1.233c2.34 0 3.339.93 3.339 3.11v.73a.145.145 0 0 1-.145.145h-4.045c-3.397 0-5.508 1.79-5.508 4.672a4.764 4.764 0 0 0 1.238 3.294c1.014 1.03 2.359 1.47 4.499 1.47a5.872 5.872 0 0 0 3.868-1.108.103.103 0 0 1 .16.053 1.518 1.518 0 0 0 .165.36 1.457 1.457 0 0 0 2.405 0 2.009 2.009 0 0 0 .248-1.196v-8.77c0-3.495-2.147-5.342-6.208-5.342Zm3.128 8.92a.195.195 0 0 1 .195.195v1.06a3.21 3.21 0 0 1-.672 2.354 4.015 4.015 0 0 1-3.061.923c-2.788 0-3.11-1.271-3.11-2.228 0-1.53.974-2.305 2.897-2.305ZM12.948 9.418a.443.443 0 0 0-.171-.322A7.929 7.929 0 0 0 1.654 20.218a.443.443 0 0 0 .323.17l.028.002a.443.443 0 0 0 .313-.13l1.445-1.445a.443.443 0 0 0 .05-.567 5.022 5.022 0 0 1 6.993-6.994.443.443 0 0 0 .567-.05L12.82 9.76a.443.443 0 0 0 .129-.341ZM14.21 10.53a.443.443 0 0 0-.663-.043l-1.445 1.446a.443.443 0 0 0-.05.567 5.022 5.022 0 0 1-6.994 6.993.443.443 0 0 0-.566.05l-1.446 1.445a.443.443 0 0 0 .042.664 7.93 7.93 0 0 0 4.853 1.654q.235 0 .471-.014A7.929 7.929 0 0 0 14.21 10.53ZM29.298 10.034a5.77 5.77 0 0 0-4.93-2.64 5.007 5.007 0 0 0-2.874.969l-.005.003a5.98 5.98 0 0 0-.773.65v-.064a1.588 1.588 0 0 0-.39-1.133 1.681 1.681 0 0 0-2.233 0 1.588 1.588 0 0 0-.39 1.133V29.19a1.7 1.7 0 0 0 .369 1.156 1.408 1.408 0 0 0 1.112.453 1.497 1.497 0 0 0 1.135-.43 1.614 1.614 0 0 0 .397-1.153v-7.12a4.581 4.581 0 0 0 .87.626 5.405 5.405 0 0 0 2.782.738 5.752 5.752 0 0 0 4.926-2.532 9.019 9.019 0 0 0 1.587-5.41 9.374 9.374 0 0 0-1.583-5.483Zm-2.25 9.032a2.735 2.735 0 0 1-2.501 1.533 3.07 3.07 0 0 1-2.745-1.53l-.003-.005a6.368 6.368 0 0 1-.93-3.548 6.324 6.324 0 0 1 .93-3.523l.006-.01a3.05 3.05 0 0 1 2.742-1.575 2.684 2.684 0 0 1 2.49 1.64l.007.012a7.266 7.266 0 0 1 .798 3.558 6.771 6.771 0 0 1-.791 3.444Zm.1.058ZM67.445 19.888l-.001-.002a1.248 1.248 0 0 0-.89-.387.985.985 0 0 0-.665.216 4.491 4.491 0 0 1-2.618.782 4.127 4.127 0 0 1-3.188-1.484 5.122 5.122 0 0 1-1.338-3.593 5.444 5.444 0 0 1 1.285-3.776 4.075 4.075 0 0 1 3.161-1.379 6.9 6.9 0 0 1 2.663.564.516.516 0 0 0 .073.025 1.598 1.598 0 0 0 .39.068 1.312 1.312 0 0 0 1.04-.428 1.611 1.611 0 0 0 .344-1.087 1.254 1.254 0 0 0-.365-.868 2.525 2.525 0 0 0-.832-.549 7.923 7.923 0 0 0-3.339-.624 7.14 7.14 0 0 0-5.252 2.202 7.831 7.831 0 0 0-2.198 5.72 8.186 8.186 0 0 0 2.16 5.763 7.03 7.03 0 0 0 5.342 2.345 6.778 6.778 0 0 0 3.777-1.135.52.52 0 0 0 .048-.035 1.846 1.846 0 0 0 .816-1.37 1.355 1.355 0 0 0-.413-.968ZM85.357.087a1.408 1.408 0 0 0-1.504 1.559v20.219a1.531 1.531 0 0 0 3.062 0V1.645A1.432 1.432 0 0 0 85.357.088ZM101.117 18.652a2.22 2.22 0 0 0-1.479.583 4.76 4.76 0 0 1-3.234 1.163 4.009 4.009 0 0 1-2.868-1.292 4.14 4.14 0 0 1-1.29-2.291h8.344a1.892 1.892 0 0 0 1.636-.719l.015-.021a3.41 3.41 0 0 0 .342-1.809 6.915 6.915 0 0 0-1.709-4.885 6.3 6.3 0 0 0-4.892-1.94 6.187 6.187 0 0 0-5.13 2.529 8.568 8.568 0 0 0-1.761 5.41 8.114 8.114 0 0 0 1.884 5.506 6.843 6.843 0 0 0 5.429 2.382 7.15 7.15 0 0 0 5.787-2.42 1.146 1.146 0 0 0 .314-.837 1.262 1.262 0 0 0-1.388-1.359Zm-8.858-4.657a4.226 4.226 0 0 1 1.089-2.467l.004-.004a3.4 3.4 0 0 1 2.709-1.213 3.15 3.15 0 0 1 2.568 1.176 4.428 4.428 0 0 1 .95 2.509ZM41.71 21.113a1.46 1.46 0 0 0-1.917-.9 3.694 3.694 0 0 1-1.898.092c-.675-.19-1.028-1.176-1.028-1.743v-8.008h2.252a1.489 1.489 0 0 0 1.489-1.49 1.489 1.489 0 0 0-1.49-1.488h-2.25V2.047a2.114 2.114 0 0 0-.261-1.26 1.535 1.535 0 0 0-2.532 0 2.114 2.114 0 0 0-.26 1.26v5.529h-1.173a1.489 1.489 0 0 0-1.49 1.489 1.489 1.489 0 0 0 1.49 1.489h1.173v8.088a8.643 8.643 0 0 0 .081 1.306 2.086 2.086 0 0 0 .206.602 4.183 4.183 0 0 0 1.81 2.13 5.018 5.018 0 0 0 2.593.663 7.925 7.925 0 0 0 2.122-.312 1.558 1.558 0 0 0 1.084-1.918ZM112.524 6.519h-2.496V4.28h1.954a.512.512 0 0 0 .567-.548.526.526 0 0 0-.567-.577h-1.954V1.2h2.418a.517.517 0 0 0 .567-.558.521.521 0 0 0-.567-.567h-2.937a.575.575 0 0 0-.606.645v6.28a.682.682 0 0 0 .12.487.613.613 0 0 0 .486.158h3.015c.39 0 .624-.209.624-.558a.55.55 0 0 0-.624-.567ZM105.006.101h-1.933c-.705 0-.783.48-.783.687v6.357a.642.642 0 0 0 .152.483.63.63 0 0 0 .477.135h1.895a3.028 3.028 0 0 0 2.442-1.185 4.075 4.075 0 0 0 .88-2.617 4.42 4.42 0 0 0-.773-2.615A2.768 2.768 0 0 0 105.006.1Zm1.923 3.86a3.005 3.005 0 0 1-.561 1.841 1.901 1.901 0 0 1-1.606.815h-1.315V1.25h1.452a1.716 1.716 0 0 1 1.504.814 3.245 3.245 0 0 1 .526 1.897ZM121.055.983c-.107-.783-.558-.9-.82-.9-.304 0-.708.135-.91.788l-1.432 4.64L116.5.873c-.192-.67-.591-.811-.893-.811-.26 0-.71.118-.838.916l-.957 6.032a.614.614 0 0 0-.023.193.507.507 0 0 0 .556.549.595.595 0 0 0 .609-.585l.755-4.992 1.557 5.012c.142.475.409.574.608.574.197 0 .464-.1.606-.57l1.614-5.007.7 4.991a.592.592 0 0 0 .604.577.539.539 0 0 0 .579-.608.354.354 0 0 0-.013-.07ZM128.165 1.258A3.012 3.012 0 0 0 125.628 0a2.953 2.953 0 0 0-2.499 1.25 4.345 4.345 0 0 0-.823 2.666 4.406 4.406 0 0 0 .823 2.687 2.967 2.967 0 0 0 2.5 1.258 3.028 3.028 0 0 0 2.536-1.247 4.293 4.293 0 0 0 .835-2.67 4.338 4.338 0 0 0-.835-2.686Zm-.362 2.716a3.244 3.244 0 0 1-.549 1.931 1.93 1.93 0 0 1-3.204-.03 3.351 3.351 0 0 1-.56-1.977 3.232 3.232 0 0 1 .55-1.923 1.944 1.944 0 0 1 3.204.03 3.33 3.33 0 0 1 .559 1.969Z"/></svg>