<svg xmlns="http://www.w3.org/2000/svg" viewBox="0 0 200 59.875"><defs><style>.a{fill:#fff}</style></defs><path class="a" d="M103.469 30.553a14.056 14.056 0 0 0-2.733-1.651 29.594 29.594 0 0 0-3.128-1.426l-2.784-1.125a19.605 19.605 0 0 1-2.386-1.15c-1.361-.759-2.05-1.525-2.05-2.278a2.794 2.794 0 0 1 1.56-2.59 7.505 7.505 0 0 1 3.77-.838 11.41 11.41 0 0 1 5.676 1.252 2.836 2.836 0 0 0 1.416.391 2.284 2.284 0 0 0 2.418-2.526 2.472 2.472 0 0 0-1.353-2.343 16.484 16.484 0 0 0-8.056-1.932 12.11 12.11 0 0 0-7.373 2.126 8.065 8.065 0 0 0-3.326 6.922c0 2.15 1.208 4.067 3.586 5.697a20.243 20.243 0 0 0 3.357 1.86l.739.322.823.299c.671.277 1.326.535 1.97.78a14.653 14.653 0 0 1 3.695 1.819 3.096 3.096 0 0 1 1.61 2.468 3.2 3.2 0 0 1-1.714 2.901 7.493 7.493 0 0 1-3.767.887 11.568 11.568 0 0 1-6.533-2.203 3.354 3.354 0 0 0-1.806-.673 2.569 2.569 0 0 0-2.72 2.784c0 .953 1.056 1.79 1.71 2.233a15.851 15.851 0 0 0 9.25 3.017 12.703 12.703 0 0 0 7.413-2.07 8.33 8.33 0 0 0 3.584-7.235 7.02 7.02 0 0 0-2.848-5.718ZM146.965 14.433a13.893 13.893 0 0 0-7.86 2.005c-2.135 1.398-3.087 2.574-3.087 3.814a2.589 2.589 0 0 0 .708 1.814 2.463 2.463 0 0 0 1.794.747 3.363 3.363 0 0 0 2.254-.943 7.981 7.981 0 0 1 6.161-2.405c4.562 0 6.509 1.813 6.509 6.063v1.423a.283.283 0 0 1-.283.284h-7.885c-6.624 0-10.739 3.49-10.739 9.11a9.288 9.288 0 0 0 2.413 6.42c1.976 2.01 4.598 2.867 8.77 2.867 3.292 0 5.496-.605 7.542-2.16a.2.2 0 0 1 .313.103 2.958 2.958 0 0 0 .322.7 2.84 2.84 0 0 0 4.688.002 3.916 3.916 0 0 0 .483-2.332V24.846c0-6.812-4.186-10.413-12.103-10.413Zm6.098 17.389a.381.381 0 0 1 .38.38v2.068c0 2.233-.428 3.735-1.309 4.59-1.548 1.498-3.431 1.8-5.969 1.8-5.435 0-6.063-2.48-6.063-4.346 0-2.98 1.9-4.492 5.648-4.492ZM25.243 18.19a.863.863 0 0 0-.333-.627A15.458 15.458 0 0 0 3.226 39.247a.863.863 0 0 0 .628.333q.027.002.055.002a.863.863 0 0 0 .61-.253l2.818-2.818a.863.863 0 0 0 .097-1.105A9.79 9.79 0 0 1 21.07 21.77a.863.863 0 0 0 1.105-.097l2.818-2.818a.863.863 0 0 0 .251-.665ZM27.705 20.358a.863.863 0 0 0-1.293-.082l-2.818 2.818a.863.863 0 0 0-.097 1.105A9.79 9.79 0 0 1 9.862 37.834a.863.863 0 0 0-1.105.097l-2.818 2.818a.863.863 0 0 0 .082 1.293 15.46 15.46 0 0 0 9.46 3.226q.46 0 .92-.027a15.458 15.458 0 0 0 11.304-24.883ZM57.12 19.393a11.248 11.248 0 0 0-9.611-5.148 9.761 9.761 0 0 0-5.603 1.888l-.01.008a11.656 11.656 0 0 0-1.507 1.265v-.123a3.096 3.096 0 0 0-.761-2.21 3.278 3.278 0 0 0-4.354 0 3.096 3.096 0 0 0-.761 2.21v39.455a3.314 3.314 0 0 0 .72 2.254 2.745 2.745 0 0 0 2.168.883 2.918 2.918 0 0 0 2.214-.84 3.147 3.147 0 0 0 .774-2.248V42.906a8.931 8.931 0 0 0 1.697 1.221 10.538 10.538 0 0 0 5.423 1.44 11.214 11.214 0 0 0 9.604-4.938 17.584 17.584 0 0 0 3.094-10.549 18.277 18.277 0 0 0-3.086-10.687ZM52.736 37a5.332 5.332 0 0 1-4.877 2.988 5.984 5.984 0 0 1-5.352-2.982l-.006-.01a12.414 12.414 0 0 1-1.812-6.917 12.328 12.328 0 0 1 1.812-6.868l.012-.02a5.947 5.947 0 0 1 5.346-3.07 5.233 5.233 0 0 1 4.856 3.198l.012.023a14.166 14.166 0 0 1 1.555 6.936 13.202 13.202 0 0 1-1.542 6.715Zm.193.112ZM131.494 38.603l-.003-.003a2.433 2.433 0 0 0-1.736-.755 1.921 1.921 0 0 0-1.296.422 8.756 8.756 0 0 1-5.105 1.524 8.046 8.046 0 0 1-6.214-2.894 9.986 9.986 0 0 1-2.609-7.004 10.615 10.615 0 0 1 2.506-7.363 7.944 7.944 0 0 1 6.163-2.687 13.452 13.452 0 0 1 5.191 1.1 1.01 1.01 0 0 0 .143.047 3.114 3.114 0 0 0 .76.133 2.559 2.559 0 0 0 2.028-.834 3.14 3.14 0 0 0 .67-2.12 2.445 2.445 0 0 0-.711-1.692 4.923 4.923 0 0 0-1.622-1.07 15.447 15.447 0 0 0-6.51-1.217 13.92 13.92 0 0 0-10.24 4.293 15.268 15.268 0 0 0-4.286 11.154 15.96 15.96 0 0 0 4.213 11.234 13.706 13.706 0 0 0 10.415 4.572 13.215 13.215 0 0 0 7.363-2.213 1.014 1.014 0 0 0 .092-.068 3.6 3.6 0 0 0 1.593-2.67 2.641 2.641 0 0 0-.805-1.89ZM166.415 0a2.744 2.744 0 0 0-2.933 3.038v39.42a2.985 2.985 0 0 0 5.97 0V3.038A2.791 2.791 0 0 0 166.416 0ZM197.14 36.194a4.327 4.327 0 0 0-2.882 1.137 9.281 9.281 0 0 1-6.306 2.267 7.816 7.816 0 0 1-5.591-2.518 8.071 8.071 0 0 1-2.514-4.468h16.267a3.69 3.69 0 0 0 3.19-1.401l.029-.041a6.647 6.647 0 0 0 .667-3.526 13.482 13.482 0 0 0-3.333-9.525c-2.279-2.51-5.488-3.782-9.537-3.782a12.063 12.063 0 0 0-10.001 4.93 16.705 16.705 0 0 0-3.435 10.548 15.82 15.82 0 0 0 3.673 10.735 13.341 13.341 0 0 0 10.585 4.644c4.869 0 8.665-1.588 11.283-4.72a2.235 2.235 0 0 0 .612-1.63 2.46 2.46 0 0 0-2.707-2.65Zm-17.27-9.079a8.24 8.24 0 0 1 2.124-4.81l.007-.008a6.63 6.63 0 0 1 5.282-2.365 6.142 6.142 0 0 1 5.007 2.293 8.632 8.632 0 0 1 1.851 4.89ZM81.32 40.993a2.846 2.846 0 0 0-3.739-1.756 7.201 7.201 0 0 1-3.7.179c-1.315-.37-2.004-2.291-2.004-3.397V20.405h4.39a2.903 2.903 0 0 0 2.903-2.903 2.903 2.903 0 0 0-2.903-2.903h-4.39V3.821a4.122 4.122 0 0 0-.508-2.456 2.992 2.992 0 0 0-4.935 0 4.122 4.122 0 0 0-.508 2.456v10.778H63.64a2.903 2.903 0 0 0-2.903 2.903 2.903 2.903 0 0 0 2.903 2.903h2.287v15.77a16.848 16.848 0 0 0 .159 2.545 4.067 4.067 0 0 0 .401 1.174 8.156 8.156 0 0 0 3.529 4.154 9.784 9.784 0 0 0 5.056 1.292 15.452 15.452 0 0 0 4.136-.608 3.037 3.037 0 0 0 2.113-3.74Z"/></svg>