<svg xmlns="http://www.w3.org/2000/svg" viewBox="0 0 370 370"><defs><style>.a{fill:#004c74}.b{fill:#fff}.d{fill:#f58535}.e{fill:#f58635}.f{fill:none;stroke:#004c74;stroke-linecap:round;stroke-linejoin:round;stroke-width:2.83465px}.g{fill:#ed8035}</style></defs><path class="a" d="M185 300.423A115.423 115.423 0 1 1 300.423 185 115.554 115.554 0 0 1 185 300.423Zm0-228.011A112.589 112.589 0 1 0 297.589 185 112.716 112.716 0 0 0 185 72.412Z"/><path class="b" d="M315.477 183.455c-.018.11-.04.266-.05.422-.042.528-.078 1.076-.114 1.625-.08 1.191-.153 2.278-.262 3.362a63.957 63.957 0 0 1-2.315 11.69 61.207 61.207 0 0 1-13.676 24.352 65.796 65.796 0 0 1-12.246 10.456 62.907 62.907 0 0 1-28.54-49.855l-.14-2.087-.001-2.956.067-.016c7.162-1.725 12.007-6.286 14.012-13.19.139-.475.252-.96.351-1.423h28.48l.046.204a18.266 18.266 0 0 0 12.997 14.052c.458.141.926.259 1.397.37l.003 2.921ZM98.445 78.667c.121.105.198.177.28.243l5.453 4.369q6.778 5.424 13.553 10.851a.487.487 0 0 0 .734-.017c1.977-1.602 3.966-3.188 5.952-4.778a3.079 3.079 0 0 1 3.962-.013 506.09 506.09 0 0 1 5.87 4.71.642.642 0 0 0 .988-.008q8.188-6.587 16.401-13.142c.905-.725 1.808-1.452 2.751-2.21l-3.711-3.186a2.398 2.398 0 0 1-1.58 1.044c-.747.184-1.482.421-2.233.587a3.99 3.99 0 0 1-1.22.097q-7.49-.713-14.977-1.458c-.511-.05-1.023-.087-1.576-.133.032.178.045.3.076.415q.832 3.114 1.668 6.226a3.085 3.085 0 1 1-5.946 1.604c-.581-2.105-1.136-4.218-1.705-6.326a3.857 3.857 0 0 0-.153-.393c-.3.08-.558.15-.817.217a6.333 6.333 0 0 1-3.448-.02 6.09 6.09 0 0 1-4.4-5.842 6.313 6.313 0 0 1 4.543-5.996c1.773-.502 3.565-.94 5.34-1.44a6.346 6.346 0 0 0 1.832-.703c1.84-1.242 3.628-2.564 5.433-3.859a3.543 3.543 0 0 0 .311-.286c-.14-.13-.24-.23-.348-.323q-2.082-1.783-4.167-3.564c-.722-.618-1.085-.613-1.82.02l-25.006 21.544c-.674.581-1.345 1.167-2.04 1.77Z"/><path class="b" d="m152.749 111.585.032-.092-4.44-3.557-15.985-12.796q-2.517-2.015-5.037-4.027a1.18 1.18 0 0 0-1.81-.004c-.436.344-.867.694-1.3 1.041l-23.206 18.567c-.327.262-.65.53-1.063.868ZM97.74 110.683l18.692-14.955L97.74 80.774ZM155.087 80.768l-18.695 14.96 18.695 14.957Z"/><path class="a" d="M141.43 222.7a3.671 3.671 0 0 1-1.573-2.245c-.061-5.581-.367-11.958.734-17.42 2.636-13.085 10.188-23.211 22.277-26.524a4.606 4.606 0 0 1 4.513.786 28.81 28.81 0 0 0 35.341-.14 4.045 4.045 0 0 1 3.908-.747c12.623 2.994 21.427 14.321 22.87 28.35.514 5.007.63 10.07.727 15.103.034 1.723-.997 2.87-2.75 3.569-2.03.811-11.238 5.06-21.533 7.078a125.154 125.154 0 0 1-35.294.596c-13.975-1.907-26.989-7.117-29.22-8.407ZM205.912 152.623c.012 14.375-12.703 21.827-22.243 21.094a20.92 20.92 0 0 1-19.512-22.456c.66-11 10.849-20.052 21.725-19.302 11.38.785 20.671 10.37 20.03 20.664Z"/><path class="a" d="M47.136 305.733a4.958 4.958 0 0 1-3.806-1.772A185.147 185.147 0 0 1 0 185C0 82.99 82.99 0 185 0a185.207 185.207 0 0 1 118.399 42.854 4.969 4.969 0 0 1-6.364 7.633A175.252 175.252 0 0 0 185 9.937C88.47 9.937 9.937 88.47 9.937 185a175.195 175.195 0 0 0 41 112.567 4.969 4.969 0 0 1-3.801 8.166Z"/><path d="M185 370a185.143 185.143 0 0 1-118.982-43.348 4.969 4.969 0 0 1 6.395-7.606A175.192 175.192 0 0 0 185 360.063c96.53 0 175.063-78.533 175.063-175.063a175.134 175.134 0 0 0-41.467-113.12 4.969 4.969 0 0 1 7.58-6.425A185.082 185.082 0 0 1 370 185c0 102.01-82.99 185-185 185Z" style="fill:#4ab4ee"/><path class="a" d="m318.116 179.707-.104-.98a.56.56 0 0 0-.425-.484c-.296-.072-.593-.139-.889-.205-.62-.14-1.238-.28-1.841-.465a15.562 15.562 0 0 1-11.202-12.13c-.093-.398-.17-.8-.25-1.203l-.116-.59a.562.562 0 0 0-.55-.449h-31.86a.561.561 0 0 0-.547.44c-.068.308-.132.62-.195.93-.133.648-.269 1.319-.454 1.952-1.75 6.029-5.822 9.853-12.1 11.365-.328.078-.66.145-.997.214l-.533.11a.561.561 0 0 0-.442.488l-.112 1.067.001 3.74.144 2.17a65.578 65.578 0 0 0 30.351 52.296l.37.246a.56.56 0 0 0 .312.094h.275a.563.563 0 0 0 .316-.098l.3-.2A68.364 68.364 0 0 0 301 226.685a63.815 63.815 0 0 0 14.262-25.388 66.757 66.757 0 0 0 2.41-12.169c.114-1.148.19-2.3.268-3.45.036-.541.072-1.081.112-1.619.007-.093.022-.185.037-.277l.03-.237Zm-2.64 3.748c-.017.11-.04.266-.05.422-.04.528-.077 1.076-.113 1.625-.08 1.191-.153 2.278-.262 3.362a63.957 63.957 0 0 1-2.315 11.69 61.207 61.207 0 0 1-13.676 24.352 65.796 65.796 0 0 1-12.246 10.456 62.907 62.907 0 0 1-28.54-49.855l-.14-2.087-.001-2.956.067-.016c7.162-1.725 12.007-6.286 14.012-13.19.139-.475.252-.96.351-1.423h28.48l.046.204a18.266 18.266 0 0 0 12.998 14.052c.457.141.925.259 1.396.37l.003 2.921Z"/><path class="d" d="m297.023 200.955.001 10.354c0 .646.18.826.83.826q2.49.003 4.98 0c.615-.001.81-.194.81-.811q.003-10.441 0-20.882c0-.583-.197-.773-.794-.774q-2.512-.005-5.024 0c-.624 0-.803.179-.803.804q-.002 5.242 0 10.483Zm1.759-9.536h3.085v18.96h-3.085ZM288.38 211.264c0 .704.168.87.875.871q2.468.002 4.935 0c.618 0 .809-.191.809-.805V196.7c0-.682-.164-.844-.853-.844q-2.468-.002-4.935 0c-.663.001-.83.167-.83.821l-.002 7.337v7.25Zm1.758-13.668h3.098v12.779h-3.098ZM279.736 211.31c0 .644.184.825.834.825q2.49.001 4.98-.001c.628 0 .805-.18.806-.804q.002-2.752 0-5.505v-5.461c-.001-.65-.175-.821-.83-.822q-2.49-.002-4.98 0c-.626 0-.809.18-.81.801q-.002 5.483 0 10.966Zm1.765-10.025h3.1v9.088h-3.1ZM271.091 201.885l.002 9.35c0 .744.16.899.894.9h4.893c.651 0 .831-.179.832-.825q.002-2.337 0-4.674h-.002v-4.762c0-.601-.18-.792-.775-.793q-2.534-.008-5.068 0c-.584.002-.776.206-.776.804Zm1.777.946h3.12l.003 2c.001 1.853.002 3.705.009 5.576-.73-.004-3.132-.005-3.132-.005ZM302.663 177.375q-.44-.985-.905-1.957a.703.703 0 0 0-.978-.369 72.76 72.76 0 0 0-1.99.928.72.72 0 0 0 .58 1.319c.09-.034.18-.073.27-.112l-.114.215c-.24.467-.482.933-.738 1.39a32.49 32.49 0 0 1-7.102 8.886 24.158 24.158 0 0 1-13.949 6.03 27.548 27.548 0 0 1-6.794-.28.745.745 0 0 0-.958.56.703.703 0 0 0 .112.537.906.906 0 0 0 .62.334c.382.061.763.12 1.146.167a30.247 30.247 0 0 0 3.662.227 25.308 25.308 0 0 0 16.205-5.716 33.744 33.744 0 0 0 8.516-10.376c.25-.455.485-.917.729-1.396l.14-.272c.08.17.157.331.237.49a.723.723 0 1 0 1.311-.605Z"/><path class="d" d="M275.524 195.593a30.767 30.767 0 0 1-3.702-.23 30.866 30.866 0 0 1-1.16-.168 1.243 1.243 0 0 1-.845-.472 1.051 1.051 0 0 1-.172-.794 1.096 1.096 0 0 1 1.353-.844 27.156 27.156 0 0 0 6.71.277 23.813 23.813 0 0 0 13.752-5.946 32.157 32.157 0 0 0 7.03-8.793 40 40 0 0 0 .496-.926 1 1 0 0 1-.868-.64 1.023 1.023 0 0 1 .524-1.39 78.94 78.94 0 0 1 1.999-.932 1.051 1.051 0 0 1 1.427.535q.464.977.909 1.964a1.068 1.068 0 0 1-.513 1.443 1.052 1.052 0 0 1-1.353-.427c-.194.38-.374.729-.563 1.073a34.08 34.08 0 0 1-8.602 10.479 25.68 25.68 0 0 1-16.422 5.79Zm-4.786-1.842a.37.37 0 0 0-.361.572.598.598 0 0 0 .393.194c.378.06.755.118 1.134.165a25.395 25.395 0 0 0 19.613-5.417 33.418 33.418 0 0 0 8.428-10.271c.24-.437.465-.88.699-1.34l.164-.32a.342.342 0 0 1 .306-.187h.006a.34.34 0 0 1 .305.197c.079.168.154.325.233.48a.394.394 0 0 0 .522.229.382.382 0 0 0 .17-.538q-.439-.98-.903-1.95a.362.362 0 0 0-.529-.202c-.664.295-1.322.608-1.98.925a.345.345 0 0 0-.189.5c.033.079.136.32.502.186.082-.031.166-.067.248-.104a.344.344 0 0 1 .445.472l-.112.215c-.243.47-.486.94-.743 1.4a32.827 32.827 0 0 1-7.178 8.978 24.494 24.494 0 0 1-14.144 6.112 27.905 27.905 0 0 1-6.877-.283.973.973 0 0 0-.152-.013Z"/><path class="a" d="M275.84 69.114h-45.918a6.353 6.353 0 0 0-6.346 6.345v32.816a6.353 6.353 0 0 0 6.346 6.345h7.499v10.375a.999.999 0 0 0 1.635.769l13.449-11.144h23.335a6.353 6.353 0 0 0 6.346-6.345V75.46a6.353 6.353 0 0 0-6.345-6.345Z"/><path class="b" d="M241.089 119.816a.5.5 0 0 1-.501-.501v-4.694a3.171 3.171 0 0 0-3.167-3.167h-7.499a3.182 3.182 0 0 1-3.179-3.178V75.459a3.182 3.182 0 0 1 3.18-3.178h45.918a3.181 3.181 0 0 1 3.178 3.178v32.817a3.181 3.181 0 0 1-3.178 3.178h-23.337a3.173 3.173 0 0 0-2.02.727l-9.076 7.52a.502.502 0 0 1-.32.115Z"/><circle class="d" cx="252.881" cy="91.949" r="3.404"/><circle class="d" cx="241.536" cy="91.949" r="3.404"/><circle class="d" cx="264.227" cy="91.949" r="3.404"/><rect class="b" x="51.578" y="160.751" width="60.561" height="60.561" rx="4.775"/><path class="a" d="M107.363 222.729h-51.01a6.2 6.2 0 0 1-6.193-6.193v-51.01a6.2 6.2 0 0 1 6.193-6.193h51.01a6.2 6.2 0 0 1 6.193 6.193v51.01a6.199 6.199 0 0 1-6.193 6.193Zm-51.01-60.56a3.361 3.361 0 0 0-3.358 3.357v51.01a3.362 3.362 0 0 0 3.358 3.359h51.01a3.362 3.362 0 0 0 3.358-3.359v-51.01a3.36 3.36 0 0 0-3.358-3.358Z"/><path class="a" d="M111.438 176.842H51.495a1.417 1.417 0 1 1 0-2.835h59.943a1.417 1.417 0 1 1 0 2.835Z"/><circle class="a" cx="96.236" cy="168.167" r="2.416"/><circle class="a" cx="88.183" cy="168.167" r="2.416"/><circle class="a" cx="104.29" cy="168.167" r="2.416"/><path class="a" d="M105.176 185.565H75.938a1.417 1.417 0 0 1 0-2.835h29.238a1.417 1.417 0 0 1 0 2.835ZM105.176 193.323H75.938a1.417 1.417 0 1 1 0-2.834h29.238a1.417 1.417 0 1 1 0 2.834Z"/><path class="e" d="M61.621 183.937c.635-.609 1.232-1.18 1.827-1.752.315-.303.615-.623.941-.913a1.32 1.32 0 0 1 1.951.189 1.216 1.216 0 0 1-.01 1.829q-1.813 1.796-3.65 3.568a1.343 1.343 0 0 1-2.1-.009q-.89-.863-1.771-1.737a1.228 1.228 0 0 1-.054-1.894 1.315 1.315 0 0 1 2.02-.097c.273.254.537.517.846.816ZM61.621 199.395c.635-.608 1.232-1.179 1.827-1.752.315-.303.615-.622.941-.912a1.32 1.32 0 0 1 1.951.188 1.216 1.216 0 0 1-.01 1.829q-1.813 1.796-3.65 3.568a1.343 1.343 0 0 1-2.1-.008q-.89-.864-1.771-1.738a1.228 1.228 0 0 1-.054-1.893 1.315 1.315 0 0 1 2.02-.098c.273.254.537.518.846.816Z"/><path class="a" d="M105.176 201.038H75.938a1.417 1.417 0 1 1 0-2.834h29.238a1.417 1.417 0 1 1 0 2.834Z"/><path class="b" d="M96.3 215.772a4.395 4.395 0 0 0-1.036-.81 4.38 4.38 0 0 0 .087-.513c.268-2.376-1.351-4.487-2.064-5.29a5.836 5.836 0 0 0-4.33-2.255 9.31 9.31 0 0 0-.227.004 4.702 4.702 0 0 0-1.318.253 4.497 4.497 0 0 0-.567-.861 5.918 5.918 0 0 0-4.506-1.918 9.913 9.913 0 0 0-.78.002 6.946 6.946 0 0 0-4.611 1.77 4.448 4.448 0 0 0-.902 1.365 4.831 4.831 0 0 0-1.687-.25 5.95 5.95 0 0 0-4.245 2.394c-.684.818-2.236 2.974-1.897 5.326.01.07.02.14.034.208a6.181 6.181 0 0 0-2.212 3.863c-.213 1.043-.557 3.676.87 5.606a4.433 4.433 0 0 0 .974.958 4.498 4.498 0 0 0-.126.673c-.265 2.374 1.351 4.484 2.06 5.282a7.172 7.172 0 0 0 2.326 1.798 4.89 4.89 0 0 0 2.024.465l.216-.004a4.746 4.746 0 0 0 1.727-.414 4.498 4.498 0 0 0 .886 1.2 7.294 7.294 0 0 0 5.192 1.612l.244-.013a5.952 5.952 0 0 0 4.444-2.052 4.51 4.51 0 0 0 .533-.868 4.888 4.888 0 0 0 2.156.428 5.943 5.943 0 0 0 4.24-2.39c.683-.817 2.236-2.977 1.897-5.343q-.02-.141-.05-.28c.033-.023.064-.046.094-.07a5.937 5.937 0 0 0 2.098-4.415c.084-1.064.103-3.725-1.545-5.46Z"/><path class="d" d="M79.097 225.92a6.27 6.27 0 1 0-3.187-3.58 6.258 6.258 0 0 0 3.187 3.58Zm-1.164-7.522a4.322 4.322 0 1 1-.194 3.304 4.297 4.297 0 0 1 .194-3.304Z"/><path class="d" d="M94.463 217.504a3.117 3.117 0 0 0-2.33-.747c-.102-.3-.219-.594-.344-.883a2.742 2.742 0 0 0 1.054-1.707 4.902 4.902 0 0 0-1.437-3.326 2.894 2.894 0 0 0-4.776-.292 10.062 10.062 0 0 0-1.126-.47 3.333 3.333 0 0 0-.601-2.167 3.65 3.65 0 0 0-2.659-1.009 4.905 4.905 0 0 0-3.485 1.008 3.043 3.043 0 0 0-.652 2.247 10.755 10.755 0 0 0-1.363.624 3.654 3.654 0 0 0-2.268-.992 3.66 3.66 0 0 0-2.427 1.492 4.898 4.898 0 0 0-1.333 3.365 2.756 2.756 0 0 0 1.135 1.697 7.32 7.32 0 0 0-.168.467 2.91 2.91 0 0 0-1.745.29 3.656 3.656 0 0 0-1.427 2.466 4.889 4.889 0 0 0 .425 3.597c.482.65 1.385.993 2.95 1.1l.045.112c-1.076.785-1.587 1.469-1.666 2.201a4.903 4.903 0 0 0 1.438 3.326 4.803 4.803 0 0 0 1.497 1.183 2.355 2.355 0 0 0 .977.232c.526.003 1.298-.183 2.718-1.492a10.95 10.95 0 0 0 1.127.51 3.205 3.205 0 0 0 .727 2.474 4.918 4.918 0 0 0 3.509.895 3.664 3.664 0 0 0 2.631-1.09 3.339 3.339 0 0 0 .529-2.14 10.672 10.672 0 0 0 1.367-.58c1.386 1.181 2.145 1.332 2.661 1.315a3.648 3.648 0 0 0 2.421-1.485 4.908 4.908 0 0 0 1.337-3.373 3.005 3.005 0 0 0-1.348-1.871c.046-.108.09-.217.134-.326a3.436 3.436 0 0 0 2.22-.51 3.656 3.656 0 0 0 1.118-2.612 4.912 4.912 0 0 0-.865-3.529Zm-1.306 4.768c-.021.017-.25.172-1.124.151a1.732 1.732 0 0 0-1.646 1.077l-.12.293a1.732 1.732 0 0 0 .537 2.064c.515.394.673.653.684.736a3.461 3.461 0 0 1-.95 2.022 2.172 2.172 0 0 1-1.154.865h-.002c-.057-.001-.46-.038-1.474-.902a1.732 1.732 0 0 0-1.906-.226 8.909 8.909 0 0 1-1.147.485 1.732 1.732 0 0 0-1.168 1.653c.006.82-.145 1.037-.162 1.06a2.192 2.192 0 0 1-1.385.427 5.395 5.395 0 0 1-.516.01 2.895 2.895 0 0 1-1.67-.422 2.108 2.108 0 0 1-.2-1.211 1.73 1.73 0 0 0-1.116-1.636 9.21 9.21 0 0 1-.944-.429 1.733 1.733 0 0 0-1.973.263c-.887.818-1.383 1.035-1.536 1.034a.734.734 0 0 1-.265-.074 3.122 3.122 0 0 1-.923-.76 3.469 3.469 0 0 1-1.012-1.982c.003-.02.046-.323.966-.995a1.732 1.732 0 0 0 .584-2.052l-.064-.155a1.733 1.733 0 0 0-1.468-1.032c-1.433-.097-1.667-.391-1.675-.404a3.433 3.433 0 0 1-.12-2.216 2.183 2.183 0 0 1 .608-1.323 1.202 1.202 0 0 1 .532-.067s.26.015.29.016a1.731 1.731 0 0 0 1.692-1.196q.06-.186.132-.366a1.733 1.733 0 0 0-.51-1.972c-.391-.324-.512-.533-.521-.6a3.492 3.492 0 0 1 .947-2.015 2.176 2.176 0 0 1 1.163-.872c.06.002.382.04 1.138.628a1.732 1.732 0 0 0 1.895.153 8.942 8.942 0 0 1 1.143-.524 1.732 1.732 0 0 0 1.121-1.635 1.857 1.857 0 0 1 .165-1.026 3.429 3.429 0 0 1 2.121-.485 2.268 2.268 0 0 1 1.446.387c.037.044.187.263.201 1.09a1.734 1.734 0 0 0 1.164 1.606 8.194 8.194 0 0 1 .932.389 1.73 1.73 0 0 0 1.884-.235c.799-.678 1.116-.71 1.172-.71.216.005.647.228 1.192.836a3.46 3.46 0 0 1 1.008 1.979c-.008.073-.119.28-.486.606a1.73 1.73 0 0 0-.436 1.984c.107.246.206.5.294.755a1.73 1.73 0 0 0 1.593 1.17h.02c.917.024 1.095.203 1.096.205a3.445 3.445 0 0 1 .397 2.202 2.171 2.171 0 0 1-.444 1.376Z"/><path class="a" d="M234.975 287.952v-17.489a4.732 4.732 0 0 0-4.956-5.006h-21.117l-39.369.02c-9.304.001-18.608.029-27.912-.045a4.955 4.955 0 0 0-5.058 5.094c.045 7.498.016 14.996.016 22.494 0 9.603.03 19.206-.02 28.81a4.962 4.962 0 0 0 5.228 5.219c2.625-.075 5.254-.015 7.882-.015h62.61c5.898 0 11.798-.037 17.696.012a4.898 4.898 0 0 0 5.01-4.936q-.033-17.079-.01-34.158Zm-3.127 33.62a2.201 2.201 0 0 1-2.201 2.202h-87.745a2.201 2.201 0 0 1-2.201-2.201v-50.686a2.201 2.201 0 0 1 2.201-2.2h87.745a2.201 2.201 0 0 1 2.2 2.2Z"/><rect class="b" x="139.698" y="268.686" width="92.147" height="55.088" rx="2.201"/><path class="d" d="M162.13 287.997a6.182 6.182 0 1 0-3.036 3.616 6.143 6.143 0 0 0 3.036-3.616Zm-1.819-.577a4.265 4.265 0 1 1-.283-3.248 4.243 4.243 0 0 1 .283 3.248Z"/><path class="d" d="M142.974 287.257a3.601 3.601 0 0 0 1.174 2.542 3.385 3.385 0 0 0 2.2.438c.047.107.093.213.142.318a2.96 2.96 0 0 0-1.274 1.88 4.835 4.835 0 0 0 1.411 3.283 3.594 3.594 0 0 0 2.426 1.395c.508.001 1.252-.169 2.582-1.37a10.513 10.513 0 0 0 1.363.531 3.288 3.288 0 0 0 .581 2.094 3.61 3.61 0 0 0 2.621.998 4.845 4.845 0 0 0 3.43-.98 3.157 3.157 0 0 0 .646-2.457 10.782 10.782 0 0 0 1.096-.534c1.435 1.25 2.2 1.41 2.717 1.393a2.32 2.32 0 0 0 .956-.256 4.731 4.731 0 0 0 1.44-1.207 4.83 4.83 0 0 0 1.323-3.315c-.098-.72-.621-1.378-1.703-2.12l.042-.112c1.538-.15 2.416-.512 2.873-1.167a4.815 4.815 0 0 0 .317-3.553 3.601 3.601 0 0 0-1.474-2.388 2.866 2.866 0 0 0-1.727-.236 7.18 7.18 0 0 0-.179-.455 2.714 2.714 0 0 0 1.07-1.703 4.824 4.824 0 0 0-1.407-3.275 2.831 2.831 0 0 0-4.636-.36 10.596 10.596 0 0 0-1.36-.577 2.997 2.997 0 0 0-.706-2.193 4.832 4.832 0 0 0-3.46-.894 3.595 3.595 0 0 0-2.589 1.068 3.284 3.284 0 0 0-.53 2.15 9.912 9.912 0 0 0-1.097.495 2.85 2.85 0 0 0-4.693.422 4.829 4.829 0 0 0-1.322 3.315 2.701 2.701 0 0 0 1.087 1.651c-.116.288-.222.582-.314.88a3.07 3.07 0 0 0-2.274.8 4.838 4.838 0 0 0-.752 3.5Zm1.697-.183a3.393 3.393 0 0 1 .328-2.18c.001-.001.172-.182 1.074-.232h.02a1.705 1.705 0 0 0 1.535-1.197c.08-.254.17-.507.269-.752a1.704 1.704 0 0 0-.486-1.94c-.37-.312-.485-.513-.496-.584a3.408 3.408 0 0 1 .937-1.977c.52-.614.938-.845 1.15-.857.055-.002.369.02 1.174.666a1.704 1.704 0 0 0 1.861.178 8.068 8.068 0 0 1 .908-.409 1.708 1.708 0 0 0 1.1-1.614c-.01-.815.132-1.035.167-1.08a2.234 2.234 0 0 1 1.413-.42 3.377 3.377 0 0 1 2.103.417 1.829 1.829 0 0 1 .19 1.006 1.706 1.706 0 0 0 1.15 1.578 8.807 8.807 0 0 1 1.14.484 1.706 1.706 0 0 0 1.862-.205c.728-.6 1.044-.647 1.103-.65a2.144 2.144 0 0 1 1.17.826 3.44 3.44 0 0 1 .99 1.957c-.008.066-.121.276-.498.606a1.707 1.707 0 0 0-.445 1.956q.074.174.14.356a1.705 1.705 0 0 0 1.699 1.13l.285-.023a1.184 1.184 0 0 1 .526.05 2.15 2.15 0 0 1 .636 1.286 3.382 3.382 0 0 1-.055 2.185c-.008.013-.23.308-1.638.445a1.707 1.707 0 0 0-1.417 1.057l-.058.155a1.706 1.706 0 0 0 .632 2.004c.925.635.976.933.98.952a3.416 3.416 0 0 1-.94 1.98 3.075 3.075 0 0 1-.888.774.723.723 0 0 1-.26.081c-.15.005-.644-.194-1.54-.975a1.707 1.707 0 0 0-1.95-.203 9.068 9.068 0 0 1-.918.448 1.704 1.704 0 0 0-1.053 1.643 2.077 2.077 0 0 1-.162 1.198 2.852 2.852 0 0 1-1.633.463c-.175.01-.346.012-.508.005a2.159 2.159 0 0 1-1.375-.383c-.018-.021-.173-.23-.19-1.038a1.706 1.706 0 0 0-1.197-1.595 8.775 8.775 0 0 1-1.142-.445 1.706 1.706 0 0 0-1.871.276c-.974.88-1.37.927-1.426.93h-.001a2.14 2.14 0 0 1-1.162-.819 3.41 3.41 0 0 1-.992-1.964c.009-.082.157-.341.653-.744a1.706 1.706 0 0 0 .47-2.047l-.126-.286a1.706 1.706 0 0 0-1.651-1.013c-.86.045-1.09-.102-1.11-.117a2.139 2.139 0 0 1-.477-1.343Z"/><path class="a" d="M133.622 58.002c1.285-.917 2.537-1.81 3.788-2.705.67-.479 1.331-.972 2.014-1.434a3.42 3.42 0 0 1 .905-.448q1.31-.396 2.642-.72a2.06 2.06 0 0 1 2.662 1.585c.558 2.074 1.103 4.152 1.658 6.226q1.576 5.887 3.167 11.77a1.313 1.313 0 0 0 .385.608c1.634 1.425 3.268 2.85 4.932 4.24a3.688 3.688 0 0 1 1.402 3.04q-.033 15.131-.013 30.263a3.075 3.075 0 0 1-2.49 3.182 4.006 4.006 0 0 1-.801.06q-27.468.004-54.937.001a3.081 3.081 0 0 1-3.28-3.254l-.007-30.479a3.438 3.438 0 0 1 1.326-2.746q5.203-4.46 10.386-8.942l13.72-11.826c1.071-.924 2.14-1.852 3.22-2.766a3.05 3.05 0 0 1 4.2-.018c1.548 1.305 3.078 2.63 4.617 3.947.149.127.302.25.504.416ZM98.447 78.667c.121.105.199.177.28.243l5.453 4.369q6.778 5.424 13.553 10.851a.487.487 0 0 0 .734-.017c1.977-1.602 3.966-3.188 5.952-4.778a3.079 3.079 0 0 1 3.962-.013c1.965 1.56 3.929 3.121 5.87 4.71a.642.642 0 0 0 .988-.008q8.188-6.587 16.401-13.142c.905-.725 1.808-1.452 2.751-2.21l-3.71-3.186a2.398 2.398 0 0 1-1.58 1.044c-.748.184-1.483.421-2.234.587a3.99 3.99 0 0 1-1.22.097q-7.49-.713-14.977-1.458c-.51-.05-1.023-.087-1.576-.133.032.178.045.3.077.415q.831 3.114 1.667 6.226a3.085 3.085 0 1 1-5.946 1.604c-.58-2.105-1.135-4.218-1.705-6.326a3.86 3.86 0 0 0-.153-.393c-.3.08-.557.15-.817.217a6.333 6.333 0 0 1-3.448-.02 6.09 6.09 0 0 1-4.4-5.842 6.313 6.313 0 0 1 4.543-5.996c1.774-.502 3.565-.94 5.34-1.44a6.346 6.346 0 0 0 1.832-.703c1.84-1.242 3.628-2.564 5.433-3.859a3.543 3.543 0 0 0 .311-.286c-.14-.13-.24-.23-.348-.323q-2.082-1.783-4.166-3.564c-.723-.618-1.086-.613-1.82.02l-25.007 21.544c-.674.581-1.345 1.167-2.04 1.77Zm54.304 32.918.032-.092-4.44-3.557-15.985-12.796q-2.517-2.015-5.037-4.027a1.18 1.18 0 0 0-1.81-.004c-.435.344-.866.694-1.3 1.041l-23.205 18.567c-.328.262-.651.53-1.064.868Zm-55.01-.902 18.694-14.955L97.74 80.774Zm57.348-29.915-18.695 14.96 18.695 14.957Zm-10.284-5.717-5.048-18.838a2.36 2.36 0 0 0-.253.129q-5.967 4.264-11.936 8.526a.447.447 0 0 0-.175.586c.67 2.47 1.325 4.944 1.988 7.416.198.74.203.726.954.798q5.856.564 11.712 1.138c.886.086 1.773.158 2.758.245Zm-19.426-9.135c-2.134.572-4.175 1.096-6.202 1.672a3.722 3.722 0 0 0-2.057 1.562 4.088 4.088 0 0 0 4.371 6.268c1.784-.454 3.558-.945 5.336-1.424.215-.057.425-.137.659-.213l-2.107-7.865Zm23.492 8.529c-.042-.192-.059-.28-.082-.366l-3.595-13.433q-.737-2.749-1.478-5.496c-.052-.194-.035-.487-.362-.41-.567.131-1.127.295-1.73.455l5.301 19.78Zm-21.834 1.637-1.928.517c.036.19.051.313.083.431q.52 1.942 1.044 3.882c.237.88.458 1.764.718 2.636a.967.967 0 0 0 1.216.686.995.995 0 0 0 .727-1.198 3.716 3.716 0 0 0-.07-.314l-.794-2.95-.996-3.69Z"/><path class="d" d="M156.04 71.409c-.075-.016-.233-.042-.388-.083q-1.788-.48-3.575-.965a1.04 1.04 0 1 1 .522-1.993c1.246.33 2.491.658 3.732 1.003a1.034 1.034 0 0 1 .827 1.2 1.057 1.057 0 0 1-1.118.838ZM152.96 54.68a2.942 2.942 0 0 1-.394.646c-.906.938-1.83 1.857-2.761 2.77a1.036 1.036 0 0 1-1.526.078 1.008 1.008 0 0 1 .068-1.517c.927-.942 1.868-1.87 2.8-2.807a1.005 1.005 0 0 1 1.178-.248 1.104 1.104 0 0 1 .636 1.078ZM151.207 64.24a.994.994 0 0 1-1.02-.842.982.982 0 0 1 .682-1.133c.87-.267 1.754-.492 2.633-.731.465-.127.929-.26 1.4-.365a1.02 1.02 0 0 1 1.228.69.972.972 0 0 1-.624 1.258c-1.37.4-2.758.743-4.139 1.108a.943.943 0 0 1-.16.015Z"/><path class="f" d="M185.772 325.526v8.162h-13.863M185.774 333.688h13.863"/><path class="d" d="M204.766 318.76a3.759 3.759 0 0 1-2.694-.864 3.416 3.416 0 0 1-.89-2.56v-4.707a1.23 1.23 0 0 0-1.329-1.397h-.453v-1.73h.453a1.23 1.23 0 0 0 1.33-1.397v-4.707a3.416 3.416 0 0 1 .89-2.56 3.759 3.759 0 0 1 2.693-.864h.842v1.684h-.18a1.96 1.96 0 0 0-1.486.54 2.095 2.095 0 0 0-.505 1.497v4.342a2.835 2.835 0 0 1-.277 1.411 1.47 1.47 0 0 1-.863.633.3.3 0 0 0 0 .572 1.47 1.47 0 0 1 .863.634 2.832 2.832 0 0 1 .277 1.41v4.342a2.098 2.098 0 0 0 .505 1.498 1.96 1.96 0 0 0 1.486.539h.18v1.684ZM215.212 298.914h2.247l-6.623 18.906h-2.248ZM220.426 318.76v-1.684h.179a1.995 1.995 0 0 0 1.508-.539 2.098 2.098 0 0 0 .506-1.498v-4.341a2.91 2.91 0 0 1 .268-1.424 1.428 1.428 0 0 1 .849-.62.3.3 0 0 0 0-.573 1.429 1.429 0 0 1-.85-.62 2.914 2.914 0 0 1-.267-1.424v-4.342a2.101 2.101 0 0 0-.505-1.498 1.997 1.997 0 0 0-1.51-.539h-.178v-1.684h.842a3.799 3.799 0 0 1 2.705.866 3.392 3.392 0 0 1 .901 2.558v4.707a1.439 1.439 0 0 0 .347 1.03 1.274 1.274 0 0 0 .96.367h.475v1.73h-.476a1.27 1.27 0 0 0-.96.367 1.438 1.438 0 0 0-.346 1.03v4.707a3.394 3.394 0 0 1-.9 2.559 3.801 3.801 0 0 1-2.706.865Z"/><path class="g" d="M157.074 137.757a.706.706 0 0 1-.476-.183l-4.2-3.81a.709.709 0 0 1 .953-1.05l4.2 3.81a.709.709 0 0 1-.477 1.233Zm-8.398-7.618a.706.706 0 0 1-.476-.183l-4.2-3.81a.709.709 0 1 1 .953-1.05l4.2 3.81a.709.709 0 0 1-.477 1.233Zm-8.398-7.618a.706.706 0 0 1-.476-.184l-4.199-3.809a.709.709 0 1 1 .952-1.05l4.2 3.81a.709.709 0 0 1-.477 1.233ZM208.68 137.758a.709.709 0 0 1-.476-1.234l4.198-3.809a.709.709 0 0 1 .953 1.05l-4.198 3.81a.708.708 0 0 1-.476.183Zm8.398-7.618a.709.709 0 0 1-.476-1.234l4.199-3.81a.709.709 0 0 1 .953 1.05l-4.2 3.81a.708.708 0 0 1-.476.184Zm8.398-7.619a.709.709 0 0 1-.477-1.233l4.2-3.81a.709.709 0 0 1 .952 1.05l-4.199 3.81a.708.708 0 0 1-.476.183ZM136.559 195.614h-5.67a.709.709 0 0 1 0-1.418h5.67a.709.709 0 0 1 0 1.418Zm-11.339 0h-5.67a.709.709 0 0 1 0-1.418h5.67a.709.709 0 0 1 0 1.418ZM251.2 195.614h-5.67a.709.709 0 0 1 0-1.418h5.67a.709.709 0 0 1 0 1.418Zm-11.34 0h-5.669a.709.709 0 1 1 0-1.418h5.67a.709.709 0 1 1 0 1.418ZM185.772 262.537a.709.709 0 0 1-.708-.709v-2.787a.709.709 0 1 1 1.417 0v2.787a.709.709 0 0 1-.709.71Zm0-8.456a.709.709 0 0 1-.708-.709v-5.669a.709.709 0 1 1 1.417 0v5.669a.709.709 0 0 1-.709.709Zm0-11.339a.709.709 0 0 1-.708-.709v-5.669a.709.709 0 1 1 1.417 0v5.67a.709.709 0 0 1-.709.708Z"/></svg>