<svg xmlns="http://www.w3.org/2000/svg" viewBox="0 0 370 370"><defs><style>.a{fill:#004c74}.c{fill:#ed8035}</style></defs><path class="a" d="M47.136 305.733a4.958 4.958 0 0 1-3.806-1.772A185.147 185.147 0 0 1 0 185C0 82.99 82.99 0 185 0a185.207 185.207 0 0 1 118.399 42.854 4.969 4.969 0 0 1-6.364 7.633A175.252 175.252 0 0 0 185 9.937C88.47 9.937 9.937 88.47 9.937 185a175.195 175.195 0 0 0 41 112.567 4.969 4.969 0 0 1-3.801 8.166Z"/><path d="M185 370a185.143 185.143 0 0 1-118.982-43.348 4.969 4.969 0 0 1 6.395-7.606A175.192 175.192 0 0 0 185 360.063c96.53 0 175.063-78.533 175.063-175.063a175.134 175.134 0 0 0-41.467-113.12 4.969 4.969 0 0 1 7.58-6.425A185.082 185.082 0 0 1 370 185c0 102.01-82.99 185-185 185Z" style="fill:#4ab4ee"/><path class="c" d="M302.191 237.84c-4.243-2.116-6.69 1.345-8.16 4.13l-.156.32a122.742 122.742 0 0 1-227.497-26.896c-.914-3.604-1.58-7.252-2.285-11.114-.263-1.438-.53-2.896-.814-4.379l10.574.44a4.681 4.681 0 0 0 4.24-7.031l-13.97-24.06a4.695 4.695 0 0 0-3.764-2.327 4.618 4.618 0 0 0-3.99 1.79l-17.393 22.6a4.69 4.69 0 0 0 3.47 7.542l9.912.51.08.531c.127.848.243 1.62.346 2.392a134.518 134.518 0 0 0 58.666 94.11 132.687 132.687 0 0 0 107.982 17.733c37.142-9.98 65.45-32.505 84.136-66.948 1.42-2.617 1.849-4.716 1.312-6.42a4.94 4.94 0 0 0-2.689-2.923ZM331.472 174.139a5.38 5.38 0 0 0-4.61-3.139l-8.633-.47-.066-.46c-.101-.692-.188-1.288-.267-1.884-4.07-30.586-17.634-57.882-39.225-78.937-21.592-21.055-49.229-33.936-79.922-37.25-54.04-5.841-107.048 22.79-131.92 71.229l-.248.47a9.185 9.185 0 0 0-.986 2.367 5.083 5.083 0 0 0 2.666 5.895 5.167 5.167 0 0 0 6.686-1.193 9.169 9.169 0 0 0 1.293-2.088c.094-.19.188-.378.285-.562C105.56 73.02 168.62 48.376 226.47 69.513c45.124 16.49 72.177 49.597 80.408 98.403a17.898 17.898 0 0 1 .18 2.016l.005.074-8.52-.351a5.385 5.385 0 0 0-4.886 8.075l12.53 21.729a5.396 5.396 0 0 0 4.327 2.692c.12.008.242.012.362.012a5.377 5.377 0 0 0 4.268-2.098l15.7-20.39a5.306 5.306 0 0 0 .629-5.536Z"/><path class="a" d="M140.62 240.52a3.732 3.732 0 0 1-1.6-2.28c-.061-5.674-.372-12.156.746-17.71 2.68-13.3 10.357-23.593 22.646-26.96a4.683 4.683 0 0 1 4.587.798 29.286 29.286 0 0 0 35.925-.142 4.111 4.111 0 0 1 3.972-.759c12.831 3.043 21.781 14.558 23.247 28.818.523 5.09.64 10.237.74 15.353.034 1.751-1.014 2.916-2.795 3.627-2.063.825-11.424 5.144-21.89 7.196a127.22 127.22 0 0 1-35.876.605c-14.206-1.939-27.434-7.234-29.703-8.545ZM241.426 222.721c-.55-8.712-3.12-16.41-8.282-23.082a40.601 40.601 0 0 0-19.096-13.649l3.492-15.978c3.241.733 6.567 1.904 10.024 2.257 9.618.98 14.954-.827 21.3-5.405a5.428 5.428 0 0 1 5.203-.868 30.965 30.965 0 0 1 22.455 28.675c.126 5.226.1 10.46-.018 15.686a3.674 3.674 0 0 1-1.304 2.729c-4.425 2.554-28.672 8.82-33.774 9.635ZM156.599 185.603c-17.114 6.588-26.498 18.708-28.274 37.077-4.507-.732-29.451-7.222-34.017-9.74a2.153 2.153 0 0 1-.913-1.62c.18-7.436-.175-14.955.848-22.28 1.161-8.32 6.487-14.53 13.213-19.298 2.49-1.766 5.555-2.733 8.382-4.011a4.067 4.067 0 0 1 4.602.894 26.712 26.712 0 0 0 13.003 5.613c5.948 1.006 11.94.673 17.464-2.334a8.434 8.434 0 0 1 1.594-.423c.731 5.475.667 11.038 4.098 16.122ZM206.167 169.288c.011 14.612-12.914 22.187-22.61 21.442a21.265 21.265 0 0 1-19.835-22.827c.67-11.181 11.028-20.384 22.084-19.621 11.568.798 21.012 10.541 20.36 21.006ZM138.65 119.95c11.795.114 21.518 9.686 21.045 21.32-.522 12.831-8.708 20.799-20.82 21.128-13.94.378-21.75-11.19-21.602-21.418a21.147 21.147 0 0 1 21.377-21.03ZM252.363 141.234c-.04 12.96-9.182 21.676-23.372 21.032-9.875-.449-18.789-8.888-18.943-20.875a21.159 21.159 0 1 1 42.315-.157Z"/></svg>