<svg xmlns="http://www.w3.org/2000/svg" viewBox="0 0 370 370"><defs><style>.a{fill:#004c74}.c{fill:#f58535}</style></defs><path class="a" d="M47.136 305.733a4.958 4.958 0 0 1-3.806-1.772A185.147 185.147 0 0 1 0 185C0 82.99 82.99 0 185 0a185.207 185.207 0 0 1 118.399 42.854 4.969 4.969 0 0 1-6.364 7.633A175.252 175.252 0 0 0 185 9.937C88.47 9.937 9.937 88.47 9.937 185a175.195 175.195 0 0 0 41 112.567 4.969 4.969 0 0 1-3.801 8.166Z"/><path d="M185 370a185.143 185.143 0 0 1-118.982-43.348 4.969 4.969 0 0 1 6.395-7.606A175.192 175.192 0 0 0 185 360.063c96.53 0 175.063-78.533 175.063-175.063a175.134 175.134 0 0 0-41.467-113.12 4.969 4.969 0 0 1 7.58-6.425A185.082 185.082 0 0 1 370 185c0 102.01-82.99 185-185 185Z" style="fill:#4ab4ee"/><path class="a" d="M242.637 205.015H127.363a5.191 5.191 0 0 1 0-10.382h115.274a5.191 5.191 0 0 1 0 10.382ZM242.637 263.461H127.363a5.191 5.191 0 1 1 0-10.383h115.274a5.191 5.191 0 0 1 0 10.383ZM242.637 234.238H127.363a5.191 5.191 0 1 1 0-10.382h115.274a5.191 5.191 0 0 1 0 10.382Z"/><path class="a" d="M274.892 95.155a17.059 17.059 0 0 0-17.06-17.058H111.944a17.059 17.059 0 0 0-17.059 17.058v179.689a17.059 17.059 0 0 0 17.059 17.06h145.889a17.059 17.059 0 0 0 17.059-17.06v-25.076c.502-.501 0-154.613 0-154.613Zm-9.775 179.689a7.292 7.292 0 0 1-7.284 7.284h-145.89a7.292 7.292 0 0 1-7.283-7.284V95.155a7.292 7.292 0 0 1 7.284-7.284h145.888a7.292 7.292 0 0 1 7.284 7.284V274.844Z"/><path class="a" d="M162.875 135.762h-35.512a5.191 5.191 0 0 0 0 10.382h34.725c-.02-.544-.042-1.087-.042-1.636a46.81 46.81 0 0 1 .829-8.746ZM181.477 106.539h-54.114a5.191 5.191 0 0 0 0 10.383h43.692a47.306 47.306 0 0 1 10.422-10.383ZM127.363 165.41a5.191 5.191 0 0 0 0 10.383h46.713a47.033 47.033 0 0 1-7.082-10.383Z"/><path class="c" d="M208.91 104.42h-.129a40.064 40.064 0 0 0 .134 80.128h.349a40.064 40.064 0 0 0-.354-80.127Zm.3 73.16h-.304a33.096 33.096 0 0 1-.11-66.192h.113a33.097 33.097 0 0 1 .301 66.192Z"/><path class="c" d="M222.141 136.807a1.686 1.686 0 0 0-2.177-.694 6.756 6.756 0 0 0-.613.33l-.836.48c-2.593 1.497-5.186 2.992-7.75 4.51a3.828 3.828 0 0 0-2.44-.345l-.114-.143a3.751 3.751 0 0 0-.283-.329l-9.6-9.614c-.341-.344-.682-.687-1.04-1.013a1.685 1.685 0 0 0-2.162-.111 1.655 1.655 0 0 0-.524 2.037 2.528 2.528 0 0 0 .506.693q5.449 5.46 10.91 10.9l.072.216a3.164 3.164 0 0 0 3.076 3.707l.06.001a3.168 3.168 0 0 0 3.203-3.075q2.472-1.411 4.934-2.843l2.055-1.187c.713-.41 1.425-.819 2.13-1.242a1.681 1.681 0 0 0 .593-2.278Z"/><circle class="c" cx="208.897" cy="118.479" r="2.901"/><circle class="c" cx="208.897" cy="170.899" r="2.901"/><circle class="c" cx="234.841" cy="144.478" r="2.901"/><circle class="c" cx="182.955" cy="144.478" r="2.901"/><circle class="c" cx="190.247" cy="126.15" r="2.901"/><circle class="c" cx="227.359" cy="126.15" r="2.901"/><circle class="c" cx="190.247" cy="163.188" r="2.901"/><circle class="c" cx="227.359" cy="163.188" r="2.901"/></svg>