<svg xmlns="http://www.w3.org/2000/svg" viewBox="0 0 188 50"><defs><style>.a{fill:#f58535;}.b{fill:#fff;}</style></defs><title>button-live-demo-github</title><rect class="a" x="1.40426" y="1.85106" width="185.19149" height="46.29787" rx="23.14891"/><path class="b" d="M19.01319,16.39625h2.94786V29.88837h8.29958v2.5161H19.01319Z"/><path class="b" d="M32.30031,17.68808a1.696,1.696,0,0,1-.04822-2.398q.02362-.0246.04822-.04822a1.815,1.815,0,0,1,1.293-.49245,1.86386,1.86386,0,0,1,1.293.46955,1.51894,1.51894,0,0,1,.52109,1.17731,1.73159,1.73159,0,0,1-.51078,1.26893,1.755,1.755,0,0,1-1.30329.51536A1.81013,1.81013,0,0,1,32.30031,17.68808Zm-.13514,2.50465h2.83448V32.40447H32.16517Z"/><path class="b" d="M49.98975,20.19273,44.79721,32.40447h-2.925L36.67972,20.19273h2.94786L43.392,29.24818l3.87665-9.05545Z"/><path class="b" d="M62.61491,27.21308H53.114a3.32167,3.32167,0,0,0,1.30443,2.13817,4.251,4.251,0,0,0,2.61918.78907,4.39679,4.39679,0,0,0,3.288-1.32619l1.5186,1.76138a5.11268,5.11268,0,0,1-2.06373,1.48538,8.10714,8.10714,0,0,1-6.32633-.29661,5.74056,5.74056,0,0,1-2.34661-2.22979,6.33747,6.33747,0,0,1-.828-3.23646,6.43848,6.43848,0,0,1,.80511-3.21241A5.73683,5.73683,0,0,1,53.319,20.85583a6.46732,6.46732,0,0,1,3.21928-.80053,6.313,6.313,0,0,1,3.16316.78908,5.56678,5.56678,0,0,1,2.17711,2.21833,6.77741,6.77741,0,0,1,.7822,3.304C62.66072,26.56487,62.64584,26.84774,62.61491,27.21308Zm-8.3786-4.05875a3.41889,3.41889,0,0,0-1.1441,2.16108h6.87032a3.51971,3.51971,0,0,0-5.72622-2.16108Z"/><path class="b" d="M71.91086,16.39625h6.939a9.88747,9.88747,0,0,1,4.51226.99522,7.32328,7.32328,0,0,1,3.06124,2.81271,8.01648,8.01648,0,0,1,1.088,4.19618,8.01365,8.01365,0,0,1-1.088,4.19617,7.3233,7.3233,0,0,1-3.06124,2.81272,9.88747,9.88747,0,0,1-4.51226.99522h-6.939Zm6.80275,13.49212a6.68619,6.68619,0,0,0,3.07269-.67455,4.79594,4.79594,0,0,0,2.04082-1.92058,5.71009,5.71009,0,0,0,.71463-2.89288,5.71608,5.71608,0,0,0-.71463-2.89289A4.80273,4.80273,0,0,0,81.7863,19.5869a6.68619,6.68619,0,0,0-3.07269-.67455H74.85872v10.976Z"/><path class="b" d="M101.71812,27.21308H92.21718a3.32163,3.32163,0,0,0,1.30443,2.13817,4.251,4.251,0,0,0,2.61917.78907,4.39677,4.39677,0,0,0,3.288-1.32619l1.51859,1.76138a5.11245,5.11245,0,0,1-2.06373,1.48538,8.10709,8.10709,0,0,1-6.32631-.29661,5.74056,5.74056,0,0,1-2.34661-2.22979,6.33748,6.33748,0,0,1-.828-3.23646,6.43858,6.43858,0,0,1,.80511-3.21241,5.73681,5.73681,0,0,1,2.23437-2.22979,6.46726,6.46726,0,0,1,3.21927-.80053,6.31291,6.31291,0,0,1,3.16317.78908,5.56684,5.56684,0,0,1,2.17711,2.21833,6.77738,6.77738,0,0,1,.7822,3.304C101.76393,26.56487,101.749,26.84774,101.71812,27.21308Zm-8.3786-4.05875a3.41889,3.41889,0,0,0-1.1441,2.16108h6.87032a3.51971,3.51971,0,0,0-5.72622-2.16108Z"/><path class="b" d="M123.18,21.393a5.45122,5.45122,0,0,1,1.33879,4.01408v6.99744H121.6843V25.77236a3.59923,3.59923,0,0,0-.70318-2.413,2.52646,2.52646,0,0,0-2.01792-.81083,2.9436,2.9436,0,0,0-2.29048.94826,3.89453,3.89453,0,0,0-.86123,2.71079V32.4045H112.977V25.77236a3.59928,3.59928,0,0,0-.70318-2.413,2.52647,2.52647,0,0,0-2.01792-.81083,2.95582,2.95582,0,0,0-2.30194.93681,3.92077,3.92077,0,0,0-.84977,2.72224V32.4045h-2.83448V20.19273h2.69819V21.748a4.40357,4.40357,0,0,1,1.70069-1.25862,5.75031,5.75031,0,0,1,2.26758-.434,5.44079,5.44079,0,0,1,2.41417.51422,3.9455,3.9455,0,0,1,1.66748,1.52088,5.04488,5.04488,0,0,1,1.92744-1.498,6.22458,6.22458,0,0,1,2.60658-.53712A4.90032,4.90032,0,0,1,123.18,21.393Z"/><path class="b" d="M130.05489,31.76428a5.81226,5.81226,0,0,1-2.302-2.22979,6.33754,6.33754,0,0,1-.828-3.23646,6.27334,6.27334,0,0,1,.828-3.22386,5.83821,5.83821,0,0,1,2.302-2.21834,7.292,7.292,0,0,1,6.64355,0,5.83812,5.83812,0,0,1,2.30194,2.21834,6.28368,6.28368,0,0,1,.82688,3.22386,6.34815,6.34815,0,0,1-.82688,3.23646,5.81217,5.81217,0,0,1-2.30194,2.22979A7.29209,7.29209,0,0,1,130.05489,31.76428Zm5.89572-2.6982a3.80816,3.80816,0,0,0,1.02041-2.768,3.80715,3.80715,0,0,0-1.02041-2.76691,3.45094,3.45094,0,0,0-2.586-1.05134,3.4124,3.4124,0,0,0-2.57337,1.05134,3.83354,3.83354,0,0,0-1.009,2.76691,3.83453,3.83453,0,0,0,1.009,2.768,3.4124,3.4124,0,0,0,2.57337,1.05134A3.45094,3.45094,0,0,0,135.95061,29.06608Z"/><path class="b" d="M168.75293,23.5542a2.9045,2.9045,0,0,0-.875-.88184.1839.1839,0,0,0-.02246-.01562l-10.45117-6.3418a2.56708,2.56708,0,0,0-2.72168-.00146,2.83172,2.83172,0,0,0-1.34473,2.43847v6.96973a1.29231,1.29231,0,0,0,1.25293,1.32324h.03418a1.29326,1.29326,0,0,0,1.28906-1.25976l-.001-7.04834a.13077.13077,0,0,1,.11914-.13965.16119.16119,0,0,1,.06738.01318l10.44629,6.33887a.17139.17139,0,0,1,.07519.11133.16906.16906,0,0,1-.02636.13183.17153.17153,0,0,1-.042.04492L156.09961,31.582l-.00586.00391a.13559.13559,0,0,1-.043.0166,1.31472,1.31472,0,0,0-2.26562-.10742,1.373,1.373,0,0,0-.1084,1.31152l.208-.05566-.1836.1084a2.79916,2.79916,0,0,0,.98145,1.01953,2.576,2.576,0,0,0,2.71972.001l10.45606-6.34863A2.88615,2.88615,0,0,0,168.75293,23.5542Z"/></svg>