<svg xmlns="http://www.w3.org/2000/svg" viewBox="0 0 150 150"><path d="M52.161 66.49a10.416 10.416 0 0 0 .386 3.12 19.281 19.281 0 0 0 1.116 2.518 1.483 1.483 0 0 1 .252.81 1.394 1.394 0 0 1-.666 1.043l-2.212 1.475a1.7 1.7 0 0 1-.9.315 1.583 1.583 0 0 1-1.088-.495 10.671 10.671 0 0 1-1.259-1.646 27.76 27.76 0 0 1-1.088-2.06A12.924 12.924 0 0 1 36.46 76.4a9.596 9.596 0 0 1-7.006-2.518 8.993 8.993 0 0 1-2.59-6.727 8.994 8.994 0 0 1 3.183-7.195 12.853 12.853 0 0 1 8.58-2.698 26.916 26.916 0 0 1 3.714.279c1.295.171 2.626.45 4.03.764v-2.599a7.762 7.762 0 0 0-1.647-5.603 7.902 7.902 0 0 0-5.71-1.61 15.938 15.938 0 0 0-3.778.459 28.473 28.473 0 0 0-3.786 1.187 11.034 11.034 0 0 1-1.223.459 2.013 2.013 0 0 1-.558.099c-.494 0-.737-.351-.737-1.08V47.9a2.248 2.248 0 0 1 .243-1.223 2.608 2.608 0 0 1 .99-.738 19.784 19.784 0 0 1 4.415-1.574 21.018 21.018 0 0 1 5.477-.665 12.635 12.635 0 0 1 9.173 2.833 11.45 11.45 0 0 1 2.905 8.616v11.34Zm-14.218 5.323a11.25 11.25 0 0 0 3.597-.63 7.815 7.815 0 0 0 3.328-2.239 5.566 5.566 0 0 0 1.187-2.239 12.357 12.357 0 0 0 .35-3.049v-1.475a30.16 30.16 0 0 0-3.22-.593 27.303 27.303 0 0 0-3.29-.207 8.028 8.028 0 0 0-5.217 1.403 4.883 4.883 0 0 0-1.718 4.02 4.497 4.497 0 0 0 4.974 5.01ZM66.065 75.6a1.952 1.952 0 0 1-1.33-.351 2.797 2.797 0 0 1-.738-1.367l-8.23-27.106a6.294 6.294 0 0 1-.314-1.394.765.765 0 0 1 .836-.9h3.436a1.97 1.97 0 0 1 1.367.351 2.967 2.967 0 0 1 .701 1.367l5.882 23.176 5.459-23.122a1.755 1.755 0 0 1 2.068-1.718H78a2.122 2.122 0 0 1 1.403.351 2.42 2.42 0 0 1 .666 1.367l5.53 23.455 6.053-23.455a3.12 3.12 0 0 1 .702-1.367 2.31 2.31 0 0 1 1.367-.35h3.256a.782.782 0 0 1 .899.899 3.504 3.504 0 0 1-.072.557 5.659 5.659 0 0 1-.243.9l-8.445 27.07a2.698 2.698 0 0 1-.728 1.358 2.222 2.222 0 0 1-1.331.35h-3.031a2.078 2.078 0 0 1-1.403-.35 2.482 2.482 0 0 1-.666-1.394l-5.423-22.654-5.396 22.546a2.743 2.743 0 0 1-.665 1.403 2.195 2.195 0 0 1-1.403.351Zm44.967.944a23.466 23.466 0 0 1-5.396-.63 16.107 16.107 0 0 1-4.029-1.403 1.995 1.995 0 0 1-1.295-1.96v-1.799c0-.737.28-1.08.81-1.08a1.952 1.952 0 0 1 .63.1c.206.072.52.216.899.35a18.517 18.517 0 0 0 3.849 1.224 20.513 20.513 0 0 0 4.164.422 9.497 9.497 0 0 0 5.117-1.15 3.786 3.786 0 0 0 1.799-3.328 3.426 3.426 0 0 0-.9-2.456 8.724 8.724 0 0 0-3.534-1.798l-5.081-1.574a10.675 10.675 0 0 1-5.594-3.597 8.346 8.346 0 0 1-1.8-5.082 7.788 7.788 0 0 1 .9-3.885 8.993 8.993 0 0 1 2.518-2.869 11.178 11.178 0 0 1 3.598-1.798 15.179 15.179 0 0 1 4.416-.594 17.225 17.225 0 0 1 2.347.144c.8.099 1.538.243 2.275.378a13.393 13.393 0 0 1 1.997.566 7.098 7.098 0 0 1 1.466.63 2.95 2.95 0 0 1 1.052.9 1.915 1.915 0 0 1 .315 1.16v1.609c0 .729-.28 1.115-.81 1.115a3.598 3.598 0 0 1-1.33-.422 16.008 16.008 0 0 0-6.719-1.359 9.048 9.048 0 0 0-4.659.98 3.364 3.364 0 0 0-1.645 3.112 3.319 3.319 0 0 0 1.052 2.492 10.738 10.738 0 0 0 3.849 1.925l5.081 1.6a10.64 10.64 0 0 1 5.396 3.364 7.941 7.941 0 0 1 1.61 4.901 8.886 8.886 0 0 1-.9 4.056 9.37 9.37 0 0 1-2.553 3.085 11.449 11.449 0 0 1-3.886 1.96 16.783 16.783 0 0 1-4.99.711Z" style="fill:#334b59"/><path d="M117.67 93.542a75.41 75.41 0 0 1-42.648 13.04 77.155 77.155 0 0 1-52.054-19.848c-1.088-.98-.108-2.312 1.187-1.547a104.99 104.99 0 0 0 52.09 13.832 104.009 104.009 0 0 0 39.743-8.095c1.924-.9 3.57 1.233 1.681 2.618Zm4.793-5.468c-1.466-1.89-9.73-.9-13.49-.45-1.124.135-1.295-.846-.288-1.574a20.825 20.825 0 0 1 18.67-1.754 20.534 20.534 0 0 1-6.52 17.573c-.9.81-1.852.387-1.43-.665 1.421-3.444 4.533-11.26 3.058-13.112Z" style="fill:#eda23f"/></svg>