<svg xmlns="http://www.w3.org/2000/svg" viewBox="0 0 150 150"><path d="M76.126 74.18h-2.403v-9.384a27.51 27.51 0 0 1 .104-2.781 5.122 5.122 0 0 1-.42 1.338l-4.4 10.913H67.33l-4.408-10.803-.42-1.455a20.544 20.544 0 0 1 .105 2.886v9.395H60.3V59.752h3.46l3.88 9.687.627 1.65a10.812 10.812 0 0 1 .628-1.752l3.983-9.687h3.352Zm4.506-12.573a1.354 1.354 0 0 1-1.048-.412 1.113 1.113 0 0 1-.42-.926 1.06 1.06 0 0 1 .42-.94 1.878 1.878 0 0 1 1.048-.41 1.354 1.354 0 0 1 1.047.41 1.113 1.113 0 0 1 .42.928 1.06 1.06 0 0 1-.42.938 1.355 1.355 0 0 1-1.047.412Zm1.153 12.572h-2.414V63.773h2.411Zm10.791-.409a5.784 5.784 0 0 1-3.038.729 5.198 5.198 0 0 1-3.774-1.443 4.942 4.942 0 0 1-1.455-3.711 5.516 5.516 0 0 1 1.572-4.123 5.647 5.647 0 0 1 4.19-1.545 6.403 6.403 0 0 1 2.515.514v2.146a4.197 4.197 0 0 0-2.307-.825 3.13 3.13 0 0 0-2.514 1.03 3.825 3.825 0 0 0-.943 2.682 3.557 3.557 0 0 0 .943 2.575 3.352 3.352 0 0 0 2.411.926 3.728 3.728 0 0 0 2.411-.926v1.971Zm8.49-7.727a2.267 2.267 0 0 0-1.26-.308 2.192 2.192 0 0 0-1.784.939 3.84 3.84 0 0 0-.728 2.574v4.962h-2.41V63.773h2.41v2.163a4.175 4.175 0 0 1 1.046-1.752 2.4 2.4 0 0 1 1.677-.618 2.139 2.139 0 0 1 .942.207Zm6.388 8.454a4.983 4.983 0 0 1-5.335-5.251 5.725 5.725 0 0 1 9.538-4.123 5.368 5.368 0 0 1 1.35 4.023 5.798 5.798 0 0 1-1.455 4.018 6.477 6.477 0 0 1-4.1 1.35Zm.105-9.068a2.71 2.71 0 0 0-2.2.939 4.04 4.04 0 0 0-.84 2.682 3.8 3.8 0 0 0 .84 2.575 2.743 2.743 0 0 0 2.2.938 2.7 2.7 0 0 0 2.199-.938 3.947 3.947 0 0 0 .728-2.682 4.142 4.142 0 0 0-.728-2.682 3.03 3.03 0 0 0-2.2-.825Zm7.127 8.442v-2.168a5.34 5.34 0 0 0 2.935 1.03q2.199 0 2.199-1.237a1.448 1.448 0 0 0-.21-.618 1.046 1.046 0 0 0-.522-.412 4.02 4.02 0 0 0-.729-.308l-.942-.309a12.125 12.125 0 0 1-1.154-.513 5.804 5.804 0 0 1-.84-.619 2.24 2.24 0 0 1-.523-.824 3.004 3.004 0 0 1-.21-1.03 2.816 2.816 0 0 1 .316-1.339 2.038 2.038 0 0 1 .942-.926 5.477 5.477 0 0 1 1.363-.617 8.165 8.165 0 0 1 1.572-.207 7 7 0 0 1 2.619.412v2.065a4.204 4.204 0 0 0-2.515-.728 2.079 2.079 0 0 0-.84.102c-.209.102-.42.102-.627.205a.95.95 0 0 0-.524.926 1.287 1.287 0 0 0 .104.618.805.805 0 0 0 .42.411 4.022 4.022 0 0 0 .728.309c.315.102.537.205.943.308a6.478 6.478 0 0 0 1.254.514c.42.102.627.412.943.617a5.727 5.727 0 0 1 .627.825 3.62 3.62 0 0 1 .21 1.133 1.874 1.874 0 0 1-.42 1.338 2.682 2.682 0 0 1-.942.936 10.428 10.428 0 0 1-1.455.617 6.812 6.812 0 0 1-4.727-.516Zm14.57.626a4.983 4.983 0 0 1-5.334-5.251 5.725 5.725 0 0 1 9.538-4.123 5.397 5.397 0 0 1 1.362 4.018 5.798 5.798 0 0 1-1.455 4.018 6.678 6.678 0 0 1-4.122 1.341Zm.105-9.068a2.71 2.71 0 0 0-2.199.939 4.04 4.04 0 0 0-.84 2.682 3.8 3.8 0 0 0 .84 2.575 2.743 2.743 0 0 0 2.2.938 2.7 2.7 0 0 0 2.199-.938 3.947 3.947 0 0 0 .728-2.682 4.142 4.142 0 0 0-.728-2.682 3.03 3.03 0 0 0-2.205-.842Zm13.72-4.644a2.156 2.156 0 0 0-1.154-.308c-1.153 0-1.783.617-1.783 1.958v1.444h2.41v1.85h-2.41v8.56h-2.414v-8.56h-1.784V63.86h1.784v-1.636a3.11 3.11 0 0 1 1.046-2.575 4.511 4.511 0 0 1 4.086-.728v1.855h.2ZM150 74.077a4.45 4.45 0 0 1-1.887.309c-2.095 0-3.039-.939-3.039-2.886v-5.87h-1.783v-1.857h1.783v-2.374l2.411-.617v3.091H150v1.856h-2.514v5.16a2.306 2.306 0 0 0 .315 1.34 1.318 1.318 0 0 0 1.153.41 1.784 1.784 0 0 0 1.044-.32v1.752ZM74.986 95.576H72.26l-1.363-3.708h-5.87l-1.26 3.71h-2.723l5.552-14.529h2.719ZM70.27 89.91l-2.095-5.77a6.462 6.462 0 0 1-.21-.926 6.474 6.474 0 0 1-.208.927l-1.992 5.769Zm14.264-3.715-5.659 7.518h5.66v1.855h-9.022v-.91l5.871-7.643h-5.24V85.16h8.488v1.023Zm11.306 9.383h-2.412v-1.646a3.514 3.514 0 0 1-3.249 1.854c-2.514 0-3.774-1.443-3.774-4.43v-6.187h2.411v5.976q0 2.781 2.2 2.781a2.32 2.32 0 0 0 1.782-.728 3.286 3.286 0 0 0 .728-2.061v-5.968h2.409Zm9.222-8.14a2.266 2.266 0 0 0-1.26-.308 2.192 2.192 0 0 0-1.783.939 3.84 3.84 0 0 0-.728 2.574v4.962h-2.411V85.183h2.411v2.163a4.175 4.175 0 0 1 1.046-1.752 2.395 2.395 0 0 1 1.659-.617 2.14 2.14 0 0 1 .943.207Zm10.688 3.621h-7.242a2.887 2.887 0 0 0 .943 2.28 3.416 3.416 0 0 0 2.411.825 5.002 5.002 0 0 0 3.153-1.03v1.854a6.81 6.81 0 0 1-3.782.934 4.935 4.935 0 0 1-3.666-1.455 5.404 5.404 0 0 1-1.363-4.018 5.498 5.498 0 0 1 1.455-3.917 4.796 4.796 0 0 1 3.667-1.548 4.184 4.184 0 0 1 3.352 1.339 5.379 5.379 0 0 1 1.154 3.808Zm-2.307-1.65a2.764 2.764 0 0 0-.627-1.957 1.979 1.979 0 0 0-1.677-.729 2.32 2.32 0 0 0-1.782.729 3.038 3.038 0 0 0-.84 1.958Z" style="fill:#035bda"/><path d="m32.797 60.283-7.813 15.74 13.761 15.959-25.536 2.883 39.623.402Zm-1.543-6.213L13.317 69.083 0 91.553l11.337-1.136Z" style="fill-rule:evenodd;fill:#035bda"/></svg>