<svg xmlns="http://www.w3.org/2000/svg" viewBox="0 0 150 150"><defs><style>.a{fill:#60646a}</style></defs><path class="a" d="M37.539 87.528a6.691 6.691 0 1 0 9.463.017l-.017-.017a6.787 6.787 0 0 0-9.446 0Zm7.36 7.617q-.08.087-.167.168a3.614 3.614 0 0 1-5.107-.167h-.012a4.268 4.268 0 0 1-.01-5.766l.109-.11a3.67 3.67 0 0 1 5.188.11 4.284 4.284 0 0 1 0 5.765ZM32.465 87.528a6.691 6.691 0 1 0 0 9.48h-.011a6.773 6.773 0 0 0 .01-9.48Zm-2.085 7.617q-.082.087-.168.168a3.613 3.613 0 0 1-5.107-.167h-.012a4.268 4.268 0 0 1-.011-5.766l.11-.11a3.67 3.67 0 0 1 5.188.11 4.284 4.284 0 0 1 0 5.765ZM10.483 87.674v2.855h6.692a5.935 5.935 0 0 1-1.528 3.468 7.457 7.457 0 0 1-10.439-10.65 7.071 7.071 0 0 1 5.242-2.23 7.149 7.149 0 0 1 5.074 2.007l1.985-2.019a9.859 9.859 0 0 0-7.06-2.844 10.16 10.16 0 0 0-7.36 3.078q-.131.127-.258.258a10.102 10.102 0 0 0 .258 14.284 10.16 10.16 0 0 0 7.36 3.023 9.49 9.49 0 0 0 7.172-2.91 8.922 8.922 0 0 0 2.442-6.581 9.027 9.027 0 0 0-.112-1.74ZM60.078 87.127h-.1a4.125 4.125 0 0 0-1.45-1.06 4.795 4.795 0 0 0-2.052-.457 6.044 6.044 0 0 0-4.461 1.952 6.481 6.481 0 0 0-1.907 4.706 6.414 6.414 0 0 0 1.907 4.673 6.056 6.056 0 0 0 4.46 1.94 4.25 4.25 0 0 0 3.492-1.505h.1v.959a4.07 4.07 0 0 1-.926 2.9 3.345 3.345 0 0 1-2.598 1.003 3.178 3.178 0 0 1-2.086-.702 4.28 4.28 0 0 1-1.26-1.662l-2.543 1.06a6.837 6.837 0 0 0 2.164 2.743 5.845 5.845 0 0 0 3.714 1.182 6.246 6.246 0 0 0 4.539-1.729 6.926 6.926 0 0 0 1.773-5.186V86.067h-2.766Zm-.825 8.052a3.244 3.244 0 0 1-2.52 1.115 3.458 3.458 0 0 1-2.61-1.137 3.995 3.995 0 0 1-1.116-2.855 4.071 4.071 0 0 1 1.116-2.889 3.447 3.447 0 0 1 2.61-1.115 3.234 3.234 0 0 1 2.52 1.115 4.214 4.214 0 0 1 1.015 2.91 4.125 4.125 0 0 1-1.015 2.856ZM133.35 93.015a4.204 4.204 0 0 1-.904 2.666 2.833 2.833 0 0 1-2.342 1.115q-3.044 0-3.044-3.446v-7.16h-2.31v7.584a5.577 5.577 0 0 0 1.194 3.77 4.339 4.339 0 0 0 3.502 1.405 4.55 4.55 0 0 0 2.286-.614 4.296 4.296 0 0 0 1.629-1.539h.067v1.706h2.23V86.19h-2.309ZM64.851 79.008h2.911v19.494h-2.911zM111.981 87.662a7.04 7.04 0 0 0 0 9.368 6.457 6.457 0 0 0 9.1 0 7.04 7.04 0 0 0 0-9.368 6.457 6.457 0 0 0-9.1 0Zm7.372 7.918-.152.152a3.892 3.892 0 0 1-5.502-.152l.011-.011a4.947 4.947 0 0 1-.011-6.457l.152-.152a3.892 3.892 0 0 1 5.502.152 4.75 4.75 0 0 1 0 6.468ZM147.691 80.491v5.7l.1 1.705h-.1a4.271 4.271 0 0 0-1.673-1.505 5.228 5.228 0 0 0-2.52-.603 5.42 5.42 0 0 0-4.126 1.885 7.18 7.18 0 0 0 0 9.346 5.42 5.42 0 0 0 4.126 1.885 5.228 5.228 0 0 0 2.498-.602 4.271 4.271 0 0 0 1.673-1.506h.1v1.706H150v-18.01Zm-1.037 15.1a3.805 3.805 0 0 1-5.378.178q-.103-.096-.198-.2a5.248 5.248 0 0 1 0-6.468q.12-.132.251-.251a3.77 3.77 0 0 1 5.325.25 5.283 5.283 0 0 1 0 6.491ZM105.904 80.491h2.309v18.011h-2.309zM81.156 89.837a7.963 7.963 0 0 0-.658-1.305 7.795 7.795 0 0 0-1.115-1.35 5.254 5.254 0 0 0-1.707-1.115 5.632 5.632 0 0 0-2.23-.435 5.978 5.978 0 0 0-4.46 1.863 6.535 6.535 0 0 0-1.819 4.773 6.457 6.457 0 0 0 1.885 4.729 6.334 6.334 0 0 0 4.695 1.907 6.067 6.067 0 0 0 3.357-.937 7.351 7.351 0 0 0 2.141-2.03l-2.23-1.506a3.803 3.803 0 0 1-3.268 1.84 3.345 3.345 0 0 1-3.212-2.007l8.922-3.669Zm-9.134 2.23a3.535 3.535 0 0 1 1.082-2.81 3.447 3.447 0 0 1 2.398-1.06 3.024 3.024 0 0 1 1.528.39 2.051 2.051 0 0 1 .926 1.016ZM96.714 96.685a6.814 6.814 0 0 1-4.963-1.986 7.7 7.7 0 0 1 0-10.394 6.814 6.814 0 0 1 4.963-1.985 6.067 6.067 0 0 1 4.996 2.286l1.606-1.561a8.32 8.32 0 0 0-6.614-2.944q-.186-.004-.372 0a9.19 9.19 0 0 0-8.973 9.401q-.004.186-.001.372a9.19 9.19 0 0 0 9.347 9.03 9.455 9.455 0 0 0 4.104-.87 8.765 8.765 0 0 0 3.089-2.353l-1.606-1.606a7.093 7.093 0 0 1-5.576 2.61Z"/><path d="M80.62 52.27h.982l2.798-2.798.138-1.188a12.576 12.576 0 0 0-20.459 6.136 1.522 1.522 0 0 1 .982-.059l5.596-.923s.284-.47.432-.441a6.98 6.98 0 0 1 9.552-.727Z" style="fill:#e84435"/><path d="M88.386 54.42a12.605 12.605 0 0 0-3.8-6.126l-3.926 3.927a6.98 6.98 0 0 1 2.562 5.537v.697a3.495 3.495 0 0 1 .027 6.99h-7.016l-.697.706v4.192l.697.697h6.99a9.09 9.09 0 0 0 5.163-16.62Z" style="fill:#537dbe"/><path d="M69.233 71h6.99v-5.595h-6.99a3.474 3.474 0 0 1-1.443-.314l-.982.304-2.817 2.798-.245.982A9.041 9.041 0 0 0 69.233 71Z" style="fill:#33a650"/><path d="M69.233 52.85a9.09 9.09 0 0 0-5.488 16.295l4.055-4.054a3.495 3.495 0 1 1 4.624-4.624l4.054-4.054a9.08 9.08 0 0 0-7.245-3.564Z" style="fill:#f6ba17"/></svg>