<svg xmlns="http://www.w3.org/2000/svg" viewBox="0 0 200 200"><defs><style>.a{fill:#fff;}.b{fill:#f16a21;}</style></defs><title>alibaba</title><circle class="a" cx="100" cy="100" r="100"/><path class="b" d="M109.34172,59.28508h33.9382A21.75673,21.75673,0,0,1,165.37984,77.66a19.9373,19.9373,0,0,1,.27955,3.77088v37.029a21.833,21.833,0,0,1-21.49469,22.16667q-.37248.00582-.74507-.00108h-34.058c.57892-2.35422,1.118-4.56816,1.677-6.78328a38.69862,38.69862,0,0,0,1.0381-4.10994c.17972-1.37659.89837-1.79559,2.11617-1.99512q13.51545-2.873,26.97116-5.82569a6.24589,6.24589,0,0,0,5.69619-6.75172l-.02642-.251V84.80245a6.2059,6.2059,0,0,0-5.4701-6.60379l-27.68982-5.98537a1.99649,1.99649,0,0,1-1.27776-.95759C111.33813,67.24552,110.37982,63.3752,109.34172,59.28508Z"/><path class="b" d="M90.53577,59.36481c-.97826,3.99024-1.99641,7.721-2.89478,11.55173-.19957.89779-.7786,1.01749-1.51719,1.17705L58.43357,78.19865a6.34549,6.34549,0,0,0-5.43012,6.504v30.78443a6.26578,6.26578,0,0,0,5.51,6.42418l27.5501,5.98537a1.8561,1.8561,0,0,1,1.677,1.55619c.89837,3.7308,1.85669,7.44168,2.8149,11.29218H56.29777a21.75389,21.75389,0,0,1-21.96064-21.54478v-.00045q-.00182-.2004,0-.4009V81.13143A21.63338,21.63338,0,0,1,55.55874,59.32494c11.39926-.15956,22.77869,0,34.15813,0Z"/><path class="b" d="M112.436,98.54872v2.85295H87.56112V98.54872Z"/></svg>