<svg xmlns="http://www.w3.org/2000/svg" viewBox="0 0 200 200"><defs><style>.a{fill:#fff;}.b{fill:#334b59;}.c{fill:#eda23f;}</style></defs><title>aws</title><circle class="a" cx="100" cy="100" r="100"/><path class="b" d="M68.60323,88.15a14.31807,14.31807,0,0,0,.53131,4.2901,26.505,26.505,0,0,0,1.5332,3.46171,2.03946,2.03946,0,0,1,.34619,1.11271,1.91637,1.91637,0,0,1-.91484,1.43454l-3.04144,2.02763a2.33711,2.33711,0,0,1-1.23628.43264,2.17653,2.17653,0,0,1-1.496-.68,14.66883,14.66883,0,0,1-1.73054-2.26255c-.48213-.81594-.96433-1.73055-1.49594-2.83112A17.76618,17.76618,0,0,1,47.017,101.77483,13.19166,13.19166,0,0,1,37.386,98.313a12.363,12.363,0,0,1-3.56068-9.24774,12.36366,12.36366,0,0,1,4.37662-9.89071,17.66893,17.66893,0,0,1,11.79461-3.709,37,37,0,0,1,5.10612.3833c1.78027.23492,3.61009.61814,5.53875,1.05086V73.32639a10.67064,10.67064,0,0,0-2.26247-7.70232A10.86238,10.86238,0,0,0,50.52823,63.411a21.909,21.909,0,0,0-5.19264.63051,39.14193,39.14193,0,0,0-5.20493,1.63188,15.16863,15.16863,0,0,1-1.68145.63051,2.76924,2.76924,0,0,1-.7666.136c-.68,0-1.01381-.4822-1.01381-1.48356V62.595a3.09082,3.09082,0,0,1,.334-1.68136,3.58546,3.58546,0,0,1,1.35985-1.01382A27.19462,27.19462,0,0,1,44.433,57.73625a28.89245,28.89245,0,0,1,7.52941-.91491A17.36913,17.36913,0,0,1,64.573,60.71576a15.74059,15.74059,0,0,1,3.9934,11.8441V88.15ZM49.05712,95.46909a15.466,15.466,0,0,0,4.94535-.86528,10.74323,10.74323,0,0,0,4.57442-3.07848,7.65266,7.65266,0,0,0,1.63188-3.07841,16.98743,16.98743,0,0,0,.48221-4.19119V82.228a41.45449,41.45449,0,0,0-4.42612-.816,37.52788,37.52788,0,0,0-4.52493-.28433,11.0366,11.0366,0,0,0-7.17078,1.92866,6.71318,6.71318,0,0,0-2.36137,5.52637,6.18148,6.18148,0,0,0,6.83689,6.88638Zm38.66012,5.205a2.68328,2.68328,0,0,1-1.82975-.48221,3.8453,3.8453,0,0,1-1.01381-1.87924L73.561,61.04958a8.6525,8.6525,0,0,1-.43264-1.91628,1.051,1.051,0,0,1,1.14975-1.23636h4.72281a2.70789,2.70789,0,0,1,1.87924.4822,4.07915,4.07915,0,0,1,.96433,1.87924L89.93,92.11865,97.4345,60.33254a2.41233,2.41233,0,0,1,2.84358-2.36137h3.845a2.9172,2.9172,0,0,1,1.92865.48212,3.32542,3.32542,0,0,1,.91492,1.87925l7.6035,32.24357,8.32053-32.24358a4.289,4.289,0,0,1,.96433-1.87924,3.17675,3.17675,0,0,1,1.87916-.48212h4.47561a1.07552,1.07552,0,0,1,1.23628,1.23628,4.81692,4.81692,0,0,1-.09868.7666,7.77479,7.77479,0,0,1-.334,1.23636L119.40415,98.42393a3.709,3.709,0,0,1-1.00136,1.86718,3.05393,3.05393,0,0,1-1.82982.4822h-4.16645a2.85577,2.85577,0,0,1-1.92866-.4822,3.41194,3.41194,0,0,1-.91483-1.91629l-7.45511-31.14323L94.68986,98.22643a3.7713,3.7713,0,0,1-.91483,1.92874,3.01684,3.01684,0,0,1-1.92866.48213ZM149.534,101.972a32.25712,32.25712,0,0,1-7.418-.86528,22.14028,22.14028,0,0,1-5.53883-1.92873,2.7431,2.7431,0,0,1-1.78034-2.69519V94.01027c0-1.01382.38331-1.48365,1.11272-1.48365a2.68374,2.68374,0,0,1,.86528.136c.2844.09866.71712.2967,1.23635.4822a25.455,25.455,0,0,0,5.29155,1.68137,28.19755,28.19755,0,0,0,5.72417.5811,13.05585,13.05585,0,0,0,7.03477-1.58254,5.20487,5.20487,0,0,0,2.47263-4.57443,4.7103,4.7103,0,0,0-1.23635-3.37518,11.99243,11.99243,0,0,0-4.85875-2.47264L145.45388,81.239a14.67543,14.67543,0,0,1-7.69-4.94535,11.47333,11.47333,0,0,1-2.47264-6.98527,10.70708,10.70708,0,0,1,1.23628-5.34095,12.363,12.363,0,0,1,3.46179-3.94391,15.36749,15.36749,0,0,1,4.94536-2.47272,20.86852,20.86852,0,0,1,6.07036-.81594,23.67906,23.67906,0,0,1,3.2268.1978c1.10058.136,2.11416.334,3.128.51924a18.40914,18.40914,0,0,1,2.74467.7789,9.75956,9.75956,0,0,1,2.01518.86528,4.05534,4.05534,0,0,1,1.44653,1.23635,2.63307,2.63307,0,0,1,.43263,1.59484v2.213c0,1.00144-.38322,1.53321-1.11272,1.53321a4.94555,4.94555,0,0,1-1.82975-.5811,22.0069,22.0069,0,0,0-9.23545-1.86717,12.43761,12.43761,0,0,0-6.40418,1.34763,4.62374,4.62374,0,0,0-2.26247,4.27772,4.562,4.562,0,0,0,1.44646,3.42467,14.7617,14.7617,0,0,0,5.29137,2.64607l6.98535,2.20068a14.62666,14.62666,0,0,1,7.418,4.62391,10.91672,10.91672,0,0,1,2.213,6.738,12.215,12.215,0,0,1-1.23628,5.57586,12.88176,12.88176,0,0,1-3.51121,4.2406,15.73883,15.73883,0,0,1-5.34095,2.69526,23.07145,23.07145,0,0,1-6.86148.9767Z"/><path class="c" d="M158.65775,125.33893a103.6661,103.6661,0,0,1-58.62689,17.92684,106.06509,106.06509,0,0,1-71.559-27.28585c-1.49594-1.34763-.14831-3.17739,1.63188-2.12653a144.32937,144.32937,0,0,0,71.60845,19.0148,142.98187,142.98187,0,0,0,54.63379-11.12713C158.99156,120.50454,161.254,123.435,158.65775,125.33893Zm6.58968-7.51689c-2.01526-2.59628-13.37715-1.23636-18.545-.61822-1.54542.1855-1.78034-1.16212-.39567-2.16357a28.62794,28.62794,0,0,1,25.66628-2.41085,28.22774,28.22774,0,0,1-8.96334,24.158c-1.23636,1.11271-2.54688.53131-1.96585-.91484,1.95332-4.73518,6.231-15.47894,4.20349-18.02574Z"/></svg>