<svg xmlns="http://www.w3.org/2000/svg" viewBox="0 0 200 200"><defs><style>.a{fill:#fff;}.b{fill:#ef3e2b;}</style></defs><title>databricks</title><circle class="a" cx="100" cy="100" r="100"/><polygon class="b" points="43.847 70.853 43.847 74.511 100.026 106.146 150.427 77.903 150.427 89.401 100.026 117.915 46.71 87.599 43.847 89.136 43.847 111.129 100.026 142.717 150.427 114.522 150.427 125.76 100.026 154.221 46.71 123.905 43.847 125.496 43.847 129.418 100.026 161 156.153 129.418 156.153 107.472 153.555 105.881 100.026 136.197 49.837 107.472 49.837 96.239 100.026 124.435 156.153 92.793 156.153 71.118 153.555 69.581 100.026 99.897 52.435 72.974 100.026 46.05 139.454 68.256 142.847 66.189 142.847 63.273 100.026 39 43.847 70.853"/></svg>