<svg xmlns="http://www.w3.org/2000/svg" viewBox="0 0 200 200"><defs><style>.a{fill:#fff;}.b{fill:#ea4335;}.c{fill:#4285f4;}.d{fill:#34a853;}.e{fill:#fbbc05;}</style></defs><title>google</title><circle class="a" cx="100" cy="100" r="100"/><path class="b" d="M116.30734,78.48074l3.83076.06689,10.40716-10.40716.50225-4.41A46.75475,46.75475,0,0,0,54.82482,86.447a5.63359,5.63359,0,0,1,3.56616-.20067L79.19219,82.824s1.07156-1.77467,1.60723-1.66422a25.98476,25.98476,0,0,1,35.51123-2.6788Z"/><path class="c" d="M145.20523,86.48394a46.84581,46.84581,0,0,0-14.11734-22.75663L116.34747,78.46753a25.95107,25.95107,0,0,1,9.694,20.22163v2.60189a12.99234,12.99234,0,0,1,0,25.98463H100.05019l-2.60189,2.61206v15.59748l2.60189,2.5884H126.0415A33.767,33.767,0,0,0,145.17178,86.4839Z"/><path class="d" d="M73.99519,148.097h25.9842V127.29592H73.99519a12.85986,12.85986,0,0,1-5.34765-1.16206l-3.75031,1.14842L54.49007,137.68944l-.9107,3.516a33.35171,33.35171,0,0,0,20.41936,6.898Z"/><path class="e" d="M73.99519,80.5a33.78482,33.78482,0,0,0-20.406,60.72238l15.06846-15.06849a12.99159,12.99159,0,1,1,17.178-17.178L100.9041,93.90757A33.74163,33.74163,0,0,0,73.98175,80.51294Z"/></svg>