<svg xmlns="http://www.w3.org/2000/svg" viewBox="0 0 200 200"><defs><style>.a{fill:#fff;}.b{fill:#326de6;}</style></defs><title>k8s</title><circle class="a" cx="100" cy="100" r="100"/><path class="b" d="M151.7107,66.38492a9.27453,9.27453,0,0,0-4.58711-5.30045L103.40267,40.1692a8.024,8.024,0,0,0-3.58368-.71628,15.1383,15.1383,0,0,0-3.58368.28651L52.51439,60.798A7.6986,7.6986,0,0,0,48.214,66.09841l-10.75106,47.131a9.03329,9.03329,0,0,0,1.57682,6.87625L69.286,157.49531a10.43944,10.43944,0,0,0,6.594,3.00836h48.16469a7.14544,7.14544,0,0,0,6.594-3.00836l30.24627-37.38964a9.77789,9.77789,0,0,0,1.72016-6.87625L151.71069,66.38493Z"/><path class="a" d="M144.97337,111.36709h0c-.14334,0-.28669,0-.28669-.14325s-.28669-.14325-.57339-.14325a6.98318,6.98318,0,0,0-1.72016-.14326,1.81922,1.81922,0,0,1-.86008-.14325h-.14335a28.98677,28.98677,0,0,1-4.87381-.85953,1.731,1.731,0,0,1-1.00342-1.00279h0l-1.14679-.28651a37.33775,37.33775,0,0,0-.57339-12.60647,38.79579,38.79579,0,0,0-5.01715-11.74693l.86008-.85954h0v-.14325a1.99889,1.99889,0,0,1,.43-1.2893,25.67251,25.67251,0,0,1,4.01372-2.86511h0l.86009-.42976c.57339-.28651,1.00342-.573,1.57681-.85953.14335-.14326.28669-.14326.43-.28652s0-.14325,0-.28651h0a2.80131,2.80131,0,0,0,.57339-4.01115,2.73853,2.73853,0,0,0-2.00686-1.00278,3.42645,3.42645,0,0,0-2.00687.71627h0l-.14334.14326c-.14335.14325-.28669.28651-.43.28651a9.2707,9.2707,0,0,0-1.14678,1.2893c-.14335.28651-.43.42976-.57339.573h0a18.84549,18.84549,0,0,1-3.58368,3.15162,2.03846,2.03846,0,0,1-.86009.28651.86227.86227,0,0,1-.57339-.14326h-.14334l-1.14678.71628c-1.14678-1.146-2.4369-2.29209-3.58368-3.43813a36.7434,36.7434,0,0,0-18.63515-7.44927l-.14334-1.146h0v.14325a1.96827,1.96827,0,0,1-.71674-1.146,28.60179,28.60179,0,0,1,.28669-4.87068v-.14326c0-.28651.14335-.573.14335-.85953.14334-.573.14334-1.146.2867-1.71906v-.85953h0a2.8349,2.8349,0,0,0-2.43691-3.00837,2.87688,2.87688,0,0,0-2.4369,1.00279,2.82742,2.82742,0,0,0-.86009,2.00558h0v.71627a7.18631,7.18631,0,0,0,.2867,1.71907,1.816,1.816,0,0,1,.14334.85953v.14325a26.97878,26.97878,0,0,1,.2867,4.87068,1.96831,1.96831,0,0,1-.71674,1.14605V67.531h0l-.14334,1.146c-1.57682.14325-3.15364.42976-4.87381.71628A34.17691,34.17691,0,0,0,74.15982,79.42117l-.86008-.573h-.14335c-.14335,0-.28669.14325-.57339.14325a2.03823,2.03823,0,0,1-.86008-.28651A26.42434,26.42434,0,0,1,68.13924,75.41h0c-.14335-.28651-.43-.42976-.57339-.573-.43-.42977-.71674-.85953-1.14678-1.2893-.14335-.14325-.28669-.14325-.43-.28651l-.14335-.14326h0a3.42642,3.42642,0,0,0-2.00686-.71627A2.1695,2.1695,0,0,0,61.832,73.40445a3.07971,3.07971,0,0,0,.57339,4.01114h0a.14033.14033,0,0,1,.14335.14326s.28669.28651.43.28651a15.63879,15.63879,0,0,0,1.57682.85953l.86008.42977h0a20.35012,20.35012,0,0,1,4.01372,2.86511,1.44342,1.44342,0,0,1,.43,1.28929v-.14325h0l.86008.85953c-.14335.28651-.2867.42976-.43.71628a33.99922,33.99922,0,0,0-5.01716,23.49386l-1.14677.28652h0a.14036.14036,0,0,1-.14335.14325,2.25774,2.25774,0,0,1-1.00343,1.00279,26.64252,26.64252,0,0,1-4.87381.85953h0a1.81922,1.81922,0,0,0-.86008.14325c-.57339,0-1.14678.14325-1.72017.14325-.14335,0-.2867.14326-.57339.14326-.14335,0-.14335,0-.28669.14325h0a2.79562,2.79562,0,0,0-2.29356,3.29487h0A2.661,2.661,0,0,0,55.238,116.381a1.293,1.293,0,0,0,.71674-.14325h0c.14335,0,.14335,0,.14335-.14326s.43,0,.57339,0c.57339-.14325,1.14678-.42976,1.57682-.573a2.03837,2.03837,0,0,1,.86008-.28651h.14335a25.56553,25.56553,0,0,1,4.73046-1.2893h.14335a1.62828,1.62828,0,0,1,1.14677.42976.14033.14033,0,0,1,.14335.14325h0l1.29013-.14325a34.577,34.577,0,0,0,11.75447,16.76087,22.73687,22.73687,0,0,0,3.87038,2.57861l-.71674,1.00278h0a.14036.14036,0,0,0,.14335.14325,1.69413,1.69413,0,0,1,.14335,1.43255,23.50093,23.50093,0,0,1-2.29356,4.15441v.14325a2.51524,2.51524,0,0,1-.57339.71628c-.28669.28651-.57338.85953-1.00343,1.43255-.14335.14326-.14335.28651-.28669.42977a.14033.14033,0,0,1-.14335.14326h0a2.9479,2.9479,0,0,0,1.14678,3.86789,2.6589,2.6589,0,0,0,1.00343.2865,3.21221,3.21221,0,0,0,2.7236-1.71906h0a.14032.14032,0,0,1,.14334-.14325c0-.14325.14335-.28651.2867-.42977.14335-.573.43-1.00278.57339-1.57581l.28669-.85953h0a24.23589,24.23589,0,0,1,1.86352-4.44091,2.229,2.229,0,0,1,1.14677-.85953c.14335,0,.14335,0,.14335-.14325h0l.57339-1.14605a33.76213,33.76213,0,0,0,12.47122,2.29208,28.72029,28.72029,0,0,0,7.74075-1.00278,42.85193,42.85193,0,0,0,4.58712-1.2893l.57339,1.00278h0c.14334,0,.14334,0,.14334.14326a2.22912,2.22912,0,0,1,1.14678.85953,24.23556,24.23556,0,0,1,1.86351,4.44091V142.74l.2867.85953a5.12928,5.12928,0,0,0,.57339,1.57581c.14334.14325.14334.2865.2867.42977a.14032.14032,0,0,0,.14334.14325h0a3.21219,3.21219,0,0,0,2.7236,1.71906,3.37554,3.37554,0,0,0,1.14678-.2865,2.39762,2.39762,0,0,0,1.29013-1.57581,3.68321,3.68321,0,0,0-.14335-2.14883h0a.14036.14036,0,0,0-.14334-.14325c0-.14326-.14335-.28651-.2867-.42977a5.14517,5.14517,0,0,0-1.00343-1.43256,2.51538,2.51538,0,0,0-.57339-.71627v-.28651a16.92186,16.92186,0,0,1-2.29356-4.15441,1.6942,1.6942,0,0,1,.14335-1.43255.14036.14036,0,0,1,.14334-.14325h0l-.43-1.14605a35.41326,35.41326,0,0,0,15.48151-19.48272l1.14678.14325h0a.14033.14033,0,0,0,.14335-.14325,1.62829,1.62829,0,0,1,1.14678-.42977h.14334a24.11257,24.11257,0,0,1,4.58711,1.2893h.14335a2.03826,2.03826,0,0,0,.86008.28652,7.68465,7.68465,0,0,0,1.57682.71627c.14334,0,.28669.14326.57339.14326.14334,0,.14334,0,.28669.14325h0a1.293,1.293,0,0,0,.71673.14325,3.11767,3.11767,0,0,0,2.867-2.00557,3.37807,3.37807,0,0,0-2.58026-3.00836ZM103.546,106.92618l-3.87038,1.86232-3.87038-1.86232-1.00343-4.15441,2.7236-3.43813h4.30042l2.7236,3.43813Zm23.3656-9.3116a27.409,27.409,0,0,1,.57339,9.02509l-13.618-3.8679h0a2.34286,2.34286,0,0,1-1.72017-2.8651,2.30855,2.30855,0,0,1,.5734-1.00279l10.751-9.74136A29.1337,29.1337,0,0,1,126.91161,97.61458Zm-7.74075-13.75251-11.75448,8.30881a2.43843,2.43843,0,0,1-3.15364-.573,1.3001,1.3001,0,0,1-.43-1.00279l-.86008-14.46879a26.98391,26.98391,0,0,1,16.19824,7.73579ZM93.225,76.55605l2.86694-.573L95.3752,90.30856h0a2.388,2.388,0,0,1-2.4369,2.29208,3.37533,3.37533,0,0,1-1.14678-.28651L79.8937,83.86207A28.471,28.471,0,0,1,93.225,76.55605ZM75.73663,89.16252l10.6077,9.45485h0a2.30133,2.30133,0,0,1,.28669,3.29487,1.61363,1.61363,0,0,1-1.14677.71627l-13.90469,4.01115A30.13969,30.13969,0,0,1,75.73663,89.16252Zm-2.43691,24.21014,14.19138-2.43534a2.34708,2.34708,0,0,1,2.43691,1.86232,1.6942,1.6942,0,0,1-.14335,1.43255h0l-5.44719,13.17949A28.18386,28.18386,0,0,1,73.29972,113.37266Zm32.53984,17.76366a29.02452,29.02452,0,0,1-6.16394.71628,32.14688,32.14688,0,0,1-9.03087-1.43255l7.024-12.74973a2.2242,2.2242,0,0,1,2.86695-.573,7.17783,7.17783,0,0,1,1.14678,1.00279h0l6.88067,12.46321A23.30168,23.30168,0,0,0,105.83956,131.13632Zm17.48837-12.46321a27.36309,27.36309,0,0,1-8.60084,8.59532l-5.59055-13.466a2.329,2.329,0,0,1,1.29013-2.72185,4.18794,4.18794,0,0,1,1.29013-.28651l14.33473,2.43534A21.50537,21.50537,0,0,1,123.32793,118.67311Z"/></svg>