<svg xmlns="http://www.w3.org/2000/svg" viewBox="0 0 200 200"><defs><style>.a{fill:#fff;}.b{fill:#45c8eb;}.c{fill:#0594e1;}</style></defs><title>mlflow</title><circle class="a" cx="100" cy="100" r="100"/><path class="b" d="M131.901,55.33209C121.713,62.8113,111.89638,70.02184,102.07007,77.21927a21.51707,21.51707,0,0,1-1.98305,1.10615V65.85157A32.40748,32.40748,0,0,0,72.91265,79.78325a34.85825,34.85825,0,0,0,.50642,42.42429L57.41794,133.91146a53.77349,53.77349,0,0,1-1.06852-67.13581A54.55867,54.55867,0,0,1,131.901,55.33209Z" transform="translate(0 0)"/><path class="c" d="M69.546,145.3l31.88164-23.393V134.8192A32.80473,32.80473,0,0,0,129.26482,119.792a34.67574,34.67574,0,0,0-2.56456-42.90044l15.36756-11.30665A54.35363,54.35363,0,0,1,69.54567,145.3006Z" transform="translate(0 0)"/></svg>