<svg xmlns="http://www.w3.org/2000/svg" xmlns:xlink="http://www.w3.org/1999/xlink" viewBox="0 0 200 200"><defs><style>.a{fill:#fff;}.b{fill:url(#a);}.c{fill:#0078d4;}.d{fill:url(#b);}.e{fill:url(#c);}</style><linearGradient id="a" x1="-1330.01328" y1="-306.03716" x2="-1352.75546" y2="-373.22384" gradientTransform="matrix(1.5625, 0, 0, -1.5625, 2171.3125, -424.58805)" gradientUnits="userSpaceOnUse"><stop offset="0" stop-color="#114a8b"/><stop offset="1" stop-color="#0669bc"/></linearGradient><linearGradient id="b" x1="-1322.89153" y1="-337.35384" x2="-1328.15735" y2="-339.13456" gradientTransform="matrix(1.5625, 0, 0, -1.5625, 2171.3125, -424.58805)" gradientUnits="userSpaceOnUse"><stop offset="0" stop-opacity="0.3"/><stop offset="0.071" stop-opacity="0.2"/><stop offset="0.321" stop-opacity="0.1"/><stop offset="0.623" stop-opacity="0.05"/><stop offset="1" stop-opacity="0"/></linearGradient><linearGradient id="c" x1="-1325.59611" y1="-304.01504" x2="-1300.63067" y2="-370.52802" gradientTransform="matrix(1.5625, 0, 0, -1.5625, 2171.3125, -424.58805)" gradientUnits="userSpaceOnUse"><stop offset="0" stop-color="#3ccbf4"/><stop offset="1" stop-color="#2892df"/></linearGradient></defs><title>ms-azure</title><circle class="a" cx="100" cy="100" r="100"/><path class="b" d="M80.7009,45.54183h34.27249l-35.578,105.20629a5.46427,5.46427,0,0,1-5.17685,3.70975H47.5459a5.44361,5.44361,0,0,1-5.17025-7.18566L75.52277,49.25158a5.46421,5.46421,0,0,1,5.17813-3.71079Z" transform="translate(0 -0.00002)"/><path class="c" d="M130.50383,116.10714H76.1559a2.50944,2.50944,0,0,0-1.71768,4.3467l34.92271,32.53124a5.49608,5.49608,0,0,0,3.74606,1.47261h30.77365Z" transform="translate(0 -0.00002)"/><path class="d" d="M80.7009,45.54183a5.41927,5.41927,0,0,0-5.19,3.782l-33.09442,97.859a5.44359,5.44359,0,0,0,5.1439,7.275H74.92125a5.84483,5.84483,0,0,0,4.48842-3.80959l6.59965-19.4115,23.574,21.94451a5.5837,5.5837,0,0,0,3.50938,1.27686h30.6594l-13.44683-38.35072-39.19923.0092,23.99112-70.5748Z" transform="translate(0 -0.00002)"/><path class="e" d="M124.47541,49.24631a5.45517,5.45517,0,0,0-5.17025-3.70448H81.10893a5.45623,5.45623,0,0,1,5.1702,3.70448l33.14845,98.02458a5.45192,5.45192,0,0,1-5.17026,7.18831h38.19779a5.44493,5.44493,0,0,0,5.16887-7.18831Z" transform="translate(0 -0.00002)"/></svg>