<svg xmlns="http://www.w3.org/2000/svg" viewBox="0 0 200 200"><defs><style>.a{fill:#fff;}.b{fill:#ee4c2c;}</style></defs><title>pytorch</title><circle class="a" cx="100" cy="100" r="100"/><path class="b" d="M99.80857,37.5c0,5.92051.02227,11.53664-.0362,17.15191a2.62118,2.62118,0,0,1-.81053,1.57075c-3.85307,3.90515-7.74607,7.77086-11.62607,11.64951C82.21546,72.99069,77.07309,78.08767,71.983,83.23569a37.87713,37.87713,0,0,0-11.11534,24.06158,39.02637,39.02637,0,0,0,77.30354,10.0944,38.30866,38.30866,0,0,0-10.082-33.57672c-.20956-.23022-.40659-.47179-.578-.67134l9.24665-9.056a7.92365,7.92365,0,0,1,.65294.58889,51.17219,51.17219,0,0,1,13.90509,28.75063,51.77036,51.77036,0,0,1-94.93443,35.08767,51.88115,51.88115,0,0,1,6.8634-64.55233C75.10467,61.97478,87.08512,50.1064,99.01545,38.18864,99.19611,38.0081,99.4013,37.85205,99.80857,37.5Z"/><path class="b" d="M124.97437,64.58272a6.64883,6.64883,0,0,1-6.53016,6.76543l-.04919.00069a6.69865,6.69865,0,1,1-.291-13.39413q.08874-.00193.17752-.00151a6.59348,6.59348,0,0,1,6.69218,6.49333Q124.97476,64.51461,124.97437,64.58272Z"/></svg>