<svg xmlns="http://www.w3.org/2000/svg" viewBox="0 0 200 200"><defs><style>.a{fill:#fff;}.b{fill:#e87314;}</style></defs><title>spark</title><circle class="a" cx="100" cy="100" r="100"/><path class="b" d="M136.64288,47.28571A14.78,14.78,0,0,0,124.21422,40H74.92856A15.81414,15.81414,0,0,0,62.5,47.28571L37.21428,92.71429a18.30353,18.30353,0,0,0,0,15l25.28572,45A14.78009,14.78009,0,0,0,74.92866,160h50.1428a15.81415,15.81415,0,0,0,12.42866-7.28571l25.28559-45a18.30349,18.30349,0,0,0,0-15Z"/><path class="a" d="M74.5,121.42861c-4.2857-1.71436-8.57143-3.85715-12.42856-5.57143C53.92856,112.42861,51.35713,103.42852,60.78571,100c7.71429-2.57143,15-5.14285,22.7143-7.28571,1.28571-6.85717,2.57143-14.14293,3.85713-21C88.64285,61.85715,96.78571,58,101.92857,67.42857c3.42856,5.57143,6.42857,11.14285,9.85714,16.28572,7.71428-2.14286,15.85714-4.28572,23.57142-6.42858,8.14286-2.57143,11.57144,4.28572,6,10.28571C135.7857,94,130.21428,100.85715,124.64284,107.28567c3.42858,6.85714,6.85716,13.28571,10.28572,20.14286,3.42857,7.71428-3.42857,12.85714-11.14287,10.7143-5.14285-1.71436-10.28571-3-15.42856-4.7143l-1.71436-11.57143,16.28571,4.28572-9.85707-19.28568L128.5,88.42857l-22.28567,6-10.71431-18L91.64289,99.14285l-22.28575,7.28571,17.14293,6.85716Z"/></svg>