<svg xmlns="http://www.w3.org/2000/svg" viewBox="0 0 150 74.309"><defs><style>.a{fill:#f16a21}</style></defs><path class="a" d="M79.935.017h18.041a11.568 11.568 0 0 1 11.749 9.774 10.614 10.614 0 0 1 .148 2.006v19.697a11.61 11.61 0 0 1-11.426 11.791q-.198.003-.396 0H79.946c.308-1.253.594-2.43.891-3.609a20.594 20.594 0 0 0 .552-2.186c.096-.732.478-.955 1.125-1.061q7.185-1.529 14.338-3.1a3.322 3.322 0 0 0 3.028-3.59l-.014-.134V13.59a3.3 3.3 0 0 0-2.908-3.513l-14.72-3.183a1.061 1.061 0 0 1-.68-.51c-.562-2.133-1.071-4.192-1.623-6.367ZM69.938.059c-.52 2.122-1.062 4.107-1.54 6.145-.105.477-.413.541-.806.626l-14.72 3.247a3.375 3.375 0 0 0-2.886 3.46v16.376a3.332 3.332 0 0 0 2.929 3.417l14.645 3.184a.987.987 0 0 1 .892.827c.477 1.985.987 3.959 1.496 6.007H51.737a11.568 11.568 0 0 1-11.674-11.46V11.636A11.504 11.504 0 0 1 51.344.037c6.06-.084 12.11 0 18.158 0Z"/><path class="a" d="M81.58 20.902v1.518H68.356v-1.518ZM18 73.945h-2.495c-.117 0-.297-.223-.34-.372-.403-1.39-.795-2.78-1.156-4.181a.541.541 0 0 0-.595-.482l-.031.004H4.638a.552.552 0 0 0-.624.47l-.002.018c-.361 1.348-.743 2.675-1.115 4.023a1.853 1.853 0 0 1-.148.509H0c.106-.425.191-.807.297-1.178a98.592 98.592 0 0 1 5.625-16.418c.329-.71.7-1.39 1.061-2.122a.52.52 0 0 1 .552-.319h2.823a.754.754 0 0 1 .796.478 59.331 59.331 0 0 1 3.269 7.545 118.863 118.863 0 0 1 3.513 11.558 3.19 3.19 0 0 0 .063.467Zm-5.084-7.758v-.16a73.004 73.004 0 0 0-3.492-8.925.849.849 0 0 0-.51-.435c-.116 0-.35.266-.424.457q-1.433 3.46-2.812 6.92c-.276.678-.478 1.39-.722 2.122ZM31.51 73.945V53.96h2.631v5.38c.796-.106 1.518-.222 2.25-.297a9.911 9.911 0 0 1 3.45.16 3.959 3.959 0 0 1 3.183 3.969q.064 3.343 0 6.675a4.245 4.245 0 0 1-4.16 4.32 31.214 31.214 0 0 1-3.45 0c-1.06 0-2.122-.117-3.183-.17a2.309 2.309 0 0 0-.722-.053Zm2.684-11.865v9.126a12.268 12.268 0 0 0 4.479.266c1.305-.223 1.74-.68 1.75-1.985v-5.975c0-1.199-.445-1.666-1.623-1.825a13.574 13.574 0 0 0-4.606.393ZM59.718 73.945V53.95h2.6v5.392c.796-.107 1.517-.223 2.24-.298a8.852 8.852 0 0 1 4.074.361 3.65 3.65 0 0 1 2.547 3.386c.096 2.345.117 4.701 0 7.047a4.245 4.245 0 0 1-4.159 4.329h-.086a35.34 35.34 0 0 1-3.672-.084l-2.982-.138c-.148-.011-.34 0-.562 0Zm2.61-2.728a12.036 12.036 0 0 0 4.553.265c1.253-.201 1.688-.69 1.698-1.963v-5.858c0-1.38-.456-1.825-1.825-1.974a13.953 13.953 0 0 0-3.874.297c-.456.074-.573.255-.573.7v7.97ZM147.4 59.267v-5.306h2.6v19.91h-.106c-1.868.116-3.736.265-5.614.328a6.114 6.114 0 0 1-2.898-.573 3.598 3.598 0 0 1-2.26-3.035 69.062 69.062 0 0 1 0-7.843 3.874 3.874 0 0 1 3.63-3.703 13.233 13.233 0 0 1 3.884.053Zm0 11.982v-8.49c0-.796 0-.807-.785-.934a9.318 9.318 0 0 0-3.715-.064 1.348 1.348 0 0 0-1.223 1.462l.003.024v6.569a1.443 1.443 0 0 0 1.188 1.539 9.636 9.636 0 0 0 4.532-.106ZM53.934 65.263a14.368 14.368 0 0 0-.138-2.462c-.075-.541-.53-.806-1.062-.955a6.76 6.76 0 0 0-3.056-.074c-.955.159-1.91.382-2.93.594l-.636-2.568c1.061-.234 2.006-.499 3.003-.648a9.721 9.721 0 0 1 4.553.202 3.852 3.852 0 0 1 2.812 3.714V73.68a1.38 1.38 0 0 1 0 .233l-.074.053c-2.218.117-4.436.287-6.654.34a4.945 4.945 0 0 1-3.566-1.316 4.4 4.4 0 0 1 1.061-7.004 10.337 10.337 0 0 1 5.392-.807 6.294 6.294 0 0 1 1.295.085Zm0 4.373V68.5c0-.382-.149-.583-.541-.594a25.47 25.47 0 0 0-2.696-.075 7.95 7.95 0 0 0-2.123.489 1.358 1.358 0 0 0-.902 1.454 1.72 1.72 0 0 0 1.932 1.804c1.326 0 2.653-.18 3.99-.276.276 0 .371-.149.361-.414s-.053-.85-.053-1.274ZM84.7 73.828l-.138.095c-2.123.117-4.33.266-6.495.33a5.03 5.03 0 0 1-3.184-.903 4.34 4.34 0 0 1-1.719-4.308 3.948 3.948 0 0 1 2.643-3.3 10.868 10.868 0 0 1 5.03-.617l1.231.117a9.381 9.381 0 0 0-.17-2.621 1.358 1.358 0 0 0-1.061-.828 8.352 8.352 0 0 0-3.661.075c-.722.138-1.433.329-2.218.498l-.637-2.536a14.954 14.954 0 0 1 4.722-.828 11.084 11.084 0 0 1 2.781.329 3.746 3.746 0 0 1 2.844 3.619c.064 1.443 0 2.897 0 4.34v6.538Zm-2.664-5.837c-.329-.064-.626-.128-.934-.16a9.148 9.148 0 0 0-4.245.362 1.496 1.496 0 0 0-1.061 1.602 1.581 1.581 0 0 0 1.39 1.667 8.87 8.87 0 0 0 1.984.106 26.629 26.629 0 0 0 2.887-.308ZM104.525 54.927c-.213.838-.425 1.655-.627 2.472-.965-.223-1.878-.477-2.812-.626a14.253 14.253 0 0 0-5.763.138 2.123 2.123 0 0 0-1.896 2.327l.007.06v9.605a2.24 2.24 0 0 0 1.836 2.335 14.306 14.306 0 0 0 5.657.18c.955-.148 1.9-.403 2.919-.626l.647 2.558c-.775.191-1.507.425-2.26.563a18.572 18.572 0 0 1-7.6-.054 4.84 4.84 0 0 1-3.926-4.913c0-3.184.064-6.368 0-9.552a4.988 4.988 0 0 1 4.033-5.104 18.445 18.445 0 0 1 9.424.467l.202.074a.82.82 0 0 1 .159.096ZM112.134 66.622v-3.184a4.563 4.563 0 0 1 4.404-4.479 17.972 17.972 0 0 1 3.3.128 4.479 4.479 0 0 1 3.599 4.372v6.187a4.585 4.585 0 0 1-4.394 4.607 17.973 17.973 0 0 1-3.025-.075 4.521 4.521 0 0 1-3.884-4.457c-.01-1.04 0-2.07 0-3.1Zm2.643 0v2.993a1.985 1.985 0 0 0 1.95 2.017l.109-.001h1.836a1.963 1.963 0 0 0 2.122-2.048v-5.816a1.995 1.995 0 0 0-2.122-2.123h-1.847a2.006 2.006 0 0 0-2.123 2.123ZM136.734 73.86c-2.006.138-3.98.329-5.964.382a6.696 6.696 0 0 1-2.272-.404 3.948 3.948 0 0 1-2.77-3.375 8.757 8.757 0 0 1-.095-1.294v-9.827h2.643v10.167a1.708 1.708 0 0 0 1.687 1.995 10.91 10.91 0 0 0 4.086-.266V59.352h2.632ZM19.973 53.94h2.568v19.962h-2.568ZM107.04 53.908h2.568v19.994h-2.568ZM25.757 59.32h2.59v14.582h-2.59ZM27.062 57.474a1.73 1.73 0 0 1-1.792-1.665q-.002-.048-.001-.097a1.772 1.772 0 0 1 1.74-1.804h.032a1.794 1.794 0 0 1 1.794 1.794v.01a1.74 1.74 0 0 1-1.72 1.762Z"/></svg>