<svg xmlns="http://www.w3.org/2000/svg" viewBox="0 0 150 150"><defs><style>.a,.b{fill:#0080ff}.b{fill-rule:evenodd}</style></defs><path class="a" d="M30.661 98.045v-9.001a14.286 14.286 0 0 0 13.266-19.477 13.479 13.479 0 0 0-8.028-8.001A14.297 14.297 0 0 0 16.422 74.83H7.447a23.294 23.294 0 0 1 30.61-22.056 22.476 22.476 0 0 1 14.66 14.66 23.294 23.294 0 0 1-22.056 30.61Z"/><path class="b" d="M30.687 80.122v8.974h-8.975v-8.974h8.975zM21.712 89.096v6.87h-6.87v-6.87h6.87z"/><path class="b" d="M14.843 89.097H9.079v-5.765h5.764Z"/><path class="a" d="M76.759 54.391a12.981 12.981 0 0 0-7.594-2.13h-6.482v20.605h6.528a12.412 12.412 0 0 0 7.594-2.27 8.16 8.16 0 0 0 2.639-3.287 12.3 12.3 0 0 0 .926-4.861 12.068 12.068 0 0 0-.926-4.816 7.474 7.474 0 0 0-2.685-3.24Zm-10.28 1.343h2.038a10.499 10.499 0 0 1 5.556 1.343 5.818 5.818 0 0 1 2.361 5.37 6.2 6.2 0 0 1-2.36 5.603 9.995 9.995 0 0 1-5.51 1.343H66.48ZM84.861 51.984a2.314 2.314 0 0 0-1.62.648 2.128 2.128 0 0 0-.648 1.574 2.314 2.314 0 0 0 .648 1.62 2.235 2.235 0 0 0 1.62.649 2.398 2.398 0 0 0 1.62-.648 2.235 2.235 0 0 0 .65-1.621 2.128 2.128 0 0 0-.65-1.574 2.398 2.398 0 0 0-1.62-.648ZM83.009 58.327h3.658v14.539h-3.658zM99.956 59.53a5.548 5.548 0 0 0-3.658-1.574 6.534 6.534 0 0 0-5 2.084 7.274 7.274 0 0 0-1.992 5.232 7.36 7.36 0 0 0 1.945 5.186 6.736 6.736 0 0 0 5 2.037 5.628 5.628 0 0 0 3.612-1.157v.324a3.759 3.759 0 0 1-.972 2.778 3.566 3.566 0 0 1-2.64.972 4.604 4.604 0 0 1-4.028-2.408l-2.5 2.408.046.093a8.9 8.9 0 0 0 2.454 2.176 7.4 7.4 0 0 0 4.075 1.065 6.944 6.944 0 0 0 5.232-1.991 7.28 7.28 0 0 0 1.945-5.279V58.28h-3.612v1.25Zm-.973 8.613a3.132 3.132 0 0 1-2.5 1.065 3.216 3.216 0 0 1-2.5-1.065 4.08 4.08 0 0 1-.926-2.825 4.36 4.36 0 0 1 .926-2.87 3.07 3.07 0 0 1 2.5-1.065 3.216 3.216 0 0 1 2.5 1.065 4.228 4.228 0 0 1 .973 2.87 4.106 4.106 0 0 1-.973 2.825ZM106.669 58.327h3.658v14.539h-3.658zM108.521 51.984a2.314 2.314 0 0 0-1.62.648 2.128 2.128 0 0 0-.648 1.574 2.314 2.314 0 0 0 .648 1.62 2.235 2.235 0 0 0 1.62.649 2.398 2.398 0 0 0 1.621-.648 2.235 2.235 0 0 0 .648-1.621 2.128 2.128 0 0 0-.648-1.574 2.314 2.314 0 0 0-1.62-.648ZM118.337 54.391h-3.611v3.936h-2.084v3.334h2.084v6.019a5.821 5.821 0 0 0 1.111 4.028 5.334 5.334 0 0 0 3.936 1.158c.602 0 1.204 0 1.76-.047h.184v-3.334l-1.25.047a2.231 2.231 0 0 1-1.713-.463 3.167 3.167 0 0 1-.417-1.945v-5.51h3.427v-3.333h-3.427ZM138.895 52.215h3.658v20.651h-3.658zM134.311 59.438a6.914 6.914 0 0 0-4.537-1.435 7.561 7.561 0 0 0-3.38.787 5.99 5.99 0 0 0-2.5 2.315l.046.046 2.361 2.223a3.805 3.805 0 0 1 3.473-2.084 2.83 2.83 0 0 1 1.898.602 2.047 2.047 0 0 1 .741 1.574v.695a9.25 9.25 0 0 0-2.685-.417 7.18 7.18 0 0 0-4.399 1.25 4.327 4.327 0 0 0-1.667 3.658 4.059 4.059 0 0 0 1.435 3.288 5.403 5.403 0 0 0 3.52 1.203 6.16 6.16 0 0 0 3.889-1.528v1.204h3.611v-9.353a5.584 5.584 0 0 0-1.806-4.028Zm-6.482 7.871a3.19 3.19 0 0 1 1.76-.416 8.845 8.845 0 0 1 2.778.509v1.435a4.432 4.432 0 0 1-3.149 1.112 2.35 2.35 0 0 1-1.481-.417 1.317 1.317 0 0 1-.51-1.065 1.28 1.28 0 0 1 .602-1.158ZM95.35 92.847a9.936 9.936 0 0 1-1.852 1.713 3.512 3.512 0 0 1-1.899.51 3.247 3.247 0 0 1-2.639-1.205 4.545 4.545 0 0 1-1.065-3.055 4.462 4.462 0 0 1 1.065-3.056 3.388 3.388 0 0 1 2.64-1.204 4.892 4.892 0 0 1 3.472 1.99l2.408-2.314a7.357 7.357 0 0 0-13.29 4.584 7.512 7.512 0 0 0 2.13 5.417 7.065 7.065 0 0 0 5.187 2.176 7.382 7.382 0 0 0 6.25-3.241ZM110.398 85.531a5.083 5.083 0 0 0-2.084-1.713 7.004 7.004 0 0 0-3.01-.648 6.184 6.184 0 0 0-4.954 2.222 8.385 8.385 0 0 0-1.852 5.464 7.65 7.65 0 0 0 1.991 5.417 7.01 7.01 0 0 0 5.278 2.084 7.37 7.37 0 0 0 6.02-2.964l.092-.092-2.407-2.315c-.232.277-.556.555-.834.833a5.242 5.242 0 0 1-1.065.787 4.037 4.037 0 0 1-1.852.417 3.514 3.514 0 0 1-2.5-.88 3.381 3.381 0 0 1-1.065-2.222h9.677l.046-1.343a10.166 10.166 0 0 0-.37-2.686 7.86 7.86 0 0 0-1.111-2.36Zm-8.01 3.426a3.48 3.48 0 0 1 .972-1.713 2.582 2.582 0 0 1 1.898-.74 2.626 2.626 0 0 1 2.037.74 2.768 2.768 0 0 1 .741 1.713ZM124.427 84.605a6.914 6.914 0 0 0-4.538-1.435 7.561 7.561 0 0 0-3.38.787 5.99 5.99 0 0 0-2.5 2.315l.046.046 2.362 2.223a3.805 3.805 0 0 1 3.472-2.084 2.83 2.83 0 0 1 1.899.602 2.047 2.047 0 0 1 .74 1.574v.695a9.25 9.25 0 0 0-2.685-.417 7.18 7.18 0 0 0-4.399 1.25 4.327 4.327 0 0 0-1.666 3.658 4.059 4.059 0 0 0 1.435 3.288 5.403 5.403 0 0 0 3.519 1.203 6.16 6.16 0 0 0 3.89-1.528v1.204h3.61v-9.353a5.584 5.584 0 0 0-1.805-4.028Zm-6.482 7.871a3.19 3.19 0 0 1 1.76-.416 8.845 8.845 0 0 1 2.777.509v1.435a4.432 4.432 0 0 1-3.148 1.112 2.35 2.35 0 0 1-1.482-.417 1.317 1.317 0 0 1-.51-1.065 1.28 1.28 0 0 1 .603-1.158ZM140.17 84.883a5.383 5.383 0 0 0-4.26-1.713 4.957 4.957 0 0 0-3.52 1.25v-.88h-3.564v14.493h3.658v-8.01a3.94 3.94 0 0 1 .787-2.593 2.666 2.666 0 0 1 2.176-.926 2.298 2.298 0 0 1 1.898.833 3.493 3.493 0 0 1 .695 2.269v8.427h3.658v-8.427a6.817 6.817 0 0 0-1.528-4.723ZM71.69 98.357a10.65 10.65 0 1 1 10.649-10.65 10.65 10.65 0 0 1-10.65 10.65Zm0-17.549a6.899 6.899 0 1 0 6.898 6.9 6.916 6.916 0 0 0-6.899-6.9Z"/></svg>