<svg xmlns="http://www.w3.org/2000/svg" viewBox="0 0 150 150"><defs><style>.a{fill:#ed1944}</style></defs><path class="a" d="M87.651 38.816H57.413a3.46 3.46 0 0 0-3.45 3.451V50.4h8.387v-1.33a1.863 1.863 0 0 1 1.86-1.865h16.638a1.863 1.863 0 0 1 1.866 1.86v1.335h8.388v-8.132a3.46 3.46 0 0 0-3.45-3.45ZM82.711 64.913a1.866 1.866 0 0 1-1.866 1.866H64.216a1.866 1.866 0 0 1-1.866-1.866v-1.33h-8.398v8.133a3.46 3.46 0 0 0 3.451 3.451h30.239a3.46 3.46 0 0 0 3.45-3.45v-8.133h-8.381ZM53.959 52.799h8.388v8.388h-8.388zM82.714 52.799h8.388v8.388h-8.388z"/><path d="M147.775 101.67Zm0 3.904a1.678 1.678 0 1 1 1.678-1.678 1.68 1.68 0 0 1-1.678 1.678Zm.835-2.082v-.012a.69.69 0 0 0-.184-.505.81.81 0 0 0-.592-.208h-.82v2.18h.452v-.716h.284l.402.716h.517l-.464-.81a.658.658 0 0 0 .405-.645Zm-.455.013a.314.314 0 0 1-.355.327h-.334v-.657h.324c.231 0 .365.11.365.327ZM8.245 88.015a8.466 8.466 0 0 0-8.238 8.688q.006.216.023.432v.301a8.357 8.357 0 0 0 7.629 9.026q.259.022.518.027a8.436 8.436 0 0 0 8.238-8.63q-.005-.228-.023-.456v-.302a8.386 8.386 0 0 0-7.654-9.06q-.246-.02-.493-.026Zm4.358 9.355c0 3.319-1.71 5.8-4.358 5.8-2.582 0-4.426-2.514-4.426-5.834v-.201c0-3.32 1.71-5.767 4.359-5.767 2.581 0 4.426 2.48 4.426 5.8Zm14.919-9.355a6.007 6.007 0 0 0-5.197 3.185v-2.85h-3.79v22.834h3.79v-7.745a6.055 6.055 0 0 0 5.197 3.017c3.587 0 6.907-3.017 6.907-8.986v-.469c0-6.002-3.353-8.986-6.907-8.986Zm3.084 9.388c0 3.555-1.81 5.7-4.124 5.7-2.28 0-4.224-2.213-4.224-5.7v-.335c0-3.487 1.944-5.7 4.224-5.7s4.124 2.18 4.124 5.733Zm13.467-9.388a8.199 8.199 0 0 0-7.616 8.743q.014.206.039.41v.268a8.244 8.244 0 0 0 14.35 6.304l-1.978-2.347a5.655 5.655 0 0 1-4.09 1.878 4.567 4.567 0 0 1-4.494-4.594h11.132c.034-.536.034-1.073.034-1.307 0-5.331-2.548-9.355-7.376-9.355Zm-3.822 8.047c.268-3.018 1.744-4.862 3.822-4.862 2.213 0 3.487 2.045 3.689 4.862Zm27.79-1.844v11.903h-3.79V95.29c0-2.482-1.173-3.856-3.184-3.856-1.979 0-3.353 1.475-3.353 3.923v10.762h-3.79V88.35h3.79v2.616a5.567 5.567 0 0 1 4.861-2.951c3.42 0 5.466 2.414 5.466 6.203Zm15.272 6.806v.034a5.422 5.422 0 0 1-6.069 5.398 10.492 10.492 0 0 1-6.605-2.481l1.777-2.716a8.101 8.101 0 0 0 4.895 2.079c1.576 0 2.481-.839 2.481-1.945v-.034c0-1.274-1.374-1.844-3.487-2.75-2.649-1.139-4.862-2.346-4.862-5.263v-.067a5.322 5.322 0 0 1 5.42-5.224q.224.004.449.027a10.149 10.149 0 0 1 5.767 1.911l-1.61 2.783a7.928 7.928 0 0 0-4.224-1.575c-1.409 0-2.247.77-2.247 1.743v.067c0 1.174 1.408 1.777 3.487 2.716 2.75 1.24 4.829 2.514 4.829 5.297ZM91.09 88.35h3.99v3.252h-3.99v9.456A1.699 1.699 0 0 0 93 103.003a4.298 4.298 0 0 0 2.045-.503v3.118a6.442 6.442 0 0 1-3.151.771 4.05 4.05 0 0 1-4.594-4.56V91.603h-1.322l-.623-3.253H87.3v-4.795h3.789Zm13.243-.201a12.638 12.638 0 0 0-5.868 1.408l1.073 3.018a10.11 10.11 0 0 1 4.292-1.074 3.362 3.362 0 0 1 3.823 3.621v.739a12.083 12.083 0 0 0-4.091-.704c-3.755 0-6.304 1.877-6.304 5.7v.167a5.19 5.19 0 0 0 4.935 5.432q.248.012.497 0a5.65 5.65 0 0 0 4.929-2.515v2.18h3.722V95.088a6.275 6.275 0 0 0-7.008-6.94Zm3.353 12.003a3.555 3.555 0 0 1-3.643 3.465q-.107-.002-.213-.011a2.71 2.71 0 0 1-2.883-2.817v-.067c0-1.878 1.274-2.984 3.453-2.984a8.55 8.55 0 0 1 3.286.637Zm17.715 1.14 2.045 2.515a7.434 7.434 0 0 1-5.9 2.682 8.223 8.223 0 0 1-8.017-8.424q.007-.298.036-.595v-.335a8.392 8.392 0 0 1 7.629-9.092q.242-.021.486-.028a7.506 7.506 0 0 1 5.7 2.414l-2.113 2.783a4.785 4.785 0 0 0-3.587-1.777c-2.482 0-4.292 2.38-4.292 5.733v.168c0 3.454 1.81 5.767 4.392 5.767a4.95 4.95 0 0 0 3.622-1.81Zm13.642-4.395 5.3 9.224h-4.392l-3.568-6.365Zm5.132-8.547-10.561 12.64v5.13h-3.79V81.912h3.79v14.25l6.068-7.812Z" style="fill:#4e4540"/></svg>