<svg xmlns="http://www.w3.org/2000/svg" viewBox="0 0 150 150"><defs><style>.a{fill:#55565a}</style></defs><path class="a" d="M87.79 63.805a1.586 1.586 0 0 0-1.547 1.282L80.716 81.27 75.28 65.126a1.713 1.713 0 0 0-1.673-1.32h-.17a1.657 1.657 0 0 0-1.586 1.32l-5.48 16.145-5.44-16.1a1.701 1.701 0 0 0-1.635-1.365 1.606 1.606 0 0 0-1.629 1.579 3.088 3.088 0 0 0 .21.897l6.567 18.686a1.925 1.925 0 0 0 1.797 1.492h.087a1.812 1.812 0 0 0 1.756-1.492l5.442-15.877 5.393 15.877a1.817 1.817 0 0 0 1.76 1.491h.126a1.923 1.923 0 0 0 1.759-1.491l6.61-18.728a3.21 3.21 0 0 0 .208-.897 1.56 1.56 0 0 0-1.582-1.538ZM48.574 63.334a9.832 9.832 0 0 0-6.85 2.978 7.512 7.512 0 0 0-6.607-2.975 10.79 10.79 0 0 0-6.473 2.975 7.688 7.688 0 0 0-5.77-2.975 7.093 7.093 0 0 0-6.97 4.837L11.525 78.72 5.91 65.19a3.02 3.02 0 0 0-3.95-1.623q-.07.03-.14.063a3.082 3.082 0 0 0-1.547 4.075l.05.106 6.856 15.226c1.079 2.388 2.215 3.639 4.347 3.639 2.28 0 3.272-1.363 4.35-3.639 0 0 5.98-13.305 6.04-13.443a.868.868 0 0 1 .862-.568.964.964 0 0 1 .947.981v13.018a3.231 3.231 0 1 0 6.408 0V72.378a3.237 3.237 0 0 1 3.402-3.385 3.157 3.157 0 0 1 3.269 3.385v10.647a3.228 3.228 0 1 0 6.413 0V72.378a3.233 3.233 0 0 1 3.399-3.385 3.16 3.16 0 0 1 3.27 3.385v10.647a3.232 3.232 0 1 0 6.41 0V70.908a7.507 7.507 0 0 0-7.436-7.576q-.143-.002-.285.002ZM99.217 63.809a14.087 14.087 0 0 0-6.489 1.256 1.361 1.361 0 0 0-.879 1.37 1.446 1.446 0 0 0 1.423 1.41 1.581 1.581 0 0 0 .581-.13 10.761 10.761 0 0 1 5.03-1.007 5.632 5.632 0 0 1 6.437 6.02v.771a22.466 22.466 0 0 0-6.65-.942c-5.47 0-9.231 2.478-9.231 7.131v.088a7.326 7.326 0 0 0 7.729 6.9q.17-.01.34-.028a9.404 9.404 0 0 0 7.812-3.801v2.107a1.494 1.494 0 0 0 1.45 1.537h.087a1.546 1.546 0 0 0 1.552-1.54l-.001-.081V72.688a8.822 8.822 0 0 0-2.218-6.447 9.339 9.339 0 0 0-6.973-2.432Zm6.142 14.258a6.575 6.575 0 0 1-7.116 5.985l-.112-.01c-2.927 0-5.434-1.623-5.434-4.397v-.086c0-2.772 2.26-4.569 6.31-4.569a22.113 22.113 0 0 1 6.352.943ZM134.538 63.748a10.673 10.673 0 0 0-10.2 11.127q.006.136.016.272v.088a10.738 10.738 0 0 0 10.053 11.382q.27.017.542.02a10.624 10.624 0 0 0 8.006-3.308 1.392 1.392 0 0 0-.9-2.456 1.368 1.368 0 0 0-.905.379 8.543 8.543 0 0 1-6.117 2.543 7.511 7.511 0 0 1-7.472-7.414h15.353a1.501 1.501 0 0 0 1.48-1.522v-.007a10.195 10.195 0 0 0-9.239-11.068q-.308-.027-.617-.036Zm-6.977 10.215a7.434 7.434 0 0 1 6.894-7.458c4.227 0 6.448 3.472 6.777 7.458ZM147.325 63.748a2.716 2.716 0 0 0-2.67 2.744v.019a2.673 2.673 0 0 0 5.345.1v-.131a2.695 2.695 0 0 0-2.659-2.732Zm2.161 2.744a2.164 2.164 0 1 1-4.325.166q-.003-.076 0-.152v-.014a2.164 2.164 0 0 1 4.325-.16q.003.076 0 .152Z"/><path class="a" d="M147.483 65.12h-.893a.287.287 0 0 0-.287.287v2.09a.286.286 0 0 0 .282.29h.005a.284.284 0 0 0 .284-.283v-.583h.455l.554.717a.352.352 0 0 0 .28.15.268.268 0 0 0 .27-.267v-.002a.347.347 0 0 0-.092-.222l-.393-.492a.81.81 0 0 0 .516-.804v-.009a.829.829 0 0 0-.226-.601 1 1 0 0 0-.755-.27Zm.4.911c0 .225-.154.374-.431.374h-.578v-.761h.567c.277 0 .441.131.441.378ZM123 63.806a8.816 8.816 0 0 0-7.46 5.42v-3.792a1.628 1.628 0 0 0-1.583-1.67q-.026-.002-.053-.001a1.646 1.646 0 0 0-1.59 1.671V84.76a1.614 1.614 0 0 0 3.227.108q.002-.054 0-.108v-7.506a8.968 8.968 0 0 1 7.627-10.11 1.625 1.625 0 0 0 1.429-1.67 1.57 1.57 0 0 0-1.469-1.665q-.064-.004-.128-.002Z"/></svg>